; NON-PLATED HOLES START AT T1
; THROUGH (PLATED) HOLES START AT T100
M48
INCH
T100C0.044111
T101C0.044139
T102C0.039370
T103C0.015748
T104C0.040000
%
T100
X000929Y022262
X001929Y008262
X000929Y015262
X000929Y008262
X001929Y005262
X000929Y005262
X001929Y017262
X000929Y017262
X001929Y021262
X000929Y021262
X001929Y011262
X001929Y004262
X000929Y011262
X000929Y004262
X001929Y016262
X001929Y009262
X000929Y016262
X001929Y020262
X000929Y009262
X001929Y013262
X000929Y020262
X001929Y006262
X000929Y013262
X000929Y006262
X001929Y010262
X001929Y003262
X000929Y010262
X000929Y003262
X001929Y018262
X000929Y018262
X001929Y022262
X001929Y015262
T101
X001929Y007262
X000929Y007262
X001929Y014262
X000929Y014262
X001929Y019262
X000929Y019262
X001929Y012262
X000929Y012262
T102
X005784Y014617
X006784Y022617
X006784Y014617
X018818Y015273
X005784Y019617
X019818Y015273
X006784Y019617
X005784Y020617
X005784Y012617
X006784Y020617
X006784Y012617
X005784Y017617
X006784Y017617
X018818Y018273
X019818Y018273
X005784Y010617
X006784Y010617
X005784Y015617
X006784Y015617
X018818Y016273
X019818Y016273
X005784Y021617
X005784Y013617
X006784Y021617
X006784Y013617
X018818Y014273
X005784Y018617
X019818Y014273
X006784Y018617
X018818Y019273
X019818Y019273
X005784Y011617
X006784Y011617
X005784Y016617
X006784Y016617
X018818Y017273
X019818Y017273
X005784Y022617
T103
X001839Y011272
X010558Y014754
X007759Y022632
X004559Y022152
X011280Y009352
X004239Y013672
X010480Y009352
X004879Y017352
X021040Y019432
X008851Y006693
X004879Y018152
X003119Y020872
X013373Y014680
X007662Y007130
X015791Y016343
X004239Y014952
T104
X019118Y006612
X019118Y011112
X019118Y005234
X019118Y007990
X019118Y009734
X019118Y012490
T00
M30
