G04 MADE WITH FRITZING*
G04 WWW.FRITZING.ORG*
G04 DOUBLE SIDED*
G04 HOLES PLATED*
G04 CONTOUR ON CENTER OF CONTOUR VECTOR*
%ASAXBY*%
%FSLAX23Y23*%
%MOIN*%
%OFA0B0*%
%SFA1.0B1.0*%
%ADD10C,0.075000*%
%ADD11C,0.039370*%
%ADD12C,0.071889*%
%ADD13C,0.071917*%
%ADD14C,0.059370*%
%ADD15C,0.080000*%
%ADD16R,0.080000X0.080000*%
%ADD17C,0.016000*%
%ADD18C,0.024000*%
%LNCOPPER1*%
G90*
G70*
G54D10*
X283Y1479D03*
X1783Y1236D03*
X308Y1137D03*
X1554Y1053D03*
X294Y960D03*
X1693Y977D03*
X446Y668D03*
X953Y2453D03*
G54D11*
X312Y2087D03*
X488Y1815D03*
X488Y1735D03*
X424Y1367D03*
X766Y713D03*
X885Y669D03*
X424Y1495D03*
X184Y1127D03*
X1048Y935D03*
X1579Y1634D03*
X1128Y935D03*
X776Y2263D03*
X2104Y1943D03*
X456Y2215D03*
X1056Y1475D03*
X1337Y1468D03*
G54D12*
X193Y326D03*
X193Y426D03*
X193Y526D03*
X193Y626D03*
G54D13*
X193Y726D03*
G54D12*
X193Y826D03*
X193Y926D03*
X193Y1026D03*
X193Y1126D03*
G54D13*
X193Y1226D03*
G54D12*
X193Y1326D03*
G54D13*
X193Y1426D03*
G54D12*
X193Y1526D03*
X193Y1626D03*
X193Y1726D03*
X193Y1826D03*
G54D13*
X193Y1926D03*
G54D12*
X193Y2026D03*
X193Y2126D03*
X193Y2226D03*
X93Y2226D03*
X93Y2126D03*
X93Y2026D03*
G54D13*
X93Y1926D03*
G54D12*
X93Y1826D03*
X93Y1726D03*
X93Y1626D03*
X93Y1526D03*
G54D13*
X93Y1426D03*
G54D12*
X93Y1326D03*
G54D13*
X93Y1226D03*
G54D12*
X93Y1126D03*
X93Y1026D03*
X93Y926D03*
X93Y826D03*
G54D13*
X93Y726D03*
G54D12*
X93Y626D03*
X93Y526D03*
X93Y426D03*
X93Y326D03*
G54D14*
X1982Y1427D03*
X1982Y1527D03*
X1982Y1627D03*
X1982Y1727D03*
X1982Y1827D03*
X1982Y1927D03*
X1982Y1427D03*
X1982Y1527D03*
X1982Y1627D03*
X1982Y1727D03*
X1982Y1827D03*
X1982Y1927D03*
X1882Y1927D03*
X1882Y1827D03*
X1882Y1727D03*
X1882Y1627D03*
X1882Y1527D03*
X1882Y1427D03*
X578Y2262D03*
X578Y2162D03*
X578Y2062D03*
X578Y1962D03*
X578Y1862D03*
X578Y1762D03*
X578Y1662D03*
X578Y1562D03*
X578Y1462D03*
X578Y1362D03*
X578Y1262D03*
X578Y1162D03*
X578Y1062D03*
X578Y2262D03*
X578Y2162D03*
X578Y2062D03*
X578Y1962D03*
X578Y1862D03*
X578Y1762D03*
X578Y1662D03*
X578Y1562D03*
X578Y1462D03*
X578Y1362D03*
X578Y1262D03*
X578Y1162D03*
X578Y1062D03*
X678Y1062D03*
X678Y1162D03*
X678Y1262D03*
X678Y1362D03*
X678Y1462D03*
X678Y1562D03*
X678Y1662D03*
X678Y1762D03*
X678Y1862D03*
X678Y1962D03*
X678Y2062D03*
X678Y2162D03*
X678Y2262D03*
G54D15*
X1912Y799D03*
X1912Y661D03*
X1912Y523D03*
X1912Y1249D03*
X1912Y1111D03*
X1912Y973D03*
G54D16*
X1912Y799D03*
X1912Y1249D03*
G54D17*
X360Y1598D02*
X356Y1438D01*
D02*
X260Y1620D02*
X360Y1598D01*
D02*
X356Y1438D02*
X632Y1415D01*
D02*
X248Y2279D02*
X260Y1620D01*
D02*
X40Y2279D02*
X248Y2279D01*
D02*
X40Y1383D02*
X40Y2279D01*
D02*
X74Y1346D02*
X40Y1383D01*
D02*
X632Y1287D02*
X656Y1274D01*
D02*
X632Y1415D02*
X632Y1287D01*
D02*
X213Y545D02*
X440Y759D01*
D02*
X319Y2076D02*
X481Y1827D01*
D02*
X1896Y759D02*
X1902Y775D01*
D02*
X440Y759D02*
X1896Y759D01*
D02*
X1832Y1575D02*
X1912Y1575D01*
D02*
X488Y1623D02*
X1832Y1575D01*
D02*
X488Y1722D02*
X488Y1623D01*
D02*
X1912Y1575D02*
X1962Y1612D01*
D02*
X520Y1351D02*
X520Y1111D01*
D02*
X437Y1365D02*
X520Y1351D01*
D02*
X712Y1111D02*
X1928Y1495D01*
D02*
X520Y1111D02*
X712Y1111D01*
D02*
X220Y1324D02*
X488Y1303D01*
D02*
X1928Y1495D02*
X1960Y1514D01*
D02*
X728Y1015D02*
X2008Y1375D01*
D02*
X520Y1015D02*
X728Y1015D01*
D02*
X520Y1063D02*
X520Y1015D01*
D02*
X488Y1063D02*
X520Y1063D01*
D02*
X488Y1303D02*
X488Y1063D01*
D02*
X2040Y1687D02*
X2003Y1713D01*
D02*
X2040Y1399D02*
X2040Y1687D01*
D02*
X2008Y1375D02*
X2040Y1399D01*
D02*
X456Y1015D02*
X488Y1015D01*
D02*
X456Y1223D02*
X456Y1015D01*
D02*
X221Y1226D02*
X456Y1223D01*
D02*
X760Y983D02*
X1976Y1191D01*
D02*
X488Y983D02*
X760Y983D01*
D02*
X488Y1015D02*
X488Y983D01*
D02*
X2072Y1751D02*
X2001Y1811D01*
D02*
X2072Y1367D02*
X2072Y1751D01*
D02*
X1976Y1335D02*
X2072Y1367D01*
D02*
X1976Y1191D02*
X1976Y1335D01*
D02*
X74Y1006D02*
X40Y967D01*
D02*
X218Y439D02*
X754Y707D01*
D02*
X232Y263D02*
X874Y662D01*
D02*
X40Y263D02*
X232Y263D01*
D02*
X40Y967D02*
X40Y263D01*
D02*
X1897Y544D02*
X1848Y615D01*
D02*
X1976Y919D02*
X1931Y957D01*
D02*
X1976Y727D02*
X1976Y919D01*
D02*
X1848Y727D02*
X1976Y727D01*
D02*
X1848Y615D02*
X1848Y727D01*
D02*
X554Y1467D02*
X437Y1492D01*
D02*
X456Y951D02*
X1035Y936D01*
D02*
X195Y1120D02*
X456Y951D01*
D02*
X165Y1129D02*
X184Y1127D01*
D02*
X1352Y807D02*
X1672Y1047D01*
D02*
X408Y807D02*
X1352Y807D01*
D02*
X214Y644D02*
X408Y807D01*
D02*
X1944Y1047D02*
X2104Y1335D01*
D02*
X1672Y1047D02*
X1944Y1047D01*
D02*
X1832Y1863D02*
X1832Y1623D01*
D02*
X1848Y1879D02*
X1832Y1863D01*
D02*
X2104Y1879D02*
X1848Y1879D01*
D02*
X2104Y1335D02*
X2104Y1879D01*
D02*
X1832Y1623D02*
X1593Y1634D01*
D02*
X1096Y887D02*
X1121Y924D01*
D02*
X220Y828D02*
X1096Y887D01*
D02*
X728Y2263D02*
X728Y1815D01*
D02*
X763Y2263D02*
X728Y2263D01*
D02*
X600Y1815D02*
X588Y1785D01*
D02*
X728Y1815D02*
X600Y1815D01*
D02*
X1324Y1468D02*
X1069Y1475D01*
G54D18*
D02*
X856Y2053D02*
X882Y2416D01*
D02*
X882Y2416D02*
X508Y2427D01*
D02*
X508Y2427D02*
X460Y2234D01*
D02*
X709Y2060D02*
X856Y2053D01*
D02*
X1982Y1719D02*
X1982Y1727D01*
D02*
X1960Y1835D02*
X1982Y1827D01*
D02*
X1985Y1525D02*
X1982Y1527D01*
D02*
X1912Y963D02*
X1912Y973D01*
D02*
X1904Y1233D02*
X1912Y1249D01*
D02*
X1876Y1838D02*
X1882Y1827D01*
G36*
X132Y2205D02*
X132Y2203D01*
X130Y2203D01*
X130Y2199D01*
X128Y2199D01*
X128Y2197D01*
X126Y2197D01*
X126Y2195D01*
X124Y2195D01*
X124Y2193D01*
X122Y2193D01*
X122Y2191D01*
X120Y2191D01*
X120Y2189D01*
X116Y2189D01*
X116Y2187D01*
X114Y2187D01*
X114Y2165D01*
X116Y2165D01*
X116Y2163D01*
X120Y2163D01*
X120Y2161D01*
X122Y2161D01*
X122Y2159D01*
X124Y2159D01*
X124Y2157D01*
X126Y2157D01*
X126Y2155D01*
X128Y2155D01*
X128Y2153D01*
X130Y2153D01*
X130Y2149D01*
X132Y2149D01*
X132Y2147D01*
X154Y2147D01*
X154Y2149D01*
X156Y2149D01*
X156Y2153D01*
X158Y2153D01*
X158Y2155D01*
X160Y2155D01*
X160Y2157D01*
X162Y2157D01*
X162Y2159D01*
X164Y2159D01*
X164Y2161D01*
X166Y2161D01*
X166Y2163D01*
X170Y2163D01*
X170Y2165D01*
X172Y2165D01*
X172Y2187D01*
X170Y2187D01*
X170Y2189D01*
X166Y2189D01*
X166Y2191D01*
X164Y2191D01*
X164Y2193D01*
X162Y2193D01*
X162Y2195D01*
X160Y2195D01*
X160Y2197D01*
X158Y2197D01*
X158Y2199D01*
X156Y2199D01*
X156Y2203D01*
X154Y2203D01*
X154Y2205D01*
X132Y2205D01*
G37*
D02*
G36*
X132Y2105D02*
X132Y2103D01*
X130Y2103D01*
X130Y2099D01*
X128Y2099D01*
X128Y2097D01*
X126Y2097D01*
X126Y2095D01*
X124Y2095D01*
X124Y2093D01*
X122Y2093D01*
X122Y2091D01*
X120Y2091D01*
X120Y2089D01*
X116Y2089D01*
X116Y2087D01*
X114Y2087D01*
X114Y2065D01*
X116Y2065D01*
X116Y2063D01*
X120Y2063D01*
X120Y2061D01*
X122Y2061D01*
X122Y2059D01*
X124Y2059D01*
X124Y2057D01*
X126Y2057D01*
X126Y2055D01*
X128Y2055D01*
X128Y2053D01*
X130Y2053D01*
X130Y2049D01*
X132Y2049D01*
X132Y2047D01*
X154Y2047D01*
X154Y2049D01*
X156Y2049D01*
X156Y2053D01*
X158Y2053D01*
X158Y2055D01*
X160Y2055D01*
X160Y2057D01*
X162Y2057D01*
X162Y2059D01*
X164Y2059D01*
X164Y2061D01*
X166Y2061D01*
X166Y2063D01*
X170Y2063D01*
X170Y2065D01*
X172Y2065D01*
X172Y2087D01*
X170Y2087D01*
X170Y2089D01*
X166Y2089D01*
X166Y2091D01*
X164Y2091D01*
X164Y2093D01*
X162Y2093D01*
X162Y2095D01*
X160Y2095D01*
X160Y2097D01*
X158Y2097D01*
X158Y2099D01*
X156Y2099D01*
X156Y2103D01*
X154Y2103D01*
X154Y2105D01*
X132Y2105D01*
G37*
D02*
G36*
X132Y2005D02*
X132Y2003D01*
X130Y2003D01*
X130Y1999D01*
X128Y1999D01*
X128Y1997D01*
X126Y1997D01*
X126Y1995D01*
X124Y1995D01*
X124Y1993D01*
X122Y1993D01*
X122Y1991D01*
X120Y1991D01*
X120Y1989D01*
X116Y1989D01*
X116Y1987D01*
X114Y1987D01*
X114Y1965D01*
X116Y1965D01*
X116Y1963D01*
X120Y1963D01*
X120Y1961D01*
X122Y1961D01*
X122Y1959D01*
X124Y1959D01*
X124Y1957D01*
X126Y1957D01*
X126Y1955D01*
X128Y1955D01*
X128Y1953D01*
X130Y1953D01*
X130Y1949D01*
X132Y1949D01*
X132Y1947D01*
X154Y1947D01*
X154Y1949D01*
X156Y1949D01*
X156Y1953D01*
X158Y1953D01*
X158Y1955D01*
X160Y1955D01*
X160Y1957D01*
X162Y1957D01*
X162Y1959D01*
X164Y1959D01*
X164Y1961D01*
X166Y1961D01*
X166Y1963D01*
X170Y1963D01*
X170Y1965D01*
X172Y1965D01*
X172Y1987D01*
X170Y1987D01*
X170Y1989D01*
X166Y1989D01*
X166Y1991D01*
X164Y1991D01*
X164Y1993D01*
X162Y1993D01*
X162Y1995D01*
X160Y1995D01*
X160Y1997D01*
X158Y1997D01*
X158Y1999D01*
X156Y1999D01*
X156Y2003D01*
X154Y2003D01*
X154Y2005D01*
X132Y2005D01*
G37*
D02*
G36*
X132Y1905D02*
X132Y1903D01*
X130Y1903D01*
X130Y1899D01*
X128Y1899D01*
X128Y1897D01*
X126Y1897D01*
X126Y1895D01*
X124Y1895D01*
X124Y1893D01*
X122Y1893D01*
X122Y1891D01*
X120Y1891D01*
X120Y1889D01*
X116Y1889D01*
X116Y1887D01*
X114Y1887D01*
X114Y1865D01*
X116Y1865D01*
X116Y1863D01*
X120Y1863D01*
X120Y1861D01*
X122Y1861D01*
X122Y1859D01*
X124Y1859D01*
X124Y1857D01*
X126Y1857D01*
X126Y1855D01*
X128Y1855D01*
X128Y1853D01*
X130Y1853D01*
X130Y1849D01*
X132Y1849D01*
X132Y1847D01*
X154Y1847D01*
X154Y1849D01*
X156Y1849D01*
X156Y1853D01*
X158Y1853D01*
X158Y1855D01*
X160Y1855D01*
X160Y1857D01*
X162Y1857D01*
X162Y1859D01*
X164Y1859D01*
X164Y1861D01*
X166Y1861D01*
X166Y1863D01*
X170Y1863D01*
X170Y1865D01*
X172Y1865D01*
X172Y1887D01*
X170Y1887D01*
X170Y1889D01*
X166Y1889D01*
X166Y1891D01*
X164Y1891D01*
X164Y1893D01*
X162Y1893D01*
X162Y1895D01*
X160Y1895D01*
X160Y1897D01*
X158Y1897D01*
X158Y1899D01*
X156Y1899D01*
X156Y1903D01*
X154Y1903D01*
X154Y1905D01*
X132Y1905D01*
G37*
D02*
G36*
X2018Y1861D02*
X2018Y1839D01*
X2020Y1839D01*
X2020Y1833D01*
X2022Y1833D01*
X2022Y1815D01*
X2026Y1815D01*
X2026Y1813D01*
X2028Y1813D01*
X2028Y1811D01*
X2030Y1811D01*
X2030Y1809D01*
X2032Y1809D01*
X2032Y1807D01*
X2034Y1807D01*
X2034Y1805D01*
X2038Y1805D01*
X2038Y1803D01*
X2040Y1803D01*
X2040Y1801D01*
X2042Y1801D01*
X2042Y1799D01*
X2044Y1799D01*
X2044Y1797D01*
X2046Y1797D01*
X2046Y1795D01*
X2048Y1795D01*
X2048Y1793D01*
X2052Y1793D01*
X2052Y1791D01*
X2054Y1791D01*
X2054Y1789D01*
X2056Y1789D01*
X2056Y1787D01*
X2058Y1787D01*
X2058Y1785D01*
X2060Y1785D01*
X2060Y1783D01*
X2064Y1783D01*
X2064Y1781D01*
X2066Y1781D01*
X2066Y1779D01*
X2086Y1779D01*
X2086Y1861D01*
X2018Y1861D01*
G37*
D02*
G36*
X132Y1805D02*
X132Y1803D01*
X130Y1803D01*
X130Y1799D01*
X128Y1799D01*
X128Y1797D01*
X126Y1797D01*
X126Y1795D01*
X124Y1795D01*
X124Y1793D01*
X122Y1793D01*
X122Y1791D01*
X120Y1791D01*
X120Y1789D01*
X116Y1789D01*
X116Y1787D01*
X114Y1787D01*
X114Y1765D01*
X116Y1765D01*
X116Y1763D01*
X120Y1763D01*
X120Y1761D01*
X122Y1761D01*
X122Y1759D01*
X124Y1759D01*
X124Y1757D01*
X126Y1757D01*
X126Y1755D01*
X128Y1755D01*
X128Y1753D01*
X130Y1753D01*
X130Y1749D01*
X132Y1749D01*
X132Y1747D01*
X154Y1747D01*
X154Y1749D01*
X156Y1749D01*
X156Y1753D01*
X158Y1753D01*
X158Y1755D01*
X160Y1755D01*
X160Y1757D01*
X162Y1757D01*
X162Y1759D01*
X164Y1759D01*
X164Y1761D01*
X166Y1761D01*
X166Y1763D01*
X170Y1763D01*
X170Y1765D01*
X172Y1765D01*
X172Y1787D01*
X170Y1787D01*
X170Y1789D01*
X166Y1789D01*
X166Y1791D01*
X164Y1791D01*
X164Y1793D01*
X162Y1793D01*
X162Y1795D01*
X160Y1795D01*
X160Y1797D01*
X158Y1797D01*
X158Y1799D01*
X156Y1799D01*
X156Y1803D01*
X154Y1803D01*
X154Y1805D01*
X132Y1805D01*
G37*
D02*
G36*
X132Y1705D02*
X132Y1703D01*
X130Y1703D01*
X130Y1699D01*
X128Y1699D01*
X128Y1697D01*
X126Y1697D01*
X126Y1695D01*
X124Y1695D01*
X124Y1693D01*
X122Y1693D01*
X122Y1691D01*
X120Y1691D01*
X120Y1689D01*
X116Y1689D01*
X116Y1687D01*
X114Y1687D01*
X114Y1665D01*
X116Y1665D01*
X116Y1663D01*
X120Y1663D01*
X120Y1661D01*
X122Y1661D01*
X122Y1659D01*
X124Y1659D01*
X124Y1657D01*
X126Y1657D01*
X126Y1655D01*
X128Y1655D01*
X128Y1653D01*
X130Y1653D01*
X130Y1649D01*
X132Y1649D01*
X132Y1647D01*
X154Y1647D01*
X154Y1649D01*
X156Y1649D01*
X156Y1653D01*
X158Y1653D01*
X158Y1655D01*
X160Y1655D01*
X160Y1657D01*
X162Y1657D01*
X162Y1659D01*
X164Y1659D01*
X164Y1661D01*
X166Y1661D01*
X166Y1663D01*
X170Y1663D01*
X170Y1665D01*
X172Y1665D01*
X172Y1687D01*
X170Y1687D01*
X170Y1689D01*
X166Y1689D01*
X166Y1691D01*
X164Y1691D01*
X164Y1693D01*
X162Y1693D01*
X162Y1695D01*
X160Y1695D01*
X160Y1697D01*
X158Y1697D01*
X158Y1699D01*
X156Y1699D01*
X156Y1703D01*
X154Y1703D01*
X154Y1705D01*
X132Y1705D01*
G37*
D02*
G36*
X1920Y1819D02*
X1920Y1815D01*
X1918Y1815D01*
X1918Y1811D01*
X1916Y1811D01*
X1916Y1807D01*
X1914Y1807D01*
X1914Y1805D01*
X1912Y1805D01*
X1912Y1803D01*
X1910Y1803D01*
X1910Y1799D01*
X1906Y1799D01*
X1906Y1797D01*
X1904Y1797D01*
X1904Y1795D01*
X1902Y1795D01*
X1902Y1793D01*
X1898Y1793D01*
X1898Y1791D01*
X1894Y1791D01*
X1894Y1789D01*
X1888Y1789D01*
X1888Y1787D01*
X1976Y1787D01*
X1976Y1789D01*
X1970Y1789D01*
X1970Y1791D01*
X1966Y1791D01*
X1966Y1793D01*
X1962Y1793D01*
X1962Y1795D01*
X1960Y1795D01*
X1960Y1797D01*
X1956Y1797D01*
X1956Y1799D01*
X1954Y1799D01*
X1954Y1801D01*
X1952Y1801D01*
X1952Y1803D01*
X1950Y1803D01*
X1950Y1807D01*
X1948Y1807D01*
X1948Y1809D01*
X1946Y1809D01*
X1946Y1813D01*
X1944Y1813D01*
X1944Y1817D01*
X1942Y1817D01*
X1942Y1819D01*
X1920Y1819D01*
G37*
D02*
G36*
X1850Y1791D02*
X1850Y1787D01*
X1876Y1787D01*
X1876Y1789D01*
X1870Y1789D01*
X1870Y1791D01*
X1850Y1791D01*
G37*
D02*
G36*
X1850Y1787D02*
X1850Y1785D01*
X2002Y1785D01*
X2002Y1787D01*
X1850Y1787D01*
G37*
D02*
G36*
X1850Y1787D02*
X1850Y1785D01*
X2002Y1785D01*
X2002Y1787D01*
X1850Y1787D01*
G37*
D02*
G36*
X1850Y1785D02*
X1850Y1767D01*
X1988Y1767D01*
X1988Y1765D01*
X1994Y1765D01*
X1994Y1763D01*
X1998Y1763D01*
X1998Y1761D01*
X2002Y1761D01*
X2002Y1759D01*
X2004Y1759D01*
X2004Y1757D01*
X2008Y1757D01*
X2008Y1755D01*
X2010Y1755D01*
X2010Y1753D01*
X2012Y1753D01*
X2012Y1749D01*
X2014Y1749D01*
X2014Y1747D01*
X2016Y1747D01*
X2016Y1743D01*
X2018Y1743D01*
X2018Y1739D01*
X2020Y1739D01*
X2020Y1733D01*
X2022Y1733D01*
X2022Y1721D01*
X2024Y1721D01*
X2024Y1719D01*
X2026Y1719D01*
X2026Y1717D01*
X2030Y1717D01*
X2030Y1715D01*
X2032Y1715D01*
X2032Y1713D01*
X2054Y1713D01*
X2054Y1743D01*
X2052Y1743D01*
X2052Y1745D01*
X2050Y1745D01*
X2050Y1747D01*
X2048Y1747D01*
X2048Y1749D01*
X2046Y1749D01*
X2046Y1751D01*
X2042Y1751D01*
X2042Y1753D01*
X2040Y1753D01*
X2040Y1755D01*
X2038Y1755D01*
X2038Y1757D01*
X2036Y1757D01*
X2036Y1759D01*
X2034Y1759D01*
X2034Y1761D01*
X2032Y1761D01*
X2032Y1763D01*
X2028Y1763D01*
X2028Y1765D01*
X2026Y1765D01*
X2026Y1767D01*
X2024Y1767D01*
X2024Y1769D01*
X2022Y1769D01*
X2022Y1771D01*
X2020Y1771D01*
X2020Y1773D01*
X2016Y1773D01*
X2016Y1775D01*
X2014Y1775D01*
X2014Y1777D01*
X2012Y1777D01*
X2012Y1779D01*
X2010Y1779D01*
X2010Y1781D01*
X2008Y1781D01*
X2008Y1783D01*
X2004Y1783D01*
X2004Y1785D01*
X1850Y1785D01*
G37*
D02*
G36*
X1850Y1767D02*
X1850Y1765D01*
X1874Y1765D01*
X1874Y1767D01*
X1850Y1767D01*
G37*
D02*
G36*
X1888Y1767D02*
X1888Y1765D01*
X1894Y1765D01*
X1894Y1763D01*
X1898Y1763D01*
X1898Y1761D01*
X1902Y1761D01*
X1902Y1759D01*
X1904Y1759D01*
X1904Y1757D01*
X1908Y1757D01*
X1908Y1755D01*
X1910Y1755D01*
X1910Y1753D01*
X1912Y1753D01*
X1912Y1749D01*
X1914Y1749D01*
X1914Y1747D01*
X1916Y1747D01*
X1916Y1743D01*
X1918Y1743D01*
X1918Y1739D01*
X1920Y1739D01*
X1920Y1733D01*
X1922Y1733D01*
X1922Y1721D01*
X1920Y1721D01*
X1920Y1715D01*
X1918Y1715D01*
X1918Y1711D01*
X1916Y1711D01*
X1916Y1707D01*
X1914Y1707D01*
X1914Y1705D01*
X1912Y1705D01*
X1912Y1703D01*
X1910Y1703D01*
X1910Y1699D01*
X1906Y1699D01*
X1906Y1697D01*
X1904Y1697D01*
X1904Y1695D01*
X1902Y1695D01*
X1902Y1693D01*
X1898Y1693D01*
X1898Y1691D01*
X1894Y1691D01*
X1894Y1689D01*
X1888Y1689D01*
X1888Y1687D01*
X1962Y1687D01*
X1962Y1689D01*
X1960Y1689D01*
X1960Y1697D01*
X1956Y1697D01*
X1956Y1699D01*
X1954Y1699D01*
X1954Y1701D01*
X1952Y1701D01*
X1952Y1703D01*
X1950Y1703D01*
X1950Y1707D01*
X1948Y1707D01*
X1948Y1709D01*
X1946Y1709D01*
X1946Y1713D01*
X1944Y1713D01*
X1944Y1719D01*
X1942Y1719D01*
X1942Y1735D01*
X1944Y1735D01*
X1944Y1741D01*
X1946Y1741D01*
X1946Y1745D01*
X1948Y1745D01*
X1948Y1747D01*
X1950Y1747D01*
X1950Y1751D01*
X1952Y1751D01*
X1952Y1753D01*
X1954Y1753D01*
X1954Y1755D01*
X1956Y1755D01*
X1956Y1757D01*
X1958Y1757D01*
X1958Y1759D01*
X1962Y1759D01*
X1962Y1761D01*
X1964Y1761D01*
X1964Y1763D01*
X1968Y1763D01*
X1968Y1765D01*
X1974Y1765D01*
X1974Y1767D01*
X1888Y1767D01*
G37*
D02*
G36*
X1850Y1691D02*
X1850Y1687D01*
X1876Y1687D01*
X1876Y1689D01*
X1870Y1689D01*
X1870Y1691D01*
X1850Y1691D01*
G37*
D02*
G36*
X1850Y1687D02*
X1850Y1685D01*
X1962Y1685D01*
X1962Y1687D01*
X1850Y1687D01*
G37*
D02*
G36*
X1850Y1687D02*
X1850Y1685D01*
X1962Y1685D01*
X1962Y1687D01*
X1850Y1687D01*
G37*
D02*
G36*
X1850Y1685D02*
X1850Y1667D01*
X1888Y1667D01*
X1888Y1665D01*
X1894Y1665D01*
X1894Y1663D01*
X1898Y1663D01*
X1898Y1661D01*
X1902Y1661D01*
X1902Y1659D01*
X1904Y1659D01*
X1904Y1657D01*
X1908Y1657D01*
X1908Y1655D01*
X1910Y1655D01*
X1910Y1653D01*
X1912Y1653D01*
X1912Y1649D01*
X1914Y1649D01*
X1914Y1647D01*
X1916Y1647D01*
X1916Y1643D01*
X1918Y1643D01*
X1918Y1639D01*
X1920Y1639D01*
X1920Y1633D01*
X1922Y1633D01*
X1922Y1619D01*
X1942Y1619D01*
X1942Y1635D01*
X1944Y1635D01*
X1944Y1641D01*
X1946Y1641D01*
X1946Y1645D01*
X1948Y1645D01*
X1948Y1647D01*
X1950Y1647D01*
X1950Y1651D01*
X1952Y1651D01*
X1952Y1653D01*
X1954Y1653D01*
X1954Y1655D01*
X1956Y1655D01*
X1956Y1657D01*
X1958Y1657D01*
X1958Y1659D01*
X1962Y1659D01*
X1962Y1661D01*
X1964Y1661D01*
X1964Y1663D01*
X1966Y1663D01*
X1966Y1683D01*
X1964Y1683D01*
X1964Y1685D01*
X1850Y1685D01*
G37*
D02*
G36*
X1850Y1667D02*
X1850Y1665D01*
X1874Y1665D01*
X1874Y1667D01*
X1850Y1667D01*
G37*
D02*
G36*
X132Y1605D02*
X132Y1603D01*
X130Y1603D01*
X130Y1599D01*
X128Y1599D01*
X128Y1597D01*
X126Y1597D01*
X126Y1595D01*
X124Y1595D01*
X124Y1593D01*
X122Y1593D01*
X122Y1591D01*
X120Y1591D01*
X120Y1589D01*
X116Y1589D01*
X116Y1587D01*
X114Y1587D01*
X114Y1565D01*
X116Y1565D01*
X116Y1563D01*
X120Y1563D01*
X120Y1561D01*
X122Y1561D01*
X122Y1559D01*
X124Y1559D01*
X124Y1557D01*
X126Y1557D01*
X126Y1555D01*
X128Y1555D01*
X128Y1553D01*
X130Y1553D01*
X130Y1549D01*
X132Y1549D01*
X132Y1547D01*
X154Y1547D01*
X154Y1549D01*
X156Y1549D01*
X156Y1553D01*
X158Y1553D01*
X158Y1555D01*
X160Y1555D01*
X160Y1557D01*
X162Y1557D01*
X162Y1559D01*
X164Y1559D01*
X164Y1561D01*
X166Y1561D01*
X166Y1563D01*
X170Y1563D01*
X170Y1565D01*
X172Y1565D01*
X172Y1587D01*
X170Y1587D01*
X170Y1589D01*
X166Y1589D01*
X166Y1591D01*
X164Y1591D01*
X164Y1593D01*
X162Y1593D01*
X162Y1595D01*
X160Y1595D01*
X160Y1597D01*
X158Y1597D01*
X158Y1599D01*
X156Y1599D01*
X156Y1603D01*
X154Y1603D01*
X154Y1605D01*
X132Y1605D01*
G37*
D02*
G36*
X230Y1603D02*
X230Y1599D01*
X228Y1599D01*
X228Y1597D01*
X226Y1597D01*
X226Y1595D01*
X224Y1595D01*
X224Y1593D01*
X222Y1593D01*
X222Y1591D01*
X220Y1591D01*
X220Y1589D01*
X216Y1589D01*
X216Y1587D01*
X214Y1587D01*
X214Y1565D01*
X216Y1565D01*
X216Y1563D01*
X220Y1563D01*
X220Y1561D01*
X222Y1561D01*
X222Y1559D01*
X224Y1559D01*
X224Y1557D01*
X226Y1557D01*
X226Y1555D01*
X228Y1555D01*
X228Y1553D01*
X230Y1553D01*
X230Y1549D01*
X232Y1549D01*
X232Y1547D01*
X234Y1547D01*
X234Y1543D01*
X236Y1543D01*
X236Y1537D01*
X238Y1537D01*
X238Y1515D01*
X236Y1515D01*
X236Y1509D01*
X234Y1509D01*
X234Y1505D01*
X232Y1505D01*
X232Y1503D01*
X230Y1503D01*
X230Y1499D01*
X228Y1499D01*
X228Y1497D01*
X226Y1497D01*
X226Y1495D01*
X224Y1495D01*
X224Y1493D01*
X222Y1493D01*
X222Y1491D01*
X220Y1491D01*
X220Y1489D01*
X216Y1489D01*
X216Y1487D01*
X214Y1487D01*
X214Y1465D01*
X216Y1465D01*
X216Y1463D01*
X220Y1463D01*
X220Y1461D01*
X222Y1461D01*
X222Y1459D01*
X224Y1459D01*
X224Y1457D01*
X226Y1457D01*
X226Y1455D01*
X228Y1455D01*
X228Y1453D01*
X230Y1453D01*
X230Y1449D01*
X232Y1449D01*
X232Y1447D01*
X234Y1447D01*
X234Y1443D01*
X236Y1443D01*
X236Y1437D01*
X238Y1437D01*
X238Y1415D01*
X236Y1415D01*
X236Y1409D01*
X234Y1409D01*
X234Y1405D01*
X232Y1405D01*
X232Y1403D01*
X230Y1403D01*
X230Y1399D01*
X228Y1399D01*
X228Y1397D01*
X226Y1397D01*
X226Y1395D01*
X224Y1395D01*
X224Y1393D01*
X222Y1393D01*
X222Y1391D01*
X220Y1391D01*
X220Y1389D01*
X216Y1389D01*
X216Y1387D01*
X214Y1387D01*
X214Y1365D01*
X216Y1365D01*
X216Y1363D01*
X220Y1363D01*
X220Y1361D01*
X222Y1361D01*
X222Y1359D01*
X224Y1359D01*
X224Y1357D01*
X226Y1357D01*
X226Y1355D01*
X228Y1355D01*
X228Y1353D01*
X230Y1353D01*
X230Y1349D01*
X232Y1349D01*
X232Y1347D01*
X234Y1347D01*
X234Y1343D01*
X236Y1343D01*
X236Y1341D01*
X246Y1341D01*
X246Y1339D01*
X270Y1339D01*
X270Y1337D01*
X296Y1337D01*
X296Y1335D01*
X322Y1335D01*
X322Y1333D01*
X348Y1333D01*
X348Y1331D01*
X374Y1331D01*
X374Y1329D01*
X404Y1329D01*
X404Y1347D01*
X402Y1347D01*
X402Y1351D01*
X400Y1351D01*
X400Y1353D01*
X398Y1353D01*
X398Y1357D01*
X396Y1357D01*
X396Y1361D01*
X394Y1361D01*
X394Y1373D01*
X396Y1373D01*
X396Y1377D01*
X398Y1377D01*
X398Y1381D01*
X400Y1381D01*
X400Y1383D01*
X402Y1383D01*
X402Y1387D01*
X404Y1387D01*
X404Y1389D01*
X408Y1389D01*
X408Y1391D01*
X410Y1391D01*
X410Y1393D01*
X414Y1393D01*
X414Y1395D01*
X418Y1395D01*
X418Y1415D01*
X406Y1415D01*
X406Y1417D01*
X382Y1417D01*
X382Y1419D01*
X358Y1419D01*
X358Y1421D01*
X348Y1421D01*
X348Y1423D01*
X344Y1423D01*
X344Y1425D01*
X342Y1425D01*
X342Y1429D01*
X340Y1429D01*
X340Y1433D01*
X338Y1433D01*
X338Y1487D01*
X340Y1487D01*
X340Y1583D01*
X338Y1583D01*
X338Y1585D01*
X328Y1585D01*
X328Y1587D01*
X320Y1587D01*
X320Y1589D01*
X310Y1589D01*
X310Y1591D01*
X302Y1591D01*
X302Y1593D01*
X292Y1593D01*
X292Y1595D01*
X284Y1595D01*
X284Y1597D01*
X274Y1597D01*
X274Y1599D01*
X266Y1599D01*
X266Y1601D01*
X256Y1601D01*
X256Y1603D01*
X230Y1603D01*
G37*
D02*
G36*
X2002Y1595D02*
X2002Y1593D01*
X1998Y1593D01*
X1998Y1591D01*
X1994Y1591D01*
X1994Y1589D01*
X1988Y1589D01*
X1988Y1587D01*
X1956Y1587D01*
X1956Y1585D01*
X1954Y1585D01*
X1954Y1583D01*
X1952Y1583D01*
X1952Y1581D01*
X1948Y1581D01*
X1948Y1579D01*
X1946Y1579D01*
X1946Y1577D01*
X1944Y1577D01*
X1944Y1575D01*
X1940Y1575D01*
X1940Y1573D01*
X1938Y1573D01*
X1938Y1571D01*
X1936Y1571D01*
X1936Y1569D01*
X1932Y1569D01*
X1932Y1567D01*
X1988Y1567D01*
X1988Y1565D01*
X1994Y1565D01*
X1994Y1563D01*
X1998Y1563D01*
X1998Y1561D01*
X2002Y1561D01*
X2002Y1559D01*
X2022Y1559D01*
X2022Y1595D01*
X2002Y1595D01*
G37*
D02*
G36*
X1930Y1567D02*
X1930Y1565D01*
X1928Y1565D01*
X1928Y1563D01*
X1924Y1563D01*
X1924Y1561D01*
X1922Y1561D01*
X1922Y1559D01*
X1918Y1559D01*
X1918Y1539D01*
X1920Y1539D01*
X1920Y1533D01*
X1922Y1533D01*
X1922Y1523D01*
X1942Y1523D01*
X1942Y1535D01*
X1944Y1535D01*
X1944Y1541D01*
X1946Y1541D01*
X1946Y1545D01*
X1948Y1545D01*
X1948Y1547D01*
X1950Y1547D01*
X1950Y1551D01*
X1952Y1551D01*
X1952Y1553D01*
X1954Y1553D01*
X1954Y1555D01*
X1956Y1555D01*
X1956Y1557D01*
X1958Y1557D01*
X1958Y1559D01*
X1962Y1559D01*
X1962Y1561D01*
X1964Y1561D01*
X1964Y1563D01*
X1968Y1563D01*
X1968Y1565D01*
X1974Y1565D01*
X1974Y1567D01*
X1930Y1567D01*
G37*
D02*
G36*
X132Y1505D02*
X132Y1503D01*
X130Y1503D01*
X130Y1499D01*
X128Y1499D01*
X128Y1497D01*
X126Y1497D01*
X126Y1495D01*
X124Y1495D01*
X124Y1493D01*
X122Y1493D01*
X122Y1491D01*
X120Y1491D01*
X120Y1489D01*
X116Y1489D01*
X116Y1487D01*
X114Y1487D01*
X114Y1465D01*
X116Y1465D01*
X116Y1463D01*
X120Y1463D01*
X120Y1461D01*
X122Y1461D01*
X122Y1459D01*
X124Y1459D01*
X124Y1457D01*
X126Y1457D01*
X126Y1455D01*
X128Y1455D01*
X128Y1453D01*
X130Y1453D01*
X130Y1449D01*
X132Y1449D01*
X132Y1447D01*
X154Y1447D01*
X154Y1449D01*
X156Y1449D01*
X156Y1453D01*
X158Y1453D01*
X158Y1455D01*
X160Y1455D01*
X160Y1457D01*
X162Y1457D01*
X162Y1459D01*
X164Y1459D01*
X164Y1461D01*
X166Y1461D01*
X166Y1463D01*
X170Y1463D01*
X170Y1465D01*
X172Y1465D01*
X172Y1487D01*
X170Y1487D01*
X170Y1489D01*
X166Y1489D01*
X166Y1491D01*
X164Y1491D01*
X164Y1493D01*
X162Y1493D01*
X162Y1495D01*
X160Y1495D01*
X160Y1497D01*
X158Y1497D01*
X158Y1499D01*
X156Y1499D01*
X156Y1503D01*
X154Y1503D01*
X154Y1505D01*
X132Y1505D01*
G37*
D02*
G36*
X1952Y1489D02*
X1952Y1487D01*
X1948Y1487D01*
X1948Y1485D01*
X1944Y1485D01*
X1944Y1483D01*
X1942Y1483D01*
X1942Y1481D01*
X1938Y1481D01*
X1938Y1479D01*
X1934Y1479D01*
X1934Y1477D01*
X1928Y1477D01*
X1928Y1475D01*
X1922Y1475D01*
X1922Y1473D01*
X1914Y1473D01*
X1914Y1471D01*
X1912Y1471D01*
X1912Y1467D01*
X1988Y1467D01*
X1988Y1465D01*
X1994Y1465D01*
X1994Y1463D01*
X1998Y1463D01*
X1998Y1461D01*
X2002Y1461D01*
X2002Y1459D01*
X2022Y1459D01*
X2022Y1483D01*
X1998Y1483D01*
X1998Y1485D01*
X1994Y1485D01*
X1994Y1487D01*
X1976Y1487D01*
X1976Y1489D01*
X1952Y1489D01*
G37*
D02*
G36*
X1912Y1467D02*
X1912Y1449D01*
X1914Y1449D01*
X1914Y1447D01*
X1916Y1447D01*
X1916Y1443D01*
X1918Y1443D01*
X1918Y1439D01*
X1920Y1439D01*
X1920Y1433D01*
X1922Y1433D01*
X1922Y1421D01*
X1920Y1421D01*
X1920Y1415D01*
X1918Y1415D01*
X1918Y1411D01*
X1916Y1411D01*
X1916Y1407D01*
X1914Y1407D01*
X1914Y1405D01*
X1912Y1405D01*
X1912Y1403D01*
X1910Y1403D01*
X1910Y1399D01*
X1906Y1399D01*
X1906Y1397D01*
X1904Y1397D01*
X1904Y1395D01*
X1902Y1395D01*
X1902Y1393D01*
X1898Y1393D01*
X1898Y1391D01*
X1894Y1391D01*
X1894Y1389D01*
X1888Y1389D01*
X1888Y1387D01*
X1956Y1387D01*
X1956Y1399D01*
X1954Y1399D01*
X1954Y1401D01*
X1952Y1401D01*
X1952Y1403D01*
X1950Y1403D01*
X1950Y1407D01*
X1948Y1407D01*
X1948Y1409D01*
X1946Y1409D01*
X1946Y1413D01*
X1944Y1413D01*
X1944Y1419D01*
X1942Y1419D01*
X1942Y1435D01*
X1944Y1435D01*
X1944Y1441D01*
X1946Y1441D01*
X1946Y1445D01*
X1948Y1445D01*
X1948Y1447D01*
X1950Y1447D01*
X1950Y1451D01*
X1952Y1451D01*
X1952Y1453D01*
X1954Y1453D01*
X1954Y1455D01*
X1956Y1455D01*
X1956Y1457D01*
X1958Y1457D01*
X1958Y1459D01*
X1962Y1459D01*
X1962Y1461D01*
X1964Y1461D01*
X1964Y1463D01*
X1968Y1463D01*
X1968Y1465D01*
X1974Y1465D01*
X1974Y1467D01*
X1912Y1467D01*
G37*
D02*
G36*
X1820Y1443D02*
X1820Y1441D01*
X1814Y1441D01*
X1814Y1439D01*
X1808Y1439D01*
X1808Y1437D01*
X1800Y1437D01*
X1800Y1435D01*
X1794Y1435D01*
X1794Y1433D01*
X1788Y1433D01*
X1788Y1431D01*
X1782Y1431D01*
X1782Y1429D01*
X1776Y1429D01*
X1776Y1427D01*
X1770Y1427D01*
X1770Y1425D01*
X1762Y1425D01*
X1762Y1423D01*
X1756Y1423D01*
X1756Y1421D01*
X1750Y1421D01*
X1750Y1419D01*
X1744Y1419D01*
X1744Y1417D01*
X1738Y1417D01*
X1738Y1415D01*
X1732Y1415D01*
X1732Y1413D01*
X1724Y1413D01*
X1724Y1411D01*
X1718Y1411D01*
X1718Y1409D01*
X1712Y1409D01*
X1712Y1407D01*
X1706Y1407D01*
X1706Y1405D01*
X1700Y1405D01*
X1700Y1403D01*
X1694Y1403D01*
X1694Y1401D01*
X1686Y1401D01*
X1686Y1399D01*
X1680Y1399D01*
X1680Y1397D01*
X1674Y1397D01*
X1674Y1395D01*
X1668Y1395D01*
X1668Y1393D01*
X1662Y1393D01*
X1662Y1391D01*
X1656Y1391D01*
X1656Y1389D01*
X1648Y1389D01*
X1648Y1387D01*
X1876Y1387D01*
X1876Y1389D01*
X1870Y1389D01*
X1870Y1391D01*
X1866Y1391D01*
X1866Y1393D01*
X1862Y1393D01*
X1862Y1395D01*
X1860Y1395D01*
X1860Y1397D01*
X1856Y1397D01*
X1856Y1399D01*
X1854Y1399D01*
X1854Y1401D01*
X1852Y1401D01*
X1852Y1403D01*
X1850Y1403D01*
X1850Y1407D01*
X1848Y1407D01*
X1848Y1409D01*
X1846Y1409D01*
X1846Y1413D01*
X1844Y1413D01*
X1844Y1419D01*
X1842Y1419D01*
X1842Y1443D01*
X1820Y1443D01*
G37*
D02*
G36*
X1642Y1387D02*
X1642Y1385D01*
X1956Y1385D01*
X1956Y1387D01*
X1642Y1387D01*
G37*
D02*
G36*
X1642Y1387D02*
X1642Y1385D01*
X1956Y1385D01*
X1956Y1387D01*
X1642Y1387D01*
G37*
D02*
G36*
X1636Y1385D02*
X1636Y1383D01*
X1630Y1383D01*
X1630Y1381D01*
X1624Y1381D01*
X1624Y1379D01*
X1618Y1379D01*
X1618Y1377D01*
X1610Y1377D01*
X1610Y1375D01*
X1604Y1375D01*
X1604Y1373D01*
X1598Y1373D01*
X1598Y1371D01*
X1592Y1371D01*
X1592Y1369D01*
X1586Y1369D01*
X1586Y1367D01*
X1580Y1367D01*
X1580Y1365D01*
X1572Y1365D01*
X1572Y1363D01*
X1566Y1363D01*
X1566Y1361D01*
X1560Y1361D01*
X1560Y1359D01*
X1554Y1359D01*
X1554Y1357D01*
X1548Y1357D01*
X1548Y1355D01*
X1542Y1355D01*
X1542Y1353D01*
X1534Y1353D01*
X1534Y1351D01*
X1528Y1351D01*
X1528Y1349D01*
X1522Y1349D01*
X1522Y1347D01*
X1516Y1347D01*
X1516Y1345D01*
X1510Y1345D01*
X1510Y1343D01*
X1504Y1343D01*
X1504Y1341D01*
X1496Y1341D01*
X1496Y1339D01*
X1490Y1339D01*
X1490Y1337D01*
X1484Y1337D01*
X1484Y1335D01*
X1478Y1335D01*
X1478Y1333D01*
X1472Y1333D01*
X1472Y1331D01*
X1466Y1331D01*
X1466Y1329D01*
X1458Y1329D01*
X1458Y1327D01*
X1452Y1327D01*
X1452Y1325D01*
X1446Y1325D01*
X1446Y1323D01*
X1440Y1323D01*
X1440Y1321D01*
X1434Y1321D01*
X1434Y1319D01*
X1428Y1319D01*
X1428Y1317D01*
X1420Y1317D01*
X1420Y1315D01*
X1414Y1315D01*
X1414Y1313D01*
X1408Y1313D01*
X1408Y1311D01*
X1402Y1311D01*
X1402Y1309D01*
X1396Y1309D01*
X1396Y1307D01*
X1390Y1307D01*
X1390Y1305D01*
X1382Y1305D01*
X1382Y1303D01*
X1376Y1303D01*
X1376Y1301D01*
X1370Y1301D01*
X1370Y1299D01*
X1364Y1299D01*
X1364Y1297D01*
X1358Y1297D01*
X1358Y1295D01*
X1352Y1295D01*
X1352Y1293D01*
X1344Y1293D01*
X1344Y1291D01*
X1338Y1291D01*
X1338Y1289D01*
X1332Y1289D01*
X1332Y1287D01*
X1326Y1287D01*
X1326Y1285D01*
X1320Y1285D01*
X1320Y1283D01*
X1314Y1283D01*
X1314Y1281D01*
X1306Y1281D01*
X1306Y1279D01*
X1300Y1279D01*
X1300Y1277D01*
X1294Y1277D01*
X1294Y1275D01*
X1288Y1275D01*
X1288Y1273D01*
X1282Y1273D01*
X1282Y1271D01*
X1276Y1271D01*
X1276Y1269D01*
X1268Y1269D01*
X1268Y1267D01*
X1262Y1267D01*
X1262Y1265D01*
X1256Y1265D01*
X1256Y1263D01*
X1250Y1263D01*
X1250Y1261D01*
X1244Y1261D01*
X1244Y1259D01*
X1238Y1259D01*
X1238Y1257D01*
X1230Y1257D01*
X1230Y1255D01*
X1224Y1255D01*
X1224Y1253D01*
X1218Y1253D01*
X1218Y1251D01*
X1212Y1251D01*
X1212Y1249D01*
X1206Y1249D01*
X1206Y1247D01*
X1200Y1247D01*
X1200Y1245D01*
X1192Y1245D01*
X1192Y1243D01*
X1186Y1243D01*
X1186Y1241D01*
X1180Y1241D01*
X1180Y1239D01*
X1174Y1239D01*
X1174Y1237D01*
X1168Y1237D01*
X1168Y1235D01*
X1162Y1235D01*
X1162Y1233D01*
X1154Y1233D01*
X1154Y1231D01*
X1148Y1231D01*
X1148Y1229D01*
X1142Y1229D01*
X1142Y1227D01*
X1136Y1227D01*
X1136Y1225D01*
X1130Y1225D01*
X1130Y1223D01*
X1124Y1223D01*
X1124Y1221D01*
X1116Y1221D01*
X1116Y1219D01*
X1110Y1219D01*
X1110Y1217D01*
X1104Y1217D01*
X1104Y1215D01*
X1098Y1215D01*
X1098Y1213D01*
X1092Y1213D01*
X1092Y1211D01*
X1086Y1211D01*
X1086Y1209D01*
X1078Y1209D01*
X1078Y1207D01*
X1072Y1207D01*
X1072Y1205D01*
X1066Y1205D01*
X1066Y1203D01*
X1060Y1203D01*
X1060Y1201D01*
X1054Y1201D01*
X1054Y1199D01*
X1048Y1199D01*
X1048Y1197D01*
X1040Y1197D01*
X1040Y1195D01*
X1034Y1195D01*
X1034Y1193D01*
X1028Y1193D01*
X1028Y1191D01*
X1022Y1191D01*
X1022Y1189D01*
X1016Y1189D01*
X1016Y1187D01*
X1010Y1187D01*
X1010Y1185D01*
X1002Y1185D01*
X1002Y1183D01*
X996Y1183D01*
X996Y1181D01*
X990Y1181D01*
X990Y1179D01*
X984Y1179D01*
X984Y1177D01*
X978Y1177D01*
X978Y1175D01*
X972Y1175D01*
X972Y1173D01*
X964Y1173D01*
X964Y1171D01*
X958Y1171D01*
X958Y1169D01*
X952Y1169D01*
X952Y1167D01*
X946Y1167D01*
X946Y1165D01*
X940Y1165D01*
X940Y1163D01*
X934Y1163D01*
X934Y1161D01*
X926Y1161D01*
X926Y1159D01*
X920Y1159D01*
X920Y1157D01*
X914Y1157D01*
X914Y1155D01*
X908Y1155D01*
X908Y1153D01*
X902Y1153D01*
X902Y1151D01*
X896Y1151D01*
X896Y1149D01*
X888Y1149D01*
X888Y1147D01*
X882Y1147D01*
X882Y1145D01*
X876Y1145D01*
X876Y1143D01*
X870Y1143D01*
X870Y1141D01*
X864Y1141D01*
X864Y1139D01*
X858Y1139D01*
X858Y1137D01*
X850Y1137D01*
X850Y1135D01*
X844Y1135D01*
X844Y1133D01*
X838Y1133D01*
X838Y1131D01*
X832Y1131D01*
X832Y1129D01*
X826Y1129D01*
X826Y1127D01*
X820Y1127D01*
X820Y1125D01*
X812Y1125D01*
X812Y1123D01*
X806Y1123D01*
X806Y1121D01*
X800Y1121D01*
X800Y1119D01*
X794Y1119D01*
X794Y1117D01*
X788Y1117D01*
X788Y1115D01*
X782Y1115D01*
X782Y1113D01*
X774Y1113D01*
X774Y1111D01*
X768Y1111D01*
X768Y1109D01*
X762Y1109D01*
X762Y1107D01*
X756Y1107D01*
X756Y1105D01*
X750Y1105D01*
X750Y1103D01*
X744Y1103D01*
X744Y1101D01*
X736Y1101D01*
X736Y1099D01*
X730Y1099D01*
X730Y1097D01*
X724Y1097D01*
X724Y1095D01*
X718Y1095D01*
X718Y1093D01*
X716Y1093D01*
X716Y1069D01*
X718Y1069D01*
X718Y1053D01*
X716Y1053D01*
X716Y1035D01*
X736Y1035D01*
X736Y1037D01*
X744Y1037D01*
X744Y1039D01*
X750Y1039D01*
X750Y1041D01*
X758Y1041D01*
X758Y1043D01*
X764Y1043D01*
X764Y1045D01*
X772Y1045D01*
X772Y1047D01*
X778Y1047D01*
X778Y1049D01*
X786Y1049D01*
X786Y1051D01*
X792Y1051D01*
X792Y1053D01*
X800Y1053D01*
X800Y1055D01*
X808Y1055D01*
X808Y1057D01*
X814Y1057D01*
X814Y1059D01*
X822Y1059D01*
X822Y1061D01*
X828Y1061D01*
X828Y1063D01*
X836Y1063D01*
X836Y1065D01*
X842Y1065D01*
X842Y1067D01*
X850Y1067D01*
X850Y1069D01*
X856Y1069D01*
X856Y1071D01*
X864Y1071D01*
X864Y1073D01*
X872Y1073D01*
X872Y1075D01*
X878Y1075D01*
X878Y1077D01*
X886Y1077D01*
X886Y1079D01*
X892Y1079D01*
X892Y1081D01*
X900Y1081D01*
X900Y1083D01*
X906Y1083D01*
X906Y1085D01*
X914Y1085D01*
X914Y1087D01*
X920Y1087D01*
X920Y1089D01*
X928Y1089D01*
X928Y1091D01*
X936Y1091D01*
X936Y1093D01*
X942Y1093D01*
X942Y1095D01*
X950Y1095D01*
X950Y1097D01*
X956Y1097D01*
X956Y1099D01*
X964Y1099D01*
X964Y1101D01*
X970Y1101D01*
X970Y1103D01*
X978Y1103D01*
X978Y1105D01*
X984Y1105D01*
X984Y1107D01*
X992Y1107D01*
X992Y1109D01*
X1000Y1109D01*
X1000Y1111D01*
X1006Y1111D01*
X1006Y1113D01*
X1014Y1113D01*
X1014Y1115D01*
X1020Y1115D01*
X1020Y1117D01*
X1028Y1117D01*
X1028Y1119D01*
X1034Y1119D01*
X1034Y1121D01*
X1042Y1121D01*
X1042Y1123D01*
X1048Y1123D01*
X1048Y1125D01*
X1056Y1125D01*
X1056Y1127D01*
X1064Y1127D01*
X1064Y1129D01*
X1070Y1129D01*
X1070Y1131D01*
X1078Y1131D01*
X1078Y1133D01*
X1084Y1133D01*
X1084Y1135D01*
X1092Y1135D01*
X1092Y1137D01*
X1098Y1137D01*
X1098Y1139D01*
X1106Y1139D01*
X1106Y1141D01*
X1112Y1141D01*
X1112Y1143D01*
X1120Y1143D01*
X1120Y1145D01*
X1128Y1145D01*
X1128Y1147D01*
X1134Y1147D01*
X1134Y1149D01*
X1142Y1149D01*
X1142Y1151D01*
X1148Y1151D01*
X1148Y1153D01*
X1156Y1153D01*
X1156Y1155D01*
X1162Y1155D01*
X1162Y1157D01*
X1170Y1157D01*
X1170Y1159D01*
X1176Y1159D01*
X1176Y1161D01*
X1184Y1161D01*
X1184Y1163D01*
X1192Y1163D01*
X1192Y1165D01*
X1198Y1165D01*
X1198Y1167D01*
X1206Y1167D01*
X1206Y1169D01*
X1212Y1169D01*
X1212Y1171D01*
X1220Y1171D01*
X1220Y1173D01*
X1226Y1173D01*
X1226Y1175D01*
X1234Y1175D01*
X1234Y1177D01*
X1240Y1177D01*
X1240Y1179D01*
X1248Y1179D01*
X1248Y1181D01*
X1256Y1181D01*
X1256Y1183D01*
X1262Y1183D01*
X1262Y1185D01*
X1270Y1185D01*
X1270Y1187D01*
X1276Y1187D01*
X1276Y1189D01*
X1284Y1189D01*
X1284Y1191D01*
X1290Y1191D01*
X1290Y1193D01*
X1298Y1193D01*
X1298Y1195D01*
X1304Y1195D01*
X1304Y1197D01*
X1312Y1197D01*
X1312Y1199D01*
X1320Y1199D01*
X1320Y1201D01*
X1326Y1201D01*
X1326Y1203D01*
X1334Y1203D01*
X1334Y1205D01*
X1340Y1205D01*
X1340Y1207D01*
X1348Y1207D01*
X1348Y1209D01*
X1354Y1209D01*
X1354Y1211D01*
X1362Y1211D01*
X1362Y1213D01*
X1368Y1213D01*
X1368Y1215D01*
X1376Y1215D01*
X1376Y1217D01*
X1384Y1217D01*
X1384Y1219D01*
X1390Y1219D01*
X1390Y1221D01*
X1398Y1221D01*
X1398Y1223D01*
X1404Y1223D01*
X1404Y1225D01*
X1412Y1225D01*
X1412Y1227D01*
X1418Y1227D01*
X1418Y1229D01*
X1426Y1229D01*
X1426Y1231D01*
X1432Y1231D01*
X1432Y1233D01*
X1440Y1233D01*
X1440Y1235D01*
X1448Y1235D01*
X1448Y1237D01*
X1454Y1237D01*
X1454Y1239D01*
X1462Y1239D01*
X1462Y1241D01*
X1468Y1241D01*
X1468Y1243D01*
X1476Y1243D01*
X1476Y1245D01*
X1482Y1245D01*
X1482Y1247D01*
X1490Y1247D01*
X1490Y1249D01*
X1496Y1249D01*
X1496Y1251D01*
X1504Y1251D01*
X1504Y1253D01*
X1512Y1253D01*
X1512Y1255D01*
X1518Y1255D01*
X1518Y1257D01*
X1526Y1257D01*
X1526Y1259D01*
X1532Y1259D01*
X1532Y1261D01*
X1540Y1261D01*
X1540Y1263D01*
X1546Y1263D01*
X1546Y1265D01*
X1554Y1265D01*
X1554Y1267D01*
X1560Y1267D01*
X1560Y1269D01*
X1568Y1269D01*
X1568Y1271D01*
X1576Y1271D01*
X1576Y1273D01*
X1582Y1273D01*
X1582Y1275D01*
X1590Y1275D01*
X1590Y1277D01*
X1596Y1277D01*
X1596Y1279D01*
X1604Y1279D01*
X1604Y1281D01*
X1610Y1281D01*
X1610Y1283D01*
X1618Y1283D01*
X1618Y1285D01*
X1624Y1285D01*
X1624Y1287D01*
X1632Y1287D01*
X1632Y1289D01*
X1640Y1289D01*
X1640Y1291D01*
X1646Y1291D01*
X1646Y1293D01*
X1654Y1293D01*
X1654Y1295D01*
X1660Y1295D01*
X1660Y1297D01*
X1668Y1297D01*
X1668Y1299D01*
X1674Y1299D01*
X1674Y1301D01*
X1682Y1301D01*
X1682Y1303D01*
X1688Y1303D01*
X1688Y1305D01*
X1696Y1305D01*
X1696Y1307D01*
X1704Y1307D01*
X1704Y1309D01*
X1710Y1309D01*
X1710Y1311D01*
X1718Y1311D01*
X1718Y1313D01*
X1724Y1313D01*
X1724Y1315D01*
X1732Y1315D01*
X1732Y1317D01*
X1738Y1317D01*
X1738Y1319D01*
X1746Y1319D01*
X1746Y1321D01*
X1752Y1321D01*
X1752Y1323D01*
X1760Y1323D01*
X1760Y1325D01*
X1768Y1325D01*
X1768Y1327D01*
X1774Y1327D01*
X1774Y1329D01*
X1782Y1329D01*
X1782Y1331D01*
X1788Y1331D01*
X1788Y1333D01*
X1796Y1333D01*
X1796Y1335D01*
X1802Y1335D01*
X1802Y1337D01*
X1810Y1337D01*
X1810Y1339D01*
X1816Y1339D01*
X1816Y1341D01*
X1824Y1341D01*
X1824Y1343D01*
X1832Y1343D01*
X1832Y1345D01*
X1838Y1345D01*
X1838Y1347D01*
X1846Y1347D01*
X1846Y1349D01*
X1852Y1349D01*
X1852Y1351D01*
X1860Y1351D01*
X1860Y1353D01*
X1866Y1353D01*
X1866Y1355D01*
X1874Y1355D01*
X1874Y1357D01*
X1880Y1357D01*
X1880Y1359D01*
X1888Y1359D01*
X1888Y1361D01*
X1896Y1361D01*
X1896Y1363D01*
X1902Y1363D01*
X1902Y1365D01*
X1910Y1365D01*
X1910Y1367D01*
X1916Y1367D01*
X1916Y1369D01*
X1924Y1369D01*
X1924Y1371D01*
X1930Y1371D01*
X1930Y1373D01*
X1938Y1373D01*
X1938Y1375D01*
X1944Y1375D01*
X1944Y1377D01*
X1952Y1377D01*
X1952Y1379D01*
X1956Y1379D01*
X1956Y1385D01*
X1636Y1385D01*
G37*
D02*
G36*
X434Y1411D02*
X434Y1393D01*
X438Y1393D01*
X438Y1391D01*
X440Y1391D01*
X440Y1389D01*
X444Y1389D01*
X444Y1387D01*
X446Y1387D01*
X446Y1383D01*
X448Y1383D01*
X448Y1381D01*
X456Y1381D01*
X456Y1379D01*
X468Y1379D01*
X468Y1377D01*
X480Y1377D01*
X480Y1375D01*
X492Y1375D01*
X492Y1373D01*
X504Y1373D01*
X504Y1371D01*
X516Y1371D01*
X516Y1369D01*
X540Y1369D01*
X540Y1373D01*
X542Y1373D01*
X542Y1377D01*
X544Y1377D01*
X544Y1381D01*
X546Y1381D01*
X546Y1383D01*
X548Y1383D01*
X548Y1405D01*
X524Y1405D01*
X524Y1407D01*
X500Y1407D01*
X500Y1409D01*
X476Y1409D01*
X476Y1411D01*
X434Y1411D01*
G37*
D02*
G36*
X132Y1405D02*
X132Y1403D01*
X130Y1403D01*
X130Y1399D01*
X128Y1399D01*
X128Y1397D01*
X126Y1397D01*
X126Y1395D01*
X124Y1395D01*
X124Y1393D01*
X122Y1393D01*
X122Y1391D01*
X120Y1391D01*
X120Y1389D01*
X116Y1389D01*
X116Y1387D01*
X114Y1387D01*
X114Y1365D01*
X116Y1365D01*
X116Y1363D01*
X120Y1363D01*
X120Y1361D01*
X122Y1361D01*
X122Y1359D01*
X124Y1359D01*
X124Y1357D01*
X126Y1357D01*
X126Y1355D01*
X128Y1355D01*
X128Y1353D01*
X130Y1353D01*
X130Y1349D01*
X132Y1349D01*
X132Y1347D01*
X154Y1347D01*
X154Y1349D01*
X156Y1349D01*
X156Y1353D01*
X158Y1353D01*
X158Y1355D01*
X160Y1355D01*
X160Y1357D01*
X162Y1357D01*
X162Y1359D01*
X164Y1359D01*
X164Y1361D01*
X166Y1361D01*
X166Y1363D01*
X170Y1363D01*
X170Y1365D01*
X172Y1365D01*
X172Y1387D01*
X170Y1387D01*
X170Y1389D01*
X166Y1389D01*
X166Y1391D01*
X164Y1391D01*
X164Y1393D01*
X162Y1393D01*
X162Y1395D01*
X160Y1395D01*
X160Y1397D01*
X158Y1397D01*
X158Y1399D01*
X156Y1399D01*
X156Y1403D01*
X154Y1403D01*
X154Y1405D01*
X132Y1405D01*
G37*
D02*
G36*
X2060Y1345D02*
X2060Y1343D01*
X2054Y1343D01*
X2054Y1341D01*
X2048Y1341D01*
X2048Y1339D01*
X2042Y1339D01*
X2042Y1337D01*
X2036Y1337D01*
X2036Y1335D01*
X2030Y1335D01*
X2030Y1333D01*
X2024Y1333D01*
X2024Y1331D01*
X2018Y1331D01*
X2018Y1329D01*
X2012Y1329D01*
X2012Y1327D01*
X2006Y1327D01*
X2006Y1325D01*
X2000Y1325D01*
X2000Y1323D01*
X1994Y1323D01*
X1994Y1209D01*
X2014Y1209D01*
X2014Y1211D01*
X2016Y1211D01*
X2016Y1215D01*
X2018Y1215D01*
X2018Y1219D01*
X2020Y1219D01*
X2020Y1223D01*
X2022Y1223D01*
X2022Y1227D01*
X2024Y1227D01*
X2024Y1229D01*
X2026Y1229D01*
X2026Y1233D01*
X2028Y1233D01*
X2028Y1237D01*
X2030Y1237D01*
X2030Y1241D01*
X2032Y1241D01*
X2032Y1245D01*
X2034Y1245D01*
X2034Y1247D01*
X2036Y1247D01*
X2036Y1251D01*
X2038Y1251D01*
X2038Y1255D01*
X2040Y1255D01*
X2040Y1259D01*
X2042Y1259D01*
X2042Y1263D01*
X2044Y1263D01*
X2044Y1265D01*
X2046Y1265D01*
X2046Y1269D01*
X2048Y1269D01*
X2048Y1273D01*
X2050Y1273D01*
X2050Y1277D01*
X2052Y1277D01*
X2052Y1281D01*
X2054Y1281D01*
X2054Y1283D01*
X2056Y1283D01*
X2056Y1287D01*
X2058Y1287D01*
X2058Y1291D01*
X2060Y1291D01*
X2060Y1295D01*
X2062Y1295D01*
X2062Y1299D01*
X2064Y1299D01*
X2064Y1301D01*
X2066Y1301D01*
X2066Y1305D01*
X2068Y1305D01*
X2068Y1309D01*
X2070Y1309D01*
X2070Y1313D01*
X2072Y1313D01*
X2072Y1317D01*
X2074Y1317D01*
X2074Y1319D01*
X2076Y1319D01*
X2076Y1323D01*
X2078Y1323D01*
X2078Y1327D01*
X2080Y1327D01*
X2080Y1331D01*
X2082Y1331D01*
X2082Y1345D01*
X2060Y1345D01*
G37*
D02*
G36*
X1936Y1337D02*
X1936Y1335D01*
X1928Y1335D01*
X1928Y1333D01*
X1922Y1333D01*
X1922Y1331D01*
X1914Y1331D01*
X1914Y1329D01*
X1908Y1329D01*
X1908Y1327D01*
X1900Y1327D01*
X1900Y1325D01*
X1894Y1325D01*
X1894Y1323D01*
X1886Y1323D01*
X1886Y1321D01*
X1878Y1321D01*
X1878Y1319D01*
X1872Y1319D01*
X1872Y1299D01*
X1958Y1299D01*
X1958Y1337D01*
X1936Y1337D01*
G37*
D02*
G36*
X538Y1329D02*
X538Y1327D01*
X560Y1327D01*
X560Y1329D01*
X538Y1329D01*
G37*
D02*
G36*
X538Y1327D02*
X538Y1321D01*
X576Y1321D01*
X576Y1323D01*
X568Y1323D01*
X568Y1325D01*
X562Y1325D01*
X562Y1327D01*
X538Y1327D01*
G37*
D02*
G36*
X594Y1327D02*
X594Y1325D01*
X590Y1325D01*
X590Y1323D01*
X580Y1323D01*
X580Y1321D01*
X614Y1321D01*
X614Y1327D01*
X594Y1327D01*
G37*
D02*
G36*
X538Y1321D02*
X538Y1319D01*
X614Y1319D01*
X614Y1321D01*
X538Y1321D01*
G37*
D02*
G36*
X538Y1321D02*
X538Y1319D01*
X614Y1319D01*
X614Y1321D01*
X538Y1321D01*
G37*
D02*
G36*
X538Y1319D02*
X538Y1301D01*
X586Y1301D01*
X586Y1299D01*
X592Y1299D01*
X592Y1297D01*
X614Y1297D01*
X614Y1319D01*
X538Y1319D01*
G37*
D02*
G36*
X538Y1301D02*
X538Y1293D01*
X558Y1293D01*
X558Y1295D01*
X560Y1295D01*
X560Y1297D01*
X564Y1297D01*
X564Y1299D01*
X570Y1299D01*
X570Y1301D01*
X538Y1301D01*
G37*
D02*
G36*
X1836Y1309D02*
X1836Y1307D01*
X1830Y1307D01*
X1830Y1305D01*
X1822Y1305D01*
X1822Y1303D01*
X1814Y1303D01*
X1814Y1301D01*
X1808Y1301D01*
X1808Y1299D01*
X1800Y1299D01*
X1800Y1297D01*
X1794Y1297D01*
X1794Y1295D01*
X1786Y1295D01*
X1786Y1293D01*
X1780Y1293D01*
X1780Y1291D01*
X1772Y1291D01*
X1772Y1289D01*
X1766Y1289D01*
X1766Y1287D01*
X1758Y1287D01*
X1758Y1285D01*
X1750Y1285D01*
X1750Y1283D01*
X1744Y1283D01*
X1744Y1281D01*
X1736Y1281D01*
X1736Y1279D01*
X1730Y1279D01*
X1730Y1277D01*
X1722Y1277D01*
X1722Y1275D01*
X1716Y1275D01*
X1716Y1273D01*
X1708Y1273D01*
X1708Y1271D01*
X1702Y1271D01*
X1702Y1269D01*
X1694Y1269D01*
X1694Y1267D01*
X1686Y1267D01*
X1686Y1265D01*
X1680Y1265D01*
X1680Y1263D01*
X1672Y1263D01*
X1672Y1261D01*
X1666Y1261D01*
X1666Y1259D01*
X1658Y1259D01*
X1658Y1257D01*
X1652Y1257D01*
X1652Y1255D01*
X1644Y1255D01*
X1644Y1253D01*
X1638Y1253D01*
X1638Y1251D01*
X1630Y1251D01*
X1630Y1249D01*
X1622Y1249D01*
X1622Y1247D01*
X1616Y1247D01*
X1616Y1245D01*
X1608Y1245D01*
X1608Y1243D01*
X1602Y1243D01*
X1602Y1241D01*
X1594Y1241D01*
X1594Y1239D01*
X1588Y1239D01*
X1588Y1237D01*
X1580Y1237D01*
X1580Y1235D01*
X1574Y1235D01*
X1574Y1233D01*
X1566Y1233D01*
X1566Y1231D01*
X1558Y1231D01*
X1558Y1229D01*
X1552Y1229D01*
X1552Y1227D01*
X1544Y1227D01*
X1544Y1225D01*
X1538Y1225D01*
X1538Y1223D01*
X1530Y1223D01*
X1530Y1221D01*
X1524Y1221D01*
X1524Y1219D01*
X1516Y1219D01*
X1516Y1217D01*
X1510Y1217D01*
X1510Y1215D01*
X1502Y1215D01*
X1502Y1213D01*
X1494Y1213D01*
X1494Y1211D01*
X1488Y1211D01*
X1488Y1209D01*
X1480Y1209D01*
X1480Y1207D01*
X1474Y1207D01*
X1474Y1205D01*
X1466Y1205D01*
X1466Y1203D01*
X1460Y1203D01*
X1460Y1201D01*
X1452Y1201D01*
X1452Y1199D01*
X1446Y1199D01*
X1446Y1197D01*
X1438Y1197D01*
X1438Y1195D01*
X1430Y1195D01*
X1430Y1193D01*
X1424Y1193D01*
X1424Y1191D01*
X1416Y1191D01*
X1416Y1189D01*
X1410Y1189D01*
X1410Y1187D01*
X1402Y1187D01*
X1402Y1185D01*
X1396Y1185D01*
X1396Y1183D01*
X1388Y1183D01*
X1388Y1181D01*
X1382Y1181D01*
X1382Y1179D01*
X1374Y1179D01*
X1374Y1177D01*
X1366Y1177D01*
X1366Y1175D01*
X1360Y1175D01*
X1360Y1173D01*
X1352Y1173D01*
X1352Y1171D01*
X1346Y1171D01*
X1346Y1169D01*
X1338Y1169D01*
X1338Y1167D01*
X1332Y1167D01*
X1332Y1165D01*
X1324Y1165D01*
X1324Y1163D01*
X1318Y1163D01*
X1318Y1161D01*
X1310Y1161D01*
X1310Y1159D01*
X1302Y1159D01*
X1302Y1157D01*
X1296Y1157D01*
X1296Y1155D01*
X1288Y1155D01*
X1288Y1153D01*
X1282Y1153D01*
X1282Y1151D01*
X1274Y1151D01*
X1274Y1149D01*
X1268Y1149D01*
X1268Y1147D01*
X1260Y1147D01*
X1260Y1145D01*
X1254Y1145D01*
X1254Y1143D01*
X1246Y1143D01*
X1246Y1141D01*
X1238Y1141D01*
X1238Y1139D01*
X1232Y1139D01*
X1232Y1137D01*
X1224Y1137D01*
X1224Y1135D01*
X1218Y1135D01*
X1218Y1133D01*
X1210Y1133D01*
X1210Y1131D01*
X1204Y1131D01*
X1204Y1129D01*
X1196Y1129D01*
X1196Y1127D01*
X1190Y1127D01*
X1190Y1125D01*
X1182Y1125D01*
X1182Y1123D01*
X1174Y1123D01*
X1174Y1121D01*
X1168Y1121D01*
X1168Y1119D01*
X1160Y1119D01*
X1160Y1117D01*
X1154Y1117D01*
X1154Y1115D01*
X1146Y1115D01*
X1146Y1113D01*
X1140Y1113D01*
X1140Y1111D01*
X1132Y1111D01*
X1132Y1109D01*
X1126Y1109D01*
X1126Y1107D01*
X1118Y1107D01*
X1118Y1105D01*
X1110Y1105D01*
X1110Y1103D01*
X1104Y1103D01*
X1104Y1101D01*
X1096Y1101D01*
X1096Y1099D01*
X1090Y1099D01*
X1090Y1097D01*
X1082Y1097D01*
X1082Y1095D01*
X1076Y1095D01*
X1076Y1093D01*
X1068Y1093D01*
X1068Y1091D01*
X1062Y1091D01*
X1062Y1089D01*
X1054Y1089D01*
X1054Y1087D01*
X1046Y1087D01*
X1046Y1085D01*
X1040Y1085D01*
X1040Y1083D01*
X1032Y1083D01*
X1032Y1081D01*
X1026Y1081D01*
X1026Y1079D01*
X1018Y1079D01*
X1018Y1077D01*
X1012Y1077D01*
X1012Y1075D01*
X1004Y1075D01*
X1004Y1073D01*
X998Y1073D01*
X998Y1071D01*
X990Y1071D01*
X990Y1069D01*
X982Y1069D01*
X982Y1067D01*
X976Y1067D01*
X976Y1065D01*
X968Y1065D01*
X968Y1063D01*
X962Y1063D01*
X962Y1061D01*
X954Y1061D01*
X954Y1059D01*
X948Y1059D01*
X948Y1057D01*
X940Y1057D01*
X940Y1055D01*
X934Y1055D01*
X934Y1053D01*
X926Y1053D01*
X926Y1051D01*
X918Y1051D01*
X918Y1049D01*
X912Y1049D01*
X912Y1047D01*
X904Y1047D01*
X904Y1045D01*
X898Y1045D01*
X898Y1029D01*
X928Y1029D01*
X928Y1031D01*
X940Y1031D01*
X940Y1033D01*
X952Y1033D01*
X952Y1035D01*
X962Y1035D01*
X962Y1037D01*
X974Y1037D01*
X974Y1039D01*
X986Y1039D01*
X986Y1041D01*
X998Y1041D01*
X998Y1043D01*
X1010Y1043D01*
X1010Y1045D01*
X1022Y1045D01*
X1022Y1047D01*
X1034Y1047D01*
X1034Y1049D01*
X1044Y1049D01*
X1044Y1051D01*
X1056Y1051D01*
X1056Y1053D01*
X1068Y1053D01*
X1068Y1055D01*
X1080Y1055D01*
X1080Y1057D01*
X1092Y1057D01*
X1092Y1059D01*
X1104Y1059D01*
X1104Y1061D01*
X1114Y1061D01*
X1114Y1063D01*
X1126Y1063D01*
X1126Y1065D01*
X1138Y1065D01*
X1138Y1067D01*
X1150Y1067D01*
X1150Y1069D01*
X1162Y1069D01*
X1162Y1071D01*
X1174Y1071D01*
X1174Y1073D01*
X1186Y1073D01*
X1186Y1075D01*
X1196Y1075D01*
X1196Y1077D01*
X1208Y1077D01*
X1208Y1079D01*
X1220Y1079D01*
X1220Y1081D01*
X1232Y1081D01*
X1232Y1083D01*
X1244Y1083D01*
X1244Y1085D01*
X1256Y1085D01*
X1256Y1087D01*
X1266Y1087D01*
X1266Y1089D01*
X1278Y1089D01*
X1278Y1091D01*
X1290Y1091D01*
X1290Y1093D01*
X1302Y1093D01*
X1302Y1095D01*
X1314Y1095D01*
X1314Y1097D01*
X1326Y1097D01*
X1326Y1099D01*
X1338Y1099D01*
X1338Y1101D01*
X1348Y1101D01*
X1348Y1103D01*
X1360Y1103D01*
X1360Y1105D01*
X1372Y1105D01*
X1372Y1107D01*
X1384Y1107D01*
X1384Y1109D01*
X1396Y1109D01*
X1396Y1111D01*
X1408Y1111D01*
X1408Y1113D01*
X1418Y1113D01*
X1418Y1115D01*
X1430Y1115D01*
X1430Y1117D01*
X1442Y1117D01*
X1442Y1119D01*
X1454Y1119D01*
X1454Y1121D01*
X1466Y1121D01*
X1466Y1123D01*
X1478Y1123D01*
X1478Y1125D01*
X1490Y1125D01*
X1490Y1127D01*
X1500Y1127D01*
X1500Y1129D01*
X1512Y1129D01*
X1512Y1131D01*
X1524Y1131D01*
X1524Y1133D01*
X1536Y1133D01*
X1536Y1135D01*
X1548Y1135D01*
X1548Y1137D01*
X1560Y1137D01*
X1560Y1139D01*
X1570Y1139D01*
X1570Y1141D01*
X1582Y1141D01*
X1582Y1143D01*
X1594Y1143D01*
X1594Y1145D01*
X1606Y1145D01*
X1606Y1147D01*
X1618Y1147D01*
X1618Y1149D01*
X1630Y1149D01*
X1630Y1151D01*
X1642Y1151D01*
X1642Y1153D01*
X1652Y1153D01*
X1652Y1155D01*
X1664Y1155D01*
X1664Y1157D01*
X1676Y1157D01*
X1676Y1159D01*
X1688Y1159D01*
X1688Y1161D01*
X1700Y1161D01*
X1700Y1163D01*
X1712Y1163D01*
X1712Y1165D01*
X1722Y1165D01*
X1722Y1167D01*
X1734Y1167D01*
X1734Y1169D01*
X1746Y1169D01*
X1746Y1171D01*
X1758Y1171D01*
X1758Y1173D01*
X1770Y1173D01*
X1770Y1175D01*
X1782Y1175D01*
X1782Y1177D01*
X1794Y1177D01*
X1794Y1179D01*
X1804Y1179D01*
X1804Y1181D01*
X1816Y1181D01*
X1816Y1183D01*
X1828Y1183D01*
X1828Y1185D01*
X1840Y1185D01*
X1840Y1187D01*
X1852Y1187D01*
X1852Y1189D01*
X1862Y1189D01*
X1862Y1309D01*
X1836Y1309D01*
G37*
D02*
G36*
X132Y1305D02*
X132Y1303D01*
X130Y1303D01*
X130Y1299D01*
X128Y1299D01*
X128Y1297D01*
X126Y1297D01*
X126Y1295D01*
X124Y1295D01*
X124Y1293D01*
X122Y1293D01*
X122Y1291D01*
X120Y1291D01*
X120Y1289D01*
X116Y1289D01*
X116Y1287D01*
X114Y1287D01*
X114Y1265D01*
X116Y1265D01*
X116Y1263D01*
X120Y1263D01*
X120Y1261D01*
X122Y1261D01*
X122Y1259D01*
X124Y1259D01*
X124Y1257D01*
X126Y1257D01*
X126Y1255D01*
X128Y1255D01*
X128Y1253D01*
X130Y1253D01*
X130Y1249D01*
X132Y1249D01*
X132Y1247D01*
X154Y1247D01*
X154Y1249D01*
X156Y1249D01*
X156Y1253D01*
X158Y1253D01*
X158Y1255D01*
X160Y1255D01*
X160Y1257D01*
X162Y1257D01*
X162Y1259D01*
X164Y1259D01*
X164Y1261D01*
X166Y1261D01*
X166Y1263D01*
X170Y1263D01*
X170Y1265D01*
X172Y1265D01*
X172Y1287D01*
X170Y1287D01*
X170Y1289D01*
X166Y1289D01*
X166Y1291D01*
X164Y1291D01*
X164Y1293D01*
X162Y1293D01*
X162Y1295D01*
X160Y1295D01*
X160Y1297D01*
X158Y1297D01*
X158Y1299D01*
X156Y1299D01*
X156Y1303D01*
X154Y1303D01*
X154Y1305D01*
X132Y1305D01*
G37*
D02*
G36*
X230Y1303D02*
X230Y1299D01*
X228Y1299D01*
X228Y1297D01*
X226Y1297D01*
X226Y1295D01*
X224Y1295D01*
X224Y1293D01*
X222Y1293D01*
X222Y1291D01*
X220Y1291D01*
X220Y1289D01*
X216Y1289D01*
X216Y1287D01*
X214Y1287D01*
X214Y1265D01*
X216Y1265D01*
X216Y1263D01*
X220Y1263D01*
X220Y1261D01*
X222Y1261D01*
X222Y1259D01*
X224Y1259D01*
X224Y1257D01*
X226Y1257D01*
X226Y1255D01*
X228Y1255D01*
X228Y1253D01*
X230Y1253D01*
X230Y1249D01*
X232Y1249D01*
X232Y1247D01*
X234Y1247D01*
X234Y1243D01*
X370Y1243D01*
X370Y1241D01*
X470Y1241D01*
X470Y1287D01*
X448Y1287D01*
X448Y1289D01*
X424Y1289D01*
X424Y1291D01*
X398Y1291D01*
X398Y1293D01*
X372Y1293D01*
X372Y1295D01*
X346Y1295D01*
X346Y1297D01*
X320Y1297D01*
X320Y1299D01*
X294Y1299D01*
X294Y1301D01*
X270Y1301D01*
X270Y1303D01*
X230Y1303D01*
G37*
D02*
G36*
X234Y1207D02*
X234Y1205D01*
X232Y1205D01*
X232Y1203D01*
X230Y1203D01*
X230Y1199D01*
X228Y1199D01*
X228Y1197D01*
X226Y1197D01*
X226Y1195D01*
X224Y1195D01*
X224Y1193D01*
X222Y1193D01*
X222Y1191D01*
X220Y1191D01*
X220Y1189D01*
X216Y1189D01*
X216Y1187D01*
X214Y1187D01*
X214Y1165D01*
X216Y1165D01*
X216Y1163D01*
X220Y1163D01*
X220Y1161D01*
X222Y1161D01*
X222Y1159D01*
X224Y1159D01*
X224Y1157D01*
X226Y1157D01*
X226Y1155D01*
X228Y1155D01*
X228Y1153D01*
X230Y1153D01*
X230Y1149D01*
X232Y1149D01*
X232Y1147D01*
X234Y1147D01*
X234Y1143D01*
X236Y1143D01*
X236Y1137D01*
X238Y1137D01*
X238Y1113D01*
X240Y1113D01*
X240Y1111D01*
X244Y1111D01*
X244Y1109D01*
X246Y1109D01*
X246Y1107D01*
X250Y1107D01*
X250Y1105D01*
X252Y1105D01*
X252Y1103D01*
X256Y1103D01*
X256Y1101D01*
X258Y1101D01*
X258Y1099D01*
X262Y1099D01*
X262Y1097D01*
X266Y1097D01*
X266Y1095D01*
X268Y1095D01*
X268Y1093D01*
X272Y1093D01*
X272Y1091D01*
X274Y1091D01*
X274Y1089D01*
X278Y1089D01*
X278Y1087D01*
X280Y1087D01*
X280Y1085D01*
X284Y1085D01*
X284Y1083D01*
X286Y1083D01*
X286Y1081D01*
X290Y1081D01*
X290Y1079D01*
X292Y1079D01*
X292Y1077D01*
X296Y1077D01*
X296Y1075D01*
X300Y1075D01*
X300Y1073D01*
X302Y1073D01*
X302Y1071D01*
X306Y1071D01*
X306Y1069D01*
X308Y1069D01*
X308Y1067D01*
X312Y1067D01*
X312Y1065D01*
X314Y1065D01*
X314Y1063D01*
X318Y1063D01*
X318Y1061D01*
X320Y1061D01*
X320Y1059D01*
X324Y1059D01*
X324Y1057D01*
X326Y1057D01*
X326Y1055D01*
X330Y1055D01*
X330Y1053D01*
X334Y1053D01*
X334Y1051D01*
X336Y1051D01*
X336Y1049D01*
X340Y1049D01*
X340Y1047D01*
X342Y1047D01*
X342Y1045D01*
X346Y1045D01*
X346Y1043D01*
X348Y1043D01*
X348Y1041D01*
X352Y1041D01*
X352Y1039D01*
X354Y1039D01*
X354Y1037D01*
X358Y1037D01*
X358Y1035D01*
X360Y1035D01*
X360Y1033D01*
X364Y1033D01*
X364Y1031D01*
X368Y1031D01*
X368Y1029D01*
X370Y1029D01*
X370Y1027D01*
X374Y1027D01*
X374Y1025D01*
X376Y1025D01*
X376Y1023D01*
X380Y1023D01*
X380Y1021D01*
X382Y1021D01*
X382Y1019D01*
X386Y1019D01*
X386Y1017D01*
X388Y1017D01*
X388Y1015D01*
X392Y1015D01*
X392Y1013D01*
X394Y1013D01*
X394Y1011D01*
X398Y1011D01*
X398Y1009D01*
X402Y1009D01*
X402Y1007D01*
X404Y1007D01*
X404Y1005D01*
X408Y1005D01*
X408Y1003D01*
X410Y1003D01*
X410Y1001D01*
X414Y1001D01*
X414Y999D01*
X416Y999D01*
X416Y997D01*
X420Y997D01*
X420Y995D01*
X422Y995D01*
X422Y993D01*
X426Y993D01*
X426Y991D01*
X428Y991D01*
X428Y989D01*
X432Y989D01*
X432Y987D01*
X436Y987D01*
X436Y985D01*
X438Y985D01*
X438Y983D01*
X442Y983D01*
X442Y981D01*
X444Y981D01*
X444Y979D01*
X448Y979D01*
X448Y977D01*
X450Y977D01*
X450Y975D01*
X470Y975D01*
X470Y997D01*
X450Y997D01*
X450Y999D01*
X446Y999D01*
X446Y1001D01*
X444Y1001D01*
X444Y1003D01*
X442Y1003D01*
X442Y1005D01*
X440Y1005D01*
X440Y1009D01*
X438Y1009D01*
X438Y1205D01*
X370Y1205D01*
X370Y1207D01*
X234Y1207D01*
G37*
D02*
G36*
X132Y1205D02*
X132Y1203D01*
X130Y1203D01*
X130Y1199D01*
X128Y1199D01*
X128Y1197D01*
X126Y1197D01*
X126Y1195D01*
X124Y1195D01*
X124Y1193D01*
X122Y1193D01*
X122Y1191D01*
X120Y1191D01*
X120Y1189D01*
X116Y1189D01*
X116Y1187D01*
X114Y1187D01*
X114Y1165D01*
X116Y1165D01*
X116Y1163D01*
X120Y1163D01*
X120Y1161D01*
X122Y1161D01*
X122Y1159D01*
X124Y1159D01*
X124Y1157D01*
X126Y1157D01*
X126Y1155D01*
X128Y1155D01*
X128Y1153D01*
X130Y1153D01*
X130Y1149D01*
X132Y1149D01*
X132Y1147D01*
X154Y1147D01*
X154Y1149D01*
X156Y1149D01*
X156Y1153D01*
X158Y1153D01*
X158Y1155D01*
X160Y1155D01*
X160Y1157D01*
X162Y1157D01*
X162Y1159D01*
X164Y1159D01*
X164Y1161D01*
X166Y1161D01*
X166Y1163D01*
X170Y1163D01*
X170Y1165D01*
X172Y1165D01*
X172Y1187D01*
X170Y1187D01*
X170Y1189D01*
X166Y1189D01*
X166Y1191D01*
X164Y1191D01*
X164Y1193D01*
X162Y1193D01*
X162Y1195D01*
X160Y1195D01*
X160Y1197D01*
X158Y1197D01*
X158Y1199D01*
X156Y1199D01*
X156Y1203D01*
X154Y1203D01*
X154Y1205D01*
X132Y1205D01*
G37*
D02*
G36*
X1842Y1151D02*
X1842Y1149D01*
X1832Y1149D01*
X1832Y1147D01*
X1820Y1147D01*
X1820Y1145D01*
X1808Y1145D01*
X1808Y1143D01*
X1796Y1143D01*
X1796Y1141D01*
X1784Y1141D01*
X1784Y1139D01*
X1772Y1139D01*
X1772Y1137D01*
X1762Y1137D01*
X1762Y1135D01*
X1750Y1135D01*
X1750Y1133D01*
X1738Y1133D01*
X1738Y1131D01*
X1726Y1131D01*
X1726Y1129D01*
X1714Y1129D01*
X1714Y1127D01*
X1702Y1127D01*
X1702Y1125D01*
X1690Y1125D01*
X1690Y1123D01*
X1680Y1123D01*
X1680Y1121D01*
X1668Y1121D01*
X1668Y1119D01*
X1656Y1119D01*
X1656Y1117D01*
X1644Y1117D01*
X1644Y1115D01*
X1632Y1115D01*
X1632Y1113D01*
X1620Y1113D01*
X1620Y1111D01*
X1610Y1111D01*
X1610Y1109D01*
X1598Y1109D01*
X1598Y1107D01*
X1586Y1107D01*
X1586Y1105D01*
X1574Y1105D01*
X1574Y1103D01*
X1562Y1103D01*
X1562Y1101D01*
X1550Y1101D01*
X1550Y1099D01*
X1538Y1099D01*
X1538Y1097D01*
X1528Y1097D01*
X1528Y1095D01*
X1516Y1095D01*
X1516Y1093D01*
X1504Y1093D01*
X1504Y1091D01*
X1492Y1091D01*
X1492Y1089D01*
X1480Y1089D01*
X1480Y1087D01*
X1468Y1087D01*
X1468Y1085D01*
X1458Y1085D01*
X1458Y1083D01*
X1446Y1083D01*
X1446Y1081D01*
X1434Y1081D01*
X1434Y1079D01*
X1422Y1079D01*
X1422Y1077D01*
X1410Y1077D01*
X1410Y1075D01*
X1398Y1075D01*
X1398Y1073D01*
X1386Y1073D01*
X1386Y1071D01*
X1376Y1071D01*
X1376Y1069D01*
X1364Y1069D01*
X1364Y1067D01*
X1352Y1067D01*
X1352Y1065D01*
X1340Y1065D01*
X1340Y1063D01*
X1328Y1063D01*
X1328Y1061D01*
X1316Y1061D01*
X1316Y1059D01*
X1306Y1059D01*
X1306Y1057D01*
X1294Y1057D01*
X1294Y1055D01*
X1282Y1055D01*
X1282Y1053D01*
X1270Y1053D01*
X1270Y1051D01*
X1258Y1051D01*
X1258Y1049D01*
X1246Y1049D01*
X1246Y1047D01*
X1234Y1047D01*
X1234Y1045D01*
X1224Y1045D01*
X1224Y1043D01*
X1212Y1043D01*
X1212Y1041D01*
X1200Y1041D01*
X1200Y1039D01*
X1188Y1039D01*
X1188Y1037D01*
X1176Y1037D01*
X1176Y1035D01*
X1164Y1035D01*
X1164Y1033D01*
X1154Y1033D01*
X1154Y1031D01*
X1142Y1031D01*
X1142Y1029D01*
X1130Y1029D01*
X1130Y1027D01*
X1118Y1027D01*
X1118Y1025D01*
X1106Y1025D01*
X1106Y1023D01*
X1094Y1023D01*
X1094Y1021D01*
X1082Y1021D01*
X1082Y1019D01*
X1072Y1019D01*
X1072Y1017D01*
X1060Y1017D01*
X1060Y1015D01*
X1048Y1015D01*
X1048Y1013D01*
X1036Y1013D01*
X1036Y1011D01*
X1024Y1011D01*
X1024Y1009D01*
X1012Y1009D01*
X1012Y1007D01*
X1002Y1007D01*
X1002Y1005D01*
X990Y1005D01*
X990Y1003D01*
X978Y1003D01*
X978Y1001D01*
X966Y1001D01*
X966Y999D01*
X954Y999D01*
X954Y997D01*
X942Y997D01*
X942Y995D01*
X930Y995D01*
X930Y993D01*
X920Y993D01*
X920Y991D01*
X908Y991D01*
X908Y989D01*
X896Y989D01*
X896Y987D01*
X884Y987D01*
X884Y985D01*
X872Y985D01*
X872Y983D01*
X860Y983D01*
X860Y981D01*
X850Y981D01*
X850Y979D01*
X838Y979D01*
X838Y965D01*
X1134Y965D01*
X1134Y963D01*
X1138Y963D01*
X1138Y961D01*
X1142Y961D01*
X1142Y959D01*
X1144Y959D01*
X1144Y957D01*
X1148Y957D01*
X1148Y955D01*
X1150Y955D01*
X1150Y951D01*
X1152Y951D01*
X1152Y949D01*
X1154Y949D01*
X1154Y945D01*
X1156Y945D01*
X1156Y939D01*
X1158Y939D01*
X1158Y931D01*
X1156Y931D01*
X1156Y925D01*
X1154Y925D01*
X1154Y921D01*
X1152Y921D01*
X1152Y919D01*
X1150Y919D01*
X1150Y915D01*
X1148Y915D01*
X1148Y913D01*
X1144Y913D01*
X1144Y911D01*
X1142Y911D01*
X1142Y909D01*
X1138Y909D01*
X1138Y907D01*
X1132Y907D01*
X1132Y905D01*
X1128Y905D01*
X1128Y901D01*
X1126Y901D01*
X1126Y899D01*
X1124Y899D01*
X1124Y895D01*
X1122Y895D01*
X1122Y893D01*
X1120Y893D01*
X1120Y889D01*
X1118Y889D01*
X1118Y887D01*
X1116Y887D01*
X1116Y883D01*
X1114Y883D01*
X1114Y881D01*
X1112Y881D01*
X1112Y877D01*
X1110Y877D01*
X1110Y875D01*
X1108Y875D01*
X1108Y873D01*
X1106Y873D01*
X1106Y871D01*
X1102Y871D01*
X1102Y869D01*
X1082Y869D01*
X1082Y867D01*
X1052Y867D01*
X1052Y865D01*
X1022Y865D01*
X1022Y863D01*
X992Y863D01*
X992Y861D01*
X964Y861D01*
X964Y859D01*
X934Y859D01*
X934Y857D01*
X904Y857D01*
X904Y855D01*
X874Y855D01*
X874Y853D01*
X844Y853D01*
X844Y851D01*
X816Y851D01*
X816Y849D01*
X786Y849D01*
X786Y847D01*
X756Y847D01*
X756Y845D01*
X726Y845D01*
X726Y825D01*
X1348Y825D01*
X1348Y827D01*
X1350Y827D01*
X1350Y829D01*
X1352Y829D01*
X1352Y831D01*
X1356Y831D01*
X1356Y833D01*
X1358Y833D01*
X1358Y835D01*
X1360Y835D01*
X1360Y837D01*
X1364Y837D01*
X1364Y839D01*
X1366Y839D01*
X1366Y841D01*
X1368Y841D01*
X1368Y843D01*
X1372Y843D01*
X1372Y845D01*
X1374Y845D01*
X1374Y847D01*
X1376Y847D01*
X1376Y849D01*
X1380Y849D01*
X1380Y851D01*
X1382Y851D01*
X1382Y853D01*
X1384Y853D01*
X1384Y855D01*
X1388Y855D01*
X1388Y857D01*
X1390Y857D01*
X1390Y859D01*
X1392Y859D01*
X1392Y861D01*
X1396Y861D01*
X1396Y863D01*
X1398Y863D01*
X1398Y865D01*
X1400Y865D01*
X1400Y867D01*
X1404Y867D01*
X1404Y869D01*
X1406Y869D01*
X1406Y871D01*
X1408Y871D01*
X1408Y873D01*
X1412Y873D01*
X1412Y875D01*
X1414Y875D01*
X1414Y877D01*
X1416Y877D01*
X1416Y879D01*
X1420Y879D01*
X1420Y881D01*
X1422Y881D01*
X1422Y883D01*
X1424Y883D01*
X1424Y885D01*
X1428Y885D01*
X1428Y887D01*
X1430Y887D01*
X1430Y889D01*
X1432Y889D01*
X1432Y891D01*
X1436Y891D01*
X1436Y893D01*
X1438Y893D01*
X1438Y895D01*
X1440Y895D01*
X1440Y897D01*
X1444Y897D01*
X1444Y899D01*
X1446Y899D01*
X1446Y901D01*
X1448Y901D01*
X1448Y903D01*
X1452Y903D01*
X1452Y905D01*
X1454Y905D01*
X1454Y907D01*
X1456Y907D01*
X1456Y909D01*
X1460Y909D01*
X1460Y911D01*
X1462Y911D01*
X1462Y913D01*
X1464Y913D01*
X1464Y915D01*
X1468Y915D01*
X1468Y917D01*
X1470Y917D01*
X1470Y919D01*
X1472Y919D01*
X1472Y921D01*
X1476Y921D01*
X1476Y923D01*
X1478Y923D01*
X1478Y925D01*
X1480Y925D01*
X1480Y927D01*
X1484Y927D01*
X1484Y929D01*
X1486Y929D01*
X1486Y931D01*
X1488Y931D01*
X1488Y933D01*
X1492Y933D01*
X1492Y935D01*
X1494Y935D01*
X1494Y937D01*
X1496Y937D01*
X1496Y939D01*
X1500Y939D01*
X1500Y941D01*
X1502Y941D01*
X1502Y943D01*
X1504Y943D01*
X1504Y945D01*
X1508Y945D01*
X1508Y947D01*
X1510Y947D01*
X1510Y949D01*
X1512Y949D01*
X1512Y951D01*
X1516Y951D01*
X1516Y953D01*
X1518Y953D01*
X1518Y955D01*
X1520Y955D01*
X1520Y957D01*
X1524Y957D01*
X1524Y959D01*
X1526Y959D01*
X1526Y961D01*
X1528Y961D01*
X1528Y963D01*
X1532Y963D01*
X1532Y965D01*
X1534Y965D01*
X1534Y967D01*
X1536Y967D01*
X1536Y969D01*
X1540Y969D01*
X1540Y971D01*
X1542Y971D01*
X1542Y973D01*
X1544Y973D01*
X1544Y975D01*
X1548Y975D01*
X1548Y977D01*
X1550Y977D01*
X1550Y979D01*
X1552Y979D01*
X1552Y981D01*
X1556Y981D01*
X1556Y983D01*
X1558Y983D01*
X1558Y985D01*
X1560Y985D01*
X1560Y987D01*
X1564Y987D01*
X1564Y989D01*
X1566Y989D01*
X1566Y991D01*
X1568Y991D01*
X1568Y993D01*
X1572Y993D01*
X1572Y995D01*
X1574Y995D01*
X1574Y997D01*
X1576Y997D01*
X1576Y999D01*
X1580Y999D01*
X1580Y1001D01*
X1582Y1001D01*
X1582Y1003D01*
X1584Y1003D01*
X1584Y1005D01*
X1588Y1005D01*
X1588Y1007D01*
X1590Y1007D01*
X1590Y1009D01*
X1592Y1009D01*
X1592Y1011D01*
X1596Y1011D01*
X1596Y1013D01*
X1598Y1013D01*
X1598Y1015D01*
X1600Y1015D01*
X1600Y1017D01*
X1604Y1017D01*
X1604Y1019D01*
X1606Y1019D01*
X1606Y1021D01*
X1608Y1021D01*
X1608Y1023D01*
X1612Y1023D01*
X1612Y1025D01*
X1614Y1025D01*
X1614Y1027D01*
X1616Y1027D01*
X1616Y1029D01*
X1620Y1029D01*
X1620Y1031D01*
X1622Y1031D01*
X1622Y1033D01*
X1624Y1033D01*
X1624Y1035D01*
X1628Y1035D01*
X1628Y1037D01*
X1630Y1037D01*
X1630Y1039D01*
X1632Y1039D01*
X1632Y1041D01*
X1636Y1041D01*
X1636Y1043D01*
X1638Y1043D01*
X1638Y1045D01*
X1640Y1045D01*
X1640Y1047D01*
X1644Y1047D01*
X1644Y1049D01*
X1646Y1049D01*
X1646Y1051D01*
X1648Y1051D01*
X1648Y1053D01*
X1652Y1053D01*
X1652Y1055D01*
X1654Y1055D01*
X1654Y1057D01*
X1656Y1057D01*
X1656Y1059D01*
X1660Y1059D01*
X1660Y1061D01*
X1662Y1061D01*
X1662Y1063D01*
X1666Y1063D01*
X1666Y1065D01*
X1872Y1065D01*
X1872Y1085D01*
X1870Y1085D01*
X1870Y1087D01*
X1868Y1087D01*
X1868Y1091D01*
X1866Y1091D01*
X1866Y1095D01*
X1864Y1095D01*
X1864Y1101D01*
X1862Y1101D01*
X1862Y1121D01*
X1864Y1121D01*
X1864Y1127D01*
X1866Y1127D01*
X1866Y1131D01*
X1868Y1131D01*
X1868Y1135D01*
X1870Y1135D01*
X1870Y1151D01*
X1842Y1151D01*
G37*
D02*
G36*
X838Y965D02*
X838Y959D01*
X864Y959D01*
X864Y957D01*
X938Y957D01*
X938Y955D01*
X1028Y955D01*
X1028Y957D01*
X1032Y957D01*
X1032Y959D01*
X1034Y959D01*
X1034Y961D01*
X1038Y961D01*
X1038Y963D01*
X1042Y963D01*
X1042Y965D01*
X838Y965D01*
G37*
D02*
G36*
X1054Y965D02*
X1054Y963D01*
X1058Y963D01*
X1058Y961D01*
X1062Y961D01*
X1062Y959D01*
X1064Y959D01*
X1064Y957D01*
X1068Y957D01*
X1068Y955D01*
X1070Y955D01*
X1070Y951D01*
X1072Y951D01*
X1072Y949D01*
X1074Y949D01*
X1074Y945D01*
X1076Y945D01*
X1076Y939D01*
X1078Y939D01*
X1078Y931D01*
X1076Y931D01*
X1076Y925D01*
X1074Y925D01*
X1074Y915D01*
X1094Y915D01*
X1094Y919D01*
X1096Y919D01*
X1096Y921D01*
X1098Y921D01*
X1098Y941D01*
X1100Y941D01*
X1100Y945D01*
X1102Y945D01*
X1102Y949D01*
X1104Y949D01*
X1104Y951D01*
X1106Y951D01*
X1106Y955D01*
X1108Y955D01*
X1108Y957D01*
X1112Y957D01*
X1112Y959D01*
X1114Y959D01*
X1114Y961D01*
X1118Y961D01*
X1118Y963D01*
X1122Y963D01*
X1122Y965D01*
X1054Y965D01*
G37*
D02*
G36*
X132Y1105D02*
X132Y1103D01*
X130Y1103D01*
X130Y1099D01*
X128Y1099D01*
X128Y1097D01*
X126Y1097D01*
X126Y1095D01*
X124Y1095D01*
X124Y1093D01*
X122Y1093D01*
X122Y1091D01*
X120Y1091D01*
X120Y1089D01*
X116Y1089D01*
X116Y1087D01*
X114Y1087D01*
X114Y1065D01*
X116Y1065D01*
X116Y1063D01*
X120Y1063D01*
X120Y1061D01*
X122Y1061D01*
X122Y1059D01*
X124Y1059D01*
X124Y1057D01*
X126Y1057D01*
X126Y1055D01*
X128Y1055D01*
X128Y1053D01*
X130Y1053D01*
X130Y1049D01*
X132Y1049D01*
X132Y1047D01*
X154Y1047D01*
X154Y1049D01*
X156Y1049D01*
X156Y1053D01*
X158Y1053D01*
X158Y1055D01*
X160Y1055D01*
X160Y1057D01*
X162Y1057D01*
X162Y1059D01*
X164Y1059D01*
X164Y1061D01*
X166Y1061D01*
X166Y1063D01*
X170Y1063D01*
X170Y1065D01*
X172Y1065D01*
X172Y1087D01*
X170Y1087D01*
X170Y1089D01*
X166Y1089D01*
X166Y1091D01*
X164Y1091D01*
X164Y1093D01*
X162Y1093D01*
X162Y1095D01*
X160Y1095D01*
X160Y1097D01*
X158Y1097D01*
X158Y1099D01*
X156Y1099D01*
X156Y1103D01*
X154Y1103D01*
X154Y1105D01*
X132Y1105D01*
G37*
D02*
G36*
X616Y1093D02*
X616Y1069D01*
X618Y1069D01*
X618Y1053D01*
X616Y1053D01*
X616Y1033D01*
X640Y1033D01*
X640Y1059D01*
X638Y1059D01*
X638Y1065D01*
X640Y1065D01*
X640Y1073D01*
X642Y1073D01*
X642Y1093D01*
X616Y1093D01*
G37*
D02*
G36*
X214Y1073D02*
X214Y1065D01*
X216Y1065D01*
X216Y1063D01*
X220Y1063D01*
X220Y1061D01*
X222Y1061D01*
X222Y1059D01*
X224Y1059D01*
X224Y1057D01*
X226Y1057D01*
X226Y1055D01*
X228Y1055D01*
X228Y1053D01*
X230Y1053D01*
X230Y1049D01*
X232Y1049D01*
X232Y1047D01*
X234Y1047D01*
X234Y1043D01*
X236Y1043D01*
X236Y1037D01*
X238Y1037D01*
X238Y1015D01*
X236Y1015D01*
X236Y1009D01*
X234Y1009D01*
X234Y1005D01*
X232Y1005D01*
X232Y1003D01*
X230Y1003D01*
X230Y999D01*
X228Y999D01*
X228Y997D01*
X226Y997D01*
X226Y995D01*
X224Y995D01*
X224Y993D01*
X222Y993D01*
X222Y991D01*
X220Y991D01*
X220Y989D01*
X216Y989D01*
X216Y987D01*
X214Y987D01*
X214Y965D01*
X216Y965D01*
X216Y963D01*
X220Y963D01*
X220Y961D01*
X222Y961D01*
X222Y959D01*
X224Y959D01*
X224Y957D01*
X226Y957D01*
X226Y955D01*
X228Y955D01*
X228Y953D01*
X230Y953D01*
X230Y949D01*
X232Y949D01*
X232Y947D01*
X234Y947D01*
X234Y943D01*
X236Y943D01*
X236Y937D01*
X238Y937D01*
X238Y915D01*
X236Y915D01*
X236Y909D01*
X234Y909D01*
X234Y905D01*
X232Y905D01*
X232Y903D01*
X230Y903D01*
X230Y899D01*
X228Y899D01*
X228Y897D01*
X226Y897D01*
X226Y895D01*
X224Y895D01*
X224Y893D01*
X222Y893D01*
X222Y891D01*
X220Y891D01*
X220Y889D01*
X216Y889D01*
X216Y887D01*
X214Y887D01*
X214Y865D01*
X216Y865D01*
X216Y863D01*
X220Y863D01*
X220Y861D01*
X222Y861D01*
X222Y859D01*
X224Y859D01*
X224Y857D01*
X226Y857D01*
X226Y855D01*
X228Y855D01*
X228Y853D01*
X230Y853D01*
X230Y849D01*
X232Y849D01*
X232Y847D01*
X252Y847D01*
X252Y849D01*
X282Y849D01*
X282Y851D01*
X310Y851D01*
X310Y853D01*
X340Y853D01*
X340Y855D01*
X370Y855D01*
X370Y857D01*
X400Y857D01*
X400Y859D01*
X430Y859D01*
X430Y861D01*
X458Y861D01*
X458Y863D01*
X488Y863D01*
X488Y865D01*
X518Y865D01*
X518Y867D01*
X548Y867D01*
X548Y869D01*
X578Y869D01*
X578Y871D01*
X606Y871D01*
X606Y873D01*
X636Y873D01*
X636Y875D01*
X666Y875D01*
X666Y877D01*
X696Y877D01*
X696Y879D01*
X726Y879D01*
X726Y881D01*
X754Y881D01*
X754Y883D01*
X784Y883D01*
X784Y885D01*
X814Y885D01*
X814Y887D01*
X844Y887D01*
X844Y889D01*
X874Y889D01*
X874Y891D01*
X902Y891D01*
X902Y893D01*
X932Y893D01*
X932Y895D01*
X962Y895D01*
X962Y897D01*
X992Y897D01*
X992Y899D01*
X1010Y899D01*
X1010Y919D01*
X936Y919D01*
X936Y921D01*
X864Y921D01*
X864Y923D01*
X790Y923D01*
X790Y925D01*
X716Y925D01*
X716Y927D01*
X642Y927D01*
X642Y929D01*
X568Y929D01*
X568Y931D01*
X494Y931D01*
X494Y933D01*
X450Y933D01*
X450Y935D01*
X446Y935D01*
X446Y937D01*
X442Y937D01*
X442Y939D01*
X440Y939D01*
X440Y941D01*
X436Y941D01*
X436Y943D01*
X434Y943D01*
X434Y945D01*
X430Y945D01*
X430Y947D01*
X428Y947D01*
X428Y949D01*
X424Y949D01*
X424Y951D01*
X422Y951D01*
X422Y953D01*
X418Y953D01*
X418Y955D01*
X416Y955D01*
X416Y957D01*
X412Y957D01*
X412Y959D01*
X408Y959D01*
X408Y961D01*
X406Y961D01*
X406Y963D01*
X402Y963D01*
X402Y965D01*
X400Y965D01*
X400Y967D01*
X396Y967D01*
X396Y969D01*
X394Y969D01*
X394Y971D01*
X390Y971D01*
X390Y973D01*
X388Y973D01*
X388Y975D01*
X384Y975D01*
X384Y977D01*
X382Y977D01*
X382Y979D01*
X378Y979D01*
X378Y981D01*
X374Y981D01*
X374Y983D01*
X372Y983D01*
X372Y985D01*
X368Y985D01*
X368Y987D01*
X366Y987D01*
X366Y989D01*
X362Y989D01*
X362Y991D01*
X360Y991D01*
X360Y993D01*
X356Y993D01*
X356Y995D01*
X354Y995D01*
X354Y997D01*
X350Y997D01*
X350Y999D01*
X348Y999D01*
X348Y1001D01*
X344Y1001D01*
X344Y1003D01*
X340Y1003D01*
X340Y1005D01*
X338Y1005D01*
X338Y1007D01*
X334Y1007D01*
X334Y1009D01*
X332Y1009D01*
X332Y1011D01*
X328Y1011D01*
X328Y1013D01*
X326Y1013D01*
X326Y1015D01*
X322Y1015D01*
X322Y1017D01*
X320Y1017D01*
X320Y1019D01*
X316Y1019D01*
X316Y1021D01*
X314Y1021D01*
X314Y1023D01*
X310Y1023D01*
X310Y1025D01*
X306Y1025D01*
X306Y1027D01*
X304Y1027D01*
X304Y1029D01*
X300Y1029D01*
X300Y1031D01*
X298Y1031D01*
X298Y1033D01*
X294Y1033D01*
X294Y1035D01*
X292Y1035D01*
X292Y1037D01*
X288Y1037D01*
X288Y1039D01*
X286Y1039D01*
X286Y1041D01*
X282Y1041D01*
X282Y1043D01*
X280Y1043D01*
X280Y1045D01*
X276Y1045D01*
X276Y1047D01*
X272Y1047D01*
X272Y1049D01*
X270Y1049D01*
X270Y1051D01*
X266Y1051D01*
X266Y1053D01*
X264Y1053D01*
X264Y1055D01*
X260Y1055D01*
X260Y1057D01*
X258Y1057D01*
X258Y1059D01*
X254Y1059D01*
X254Y1061D01*
X252Y1061D01*
X252Y1063D01*
X248Y1063D01*
X248Y1065D01*
X246Y1065D01*
X246Y1067D01*
X242Y1067D01*
X242Y1069D01*
X238Y1069D01*
X238Y1071D01*
X236Y1071D01*
X236Y1073D01*
X214Y1073D01*
G37*
D02*
G36*
X1676Y1029D02*
X1676Y1027D01*
X1674Y1027D01*
X1674Y1025D01*
X1672Y1025D01*
X1672Y1023D01*
X1668Y1023D01*
X1668Y1021D01*
X1666Y1021D01*
X1666Y1019D01*
X1664Y1019D01*
X1664Y1017D01*
X1660Y1017D01*
X1660Y1015D01*
X1658Y1015D01*
X1658Y1013D01*
X1656Y1013D01*
X1656Y1011D01*
X1652Y1011D01*
X1652Y1009D01*
X1650Y1009D01*
X1650Y1007D01*
X1648Y1007D01*
X1648Y1005D01*
X1644Y1005D01*
X1644Y1003D01*
X1642Y1003D01*
X1642Y1001D01*
X1640Y1001D01*
X1640Y999D01*
X1636Y999D01*
X1636Y997D01*
X1634Y997D01*
X1634Y995D01*
X1632Y995D01*
X1632Y993D01*
X1628Y993D01*
X1628Y991D01*
X1626Y991D01*
X1626Y989D01*
X1624Y989D01*
X1624Y987D01*
X1620Y987D01*
X1620Y985D01*
X1618Y985D01*
X1618Y983D01*
X1616Y983D01*
X1616Y981D01*
X1612Y981D01*
X1612Y979D01*
X1610Y979D01*
X1610Y977D01*
X1608Y977D01*
X1608Y975D01*
X1604Y975D01*
X1604Y973D01*
X1602Y973D01*
X1602Y971D01*
X1600Y971D01*
X1600Y969D01*
X1596Y969D01*
X1596Y967D01*
X1594Y967D01*
X1594Y965D01*
X1592Y965D01*
X1592Y963D01*
X1588Y963D01*
X1588Y961D01*
X1586Y961D01*
X1586Y959D01*
X1584Y959D01*
X1584Y957D01*
X1580Y957D01*
X1580Y955D01*
X1578Y955D01*
X1578Y953D01*
X1576Y953D01*
X1576Y951D01*
X1572Y951D01*
X1572Y949D01*
X1570Y949D01*
X1570Y947D01*
X1568Y947D01*
X1568Y945D01*
X1564Y945D01*
X1564Y943D01*
X1562Y943D01*
X1562Y941D01*
X1560Y941D01*
X1560Y939D01*
X1556Y939D01*
X1556Y937D01*
X1554Y937D01*
X1554Y935D01*
X1552Y935D01*
X1552Y933D01*
X1548Y933D01*
X1548Y931D01*
X1546Y931D01*
X1546Y929D01*
X1544Y929D01*
X1544Y927D01*
X1540Y927D01*
X1540Y925D01*
X1538Y925D01*
X1538Y923D01*
X1536Y923D01*
X1536Y921D01*
X1904Y921D01*
X1904Y923D01*
X1902Y923D01*
X1902Y925D01*
X1898Y925D01*
X1898Y927D01*
X1892Y927D01*
X1892Y929D01*
X1890Y929D01*
X1890Y931D01*
X1886Y931D01*
X1886Y933D01*
X1884Y933D01*
X1884Y935D01*
X1880Y935D01*
X1880Y937D01*
X1878Y937D01*
X1878Y939D01*
X1876Y939D01*
X1876Y941D01*
X1874Y941D01*
X1874Y945D01*
X1872Y945D01*
X1872Y947D01*
X1870Y947D01*
X1870Y949D01*
X1868Y949D01*
X1868Y953D01*
X1866Y953D01*
X1866Y957D01*
X1864Y957D01*
X1864Y963D01*
X1862Y963D01*
X1862Y983D01*
X1864Y983D01*
X1864Y989D01*
X1866Y989D01*
X1866Y993D01*
X1868Y993D01*
X1868Y997D01*
X1870Y997D01*
X1870Y999D01*
X1872Y999D01*
X1872Y1003D01*
X1874Y1003D01*
X1874Y1005D01*
X1876Y1005D01*
X1876Y1007D01*
X1878Y1007D01*
X1878Y1009D01*
X1880Y1009D01*
X1880Y1029D01*
X1676Y1029D01*
G37*
D02*
G36*
X1922Y923D02*
X1922Y921D01*
X1944Y921D01*
X1944Y923D01*
X1922Y923D01*
G37*
D02*
G36*
X1532Y921D02*
X1532Y919D01*
X1946Y919D01*
X1946Y921D01*
X1532Y921D01*
G37*
D02*
G36*
X1532Y921D02*
X1532Y919D01*
X1946Y919D01*
X1946Y921D01*
X1532Y921D01*
G37*
D02*
G36*
X1530Y919D02*
X1530Y917D01*
X1528Y917D01*
X1528Y915D01*
X1524Y915D01*
X1524Y913D01*
X1522Y913D01*
X1522Y911D01*
X1520Y911D01*
X1520Y909D01*
X1516Y909D01*
X1516Y907D01*
X1514Y907D01*
X1514Y905D01*
X1512Y905D01*
X1512Y903D01*
X1508Y903D01*
X1508Y901D01*
X1506Y901D01*
X1506Y899D01*
X1504Y899D01*
X1504Y897D01*
X1500Y897D01*
X1500Y895D01*
X1498Y895D01*
X1498Y893D01*
X1496Y893D01*
X1496Y891D01*
X1492Y891D01*
X1492Y889D01*
X1490Y889D01*
X1490Y887D01*
X1488Y887D01*
X1488Y885D01*
X1484Y885D01*
X1484Y883D01*
X1482Y883D01*
X1482Y881D01*
X1480Y881D01*
X1480Y879D01*
X1476Y879D01*
X1476Y877D01*
X1474Y877D01*
X1474Y875D01*
X1472Y875D01*
X1472Y873D01*
X1468Y873D01*
X1468Y871D01*
X1466Y871D01*
X1466Y869D01*
X1464Y869D01*
X1464Y867D01*
X1460Y867D01*
X1460Y865D01*
X1458Y865D01*
X1458Y863D01*
X1456Y863D01*
X1456Y861D01*
X1452Y861D01*
X1452Y859D01*
X1450Y859D01*
X1450Y857D01*
X1448Y857D01*
X1448Y855D01*
X1444Y855D01*
X1444Y853D01*
X1442Y853D01*
X1442Y851D01*
X1440Y851D01*
X1440Y849D01*
X1436Y849D01*
X1436Y847D01*
X1434Y847D01*
X1434Y845D01*
X1432Y845D01*
X1432Y843D01*
X1428Y843D01*
X1428Y841D01*
X1426Y841D01*
X1426Y839D01*
X1424Y839D01*
X1424Y837D01*
X1420Y837D01*
X1420Y835D01*
X1418Y835D01*
X1418Y833D01*
X1416Y833D01*
X1416Y831D01*
X1412Y831D01*
X1412Y829D01*
X1410Y829D01*
X1410Y827D01*
X1408Y827D01*
X1408Y825D01*
X1404Y825D01*
X1404Y823D01*
X1402Y823D01*
X1402Y821D01*
X1400Y821D01*
X1400Y819D01*
X1396Y819D01*
X1396Y817D01*
X1394Y817D01*
X1394Y815D01*
X1392Y815D01*
X1392Y813D01*
X1388Y813D01*
X1388Y811D01*
X1386Y811D01*
X1386Y809D01*
X1384Y809D01*
X1384Y807D01*
X1380Y807D01*
X1380Y805D01*
X1378Y805D01*
X1378Y803D01*
X1376Y803D01*
X1376Y801D01*
X1372Y801D01*
X1372Y799D01*
X1370Y799D01*
X1370Y797D01*
X1368Y797D01*
X1368Y777D01*
X1862Y777D01*
X1862Y849D01*
X1958Y849D01*
X1958Y911D01*
X1956Y911D01*
X1956Y913D01*
X1954Y913D01*
X1954Y915D01*
X1952Y915D01*
X1952Y917D01*
X1950Y917D01*
X1950Y919D01*
X1530Y919D01*
G37*
D02*
G36*
X132Y1005D02*
X132Y1003D01*
X130Y1003D01*
X130Y999D01*
X128Y999D01*
X128Y997D01*
X126Y997D01*
X126Y995D01*
X124Y995D01*
X124Y993D01*
X122Y993D01*
X122Y991D01*
X120Y991D01*
X120Y989D01*
X116Y989D01*
X116Y987D01*
X114Y987D01*
X114Y965D01*
X116Y965D01*
X116Y963D01*
X120Y963D01*
X120Y961D01*
X122Y961D01*
X122Y959D01*
X124Y959D01*
X124Y957D01*
X126Y957D01*
X126Y955D01*
X128Y955D01*
X128Y953D01*
X130Y953D01*
X130Y949D01*
X132Y949D01*
X132Y947D01*
X154Y947D01*
X154Y949D01*
X156Y949D01*
X156Y953D01*
X158Y953D01*
X158Y955D01*
X160Y955D01*
X160Y957D01*
X162Y957D01*
X162Y959D01*
X164Y959D01*
X164Y961D01*
X166Y961D01*
X166Y963D01*
X170Y963D01*
X170Y965D01*
X172Y965D01*
X172Y987D01*
X170Y987D01*
X170Y989D01*
X166Y989D01*
X166Y991D01*
X164Y991D01*
X164Y993D01*
X162Y993D01*
X162Y995D01*
X160Y995D01*
X160Y997D01*
X158Y997D01*
X158Y999D01*
X156Y999D01*
X156Y1003D01*
X154Y1003D01*
X154Y1005D01*
X132Y1005D01*
G37*
D02*
G36*
X132Y905D02*
X132Y903D01*
X130Y903D01*
X130Y899D01*
X128Y899D01*
X128Y897D01*
X126Y897D01*
X126Y895D01*
X124Y895D01*
X124Y893D01*
X122Y893D01*
X122Y891D01*
X120Y891D01*
X120Y889D01*
X116Y889D01*
X116Y887D01*
X114Y887D01*
X114Y865D01*
X116Y865D01*
X116Y863D01*
X120Y863D01*
X120Y861D01*
X122Y861D01*
X122Y859D01*
X124Y859D01*
X124Y857D01*
X126Y857D01*
X126Y855D01*
X128Y855D01*
X128Y853D01*
X130Y853D01*
X130Y849D01*
X132Y849D01*
X132Y847D01*
X154Y847D01*
X154Y849D01*
X156Y849D01*
X156Y853D01*
X158Y853D01*
X158Y855D01*
X160Y855D01*
X160Y857D01*
X162Y857D01*
X162Y859D01*
X164Y859D01*
X164Y861D01*
X166Y861D01*
X166Y863D01*
X170Y863D01*
X170Y865D01*
X172Y865D01*
X172Y887D01*
X170Y887D01*
X170Y889D01*
X166Y889D01*
X166Y891D01*
X164Y891D01*
X164Y893D01*
X162Y893D01*
X162Y895D01*
X160Y895D01*
X160Y897D01*
X158Y897D01*
X158Y899D01*
X156Y899D01*
X156Y903D01*
X154Y903D01*
X154Y905D01*
X132Y905D01*
G37*
D02*
G36*
X342Y819D02*
X342Y817D01*
X312Y817D01*
X312Y815D01*
X282Y815D01*
X282Y813D01*
X252Y813D01*
X252Y811D01*
X236Y811D01*
X236Y809D01*
X234Y809D01*
X234Y805D01*
X232Y805D01*
X232Y803D01*
X230Y803D01*
X230Y799D01*
X228Y799D01*
X228Y797D01*
X226Y797D01*
X226Y795D01*
X224Y795D01*
X224Y793D01*
X222Y793D01*
X222Y791D01*
X220Y791D01*
X220Y789D01*
X216Y789D01*
X216Y787D01*
X214Y787D01*
X214Y765D01*
X216Y765D01*
X216Y763D01*
X220Y763D01*
X220Y761D01*
X222Y761D01*
X222Y759D01*
X224Y759D01*
X224Y757D01*
X226Y757D01*
X226Y755D01*
X228Y755D01*
X228Y753D01*
X230Y753D01*
X230Y749D01*
X232Y749D01*
X232Y747D01*
X234Y747D01*
X234Y743D01*
X236Y743D01*
X236Y737D01*
X238Y737D01*
X238Y715D01*
X236Y715D01*
X236Y709D01*
X234Y709D01*
X234Y705D01*
X232Y705D01*
X232Y703D01*
X230Y703D01*
X230Y699D01*
X228Y699D01*
X228Y695D01*
X248Y695D01*
X248Y697D01*
X250Y697D01*
X250Y699D01*
X252Y699D01*
X252Y701D01*
X256Y701D01*
X256Y703D01*
X258Y703D01*
X258Y705D01*
X260Y705D01*
X260Y707D01*
X262Y707D01*
X262Y709D01*
X264Y709D01*
X264Y711D01*
X268Y711D01*
X268Y713D01*
X270Y713D01*
X270Y715D01*
X272Y715D01*
X272Y717D01*
X274Y717D01*
X274Y719D01*
X276Y719D01*
X276Y721D01*
X280Y721D01*
X280Y723D01*
X282Y723D01*
X282Y725D01*
X284Y725D01*
X284Y727D01*
X286Y727D01*
X286Y729D01*
X288Y729D01*
X288Y731D01*
X290Y731D01*
X290Y733D01*
X294Y733D01*
X294Y735D01*
X296Y735D01*
X296Y737D01*
X298Y737D01*
X298Y739D01*
X300Y739D01*
X300Y741D01*
X302Y741D01*
X302Y743D01*
X306Y743D01*
X306Y745D01*
X308Y745D01*
X308Y747D01*
X310Y747D01*
X310Y749D01*
X312Y749D01*
X312Y751D01*
X314Y751D01*
X314Y753D01*
X318Y753D01*
X318Y755D01*
X320Y755D01*
X320Y757D01*
X322Y757D01*
X322Y759D01*
X324Y759D01*
X324Y761D01*
X326Y761D01*
X326Y763D01*
X328Y763D01*
X328Y765D01*
X332Y765D01*
X332Y767D01*
X334Y767D01*
X334Y769D01*
X336Y769D01*
X336Y771D01*
X338Y771D01*
X338Y773D01*
X340Y773D01*
X340Y775D01*
X344Y775D01*
X344Y777D01*
X346Y777D01*
X346Y779D01*
X348Y779D01*
X348Y781D01*
X350Y781D01*
X350Y783D01*
X352Y783D01*
X352Y785D01*
X356Y785D01*
X356Y787D01*
X358Y787D01*
X358Y789D01*
X360Y789D01*
X360Y791D01*
X362Y791D01*
X362Y793D01*
X364Y793D01*
X364Y795D01*
X366Y795D01*
X366Y797D01*
X370Y797D01*
X370Y799D01*
X372Y799D01*
X372Y801D01*
X374Y801D01*
X374Y819D01*
X342Y819D01*
G37*
D02*
G36*
X132Y805D02*
X132Y803D01*
X130Y803D01*
X130Y799D01*
X128Y799D01*
X128Y797D01*
X126Y797D01*
X126Y795D01*
X124Y795D01*
X124Y793D01*
X122Y793D01*
X122Y791D01*
X120Y791D01*
X120Y789D01*
X116Y789D01*
X116Y787D01*
X114Y787D01*
X114Y765D01*
X116Y765D01*
X116Y763D01*
X120Y763D01*
X120Y761D01*
X122Y761D01*
X122Y759D01*
X124Y759D01*
X124Y757D01*
X126Y757D01*
X126Y755D01*
X128Y755D01*
X128Y753D01*
X130Y753D01*
X130Y749D01*
X132Y749D01*
X132Y747D01*
X154Y747D01*
X154Y749D01*
X156Y749D01*
X156Y753D01*
X158Y753D01*
X158Y755D01*
X160Y755D01*
X160Y757D01*
X162Y757D01*
X162Y759D01*
X164Y759D01*
X164Y761D01*
X166Y761D01*
X166Y763D01*
X170Y763D01*
X170Y765D01*
X172Y765D01*
X172Y787D01*
X170Y787D01*
X170Y789D01*
X166Y789D01*
X166Y791D01*
X164Y791D01*
X164Y793D01*
X162Y793D01*
X162Y795D01*
X160Y795D01*
X160Y797D01*
X158Y797D01*
X158Y799D01*
X156Y799D01*
X156Y803D01*
X154Y803D01*
X154Y805D01*
X132Y805D01*
G37*
D02*
G36*
X406Y783D02*
X406Y781D01*
X404Y781D01*
X404Y779D01*
X402Y779D01*
X402Y777D01*
X400Y777D01*
X400Y775D01*
X396Y775D01*
X396Y773D01*
X394Y773D01*
X394Y771D01*
X392Y771D01*
X392Y769D01*
X390Y769D01*
X390Y767D01*
X388Y767D01*
X388Y765D01*
X384Y765D01*
X384Y763D01*
X382Y763D01*
X382Y761D01*
X380Y761D01*
X380Y759D01*
X378Y759D01*
X378Y757D01*
X376Y757D01*
X376Y755D01*
X372Y755D01*
X372Y753D01*
X370Y753D01*
X370Y751D01*
X368Y751D01*
X368Y749D01*
X366Y749D01*
X366Y747D01*
X364Y747D01*
X364Y745D01*
X362Y745D01*
X362Y743D01*
X358Y743D01*
X358Y741D01*
X356Y741D01*
X356Y739D01*
X354Y739D01*
X354Y737D01*
X352Y737D01*
X352Y735D01*
X350Y735D01*
X350Y733D01*
X346Y733D01*
X346Y731D01*
X344Y731D01*
X344Y729D01*
X342Y729D01*
X342Y727D01*
X340Y727D01*
X340Y725D01*
X338Y725D01*
X338Y723D01*
X334Y723D01*
X334Y721D01*
X332Y721D01*
X332Y719D01*
X330Y719D01*
X330Y717D01*
X328Y717D01*
X328Y715D01*
X326Y715D01*
X326Y713D01*
X324Y713D01*
X324Y711D01*
X320Y711D01*
X320Y709D01*
X318Y709D01*
X318Y707D01*
X316Y707D01*
X316Y705D01*
X314Y705D01*
X314Y703D01*
X312Y703D01*
X312Y701D01*
X308Y701D01*
X308Y699D01*
X306Y699D01*
X306Y697D01*
X304Y697D01*
X304Y695D01*
X302Y695D01*
X302Y693D01*
X300Y693D01*
X300Y691D01*
X296Y691D01*
X296Y689D01*
X294Y689D01*
X294Y687D01*
X292Y687D01*
X292Y685D01*
X290Y685D01*
X290Y683D01*
X288Y683D01*
X288Y681D01*
X286Y681D01*
X286Y679D01*
X282Y679D01*
X282Y677D01*
X280Y677D01*
X280Y675D01*
X278Y675D01*
X278Y673D01*
X276Y673D01*
X276Y671D01*
X274Y671D01*
X274Y669D01*
X270Y669D01*
X270Y667D01*
X268Y667D01*
X268Y665D01*
X266Y665D01*
X266Y663D01*
X264Y663D01*
X264Y661D01*
X262Y661D01*
X262Y659D01*
X258Y659D01*
X258Y657D01*
X256Y657D01*
X256Y655D01*
X254Y655D01*
X254Y653D01*
X252Y653D01*
X252Y651D01*
X250Y651D01*
X250Y649D01*
X246Y649D01*
X246Y647D01*
X244Y647D01*
X244Y645D01*
X242Y645D01*
X242Y643D01*
X240Y643D01*
X240Y641D01*
X238Y641D01*
X238Y615D01*
X236Y615D01*
X236Y609D01*
X256Y609D01*
X256Y611D01*
X258Y611D01*
X258Y613D01*
X260Y613D01*
X260Y615D01*
X262Y615D01*
X262Y617D01*
X264Y617D01*
X264Y619D01*
X266Y619D01*
X266Y621D01*
X268Y621D01*
X268Y623D01*
X270Y623D01*
X270Y625D01*
X272Y625D01*
X272Y627D01*
X274Y627D01*
X274Y629D01*
X276Y629D01*
X276Y631D01*
X280Y631D01*
X280Y633D01*
X282Y633D01*
X282Y635D01*
X284Y635D01*
X284Y637D01*
X286Y637D01*
X286Y639D01*
X288Y639D01*
X288Y641D01*
X290Y641D01*
X290Y643D01*
X292Y643D01*
X292Y645D01*
X294Y645D01*
X294Y647D01*
X296Y647D01*
X296Y649D01*
X298Y649D01*
X298Y651D01*
X300Y651D01*
X300Y653D01*
X302Y653D01*
X302Y655D01*
X304Y655D01*
X304Y657D01*
X306Y657D01*
X306Y659D01*
X308Y659D01*
X308Y661D01*
X310Y661D01*
X310Y663D01*
X312Y663D01*
X312Y665D01*
X316Y665D01*
X316Y667D01*
X318Y667D01*
X318Y669D01*
X320Y669D01*
X320Y671D01*
X322Y671D01*
X322Y673D01*
X324Y673D01*
X324Y675D01*
X326Y675D01*
X326Y677D01*
X328Y677D01*
X328Y679D01*
X330Y679D01*
X330Y681D01*
X332Y681D01*
X332Y683D01*
X334Y683D01*
X334Y685D01*
X336Y685D01*
X336Y687D01*
X338Y687D01*
X338Y689D01*
X340Y689D01*
X340Y691D01*
X342Y691D01*
X342Y693D01*
X344Y693D01*
X344Y695D01*
X346Y695D01*
X346Y697D01*
X350Y697D01*
X350Y699D01*
X352Y699D01*
X352Y701D01*
X354Y701D01*
X354Y703D01*
X356Y703D01*
X356Y705D01*
X358Y705D01*
X358Y707D01*
X360Y707D01*
X360Y709D01*
X362Y709D01*
X362Y711D01*
X364Y711D01*
X364Y713D01*
X366Y713D01*
X366Y715D01*
X368Y715D01*
X368Y717D01*
X370Y717D01*
X370Y719D01*
X372Y719D01*
X372Y721D01*
X374Y721D01*
X374Y723D01*
X376Y723D01*
X376Y725D01*
X378Y725D01*
X378Y727D01*
X380Y727D01*
X380Y729D01*
X382Y729D01*
X382Y731D01*
X386Y731D01*
X386Y733D01*
X388Y733D01*
X388Y735D01*
X390Y735D01*
X390Y737D01*
X392Y737D01*
X392Y739D01*
X394Y739D01*
X394Y741D01*
X396Y741D01*
X396Y743D01*
X398Y743D01*
X398Y745D01*
X400Y745D01*
X400Y747D01*
X402Y747D01*
X402Y749D01*
X404Y749D01*
X404Y751D01*
X406Y751D01*
X406Y753D01*
X408Y753D01*
X408Y755D01*
X410Y755D01*
X410Y757D01*
X412Y757D01*
X412Y759D01*
X414Y759D01*
X414Y761D01*
X416Y761D01*
X416Y763D01*
X418Y763D01*
X418Y765D01*
X422Y765D01*
X422Y767D01*
X424Y767D01*
X424Y769D01*
X426Y769D01*
X426Y783D01*
X406Y783D01*
G37*
D02*
G36*
X446Y741D02*
X446Y739D01*
X444Y739D01*
X444Y737D01*
X442Y737D01*
X442Y735D01*
X440Y735D01*
X440Y733D01*
X438Y733D01*
X438Y731D01*
X436Y731D01*
X436Y729D01*
X434Y729D01*
X434Y727D01*
X432Y727D01*
X432Y725D01*
X430Y725D01*
X430Y723D01*
X426Y723D01*
X426Y721D01*
X424Y721D01*
X424Y719D01*
X422Y719D01*
X422Y717D01*
X420Y717D01*
X420Y715D01*
X418Y715D01*
X418Y713D01*
X416Y713D01*
X416Y711D01*
X414Y711D01*
X414Y709D01*
X412Y709D01*
X412Y707D01*
X410Y707D01*
X410Y705D01*
X408Y705D01*
X408Y703D01*
X406Y703D01*
X406Y701D01*
X404Y701D01*
X404Y699D01*
X402Y699D01*
X402Y697D01*
X400Y697D01*
X400Y695D01*
X398Y695D01*
X398Y693D01*
X396Y693D01*
X396Y691D01*
X394Y691D01*
X394Y689D01*
X390Y689D01*
X390Y687D01*
X388Y687D01*
X388Y685D01*
X386Y685D01*
X386Y683D01*
X384Y683D01*
X384Y681D01*
X382Y681D01*
X382Y679D01*
X380Y679D01*
X380Y677D01*
X378Y677D01*
X378Y675D01*
X376Y675D01*
X376Y673D01*
X374Y673D01*
X374Y671D01*
X372Y671D01*
X372Y669D01*
X370Y669D01*
X370Y667D01*
X368Y667D01*
X368Y665D01*
X366Y665D01*
X366Y663D01*
X364Y663D01*
X364Y661D01*
X362Y661D01*
X362Y659D01*
X360Y659D01*
X360Y657D01*
X356Y657D01*
X356Y655D01*
X354Y655D01*
X354Y653D01*
X352Y653D01*
X352Y651D01*
X350Y651D01*
X350Y649D01*
X348Y649D01*
X348Y647D01*
X346Y647D01*
X346Y645D01*
X344Y645D01*
X344Y643D01*
X342Y643D01*
X342Y641D01*
X340Y641D01*
X340Y639D01*
X338Y639D01*
X338Y637D01*
X336Y637D01*
X336Y635D01*
X334Y635D01*
X334Y633D01*
X332Y633D01*
X332Y631D01*
X330Y631D01*
X330Y629D01*
X328Y629D01*
X328Y627D01*
X326Y627D01*
X326Y625D01*
X324Y625D01*
X324Y623D01*
X320Y623D01*
X320Y621D01*
X318Y621D01*
X318Y619D01*
X316Y619D01*
X316Y617D01*
X314Y617D01*
X314Y615D01*
X312Y615D01*
X312Y613D01*
X310Y613D01*
X310Y611D01*
X308Y611D01*
X308Y609D01*
X306Y609D01*
X306Y607D01*
X304Y607D01*
X304Y605D01*
X302Y605D01*
X302Y603D01*
X300Y603D01*
X300Y601D01*
X298Y601D01*
X298Y599D01*
X296Y599D01*
X296Y597D01*
X294Y597D01*
X294Y595D01*
X292Y595D01*
X292Y593D01*
X290Y593D01*
X290Y591D01*
X286Y591D01*
X286Y589D01*
X284Y589D01*
X284Y587D01*
X282Y587D01*
X282Y585D01*
X280Y585D01*
X280Y583D01*
X278Y583D01*
X278Y581D01*
X276Y581D01*
X276Y579D01*
X274Y579D01*
X274Y577D01*
X272Y577D01*
X272Y575D01*
X270Y575D01*
X270Y573D01*
X268Y573D01*
X268Y571D01*
X266Y571D01*
X266Y569D01*
X264Y569D01*
X264Y567D01*
X262Y567D01*
X262Y565D01*
X260Y565D01*
X260Y563D01*
X258Y563D01*
X258Y561D01*
X256Y561D01*
X256Y559D01*
X254Y559D01*
X254Y557D01*
X250Y557D01*
X250Y555D01*
X248Y555D01*
X248Y553D01*
X246Y553D01*
X246Y551D01*
X244Y551D01*
X244Y549D01*
X242Y549D01*
X242Y547D01*
X240Y547D01*
X240Y545D01*
X238Y545D01*
X238Y515D01*
X236Y515D01*
X236Y509D01*
X234Y509D01*
X234Y505D01*
X232Y505D01*
X232Y503D01*
X230Y503D01*
X230Y499D01*
X228Y499D01*
X228Y497D01*
X226Y497D01*
X226Y495D01*
X224Y495D01*
X224Y493D01*
X222Y493D01*
X222Y491D01*
X220Y491D01*
X220Y489D01*
X216Y489D01*
X216Y487D01*
X214Y487D01*
X214Y467D01*
X236Y467D01*
X236Y469D01*
X240Y469D01*
X240Y471D01*
X244Y471D01*
X244Y473D01*
X248Y473D01*
X248Y475D01*
X252Y475D01*
X252Y477D01*
X256Y477D01*
X256Y479D01*
X260Y479D01*
X260Y481D01*
X264Y481D01*
X264Y483D01*
X268Y483D01*
X268Y485D01*
X272Y485D01*
X272Y487D01*
X276Y487D01*
X276Y489D01*
X280Y489D01*
X280Y491D01*
X284Y491D01*
X284Y493D01*
X288Y493D01*
X288Y495D01*
X292Y495D01*
X292Y497D01*
X296Y497D01*
X296Y499D01*
X300Y499D01*
X300Y501D01*
X304Y501D01*
X304Y503D01*
X308Y503D01*
X308Y505D01*
X312Y505D01*
X312Y507D01*
X316Y507D01*
X316Y509D01*
X320Y509D01*
X320Y511D01*
X324Y511D01*
X324Y513D01*
X328Y513D01*
X328Y515D01*
X332Y515D01*
X332Y517D01*
X336Y517D01*
X336Y519D01*
X340Y519D01*
X340Y521D01*
X344Y521D01*
X344Y523D01*
X348Y523D01*
X348Y525D01*
X352Y525D01*
X352Y527D01*
X356Y527D01*
X356Y529D01*
X360Y529D01*
X360Y531D01*
X364Y531D01*
X364Y533D01*
X368Y533D01*
X368Y535D01*
X372Y535D01*
X372Y537D01*
X376Y537D01*
X376Y539D01*
X380Y539D01*
X380Y541D01*
X384Y541D01*
X384Y543D01*
X388Y543D01*
X388Y545D01*
X392Y545D01*
X392Y547D01*
X396Y547D01*
X396Y549D01*
X400Y549D01*
X400Y551D01*
X404Y551D01*
X404Y553D01*
X408Y553D01*
X408Y555D01*
X412Y555D01*
X412Y557D01*
X416Y557D01*
X416Y559D01*
X420Y559D01*
X420Y561D01*
X424Y561D01*
X424Y563D01*
X428Y563D01*
X428Y565D01*
X432Y565D01*
X432Y567D01*
X436Y567D01*
X436Y569D01*
X440Y569D01*
X440Y571D01*
X444Y571D01*
X444Y573D01*
X448Y573D01*
X448Y575D01*
X452Y575D01*
X452Y577D01*
X456Y577D01*
X456Y579D01*
X460Y579D01*
X460Y581D01*
X464Y581D01*
X464Y583D01*
X468Y583D01*
X468Y585D01*
X472Y585D01*
X472Y587D01*
X476Y587D01*
X476Y589D01*
X480Y589D01*
X480Y591D01*
X484Y591D01*
X484Y593D01*
X488Y593D01*
X488Y595D01*
X492Y595D01*
X492Y597D01*
X496Y597D01*
X496Y599D01*
X500Y599D01*
X500Y601D01*
X504Y601D01*
X504Y603D01*
X508Y603D01*
X508Y605D01*
X512Y605D01*
X512Y607D01*
X516Y607D01*
X516Y609D01*
X520Y609D01*
X520Y611D01*
X524Y611D01*
X524Y613D01*
X528Y613D01*
X528Y615D01*
X532Y615D01*
X532Y617D01*
X536Y617D01*
X536Y619D01*
X540Y619D01*
X540Y621D01*
X544Y621D01*
X544Y623D01*
X548Y623D01*
X548Y625D01*
X552Y625D01*
X552Y627D01*
X556Y627D01*
X556Y629D01*
X560Y629D01*
X560Y631D01*
X564Y631D01*
X564Y633D01*
X568Y633D01*
X568Y635D01*
X572Y635D01*
X572Y637D01*
X576Y637D01*
X576Y639D01*
X580Y639D01*
X580Y641D01*
X584Y641D01*
X584Y643D01*
X588Y643D01*
X588Y645D01*
X592Y645D01*
X592Y647D01*
X596Y647D01*
X596Y649D01*
X600Y649D01*
X600Y651D01*
X604Y651D01*
X604Y653D01*
X608Y653D01*
X608Y655D01*
X612Y655D01*
X612Y657D01*
X616Y657D01*
X616Y659D01*
X620Y659D01*
X620Y661D01*
X624Y661D01*
X624Y663D01*
X628Y663D01*
X628Y665D01*
X632Y665D01*
X632Y667D01*
X636Y667D01*
X636Y669D01*
X640Y669D01*
X640Y671D01*
X644Y671D01*
X644Y673D01*
X648Y673D01*
X648Y675D01*
X652Y675D01*
X652Y677D01*
X656Y677D01*
X656Y679D01*
X660Y679D01*
X660Y681D01*
X664Y681D01*
X664Y683D01*
X668Y683D01*
X668Y685D01*
X672Y685D01*
X672Y687D01*
X676Y687D01*
X676Y689D01*
X680Y689D01*
X680Y691D01*
X684Y691D01*
X684Y693D01*
X688Y693D01*
X688Y695D01*
X692Y695D01*
X692Y697D01*
X696Y697D01*
X696Y699D01*
X700Y699D01*
X700Y701D01*
X704Y701D01*
X704Y703D01*
X708Y703D01*
X708Y705D01*
X712Y705D01*
X712Y707D01*
X716Y707D01*
X716Y709D01*
X720Y709D01*
X720Y711D01*
X724Y711D01*
X724Y713D01*
X728Y713D01*
X728Y715D01*
X732Y715D01*
X732Y717D01*
X736Y717D01*
X736Y719D01*
X738Y719D01*
X738Y741D01*
X446Y741D01*
G37*
D02*
G36*
X228Y2519D02*
X228Y2499D01*
X230Y2499D01*
X230Y2497D01*
X232Y2497D01*
X232Y2495D01*
X234Y2495D01*
X234Y2493D01*
X236Y2493D01*
X236Y2491D01*
X238Y2491D01*
X238Y2489D01*
X240Y2489D01*
X240Y2485D01*
X242Y2485D01*
X242Y2483D01*
X244Y2483D01*
X244Y2479D01*
X246Y2479D01*
X246Y2475D01*
X248Y2475D01*
X248Y2467D01*
X250Y2467D01*
X250Y2449D01*
X546Y2449D01*
X546Y2447D01*
X612Y2447D01*
X612Y2445D01*
X680Y2445D01*
X680Y2443D01*
X748Y2443D01*
X748Y2441D01*
X814Y2441D01*
X814Y2439D01*
X882Y2439D01*
X882Y2437D01*
X890Y2437D01*
X890Y2435D01*
X894Y2435D01*
X894Y2433D01*
X896Y2433D01*
X896Y2431D01*
X898Y2431D01*
X898Y2429D01*
X900Y2429D01*
X900Y2427D01*
X902Y2427D01*
X902Y2421D01*
X904Y2421D01*
X904Y2405D01*
X902Y2405D01*
X902Y2377D01*
X900Y2377D01*
X900Y2349D01*
X898Y2349D01*
X898Y2329D01*
X2034Y2329D01*
X2034Y2331D01*
X2026Y2331D01*
X2026Y2333D01*
X2022Y2333D01*
X2022Y2335D01*
X2018Y2335D01*
X2018Y2337D01*
X2014Y2337D01*
X2014Y2339D01*
X2010Y2339D01*
X2010Y2341D01*
X2008Y2341D01*
X2008Y2343D01*
X2006Y2343D01*
X2006Y2345D01*
X2004Y2345D01*
X2004Y2347D01*
X2002Y2347D01*
X2002Y2351D01*
X2000Y2351D01*
X2000Y2353D01*
X1998Y2353D01*
X1998Y2357D01*
X1996Y2357D01*
X1996Y2363D01*
X1994Y2363D01*
X1994Y2377D01*
X1992Y2377D01*
X1992Y2469D01*
X1994Y2469D01*
X1994Y2477D01*
X1996Y2477D01*
X1996Y2481D01*
X1998Y2481D01*
X1998Y2485D01*
X2000Y2485D01*
X2000Y2489D01*
X2002Y2489D01*
X2002Y2491D01*
X2004Y2491D01*
X2004Y2493D01*
X2006Y2493D01*
X2006Y2497D01*
X2008Y2497D01*
X2008Y2499D01*
X2010Y2499D01*
X2010Y2519D01*
X228Y2519D01*
G37*
D02*
G36*
X250Y2449D02*
X250Y2371D01*
X248Y2371D01*
X248Y2363D01*
X246Y2363D01*
X246Y2359D01*
X244Y2359D01*
X244Y2355D01*
X242Y2355D01*
X242Y2351D01*
X240Y2351D01*
X240Y2349D01*
X238Y2349D01*
X238Y2347D01*
X236Y2347D01*
X236Y2345D01*
X234Y2345D01*
X234Y2343D01*
X232Y2343D01*
X232Y2341D01*
X230Y2341D01*
X230Y2339D01*
X228Y2339D01*
X228Y2337D01*
X226Y2337D01*
X226Y2335D01*
X222Y2335D01*
X222Y2333D01*
X218Y2333D01*
X218Y2331D01*
X214Y2331D01*
X214Y2329D01*
X204Y2329D01*
X204Y2327D01*
X460Y2327D01*
X460Y2329D01*
X462Y2329D01*
X462Y2337D01*
X464Y2337D01*
X464Y2345D01*
X466Y2345D01*
X466Y2353D01*
X468Y2353D01*
X468Y2361D01*
X470Y2361D01*
X470Y2369D01*
X472Y2369D01*
X472Y2377D01*
X474Y2377D01*
X474Y2385D01*
X476Y2385D01*
X476Y2395D01*
X478Y2395D01*
X478Y2403D01*
X480Y2403D01*
X480Y2411D01*
X482Y2411D01*
X482Y2419D01*
X484Y2419D01*
X484Y2427D01*
X486Y2427D01*
X486Y2435D01*
X488Y2435D01*
X488Y2439D01*
X490Y2439D01*
X490Y2441D01*
X492Y2441D01*
X492Y2443D01*
X494Y2443D01*
X494Y2445D01*
X496Y2445D01*
X496Y2447D01*
X502Y2447D01*
X502Y2449D01*
X250Y2449D01*
G37*
D02*
G36*
X42Y2411D02*
X42Y2399D01*
X40Y2399D01*
X40Y2327D01*
X116Y2327D01*
X116Y2329D01*
X100Y2329D01*
X100Y2331D01*
X94Y2331D01*
X94Y2333D01*
X92Y2333D01*
X92Y2335D01*
X88Y2335D01*
X88Y2337D01*
X86Y2337D01*
X86Y2339D01*
X84Y2339D01*
X84Y2341D01*
X82Y2341D01*
X82Y2343D01*
X80Y2343D01*
X80Y2345D01*
X78Y2345D01*
X78Y2347D01*
X76Y2347D01*
X76Y2349D01*
X74Y2349D01*
X74Y2351D01*
X72Y2351D01*
X72Y2355D01*
X70Y2355D01*
X70Y2359D01*
X68Y2359D01*
X68Y2363D01*
X66Y2363D01*
X66Y2369D01*
X64Y2369D01*
X64Y2377D01*
X62Y2377D01*
X62Y2411D01*
X42Y2411D01*
G37*
D02*
G36*
X524Y2405D02*
X524Y2397D01*
X522Y2397D01*
X522Y2389D01*
X520Y2389D01*
X520Y2381D01*
X518Y2381D01*
X518Y2373D01*
X516Y2373D01*
X516Y2365D01*
X514Y2365D01*
X514Y2355D01*
X512Y2355D01*
X512Y2347D01*
X510Y2347D01*
X510Y2339D01*
X508Y2339D01*
X508Y2331D01*
X506Y2331D01*
X506Y2323D01*
X504Y2323D01*
X504Y2315D01*
X502Y2315D01*
X502Y2307D01*
X500Y2307D01*
X500Y2301D01*
X686Y2301D01*
X686Y2299D01*
X692Y2299D01*
X692Y2297D01*
X696Y2297D01*
X696Y2295D01*
X700Y2295D01*
X700Y2293D01*
X782Y2293D01*
X782Y2291D01*
X786Y2291D01*
X786Y2289D01*
X790Y2289D01*
X790Y2287D01*
X792Y2287D01*
X792Y2285D01*
X796Y2285D01*
X796Y2283D01*
X798Y2283D01*
X798Y2279D01*
X800Y2279D01*
X800Y2277D01*
X802Y2277D01*
X802Y2273D01*
X804Y2273D01*
X804Y2267D01*
X806Y2267D01*
X806Y2259D01*
X804Y2259D01*
X804Y2253D01*
X802Y2253D01*
X802Y2249D01*
X800Y2249D01*
X800Y2247D01*
X798Y2247D01*
X798Y2243D01*
X796Y2243D01*
X796Y2241D01*
X792Y2241D01*
X792Y2239D01*
X790Y2239D01*
X790Y2237D01*
X786Y2237D01*
X786Y2235D01*
X780Y2235D01*
X780Y2233D01*
X846Y2233D01*
X846Y2237D01*
X848Y2237D01*
X848Y2265D01*
X850Y2265D01*
X850Y2293D01*
X852Y2293D01*
X852Y2321D01*
X854Y2321D01*
X854Y2349D01*
X856Y2349D01*
X856Y2395D01*
X814Y2395D01*
X814Y2397D01*
X746Y2397D01*
X746Y2399D01*
X680Y2399D01*
X680Y2401D01*
X612Y2401D01*
X612Y2403D01*
X544Y2403D01*
X544Y2405D01*
X524Y2405D01*
G37*
D02*
G36*
X2164Y2345D02*
X2164Y2343D01*
X2162Y2343D01*
X2162Y2341D01*
X2160Y2341D01*
X2160Y2339D01*
X2156Y2339D01*
X2156Y2337D01*
X2154Y2337D01*
X2154Y2335D01*
X2150Y2335D01*
X2150Y2333D01*
X2144Y2333D01*
X2144Y2331D01*
X2138Y2331D01*
X2138Y2329D01*
X2184Y2329D01*
X2184Y2345D01*
X2164Y2345D01*
G37*
D02*
G36*
X898Y2329D02*
X898Y2327D01*
X2184Y2327D01*
X2184Y2329D01*
X898Y2329D01*
G37*
D02*
G36*
X898Y2329D02*
X898Y2327D01*
X2184Y2327D01*
X2184Y2329D01*
X898Y2329D01*
G37*
D02*
G36*
X40Y2327D02*
X40Y2325D01*
X460Y2325D01*
X460Y2327D01*
X40Y2327D01*
G37*
D02*
G36*
X40Y2327D02*
X40Y2325D01*
X460Y2325D01*
X460Y2327D01*
X40Y2327D01*
G37*
D02*
G36*
X898Y2327D02*
X898Y2321D01*
X896Y2321D01*
X896Y2293D01*
X894Y2293D01*
X894Y2265D01*
X892Y2265D01*
X892Y2237D01*
X890Y2237D01*
X890Y2209D01*
X888Y2209D01*
X888Y2181D01*
X886Y2181D01*
X886Y2153D01*
X884Y2153D01*
X884Y2125D01*
X882Y2125D01*
X882Y2097D01*
X880Y2097D01*
X880Y2069D01*
X878Y2069D01*
X878Y2047D01*
X876Y2047D01*
X876Y2043D01*
X874Y2043D01*
X874Y2039D01*
X872Y2039D01*
X872Y2037D01*
X870Y2037D01*
X870Y2035D01*
X866Y2035D01*
X866Y2033D01*
X862Y2033D01*
X862Y2031D01*
X2184Y2031D01*
X2184Y2327D01*
X898Y2327D01*
G37*
D02*
G36*
X40Y2325D02*
X40Y2297D01*
X254Y2297D01*
X254Y2295D01*
X258Y2295D01*
X258Y2293D01*
X260Y2293D01*
X260Y2291D01*
X262Y2291D01*
X262Y2289D01*
X264Y2289D01*
X264Y2285D01*
X266Y2285D01*
X266Y2221D01*
X268Y2221D01*
X268Y2185D01*
X452Y2185D01*
X452Y2187D01*
X446Y2187D01*
X446Y2189D01*
X442Y2189D01*
X442Y2191D01*
X440Y2191D01*
X440Y2193D01*
X436Y2193D01*
X436Y2195D01*
X434Y2195D01*
X434Y2199D01*
X432Y2199D01*
X432Y2201D01*
X430Y2201D01*
X430Y2205D01*
X428Y2205D01*
X428Y2209D01*
X426Y2209D01*
X426Y2221D01*
X428Y2221D01*
X428Y2225D01*
X430Y2225D01*
X430Y2229D01*
X432Y2229D01*
X432Y2231D01*
X434Y2231D01*
X434Y2235D01*
X436Y2235D01*
X436Y2237D01*
X440Y2237D01*
X440Y2247D01*
X442Y2247D01*
X442Y2255D01*
X444Y2255D01*
X444Y2263D01*
X446Y2263D01*
X446Y2271D01*
X448Y2271D01*
X448Y2279D01*
X450Y2279D01*
X450Y2287D01*
X452Y2287D01*
X452Y2295D01*
X454Y2295D01*
X454Y2303D01*
X456Y2303D01*
X456Y2313D01*
X458Y2313D01*
X458Y2321D01*
X460Y2321D01*
X460Y2325D01*
X40Y2325D01*
G37*
D02*
G36*
X500Y2301D02*
X500Y2299D01*
X498Y2299D01*
X498Y2291D01*
X496Y2291D01*
X496Y2283D01*
X494Y2283D01*
X494Y2273D01*
X492Y2273D01*
X492Y2265D01*
X490Y2265D01*
X490Y2257D01*
X488Y2257D01*
X488Y2249D01*
X486Y2249D01*
X486Y2241D01*
X484Y2241D01*
X484Y2221D01*
X576Y2221D01*
X576Y2223D01*
X568Y2223D01*
X568Y2225D01*
X562Y2225D01*
X562Y2227D01*
X560Y2227D01*
X560Y2229D01*
X556Y2229D01*
X556Y2231D01*
X554Y2231D01*
X554Y2233D01*
X552Y2233D01*
X552Y2235D01*
X550Y2235D01*
X550Y2237D01*
X548Y2237D01*
X548Y2239D01*
X546Y2239D01*
X546Y2243D01*
X544Y2243D01*
X544Y2245D01*
X542Y2245D01*
X542Y2251D01*
X540Y2251D01*
X540Y2259D01*
X538Y2259D01*
X538Y2265D01*
X540Y2265D01*
X540Y2273D01*
X542Y2273D01*
X542Y2277D01*
X544Y2277D01*
X544Y2281D01*
X546Y2281D01*
X546Y2283D01*
X548Y2283D01*
X548Y2287D01*
X550Y2287D01*
X550Y2289D01*
X552Y2289D01*
X552Y2291D01*
X554Y2291D01*
X554Y2293D01*
X558Y2293D01*
X558Y2295D01*
X560Y2295D01*
X560Y2297D01*
X564Y2297D01*
X564Y2299D01*
X570Y2299D01*
X570Y2301D01*
X500Y2301D01*
G37*
D02*
G36*
X586Y2301D02*
X586Y2299D01*
X592Y2299D01*
X592Y2297D01*
X596Y2297D01*
X596Y2295D01*
X600Y2295D01*
X600Y2293D01*
X602Y2293D01*
X602Y2291D01*
X604Y2291D01*
X604Y2289D01*
X606Y2289D01*
X606Y2287D01*
X608Y2287D01*
X608Y2285D01*
X610Y2285D01*
X610Y2283D01*
X612Y2283D01*
X612Y2279D01*
X614Y2279D01*
X614Y2275D01*
X616Y2275D01*
X616Y2269D01*
X618Y2269D01*
X618Y2253D01*
X616Y2253D01*
X616Y2247D01*
X614Y2247D01*
X614Y2245D01*
X612Y2245D01*
X612Y2241D01*
X610Y2241D01*
X610Y2239D01*
X608Y2239D01*
X608Y2235D01*
X606Y2235D01*
X606Y2233D01*
X604Y2233D01*
X604Y2231D01*
X600Y2231D01*
X600Y2229D01*
X598Y2229D01*
X598Y2227D01*
X594Y2227D01*
X594Y2225D01*
X590Y2225D01*
X590Y2223D01*
X580Y2223D01*
X580Y2221D01*
X676Y2221D01*
X676Y2223D01*
X668Y2223D01*
X668Y2225D01*
X662Y2225D01*
X662Y2227D01*
X660Y2227D01*
X660Y2229D01*
X656Y2229D01*
X656Y2231D01*
X654Y2231D01*
X654Y2233D01*
X652Y2233D01*
X652Y2235D01*
X650Y2235D01*
X650Y2237D01*
X648Y2237D01*
X648Y2239D01*
X646Y2239D01*
X646Y2243D01*
X644Y2243D01*
X644Y2245D01*
X642Y2245D01*
X642Y2251D01*
X640Y2251D01*
X640Y2259D01*
X638Y2259D01*
X638Y2265D01*
X640Y2265D01*
X640Y2273D01*
X642Y2273D01*
X642Y2277D01*
X644Y2277D01*
X644Y2281D01*
X646Y2281D01*
X646Y2283D01*
X648Y2283D01*
X648Y2287D01*
X650Y2287D01*
X650Y2289D01*
X652Y2289D01*
X652Y2291D01*
X654Y2291D01*
X654Y2293D01*
X658Y2293D01*
X658Y2295D01*
X660Y2295D01*
X660Y2297D01*
X664Y2297D01*
X664Y2299D01*
X670Y2299D01*
X670Y2301D01*
X586Y2301D01*
G37*
D02*
G36*
X702Y2293D02*
X702Y2291D01*
X704Y2291D01*
X704Y2289D01*
X706Y2289D01*
X706Y2287D01*
X708Y2287D01*
X708Y2285D01*
X710Y2285D01*
X710Y2283D01*
X712Y2283D01*
X712Y2281D01*
X754Y2281D01*
X754Y2283D01*
X756Y2283D01*
X756Y2285D01*
X760Y2285D01*
X760Y2287D01*
X762Y2287D01*
X762Y2289D01*
X766Y2289D01*
X766Y2291D01*
X770Y2291D01*
X770Y2293D01*
X702Y2293D01*
G37*
D02*
G36*
X746Y2237D02*
X746Y2233D01*
X772Y2233D01*
X772Y2235D01*
X766Y2235D01*
X766Y2237D01*
X746Y2237D01*
G37*
D02*
G36*
X746Y2233D02*
X746Y2231D01*
X846Y2231D01*
X846Y2233D01*
X746Y2233D01*
G37*
D02*
G36*
X746Y2233D02*
X746Y2231D01*
X846Y2231D01*
X846Y2233D01*
X746Y2233D01*
G37*
D02*
G36*
X746Y2231D02*
X746Y2081D01*
X752Y2081D01*
X752Y2079D01*
X794Y2079D01*
X794Y2077D01*
X836Y2077D01*
X836Y2099D01*
X838Y2099D01*
X838Y2127D01*
X840Y2127D01*
X840Y2153D01*
X842Y2153D01*
X842Y2181D01*
X844Y2181D01*
X844Y2209D01*
X846Y2209D01*
X846Y2231D01*
X746Y2231D01*
G37*
D02*
G36*
X690Y2225D02*
X690Y2223D01*
X680Y2223D01*
X680Y2221D01*
X710Y2221D01*
X710Y2225D01*
X690Y2225D01*
G37*
D02*
G36*
X484Y2221D02*
X484Y2219D01*
X710Y2219D01*
X710Y2221D01*
X484Y2221D01*
G37*
D02*
G36*
X484Y2221D02*
X484Y2219D01*
X710Y2219D01*
X710Y2221D01*
X484Y2221D01*
G37*
D02*
G36*
X484Y2221D02*
X484Y2219D01*
X710Y2219D01*
X710Y2221D01*
X484Y2221D01*
G37*
D02*
G36*
X486Y2219D02*
X486Y2211D01*
X484Y2211D01*
X484Y2205D01*
X482Y2205D01*
X482Y2201D01*
X686Y2201D01*
X686Y2199D01*
X710Y2199D01*
X710Y2219D01*
X486Y2219D01*
G37*
D02*
G36*
X480Y2201D02*
X480Y2199D01*
X478Y2199D01*
X478Y2195D01*
X476Y2195D01*
X476Y2193D01*
X472Y2193D01*
X472Y2191D01*
X470Y2191D01*
X470Y2189D01*
X466Y2189D01*
X466Y2187D01*
X460Y2187D01*
X460Y2185D01*
X548Y2185D01*
X548Y2187D01*
X550Y2187D01*
X550Y2189D01*
X552Y2189D01*
X552Y2191D01*
X554Y2191D01*
X554Y2193D01*
X558Y2193D01*
X558Y2195D01*
X560Y2195D01*
X560Y2197D01*
X564Y2197D01*
X564Y2199D01*
X570Y2199D01*
X570Y2201D01*
X480Y2201D01*
G37*
D02*
G36*
X586Y2201D02*
X586Y2199D01*
X592Y2199D01*
X592Y2197D01*
X596Y2197D01*
X596Y2195D01*
X600Y2195D01*
X600Y2193D01*
X602Y2193D01*
X602Y2191D01*
X604Y2191D01*
X604Y2189D01*
X606Y2189D01*
X606Y2187D01*
X608Y2187D01*
X608Y2185D01*
X610Y2185D01*
X610Y2183D01*
X612Y2183D01*
X612Y2179D01*
X614Y2179D01*
X614Y2175D01*
X616Y2175D01*
X616Y2169D01*
X618Y2169D01*
X618Y2153D01*
X616Y2153D01*
X616Y2147D01*
X614Y2147D01*
X614Y2145D01*
X612Y2145D01*
X612Y2141D01*
X610Y2141D01*
X610Y2139D01*
X608Y2139D01*
X608Y2135D01*
X606Y2135D01*
X606Y2133D01*
X604Y2133D01*
X604Y2131D01*
X600Y2131D01*
X600Y2129D01*
X598Y2129D01*
X598Y2127D01*
X594Y2127D01*
X594Y2125D01*
X590Y2125D01*
X590Y2123D01*
X580Y2123D01*
X580Y2121D01*
X676Y2121D01*
X676Y2123D01*
X668Y2123D01*
X668Y2125D01*
X662Y2125D01*
X662Y2127D01*
X660Y2127D01*
X660Y2129D01*
X656Y2129D01*
X656Y2131D01*
X654Y2131D01*
X654Y2133D01*
X652Y2133D01*
X652Y2135D01*
X650Y2135D01*
X650Y2137D01*
X648Y2137D01*
X648Y2139D01*
X646Y2139D01*
X646Y2143D01*
X644Y2143D01*
X644Y2145D01*
X642Y2145D01*
X642Y2151D01*
X640Y2151D01*
X640Y2159D01*
X638Y2159D01*
X638Y2165D01*
X640Y2165D01*
X640Y2173D01*
X642Y2173D01*
X642Y2177D01*
X644Y2177D01*
X644Y2181D01*
X646Y2181D01*
X646Y2183D01*
X648Y2183D01*
X648Y2187D01*
X650Y2187D01*
X650Y2189D01*
X652Y2189D01*
X652Y2191D01*
X654Y2191D01*
X654Y2193D01*
X658Y2193D01*
X658Y2195D01*
X660Y2195D01*
X660Y2197D01*
X664Y2197D01*
X664Y2199D01*
X670Y2199D01*
X670Y2201D01*
X586Y2201D01*
G37*
D02*
G36*
X268Y2185D02*
X268Y2183D01*
X548Y2183D01*
X548Y2185D01*
X268Y2185D01*
G37*
D02*
G36*
X268Y2185D02*
X268Y2183D01*
X548Y2183D01*
X548Y2185D01*
X268Y2185D01*
G37*
D02*
G36*
X268Y2183D02*
X268Y2121D01*
X576Y2121D01*
X576Y2123D01*
X568Y2123D01*
X568Y2125D01*
X562Y2125D01*
X562Y2127D01*
X560Y2127D01*
X560Y2129D01*
X556Y2129D01*
X556Y2131D01*
X554Y2131D01*
X554Y2133D01*
X552Y2133D01*
X552Y2135D01*
X550Y2135D01*
X550Y2137D01*
X548Y2137D01*
X548Y2139D01*
X546Y2139D01*
X546Y2143D01*
X544Y2143D01*
X544Y2145D01*
X542Y2145D01*
X542Y2151D01*
X540Y2151D01*
X540Y2159D01*
X538Y2159D01*
X538Y2165D01*
X540Y2165D01*
X540Y2173D01*
X542Y2173D01*
X542Y2177D01*
X544Y2177D01*
X544Y2181D01*
X546Y2181D01*
X546Y2183D01*
X268Y2183D01*
G37*
D02*
G36*
X690Y2125D02*
X690Y2123D01*
X680Y2123D01*
X680Y2121D01*
X710Y2121D01*
X710Y2125D01*
X690Y2125D01*
G37*
D02*
G36*
X268Y2121D02*
X268Y2119D01*
X710Y2119D01*
X710Y2121D01*
X268Y2121D01*
G37*
D02*
G36*
X268Y2121D02*
X268Y2119D01*
X710Y2119D01*
X710Y2121D01*
X268Y2121D01*
G37*
D02*
G36*
X268Y2121D02*
X268Y2119D01*
X710Y2119D01*
X710Y2121D01*
X268Y2121D01*
G37*
D02*
G36*
X268Y2119D02*
X268Y2117D01*
X318Y2117D01*
X318Y2115D01*
X322Y2115D01*
X322Y2113D01*
X326Y2113D01*
X326Y2111D01*
X328Y2111D01*
X328Y2109D01*
X332Y2109D01*
X332Y2107D01*
X334Y2107D01*
X334Y2103D01*
X336Y2103D01*
X336Y2101D01*
X686Y2101D01*
X686Y2099D01*
X710Y2099D01*
X710Y2119D01*
X268Y2119D01*
G37*
D02*
G36*
X268Y2117D02*
X268Y2107D01*
X270Y2107D01*
X270Y2103D01*
X290Y2103D01*
X290Y2107D01*
X292Y2107D01*
X292Y2109D01*
X296Y2109D01*
X296Y2111D01*
X298Y2111D01*
X298Y2113D01*
X302Y2113D01*
X302Y2115D01*
X306Y2115D01*
X306Y2117D01*
X268Y2117D01*
G37*
D02*
G36*
X338Y2101D02*
X338Y2097D01*
X340Y2097D01*
X340Y2091D01*
X342Y2091D01*
X342Y2073D01*
X344Y2073D01*
X344Y2069D01*
X346Y2069D01*
X346Y2067D01*
X348Y2067D01*
X348Y2063D01*
X350Y2063D01*
X350Y2059D01*
X352Y2059D01*
X352Y2057D01*
X354Y2057D01*
X354Y2053D01*
X356Y2053D01*
X356Y2051D01*
X358Y2051D01*
X358Y2047D01*
X360Y2047D01*
X360Y2045D01*
X362Y2045D01*
X362Y2041D01*
X364Y2041D01*
X364Y2039D01*
X366Y2039D01*
X366Y2035D01*
X368Y2035D01*
X368Y2033D01*
X370Y2033D01*
X370Y2029D01*
X372Y2029D01*
X372Y2025D01*
X374Y2025D01*
X374Y2023D01*
X376Y2023D01*
X376Y2021D01*
X576Y2021D01*
X576Y2023D01*
X568Y2023D01*
X568Y2025D01*
X562Y2025D01*
X562Y2027D01*
X560Y2027D01*
X560Y2029D01*
X556Y2029D01*
X556Y2031D01*
X554Y2031D01*
X554Y2033D01*
X552Y2033D01*
X552Y2035D01*
X550Y2035D01*
X550Y2037D01*
X548Y2037D01*
X548Y2039D01*
X546Y2039D01*
X546Y2043D01*
X544Y2043D01*
X544Y2045D01*
X542Y2045D01*
X542Y2051D01*
X540Y2051D01*
X540Y2059D01*
X538Y2059D01*
X538Y2065D01*
X540Y2065D01*
X540Y2073D01*
X542Y2073D01*
X542Y2077D01*
X544Y2077D01*
X544Y2081D01*
X546Y2081D01*
X546Y2083D01*
X548Y2083D01*
X548Y2087D01*
X550Y2087D01*
X550Y2089D01*
X552Y2089D01*
X552Y2091D01*
X554Y2091D01*
X554Y2093D01*
X558Y2093D01*
X558Y2095D01*
X560Y2095D01*
X560Y2097D01*
X564Y2097D01*
X564Y2099D01*
X570Y2099D01*
X570Y2101D01*
X338Y2101D01*
G37*
D02*
G36*
X586Y2101D02*
X586Y2099D01*
X592Y2099D01*
X592Y2097D01*
X596Y2097D01*
X596Y2095D01*
X600Y2095D01*
X600Y2093D01*
X602Y2093D01*
X602Y2091D01*
X604Y2091D01*
X604Y2089D01*
X606Y2089D01*
X606Y2087D01*
X608Y2087D01*
X608Y2085D01*
X610Y2085D01*
X610Y2083D01*
X612Y2083D01*
X612Y2079D01*
X614Y2079D01*
X614Y2075D01*
X616Y2075D01*
X616Y2069D01*
X618Y2069D01*
X618Y2053D01*
X616Y2053D01*
X616Y2047D01*
X614Y2047D01*
X614Y2045D01*
X612Y2045D01*
X612Y2041D01*
X610Y2041D01*
X610Y2039D01*
X608Y2039D01*
X608Y2035D01*
X606Y2035D01*
X606Y2033D01*
X604Y2033D01*
X604Y2031D01*
X600Y2031D01*
X600Y2029D01*
X598Y2029D01*
X598Y2027D01*
X594Y2027D01*
X594Y2025D01*
X590Y2025D01*
X590Y2023D01*
X580Y2023D01*
X580Y2021D01*
X676Y2021D01*
X676Y2023D01*
X668Y2023D01*
X668Y2025D01*
X662Y2025D01*
X662Y2027D01*
X660Y2027D01*
X660Y2029D01*
X656Y2029D01*
X656Y2031D01*
X654Y2031D01*
X654Y2033D01*
X652Y2033D01*
X652Y2035D01*
X650Y2035D01*
X650Y2037D01*
X648Y2037D01*
X648Y2039D01*
X646Y2039D01*
X646Y2043D01*
X644Y2043D01*
X644Y2045D01*
X642Y2045D01*
X642Y2051D01*
X640Y2051D01*
X640Y2059D01*
X638Y2059D01*
X638Y2065D01*
X640Y2065D01*
X640Y2073D01*
X642Y2073D01*
X642Y2077D01*
X644Y2077D01*
X644Y2081D01*
X646Y2081D01*
X646Y2083D01*
X648Y2083D01*
X648Y2087D01*
X650Y2087D01*
X650Y2089D01*
X652Y2089D01*
X652Y2091D01*
X654Y2091D01*
X654Y2093D01*
X658Y2093D01*
X658Y2095D01*
X660Y2095D01*
X660Y2097D01*
X664Y2097D01*
X664Y2099D01*
X670Y2099D01*
X670Y2101D01*
X586Y2101D01*
G37*
D02*
G36*
X270Y2071D02*
X270Y1993D01*
X272Y1993D01*
X272Y1879D01*
X274Y1879D01*
X274Y1785D01*
X484Y1785D01*
X484Y1787D01*
X478Y1787D01*
X478Y1789D01*
X474Y1789D01*
X474Y1791D01*
X472Y1791D01*
X472Y1793D01*
X468Y1793D01*
X468Y1795D01*
X466Y1795D01*
X466Y1799D01*
X464Y1799D01*
X464Y1801D01*
X462Y1801D01*
X462Y1805D01*
X460Y1805D01*
X460Y1809D01*
X458Y1809D01*
X458Y1829D01*
X456Y1829D01*
X456Y1833D01*
X454Y1833D01*
X454Y1835D01*
X452Y1835D01*
X452Y1839D01*
X450Y1839D01*
X450Y1843D01*
X448Y1843D01*
X448Y1845D01*
X446Y1845D01*
X446Y1849D01*
X444Y1849D01*
X444Y1851D01*
X442Y1851D01*
X442Y1855D01*
X440Y1855D01*
X440Y1857D01*
X438Y1857D01*
X438Y1861D01*
X436Y1861D01*
X436Y1863D01*
X434Y1863D01*
X434Y1867D01*
X432Y1867D01*
X432Y1869D01*
X430Y1869D01*
X430Y1873D01*
X428Y1873D01*
X428Y1877D01*
X426Y1877D01*
X426Y1879D01*
X424Y1879D01*
X424Y1883D01*
X422Y1883D01*
X422Y1885D01*
X420Y1885D01*
X420Y1889D01*
X418Y1889D01*
X418Y1891D01*
X416Y1891D01*
X416Y1895D01*
X414Y1895D01*
X414Y1897D01*
X412Y1897D01*
X412Y1901D01*
X410Y1901D01*
X410Y1903D01*
X408Y1903D01*
X408Y1907D01*
X406Y1907D01*
X406Y1911D01*
X404Y1911D01*
X404Y1913D01*
X402Y1913D01*
X402Y1917D01*
X400Y1917D01*
X400Y1919D01*
X398Y1919D01*
X398Y1923D01*
X396Y1923D01*
X396Y1925D01*
X394Y1925D01*
X394Y1929D01*
X392Y1929D01*
X392Y1931D01*
X390Y1931D01*
X390Y1935D01*
X388Y1935D01*
X388Y1937D01*
X386Y1937D01*
X386Y1941D01*
X384Y1941D01*
X384Y1945D01*
X382Y1945D01*
X382Y1947D01*
X380Y1947D01*
X380Y1951D01*
X378Y1951D01*
X378Y1953D01*
X376Y1953D01*
X376Y1957D01*
X374Y1957D01*
X374Y1959D01*
X372Y1959D01*
X372Y1963D01*
X370Y1963D01*
X370Y1965D01*
X368Y1965D01*
X368Y1969D01*
X366Y1969D01*
X366Y1971D01*
X364Y1971D01*
X364Y1975D01*
X362Y1975D01*
X362Y1979D01*
X360Y1979D01*
X360Y1981D01*
X358Y1981D01*
X358Y1985D01*
X356Y1985D01*
X356Y1987D01*
X354Y1987D01*
X354Y1991D01*
X352Y1991D01*
X352Y1993D01*
X350Y1993D01*
X350Y1997D01*
X348Y1997D01*
X348Y1999D01*
X346Y1999D01*
X346Y2003D01*
X344Y2003D01*
X344Y2005D01*
X342Y2005D01*
X342Y2009D01*
X340Y2009D01*
X340Y2013D01*
X338Y2013D01*
X338Y2015D01*
X336Y2015D01*
X336Y2019D01*
X334Y2019D01*
X334Y2021D01*
X332Y2021D01*
X332Y2025D01*
X330Y2025D01*
X330Y2027D01*
X328Y2027D01*
X328Y2031D01*
X326Y2031D01*
X326Y2033D01*
X324Y2033D01*
X324Y2037D01*
X322Y2037D01*
X322Y2039D01*
X320Y2039D01*
X320Y2043D01*
X318Y2043D01*
X318Y2047D01*
X316Y2047D01*
X316Y2049D01*
X314Y2049D01*
X314Y2053D01*
X312Y2053D01*
X312Y2055D01*
X310Y2055D01*
X310Y2057D01*
X308Y2057D01*
X308Y2059D01*
X302Y2059D01*
X302Y2061D01*
X298Y2061D01*
X298Y2063D01*
X296Y2063D01*
X296Y2065D01*
X292Y2065D01*
X292Y2067D01*
X290Y2067D01*
X290Y2071D01*
X270Y2071D01*
G37*
D02*
G36*
X746Y2035D02*
X746Y2031D01*
X836Y2031D01*
X836Y2033D01*
X794Y2033D01*
X794Y2035D01*
X746Y2035D01*
G37*
D02*
G36*
X746Y2031D02*
X746Y2029D01*
X2184Y2029D01*
X2184Y2031D01*
X746Y2031D01*
G37*
D02*
G36*
X746Y2031D02*
X746Y2029D01*
X2184Y2029D01*
X2184Y2031D01*
X746Y2031D01*
G37*
D02*
G36*
X746Y2029D02*
X746Y1973D01*
X2110Y1973D01*
X2110Y1971D01*
X2114Y1971D01*
X2114Y1969D01*
X2118Y1969D01*
X2118Y1967D01*
X2120Y1967D01*
X2120Y1965D01*
X2124Y1965D01*
X2124Y1963D01*
X2126Y1963D01*
X2126Y1959D01*
X2128Y1959D01*
X2128Y1957D01*
X2130Y1957D01*
X2130Y1953D01*
X2132Y1953D01*
X2132Y1947D01*
X2134Y1947D01*
X2134Y1939D01*
X2132Y1939D01*
X2132Y1933D01*
X2130Y1933D01*
X2130Y1929D01*
X2128Y1929D01*
X2128Y1927D01*
X2126Y1927D01*
X2126Y1923D01*
X2124Y1923D01*
X2124Y1921D01*
X2120Y1921D01*
X2120Y1919D01*
X2118Y1919D01*
X2118Y1917D01*
X2114Y1917D01*
X2114Y1915D01*
X2110Y1915D01*
X2110Y1895D01*
X2114Y1895D01*
X2114Y1893D01*
X2116Y1893D01*
X2116Y1891D01*
X2118Y1891D01*
X2118Y1889D01*
X2120Y1889D01*
X2120Y1885D01*
X2122Y1885D01*
X2122Y1329D01*
X2120Y1329D01*
X2120Y1325D01*
X2118Y1325D01*
X2118Y1321D01*
X2116Y1321D01*
X2116Y1317D01*
X2114Y1317D01*
X2114Y1315D01*
X2112Y1315D01*
X2112Y1311D01*
X2110Y1311D01*
X2110Y1307D01*
X2108Y1307D01*
X2108Y1303D01*
X2106Y1303D01*
X2106Y1299D01*
X2104Y1299D01*
X2104Y1297D01*
X2102Y1297D01*
X2102Y1293D01*
X2100Y1293D01*
X2100Y1289D01*
X2098Y1289D01*
X2098Y1285D01*
X2096Y1285D01*
X2096Y1281D01*
X2094Y1281D01*
X2094Y1279D01*
X2092Y1279D01*
X2092Y1275D01*
X2090Y1275D01*
X2090Y1271D01*
X2088Y1271D01*
X2088Y1267D01*
X2086Y1267D01*
X2086Y1263D01*
X2084Y1263D01*
X2084Y1261D01*
X2082Y1261D01*
X2082Y1257D01*
X2080Y1257D01*
X2080Y1253D01*
X2078Y1253D01*
X2078Y1249D01*
X2076Y1249D01*
X2076Y1245D01*
X2074Y1245D01*
X2074Y1243D01*
X2072Y1243D01*
X2072Y1239D01*
X2070Y1239D01*
X2070Y1235D01*
X2068Y1235D01*
X2068Y1231D01*
X2066Y1231D01*
X2066Y1227D01*
X2064Y1227D01*
X2064Y1225D01*
X2062Y1225D01*
X2062Y1221D01*
X2060Y1221D01*
X2060Y1217D01*
X2058Y1217D01*
X2058Y1213D01*
X2056Y1213D01*
X2056Y1209D01*
X2054Y1209D01*
X2054Y1207D01*
X2052Y1207D01*
X2052Y1203D01*
X2050Y1203D01*
X2050Y1199D01*
X2048Y1199D01*
X2048Y1195D01*
X2046Y1195D01*
X2046Y1191D01*
X2044Y1191D01*
X2044Y1189D01*
X2042Y1189D01*
X2042Y1185D01*
X2040Y1185D01*
X2040Y1181D01*
X2038Y1181D01*
X2038Y1177D01*
X2036Y1177D01*
X2036Y1173D01*
X2034Y1173D01*
X2034Y1171D01*
X2032Y1171D01*
X2032Y1167D01*
X2030Y1167D01*
X2030Y1163D01*
X2028Y1163D01*
X2028Y1159D01*
X2026Y1159D01*
X2026Y1155D01*
X2024Y1155D01*
X2024Y1153D01*
X2022Y1153D01*
X2022Y1149D01*
X2020Y1149D01*
X2020Y1145D01*
X2018Y1145D01*
X2018Y1141D01*
X2016Y1141D01*
X2016Y1137D01*
X2014Y1137D01*
X2014Y1135D01*
X2012Y1135D01*
X2012Y1131D01*
X2010Y1131D01*
X2010Y1127D01*
X2008Y1127D01*
X2008Y1123D01*
X2006Y1123D01*
X2006Y1119D01*
X2004Y1119D01*
X2004Y1117D01*
X2002Y1117D01*
X2002Y1113D01*
X2000Y1113D01*
X2000Y1109D01*
X1998Y1109D01*
X1998Y1105D01*
X1996Y1105D01*
X1996Y1101D01*
X1994Y1101D01*
X1994Y1099D01*
X1992Y1099D01*
X1992Y1095D01*
X1990Y1095D01*
X1990Y1091D01*
X1988Y1091D01*
X1988Y1087D01*
X1986Y1087D01*
X1986Y1083D01*
X1984Y1083D01*
X1984Y1081D01*
X1982Y1081D01*
X1982Y1077D01*
X1980Y1077D01*
X1980Y1073D01*
X1978Y1073D01*
X1978Y1069D01*
X1976Y1069D01*
X1976Y1065D01*
X1974Y1065D01*
X1974Y1063D01*
X1972Y1063D01*
X1972Y1059D01*
X1970Y1059D01*
X1970Y1055D01*
X1968Y1055D01*
X1968Y1051D01*
X1966Y1051D01*
X1966Y1047D01*
X1964Y1047D01*
X1964Y1045D01*
X1962Y1045D01*
X1962Y1041D01*
X1960Y1041D01*
X1960Y1037D01*
X1958Y1037D01*
X1958Y1035D01*
X1956Y1035D01*
X1956Y1033D01*
X1954Y1033D01*
X1954Y1031D01*
X1950Y1031D01*
X1950Y1029D01*
X1944Y1029D01*
X1944Y1009D01*
X1946Y1009D01*
X1946Y1007D01*
X1948Y1007D01*
X1948Y1005D01*
X1950Y1005D01*
X1950Y1001D01*
X1952Y1001D01*
X1952Y999D01*
X1954Y999D01*
X1954Y995D01*
X1956Y995D01*
X1956Y993D01*
X1958Y993D01*
X1958Y987D01*
X1960Y987D01*
X1960Y981D01*
X1962Y981D01*
X1962Y953D01*
X1964Y953D01*
X1964Y951D01*
X1968Y951D01*
X1968Y949D01*
X1970Y949D01*
X1970Y947D01*
X1972Y947D01*
X1972Y945D01*
X1974Y945D01*
X1974Y943D01*
X1976Y943D01*
X1976Y941D01*
X1980Y941D01*
X1980Y939D01*
X1982Y939D01*
X1982Y937D01*
X1984Y937D01*
X1984Y935D01*
X1986Y935D01*
X1986Y933D01*
X1988Y933D01*
X1988Y931D01*
X1990Y931D01*
X1990Y929D01*
X1992Y929D01*
X1992Y925D01*
X1994Y925D01*
X1994Y721D01*
X1992Y721D01*
X1992Y717D01*
X1990Y717D01*
X1990Y715D01*
X1988Y715D01*
X1988Y713D01*
X1986Y713D01*
X1986Y711D01*
X1982Y711D01*
X1982Y709D01*
X1950Y709D01*
X1950Y689D01*
X1952Y689D01*
X1952Y687D01*
X1954Y687D01*
X1954Y683D01*
X1956Y683D01*
X1956Y681D01*
X1958Y681D01*
X1958Y675D01*
X1960Y675D01*
X1960Y669D01*
X1962Y669D01*
X1962Y653D01*
X1960Y653D01*
X1960Y647D01*
X1958Y647D01*
X1958Y641D01*
X1956Y641D01*
X1956Y639D01*
X1954Y639D01*
X1954Y635D01*
X1952Y635D01*
X1952Y633D01*
X1950Y633D01*
X1950Y631D01*
X1948Y631D01*
X1948Y627D01*
X1946Y627D01*
X1946Y625D01*
X1942Y625D01*
X1942Y623D01*
X1940Y623D01*
X1940Y621D01*
X1938Y621D01*
X1938Y619D01*
X1934Y619D01*
X1934Y617D01*
X1932Y617D01*
X1932Y615D01*
X1926Y615D01*
X1926Y613D01*
X1920Y613D01*
X1920Y611D01*
X2184Y611D01*
X2184Y2029D01*
X746Y2029D01*
G37*
D02*
G36*
X690Y2025D02*
X690Y2023D01*
X680Y2023D01*
X680Y2021D01*
X710Y2021D01*
X710Y2025D01*
X690Y2025D01*
G37*
D02*
G36*
X376Y2021D02*
X376Y2019D01*
X710Y2019D01*
X710Y2021D01*
X376Y2021D01*
G37*
D02*
G36*
X376Y2021D02*
X376Y2019D01*
X710Y2019D01*
X710Y2021D01*
X376Y2021D01*
G37*
D02*
G36*
X376Y2021D02*
X376Y2019D01*
X710Y2019D01*
X710Y2021D01*
X376Y2021D01*
G37*
D02*
G36*
X378Y2019D02*
X378Y2017D01*
X380Y2017D01*
X380Y2013D01*
X382Y2013D01*
X382Y2011D01*
X384Y2011D01*
X384Y2007D01*
X386Y2007D01*
X386Y2005D01*
X388Y2005D01*
X388Y2001D01*
X686Y2001D01*
X686Y1999D01*
X710Y1999D01*
X710Y2019D01*
X378Y2019D01*
G37*
D02*
G36*
X390Y2001D02*
X390Y1999D01*
X392Y1999D01*
X392Y1995D01*
X394Y1995D01*
X394Y1991D01*
X396Y1991D01*
X396Y1989D01*
X398Y1989D01*
X398Y1985D01*
X400Y1985D01*
X400Y1983D01*
X402Y1983D01*
X402Y1979D01*
X404Y1979D01*
X404Y1977D01*
X406Y1977D01*
X406Y1973D01*
X408Y1973D01*
X408Y1971D01*
X410Y1971D01*
X410Y1967D01*
X412Y1967D01*
X412Y1965D01*
X414Y1965D01*
X414Y1961D01*
X416Y1961D01*
X416Y1957D01*
X418Y1957D01*
X418Y1955D01*
X420Y1955D01*
X420Y1951D01*
X422Y1951D01*
X422Y1949D01*
X424Y1949D01*
X424Y1945D01*
X426Y1945D01*
X426Y1943D01*
X428Y1943D01*
X428Y1939D01*
X430Y1939D01*
X430Y1937D01*
X432Y1937D01*
X432Y1933D01*
X434Y1933D01*
X434Y1931D01*
X436Y1931D01*
X436Y1927D01*
X438Y1927D01*
X438Y1923D01*
X440Y1923D01*
X440Y1921D01*
X576Y1921D01*
X576Y1923D01*
X568Y1923D01*
X568Y1925D01*
X562Y1925D01*
X562Y1927D01*
X560Y1927D01*
X560Y1929D01*
X556Y1929D01*
X556Y1931D01*
X554Y1931D01*
X554Y1933D01*
X552Y1933D01*
X552Y1935D01*
X550Y1935D01*
X550Y1937D01*
X548Y1937D01*
X548Y1939D01*
X546Y1939D01*
X546Y1943D01*
X544Y1943D01*
X544Y1945D01*
X542Y1945D01*
X542Y1951D01*
X540Y1951D01*
X540Y1959D01*
X538Y1959D01*
X538Y1965D01*
X540Y1965D01*
X540Y1973D01*
X542Y1973D01*
X542Y1977D01*
X544Y1977D01*
X544Y1981D01*
X546Y1981D01*
X546Y1983D01*
X548Y1983D01*
X548Y1987D01*
X550Y1987D01*
X550Y1989D01*
X552Y1989D01*
X552Y1991D01*
X554Y1991D01*
X554Y1993D01*
X558Y1993D01*
X558Y1995D01*
X560Y1995D01*
X560Y1997D01*
X564Y1997D01*
X564Y1999D01*
X570Y1999D01*
X570Y2001D01*
X390Y2001D01*
G37*
D02*
G36*
X586Y2001D02*
X586Y1999D01*
X592Y1999D01*
X592Y1997D01*
X596Y1997D01*
X596Y1995D01*
X600Y1995D01*
X600Y1993D01*
X602Y1993D01*
X602Y1991D01*
X604Y1991D01*
X604Y1989D01*
X606Y1989D01*
X606Y1987D01*
X608Y1987D01*
X608Y1985D01*
X610Y1985D01*
X610Y1983D01*
X612Y1983D01*
X612Y1979D01*
X614Y1979D01*
X614Y1975D01*
X616Y1975D01*
X616Y1969D01*
X618Y1969D01*
X618Y1953D01*
X616Y1953D01*
X616Y1947D01*
X614Y1947D01*
X614Y1945D01*
X612Y1945D01*
X612Y1941D01*
X610Y1941D01*
X610Y1939D01*
X608Y1939D01*
X608Y1935D01*
X606Y1935D01*
X606Y1933D01*
X604Y1933D01*
X604Y1931D01*
X600Y1931D01*
X600Y1929D01*
X598Y1929D01*
X598Y1927D01*
X594Y1927D01*
X594Y1925D01*
X590Y1925D01*
X590Y1923D01*
X580Y1923D01*
X580Y1921D01*
X676Y1921D01*
X676Y1923D01*
X668Y1923D01*
X668Y1925D01*
X662Y1925D01*
X662Y1927D01*
X660Y1927D01*
X660Y1929D01*
X656Y1929D01*
X656Y1931D01*
X654Y1931D01*
X654Y1933D01*
X652Y1933D01*
X652Y1935D01*
X650Y1935D01*
X650Y1937D01*
X648Y1937D01*
X648Y1939D01*
X646Y1939D01*
X646Y1943D01*
X644Y1943D01*
X644Y1945D01*
X642Y1945D01*
X642Y1951D01*
X640Y1951D01*
X640Y1959D01*
X638Y1959D01*
X638Y1965D01*
X640Y1965D01*
X640Y1973D01*
X642Y1973D01*
X642Y1977D01*
X644Y1977D01*
X644Y1981D01*
X646Y1981D01*
X646Y1983D01*
X648Y1983D01*
X648Y1987D01*
X650Y1987D01*
X650Y1989D01*
X652Y1989D01*
X652Y1991D01*
X654Y1991D01*
X654Y1993D01*
X658Y1993D01*
X658Y1995D01*
X660Y1995D01*
X660Y1997D01*
X664Y1997D01*
X664Y1999D01*
X670Y1999D01*
X670Y2001D01*
X586Y2001D01*
G37*
D02*
G36*
X746Y1973D02*
X746Y1967D01*
X1988Y1967D01*
X1988Y1965D01*
X1994Y1965D01*
X1994Y1963D01*
X1998Y1963D01*
X1998Y1961D01*
X2002Y1961D01*
X2002Y1959D01*
X2004Y1959D01*
X2004Y1957D01*
X2008Y1957D01*
X2008Y1955D01*
X2010Y1955D01*
X2010Y1953D01*
X2012Y1953D01*
X2012Y1949D01*
X2014Y1949D01*
X2014Y1947D01*
X2016Y1947D01*
X2016Y1943D01*
X2018Y1943D01*
X2018Y1939D01*
X2020Y1939D01*
X2020Y1933D01*
X2022Y1933D01*
X2022Y1921D01*
X2020Y1921D01*
X2020Y1897D01*
X2094Y1897D01*
X2094Y1917D01*
X2090Y1917D01*
X2090Y1919D01*
X2088Y1919D01*
X2088Y1921D01*
X2084Y1921D01*
X2084Y1923D01*
X2082Y1923D01*
X2082Y1927D01*
X2080Y1927D01*
X2080Y1929D01*
X2078Y1929D01*
X2078Y1933D01*
X2076Y1933D01*
X2076Y1937D01*
X2074Y1937D01*
X2074Y1949D01*
X2076Y1949D01*
X2076Y1953D01*
X2078Y1953D01*
X2078Y1957D01*
X2080Y1957D01*
X2080Y1959D01*
X2082Y1959D01*
X2082Y1963D01*
X2084Y1963D01*
X2084Y1965D01*
X2088Y1965D01*
X2088Y1967D01*
X2090Y1967D01*
X2090Y1969D01*
X2094Y1969D01*
X2094Y1971D01*
X2098Y1971D01*
X2098Y1973D01*
X746Y1973D01*
G37*
D02*
G36*
X746Y1967D02*
X746Y1809D01*
X744Y1809D01*
X744Y1805D01*
X742Y1805D01*
X742Y1803D01*
X740Y1803D01*
X740Y1801D01*
X738Y1801D01*
X738Y1799D01*
X734Y1799D01*
X734Y1797D01*
X714Y1797D01*
X714Y1775D01*
X716Y1775D01*
X716Y1769D01*
X718Y1769D01*
X718Y1753D01*
X716Y1753D01*
X716Y1747D01*
X714Y1747D01*
X714Y1745D01*
X712Y1745D01*
X712Y1741D01*
X710Y1741D01*
X710Y1739D01*
X708Y1739D01*
X708Y1735D01*
X706Y1735D01*
X706Y1733D01*
X704Y1733D01*
X704Y1731D01*
X700Y1731D01*
X700Y1729D01*
X698Y1729D01*
X698Y1727D01*
X694Y1727D01*
X694Y1725D01*
X690Y1725D01*
X690Y1723D01*
X680Y1723D01*
X680Y1721D01*
X1814Y1721D01*
X1814Y1869D01*
X1816Y1869D01*
X1816Y1873D01*
X1818Y1873D01*
X1818Y1875D01*
X1820Y1875D01*
X1820Y1877D01*
X1822Y1877D01*
X1822Y1879D01*
X1824Y1879D01*
X1824Y1881D01*
X1826Y1881D01*
X1826Y1883D01*
X1828Y1883D01*
X1828Y1885D01*
X1830Y1885D01*
X1830Y1887D01*
X1832Y1887D01*
X1832Y1889D01*
X1834Y1889D01*
X1834Y1891D01*
X1836Y1891D01*
X1836Y1893D01*
X1838Y1893D01*
X1838Y1895D01*
X1842Y1895D01*
X1842Y1897D01*
X1844Y1897D01*
X1844Y1919D01*
X1842Y1919D01*
X1842Y1935D01*
X1844Y1935D01*
X1844Y1941D01*
X1846Y1941D01*
X1846Y1945D01*
X1848Y1945D01*
X1848Y1947D01*
X1850Y1947D01*
X1850Y1951D01*
X1852Y1951D01*
X1852Y1953D01*
X1854Y1953D01*
X1854Y1955D01*
X1856Y1955D01*
X1856Y1957D01*
X1858Y1957D01*
X1858Y1959D01*
X1862Y1959D01*
X1862Y1961D01*
X1864Y1961D01*
X1864Y1963D01*
X1868Y1963D01*
X1868Y1965D01*
X1874Y1965D01*
X1874Y1967D01*
X746Y1967D01*
G37*
D02*
G36*
X1888Y1967D02*
X1888Y1965D01*
X1894Y1965D01*
X1894Y1963D01*
X1898Y1963D01*
X1898Y1961D01*
X1902Y1961D01*
X1902Y1959D01*
X1904Y1959D01*
X1904Y1957D01*
X1908Y1957D01*
X1908Y1955D01*
X1910Y1955D01*
X1910Y1953D01*
X1912Y1953D01*
X1912Y1949D01*
X1914Y1949D01*
X1914Y1947D01*
X1916Y1947D01*
X1916Y1943D01*
X1918Y1943D01*
X1918Y1939D01*
X1920Y1939D01*
X1920Y1933D01*
X1922Y1933D01*
X1922Y1921D01*
X1920Y1921D01*
X1920Y1897D01*
X1944Y1897D01*
X1944Y1919D01*
X1942Y1919D01*
X1942Y1935D01*
X1944Y1935D01*
X1944Y1941D01*
X1946Y1941D01*
X1946Y1945D01*
X1948Y1945D01*
X1948Y1947D01*
X1950Y1947D01*
X1950Y1951D01*
X1952Y1951D01*
X1952Y1953D01*
X1954Y1953D01*
X1954Y1955D01*
X1956Y1955D01*
X1956Y1957D01*
X1958Y1957D01*
X1958Y1959D01*
X1962Y1959D01*
X1962Y1961D01*
X1964Y1961D01*
X1964Y1963D01*
X1968Y1963D01*
X1968Y1965D01*
X1974Y1965D01*
X1974Y1967D01*
X1888Y1967D01*
G37*
D02*
G36*
X690Y1925D02*
X690Y1923D01*
X680Y1923D01*
X680Y1921D01*
X710Y1921D01*
X710Y1925D01*
X690Y1925D01*
G37*
D02*
G36*
X442Y1921D02*
X442Y1919D01*
X710Y1919D01*
X710Y1921D01*
X442Y1921D01*
G37*
D02*
G36*
X442Y1921D02*
X442Y1919D01*
X710Y1919D01*
X710Y1921D01*
X442Y1921D01*
G37*
D02*
G36*
X442Y1921D02*
X442Y1919D01*
X710Y1919D01*
X710Y1921D01*
X442Y1921D01*
G37*
D02*
G36*
X442Y1919D02*
X442Y1917D01*
X444Y1917D01*
X444Y1915D01*
X446Y1915D01*
X446Y1911D01*
X448Y1911D01*
X448Y1909D01*
X450Y1909D01*
X450Y1905D01*
X452Y1905D01*
X452Y1903D01*
X454Y1903D01*
X454Y1901D01*
X686Y1901D01*
X686Y1899D01*
X710Y1899D01*
X710Y1919D01*
X442Y1919D01*
G37*
D02*
G36*
X454Y1901D02*
X454Y1899D01*
X456Y1899D01*
X456Y1897D01*
X458Y1897D01*
X458Y1893D01*
X460Y1893D01*
X460Y1889D01*
X462Y1889D01*
X462Y1887D01*
X464Y1887D01*
X464Y1883D01*
X466Y1883D01*
X466Y1881D01*
X468Y1881D01*
X468Y1877D01*
X470Y1877D01*
X470Y1875D01*
X472Y1875D01*
X472Y1871D01*
X474Y1871D01*
X474Y1869D01*
X476Y1869D01*
X476Y1865D01*
X478Y1865D01*
X478Y1863D01*
X480Y1863D01*
X480Y1859D01*
X482Y1859D01*
X482Y1855D01*
X484Y1855D01*
X484Y1853D01*
X486Y1853D01*
X486Y1849D01*
X488Y1849D01*
X488Y1847D01*
X490Y1847D01*
X490Y1845D01*
X494Y1845D01*
X494Y1843D01*
X498Y1843D01*
X498Y1841D01*
X502Y1841D01*
X502Y1839D01*
X504Y1839D01*
X504Y1837D01*
X508Y1837D01*
X508Y1835D01*
X510Y1835D01*
X510Y1831D01*
X512Y1831D01*
X512Y1829D01*
X514Y1829D01*
X514Y1825D01*
X516Y1825D01*
X516Y1819D01*
X518Y1819D01*
X518Y1811D01*
X516Y1811D01*
X516Y1805D01*
X514Y1805D01*
X514Y1801D01*
X512Y1801D01*
X512Y1799D01*
X510Y1799D01*
X510Y1795D01*
X508Y1795D01*
X508Y1793D01*
X504Y1793D01*
X504Y1791D01*
X502Y1791D01*
X502Y1789D01*
X498Y1789D01*
X498Y1787D01*
X492Y1787D01*
X492Y1785D01*
X548Y1785D01*
X548Y1787D01*
X550Y1787D01*
X550Y1789D01*
X552Y1789D01*
X552Y1791D01*
X554Y1791D01*
X554Y1793D01*
X558Y1793D01*
X558Y1795D01*
X560Y1795D01*
X560Y1797D01*
X564Y1797D01*
X564Y1799D01*
X570Y1799D01*
X570Y1801D01*
X576Y1801D01*
X576Y1823D01*
X568Y1823D01*
X568Y1825D01*
X562Y1825D01*
X562Y1827D01*
X560Y1827D01*
X560Y1829D01*
X556Y1829D01*
X556Y1831D01*
X554Y1831D01*
X554Y1833D01*
X552Y1833D01*
X552Y1835D01*
X550Y1835D01*
X550Y1837D01*
X548Y1837D01*
X548Y1839D01*
X546Y1839D01*
X546Y1843D01*
X544Y1843D01*
X544Y1845D01*
X542Y1845D01*
X542Y1851D01*
X540Y1851D01*
X540Y1859D01*
X538Y1859D01*
X538Y1865D01*
X540Y1865D01*
X540Y1873D01*
X542Y1873D01*
X542Y1877D01*
X544Y1877D01*
X544Y1881D01*
X546Y1881D01*
X546Y1883D01*
X548Y1883D01*
X548Y1887D01*
X550Y1887D01*
X550Y1889D01*
X552Y1889D01*
X552Y1891D01*
X554Y1891D01*
X554Y1893D01*
X558Y1893D01*
X558Y1895D01*
X560Y1895D01*
X560Y1897D01*
X564Y1897D01*
X564Y1899D01*
X570Y1899D01*
X570Y1901D01*
X454Y1901D01*
G37*
D02*
G36*
X586Y1901D02*
X586Y1899D01*
X592Y1899D01*
X592Y1897D01*
X596Y1897D01*
X596Y1895D01*
X600Y1895D01*
X600Y1893D01*
X602Y1893D01*
X602Y1891D01*
X604Y1891D01*
X604Y1889D01*
X606Y1889D01*
X606Y1887D01*
X608Y1887D01*
X608Y1885D01*
X610Y1885D01*
X610Y1883D01*
X612Y1883D01*
X612Y1879D01*
X614Y1879D01*
X614Y1875D01*
X616Y1875D01*
X616Y1869D01*
X618Y1869D01*
X618Y1853D01*
X616Y1853D01*
X616Y1833D01*
X640Y1833D01*
X640Y1859D01*
X638Y1859D01*
X638Y1865D01*
X640Y1865D01*
X640Y1873D01*
X642Y1873D01*
X642Y1877D01*
X644Y1877D01*
X644Y1881D01*
X646Y1881D01*
X646Y1883D01*
X648Y1883D01*
X648Y1887D01*
X650Y1887D01*
X650Y1889D01*
X652Y1889D01*
X652Y1891D01*
X654Y1891D01*
X654Y1893D01*
X658Y1893D01*
X658Y1895D01*
X660Y1895D01*
X660Y1897D01*
X664Y1897D01*
X664Y1899D01*
X670Y1899D01*
X670Y1901D01*
X586Y1901D01*
G37*
D02*
G36*
X614Y1797D02*
X614Y1775D01*
X616Y1775D01*
X616Y1769D01*
X618Y1769D01*
X618Y1753D01*
X616Y1753D01*
X616Y1747D01*
X614Y1747D01*
X614Y1745D01*
X612Y1745D01*
X612Y1741D01*
X610Y1741D01*
X610Y1739D01*
X608Y1739D01*
X608Y1735D01*
X606Y1735D01*
X606Y1733D01*
X604Y1733D01*
X604Y1731D01*
X600Y1731D01*
X600Y1729D01*
X598Y1729D01*
X598Y1727D01*
X594Y1727D01*
X594Y1725D01*
X590Y1725D01*
X590Y1723D01*
X580Y1723D01*
X580Y1721D01*
X676Y1721D01*
X676Y1723D01*
X668Y1723D01*
X668Y1725D01*
X662Y1725D01*
X662Y1727D01*
X660Y1727D01*
X660Y1729D01*
X656Y1729D01*
X656Y1731D01*
X654Y1731D01*
X654Y1733D01*
X652Y1733D01*
X652Y1735D01*
X650Y1735D01*
X650Y1737D01*
X648Y1737D01*
X648Y1739D01*
X646Y1739D01*
X646Y1743D01*
X644Y1743D01*
X644Y1745D01*
X642Y1745D01*
X642Y1751D01*
X640Y1751D01*
X640Y1759D01*
X638Y1759D01*
X638Y1765D01*
X640Y1765D01*
X640Y1773D01*
X642Y1773D01*
X642Y1777D01*
X644Y1777D01*
X644Y1797D01*
X614Y1797D01*
G37*
D02*
G36*
X274Y1785D02*
X274Y1783D01*
X548Y1783D01*
X548Y1785D01*
X274Y1785D01*
G37*
D02*
G36*
X274Y1785D02*
X274Y1783D01*
X548Y1783D01*
X548Y1785D01*
X274Y1785D01*
G37*
D02*
G36*
X274Y1783D02*
X274Y1765D01*
X494Y1765D01*
X494Y1763D01*
X498Y1763D01*
X498Y1761D01*
X502Y1761D01*
X502Y1759D01*
X504Y1759D01*
X504Y1757D01*
X508Y1757D01*
X508Y1755D01*
X510Y1755D01*
X510Y1751D01*
X512Y1751D01*
X512Y1749D01*
X514Y1749D01*
X514Y1745D01*
X516Y1745D01*
X516Y1739D01*
X518Y1739D01*
X518Y1731D01*
X516Y1731D01*
X516Y1725D01*
X514Y1725D01*
X514Y1721D01*
X576Y1721D01*
X576Y1723D01*
X568Y1723D01*
X568Y1725D01*
X562Y1725D01*
X562Y1727D01*
X560Y1727D01*
X560Y1729D01*
X556Y1729D01*
X556Y1731D01*
X554Y1731D01*
X554Y1733D01*
X552Y1733D01*
X552Y1735D01*
X550Y1735D01*
X550Y1737D01*
X548Y1737D01*
X548Y1739D01*
X546Y1739D01*
X546Y1743D01*
X544Y1743D01*
X544Y1745D01*
X542Y1745D01*
X542Y1751D01*
X540Y1751D01*
X540Y1759D01*
X538Y1759D01*
X538Y1765D01*
X540Y1765D01*
X540Y1773D01*
X542Y1773D01*
X542Y1777D01*
X544Y1777D01*
X544Y1781D01*
X546Y1781D01*
X546Y1783D01*
X274Y1783D01*
G37*
D02*
G36*
X276Y1765D02*
X276Y1653D01*
X278Y1653D01*
X278Y1633D01*
X288Y1633D01*
X288Y1631D01*
X296Y1631D01*
X296Y1629D01*
X306Y1629D01*
X306Y1627D01*
X314Y1627D01*
X314Y1625D01*
X324Y1625D01*
X324Y1623D01*
X332Y1623D01*
X332Y1621D01*
X342Y1621D01*
X342Y1619D01*
X350Y1619D01*
X350Y1617D01*
X360Y1617D01*
X360Y1615D01*
X366Y1615D01*
X366Y1613D01*
X370Y1613D01*
X370Y1611D01*
X372Y1611D01*
X372Y1609D01*
X374Y1609D01*
X374Y1607D01*
X376Y1607D01*
X376Y1601D01*
X378Y1601D01*
X378Y1573D01*
X376Y1573D01*
X376Y1525D01*
X430Y1525D01*
X430Y1523D01*
X434Y1523D01*
X434Y1521D01*
X576Y1521D01*
X576Y1523D01*
X568Y1523D01*
X568Y1525D01*
X562Y1525D01*
X562Y1527D01*
X560Y1527D01*
X560Y1529D01*
X556Y1529D01*
X556Y1531D01*
X554Y1531D01*
X554Y1533D01*
X552Y1533D01*
X552Y1535D01*
X550Y1535D01*
X550Y1537D01*
X548Y1537D01*
X548Y1539D01*
X546Y1539D01*
X546Y1543D01*
X544Y1543D01*
X544Y1545D01*
X542Y1545D01*
X542Y1551D01*
X540Y1551D01*
X540Y1559D01*
X538Y1559D01*
X538Y1565D01*
X540Y1565D01*
X540Y1573D01*
X542Y1573D01*
X542Y1577D01*
X544Y1577D01*
X544Y1581D01*
X546Y1581D01*
X546Y1583D01*
X548Y1583D01*
X548Y1603D01*
X516Y1603D01*
X516Y1605D01*
X482Y1605D01*
X482Y1607D01*
X478Y1607D01*
X478Y1609D01*
X476Y1609D01*
X476Y1611D01*
X474Y1611D01*
X474Y1613D01*
X472Y1613D01*
X472Y1617D01*
X470Y1617D01*
X470Y1713D01*
X468Y1713D01*
X468Y1715D01*
X466Y1715D01*
X466Y1719D01*
X464Y1719D01*
X464Y1721D01*
X462Y1721D01*
X462Y1725D01*
X460Y1725D01*
X460Y1729D01*
X458Y1729D01*
X458Y1741D01*
X460Y1741D01*
X460Y1745D01*
X462Y1745D01*
X462Y1749D01*
X464Y1749D01*
X464Y1751D01*
X466Y1751D01*
X466Y1755D01*
X468Y1755D01*
X468Y1757D01*
X472Y1757D01*
X472Y1759D01*
X474Y1759D01*
X474Y1761D01*
X478Y1761D01*
X478Y1763D01*
X482Y1763D01*
X482Y1765D01*
X276Y1765D01*
G37*
D02*
G36*
X512Y1721D02*
X512Y1719D01*
X1814Y1719D01*
X1814Y1721D01*
X512Y1721D01*
G37*
D02*
G36*
X512Y1721D02*
X512Y1719D01*
X1814Y1719D01*
X1814Y1721D01*
X512Y1721D01*
G37*
D02*
G36*
X512Y1721D02*
X512Y1719D01*
X1814Y1719D01*
X1814Y1721D01*
X512Y1721D01*
G37*
D02*
G36*
X510Y1719D02*
X510Y1715D01*
X508Y1715D01*
X508Y1713D01*
X506Y1713D01*
X506Y1701D01*
X686Y1701D01*
X686Y1699D01*
X692Y1699D01*
X692Y1697D01*
X696Y1697D01*
X696Y1695D01*
X700Y1695D01*
X700Y1693D01*
X702Y1693D01*
X702Y1691D01*
X704Y1691D01*
X704Y1689D01*
X706Y1689D01*
X706Y1687D01*
X708Y1687D01*
X708Y1685D01*
X710Y1685D01*
X710Y1683D01*
X712Y1683D01*
X712Y1679D01*
X714Y1679D01*
X714Y1675D01*
X716Y1675D01*
X716Y1669D01*
X718Y1669D01*
X718Y1663D01*
X1588Y1663D01*
X1588Y1661D01*
X1592Y1661D01*
X1592Y1659D01*
X1594Y1659D01*
X1594Y1657D01*
X1598Y1657D01*
X1598Y1655D01*
X1600Y1655D01*
X1600Y1653D01*
X1602Y1653D01*
X1602Y1651D01*
X1628Y1651D01*
X1628Y1649D01*
X1674Y1649D01*
X1674Y1647D01*
X1720Y1647D01*
X1720Y1645D01*
X1764Y1645D01*
X1764Y1643D01*
X1814Y1643D01*
X1814Y1719D01*
X510Y1719D01*
G37*
D02*
G36*
X506Y1701D02*
X506Y1641D01*
X516Y1641D01*
X516Y1639D01*
X540Y1639D01*
X540Y1659D01*
X538Y1659D01*
X538Y1665D01*
X540Y1665D01*
X540Y1673D01*
X542Y1673D01*
X542Y1677D01*
X544Y1677D01*
X544Y1681D01*
X546Y1681D01*
X546Y1683D01*
X548Y1683D01*
X548Y1687D01*
X550Y1687D01*
X550Y1689D01*
X552Y1689D01*
X552Y1691D01*
X554Y1691D01*
X554Y1693D01*
X558Y1693D01*
X558Y1695D01*
X560Y1695D01*
X560Y1697D01*
X564Y1697D01*
X564Y1699D01*
X570Y1699D01*
X570Y1701D01*
X506Y1701D01*
G37*
D02*
G36*
X586Y1701D02*
X586Y1699D01*
X592Y1699D01*
X592Y1697D01*
X596Y1697D01*
X596Y1695D01*
X600Y1695D01*
X600Y1693D01*
X602Y1693D01*
X602Y1691D01*
X604Y1691D01*
X604Y1689D01*
X606Y1689D01*
X606Y1687D01*
X608Y1687D01*
X608Y1685D01*
X610Y1685D01*
X610Y1683D01*
X612Y1683D01*
X612Y1679D01*
X614Y1679D01*
X614Y1675D01*
X616Y1675D01*
X616Y1669D01*
X618Y1669D01*
X618Y1637D01*
X640Y1637D01*
X640Y1659D01*
X638Y1659D01*
X638Y1665D01*
X640Y1665D01*
X640Y1673D01*
X642Y1673D01*
X642Y1677D01*
X644Y1677D01*
X644Y1681D01*
X646Y1681D01*
X646Y1683D01*
X648Y1683D01*
X648Y1687D01*
X650Y1687D01*
X650Y1689D01*
X652Y1689D01*
X652Y1691D01*
X654Y1691D01*
X654Y1693D01*
X658Y1693D01*
X658Y1695D01*
X660Y1695D01*
X660Y1697D01*
X664Y1697D01*
X664Y1699D01*
X670Y1699D01*
X670Y1701D01*
X586Y1701D01*
G37*
D02*
G36*
X718Y1663D02*
X718Y1653D01*
X716Y1653D01*
X716Y1633D01*
X740Y1633D01*
X740Y1631D01*
X796Y1631D01*
X796Y1629D01*
X852Y1629D01*
X852Y1627D01*
X908Y1627D01*
X908Y1625D01*
X964Y1625D01*
X964Y1623D01*
X1020Y1623D01*
X1020Y1621D01*
X1076Y1621D01*
X1076Y1619D01*
X1132Y1619D01*
X1132Y1617D01*
X1188Y1617D01*
X1188Y1615D01*
X1244Y1615D01*
X1244Y1613D01*
X1300Y1613D01*
X1300Y1611D01*
X1356Y1611D01*
X1356Y1609D01*
X1412Y1609D01*
X1412Y1607D01*
X1468Y1607D01*
X1468Y1605D01*
X1524Y1605D01*
X1524Y1603D01*
X1552Y1603D01*
X1552Y1627D01*
X1550Y1627D01*
X1550Y1641D01*
X1552Y1641D01*
X1552Y1647D01*
X1554Y1647D01*
X1554Y1649D01*
X1556Y1649D01*
X1556Y1653D01*
X1558Y1653D01*
X1558Y1655D01*
X1560Y1655D01*
X1560Y1657D01*
X1564Y1657D01*
X1564Y1659D01*
X1566Y1659D01*
X1566Y1661D01*
X1570Y1661D01*
X1570Y1663D01*
X718Y1663D01*
G37*
D02*
G36*
X612Y1599D02*
X612Y1579D01*
X614Y1579D01*
X614Y1575D01*
X616Y1575D01*
X616Y1569D01*
X618Y1569D01*
X618Y1553D01*
X616Y1553D01*
X616Y1547D01*
X614Y1547D01*
X614Y1545D01*
X612Y1545D01*
X612Y1541D01*
X610Y1541D01*
X610Y1539D01*
X608Y1539D01*
X608Y1535D01*
X606Y1535D01*
X606Y1533D01*
X604Y1533D01*
X604Y1531D01*
X600Y1531D01*
X600Y1529D01*
X598Y1529D01*
X598Y1527D01*
X594Y1527D01*
X594Y1525D01*
X590Y1525D01*
X590Y1523D01*
X580Y1523D01*
X580Y1521D01*
X676Y1521D01*
X676Y1523D01*
X668Y1523D01*
X668Y1525D01*
X662Y1525D01*
X662Y1527D01*
X660Y1527D01*
X660Y1529D01*
X656Y1529D01*
X656Y1531D01*
X654Y1531D01*
X654Y1533D01*
X652Y1533D01*
X652Y1535D01*
X650Y1535D01*
X650Y1537D01*
X648Y1537D01*
X648Y1539D01*
X646Y1539D01*
X646Y1543D01*
X644Y1543D01*
X644Y1545D01*
X642Y1545D01*
X642Y1551D01*
X640Y1551D01*
X640Y1559D01*
X638Y1559D01*
X638Y1565D01*
X640Y1565D01*
X640Y1573D01*
X642Y1573D01*
X642Y1577D01*
X644Y1577D01*
X644Y1599D01*
X612Y1599D01*
G37*
D02*
G36*
X714Y1597D02*
X714Y1575D01*
X716Y1575D01*
X716Y1569D01*
X718Y1569D01*
X718Y1553D01*
X716Y1553D01*
X716Y1547D01*
X714Y1547D01*
X714Y1545D01*
X712Y1545D01*
X712Y1541D01*
X710Y1541D01*
X710Y1539D01*
X708Y1539D01*
X708Y1535D01*
X706Y1535D01*
X706Y1533D01*
X704Y1533D01*
X704Y1531D01*
X700Y1531D01*
X700Y1529D01*
X698Y1529D01*
X698Y1527D01*
X694Y1527D01*
X694Y1525D01*
X690Y1525D01*
X690Y1523D01*
X680Y1523D01*
X680Y1521D01*
X1842Y1521D01*
X1842Y1535D01*
X1844Y1535D01*
X1844Y1557D01*
X1804Y1557D01*
X1804Y1559D01*
X1748Y1559D01*
X1748Y1561D01*
X1692Y1561D01*
X1692Y1563D01*
X1636Y1563D01*
X1636Y1565D01*
X1580Y1565D01*
X1580Y1567D01*
X1524Y1567D01*
X1524Y1569D01*
X1468Y1569D01*
X1468Y1571D01*
X1412Y1571D01*
X1412Y1573D01*
X1356Y1573D01*
X1356Y1575D01*
X1300Y1575D01*
X1300Y1577D01*
X1244Y1577D01*
X1244Y1579D01*
X1188Y1579D01*
X1188Y1581D01*
X1132Y1581D01*
X1132Y1583D01*
X1076Y1583D01*
X1076Y1585D01*
X1020Y1585D01*
X1020Y1587D01*
X964Y1587D01*
X964Y1589D01*
X908Y1589D01*
X908Y1591D01*
X852Y1591D01*
X852Y1593D01*
X796Y1593D01*
X796Y1595D01*
X740Y1595D01*
X740Y1597D01*
X714Y1597D01*
G37*
D02*
G36*
X376Y1525D02*
X376Y1501D01*
X396Y1501D01*
X396Y1505D01*
X398Y1505D01*
X398Y1509D01*
X400Y1509D01*
X400Y1511D01*
X402Y1511D01*
X402Y1515D01*
X404Y1515D01*
X404Y1517D01*
X408Y1517D01*
X408Y1519D01*
X410Y1519D01*
X410Y1521D01*
X414Y1521D01*
X414Y1523D01*
X418Y1523D01*
X418Y1525D01*
X376Y1525D01*
G37*
D02*
G36*
X438Y1521D02*
X438Y1519D01*
X1842Y1519D01*
X1842Y1521D01*
X438Y1521D01*
G37*
D02*
G36*
X438Y1521D02*
X438Y1519D01*
X1842Y1519D01*
X1842Y1521D01*
X438Y1521D01*
G37*
D02*
G36*
X438Y1521D02*
X438Y1519D01*
X1842Y1519D01*
X1842Y1521D01*
X438Y1521D01*
G37*
D02*
G36*
X440Y1519D02*
X440Y1517D01*
X444Y1517D01*
X444Y1515D01*
X446Y1515D01*
X446Y1511D01*
X448Y1511D01*
X448Y1509D01*
X450Y1509D01*
X450Y1507D01*
X458Y1507D01*
X458Y1505D01*
X1062Y1505D01*
X1062Y1503D01*
X1066Y1503D01*
X1066Y1501D01*
X1070Y1501D01*
X1070Y1499D01*
X1074Y1499D01*
X1074Y1497D01*
X1346Y1497D01*
X1346Y1495D01*
X1350Y1495D01*
X1350Y1493D01*
X1352Y1493D01*
X1352Y1491D01*
X1356Y1491D01*
X1356Y1489D01*
X1358Y1489D01*
X1358Y1487D01*
X1360Y1487D01*
X1360Y1483D01*
X1362Y1483D01*
X1362Y1481D01*
X1364Y1481D01*
X1364Y1477D01*
X1366Y1477D01*
X1366Y1459D01*
X1364Y1459D01*
X1364Y1455D01*
X1362Y1455D01*
X1362Y1451D01*
X1360Y1451D01*
X1360Y1449D01*
X1358Y1449D01*
X1358Y1447D01*
X1356Y1447D01*
X1356Y1445D01*
X1354Y1445D01*
X1354Y1443D01*
X1350Y1443D01*
X1350Y1441D01*
X1346Y1441D01*
X1346Y1439D01*
X1694Y1439D01*
X1694Y1441D01*
X1700Y1441D01*
X1700Y1443D01*
X1706Y1443D01*
X1706Y1445D01*
X1712Y1445D01*
X1712Y1447D01*
X1720Y1447D01*
X1720Y1449D01*
X1726Y1449D01*
X1726Y1451D01*
X1732Y1451D01*
X1732Y1453D01*
X1738Y1453D01*
X1738Y1455D01*
X1744Y1455D01*
X1744Y1457D01*
X1750Y1457D01*
X1750Y1459D01*
X1758Y1459D01*
X1758Y1461D01*
X1764Y1461D01*
X1764Y1463D01*
X1770Y1463D01*
X1770Y1465D01*
X1776Y1465D01*
X1776Y1467D01*
X1782Y1467D01*
X1782Y1469D01*
X1788Y1469D01*
X1788Y1471D01*
X1796Y1471D01*
X1796Y1473D01*
X1802Y1473D01*
X1802Y1475D01*
X1808Y1475D01*
X1808Y1477D01*
X1814Y1477D01*
X1814Y1479D01*
X1820Y1479D01*
X1820Y1481D01*
X1826Y1481D01*
X1826Y1483D01*
X1834Y1483D01*
X1834Y1485D01*
X1840Y1485D01*
X1840Y1487D01*
X1846Y1487D01*
X1846Y1489D01*
X1848Y1489D01*
X1848Y1509D01*
X1846Y1509D01*
X1846Y1513D01*
X1844Y1513D01*
X1844Y1519D01*
X440Y1519D01*
G37*
D02*
G36*
X468Y1505D02*
X468Y1503D01*
X476Y1503D01*
X476Y1501D01*
X686Y1501D01*
X686Y1499D01*
X692Y1499D01*
X692Y1497D01*
X696Y1497D01*
X696Y1495D01*
X700Y1495D01*
X700Y1493D01*
X702Y1493D01*
X702Y1491D01*
X704Y1491D01*
X704Y1489D01*
X706Y1489D01*
X706Y1487D01*
X708Y1487D01*
X708Y1485D01*
X710Y1485D01*
X710Y1483D01*
X712Y1483D01*
X712Y1479D01*
X714Y1479D01*
X714Y1475D01*
X716Y1475D01*
X716Y1469D01*
X718Y1469D01*
X718Y1453D01*
X716Y1453D01*
X716Y1447D01*
X714Y1447D01*
X714Y1445D01*
X1052Y1445D01*
X1052Y1447D01*
X1046Y1447D01*
X1046Y1449D01*
X1042Y1449D01*
X1042Y1451D01*
X1040Y1451D01*
X1040Y1453D01*
X1036Y1453D01*
X1036Y1455D01*
X1034Y1455D01*
X1034Y1459D01*
X1032Y1459D01*
X1032Y1461D01*
X1030Y1461D01*
X1030Y1465D01*
X1028Y1465D01*
X1028Y1469D01*
X1026Y1469D01*
X1026Y1481D01*
X1028Y1481D01*
X1028Y1487D01*
X1030Y1487D01*
X1030Y1489D01*
X1032Y1489D01*
X1032Y1493D01*
X1034Y1493D01*
X1034Y1495D01*
X1036Y1495D01*
X1036Y1497D01*
X1038Y1497D01*
X1038Y1499D01*
X1042Y1499D01*
X1042Y1501D01*
X1044Y1501D01*
X1044Y1503D01*
X1050Y1503D01*
X1050Y1505D01*
X468Y1505D01*
G37*
D02*
G36*
X486Y1501D02*
X486Y1499D01*
X496Y1499D01*
X496Y1497D01*
X504Y1497D01*
X504Y1495D01*
X514Y1495D01*
X514Y1493D01*
X524Y1493D01*
X524Y1491D01*
X532Y1491D01*
X532Y1489D01*
X552Y1489D01*
X552Y1491D01*
X554Y1491D01*
X554Y1493D01*
X558Y1493D01*
X558Y1495D01*
X560Y1495D01*
X560Y1497D01*
X564Y1497D01*
X564Y1499D01*
X570Y1499D01*
X570Y1501D01*
X486Y1501D01*
G37*
D02*
G36*
X586Y1501D02*
X586Y1499D01*
X592Y1499D01*
X592Y1497D01*
X596Y1497D01*
X596Y1495D01*
X600Y1495D01*
X600Y1493D01*
X602Y1493D01*
X602Y1491D01*
X604Y1491D01*
X604Y1489D01*
X606Y1489D01*
X606Y1487D01*
X608Y1487D01*
X608Y1485D01*
X610Y1485D01*
X610Y1483D01*
X612Y1483D01*
X612Y1479D01*
X614Y1479D01*
X614Y1475D01*
X616Y1475D01*
X616Y1469D01*
X618Y1469D01*
X618Y1435D01*
X620Y1435D01*
X620Y1433D01*
X642Y1433D01*
X642Y1451D01*
X640Y1451D01*
X640Y1459D01*
X638Y1459D01*
X638Y1465D01*
X640Y1465D01*
X640Y1473D01*
X642Y1473D01*
X642Y1477D01*
X644Y1477D01*
X644Y1481D01*
X646Y1481D01*
X646Y1483D01*
X648Y1483D01*
X648Y1487D01*
X650Y1487D01*
X650Y1489D01*
X652Y1489D01*
X652Y1491D01*
X654Y1491D01*
X654Y1493D01*
X658Y1493D01*
X658Y1495D01*
X660Y1495D01*
X660Y1497D01*
X664Y1497D01*
X664Y1499D01*
X670Y1499D01*
X670Y1501D01*
X586Y1501D01*
G37*
D02*
G36*
X1076Y1497D02*
X1076Y1495D01*
X1078Y1495D01*
X1078Y1493D01*
X1104Y1493D01*
X1104Y1491D01*
X1180Y1491D01*
X1180Y1489D01*
X1256Y1489D01*
X1256Y1487D01*
X1318Y1487D01*
X1318Y1489D01*
X1320Y1489D01*
X1320Y1491D01*
X1322Y1491D01*
X1322Y1493D01*
X1326Y1493D01*
X1326Y1495D01*
X1330Y1495D01*
X1330Y1497D01*
X1076Y1497D01*
G37*
D02*
G36*
X1076Y1457D02*
X1076Y1455D01*
X1074Y1455D01*
X1074Y1453D01*
X1072Y1453D01*
X1072Y1451D01*
X1070Y1451D01*
X1070Y1449D01*
X1066Y1449D01*
X1066Y1447D01*
X1060Y1447D01*
X1060Y1445D01*
X1320Y1445D01*
X1320Y1447D01*
X1316Y1447D01*
X1316Y1451D01*
X1254Y1451D01*
X1254Y1453D01*
X1178Y1453D01*
X1178Y1455D01*
X1104Y1455D01*
X1104Y1457D01*
X1076Y1457D01*
G37*
D02*
G36*
X712Y1445D02*
X712Y1443D01*
X1322Y1443D01*
X1322Y1445D01*
X712Y1445D01*
G37*
D02*
G36*
X712Y1445D02*
X712Y1443D01*
X1322Y1443D01*
X1322Y1445D01*
X712Y1445D01*
G37*
D02*
G36*
X712Y1443D02*
X712Y1441D01*
X710Y1441D01*
X710Y1439D01*
X1328Y1439D01*
X1328Y1441D01*
X1324Y1441D01*
X1324Y1443D01*
X712Y1443D01*
G37*
D02*
G36*
X708Y1439D02*
X708Y1437D01*
X1688Y1437D01*
X1688Y1439D01*
X708Y1439D01*
G37*
D02*
G36*
X708Y1439D02*
X708Y1437D01*
X1688Y1437D01*
X1688Y1439D01*
X708Y1439D01*
G37*
D02*
G36*
X708Y1437D02*
X708Y1435D01*
X706Y1435D01*
X706Y1433D01*
X704Y1433D01*
X704Y1431D01*
X700Y1431D01*
X700Y1429D01*
X698Y1429D01*
X698Y1427D01*
X694Y1427D01*
X694Y1425D01*
X690Y1425D01*
X690Y1423D01*
X680Y1423D01*
X680Y1421D01*
X1636Y1421D01*
X1636Y1423D01*
X1644Y1423D01*
X1644Y1425D01*
X1650Y1425D01*
X1650Y1427D01*
X1656Y1427D01*
X1656Y1429D01*
X1662Y1429D01*
X1662Y1431D01*
X1668Y1431D01*
X1668Y1433D01*
X1674Y1433D01*
X1674Y1435D01*
X1682Y1435D01*
X1682Y1437D01*
X708Y1437D01*
G37*
D02*
G36*
X650Y1423D02*
X650Y1421D01*
X676Y1421D01*
X676Y1423D01*
X650Y1423D01*
G37*
D02*
G36*
X650Y1421D02*
X650Y1419D01*
X1630Y1419D01*
X1630Y1421D01*
X650Y1421D01*
G37*
D02*
G36*
X650Y1421D02*
X650Y1419D01*
X1630Y1419D01*
X1630Y1421D01*
X650Y1421D01*
G37*
D02*
G36*
X650Y1419D02*
X650Y1401D01*
X686Y1401D01*
X686Y1399D01*
X692Y1399D01*
X692Y1397D01*
X696Y1397D01*
X696Y1395D01*
X700Y1395D01*
X700Y1393D01*
X702Y1393D01*
X702Y1391D01*
X704Y1391D01*
X704Y1389D01*
X706Y1389D01*
X706Y1387D01*
X708Y1387D01*
X708Y1385D01*
X710Y1385D01*
X710Y1383D01*
X712Y1383D01*
X712Y1379D01*
X714Y1379D01*
X714Y1375D01*
X716Y1375D01*
X716Y1369D01*
X718Y1369D01*
X718Y1353D01*
X716Y1353D01*
X716Y1347D01*
X714Y1347D01*
X714Y1345D01*
X712Y1345D01*
X712Y1341D01*
X710Y1341D01*
X710Y1339D01*
X708Y1339D01*
X708Y1335D01*
X706Y1335D01*
X706Y1333D01*
X704Y1333D01*
X704Y1331D01*
X700Y1331D01*
X700Y1329D01*
X698Y1329D01*
X698Y1327D01*
X694Y1327D01*
X694Y1325D01*
X690Y1325D01*
X690Y1323D01*
X680Y1323D01*
X680Y1321D01*
X1320Y1321D01*
X1320Y1323D01*
X1326Y1323D01*
X1326Y1325D01*
X1332Y1325D01*
X1332Y1327D01*
X1340Y1327D01*
X1340Y1329D01*
X1346Y1329D01*
X1346Y1331D01*
X1352Y1331D01*
X1352Y1333D01*
X1358Y1333D01*
X1358Y1335D01*
X1364Y1335D01*
X1364Y1337D01*
X1370Y1337D01*
X1370Y1339D01*
X1378Y1339D01*
X1378Y1341D01*
X1384Y1341D01*
X1384Y1343D01*
X1390Y1343D01*
X1390Y1345D01*
X1396Y1345D01*
X1396Y1347D01*
X1402Y1347D01*
X1402Y1349D01*
X1408Y1349D01*
X1408Y1351D01*
X1416Y1351D01*
X1416Y1353D01*
X1422Y1353D01*
X1422Y1355D01*
X1428Y1355D01*
X1428Y1357D01*
X1434Y1357D01*
X1434Y1359D01*
X1440Y1359D01*
X1440Y1361D01*
X1446Y1361D01*
X1446Y1363D01*
X1454Y1363D01*
X1454Y1365D01*
X1460Y1365D01*
X1460Y1367D01*
X1466Y1367D01*
X1466Y1369D01*
X1472Y1369D01*
X1472Y1371D01*
X1478Y1371D01*
X1478Y1373D01*
X1484Y1373D01*
X1484Y1375D01*
X1492Y1375D01*
X1492Y1377D01*
X1498Y1377D01*
X1498Y1379D01*
X1504Y1379D01*
X1504Y1381D01*
X1510Y1381D01*
X1510Y1383D01*
X1516Y1383D01*
X1516Y1385D01*
X1522Y1385D01*
X1522Y1387D01*
X1530Y1387D01*
X1530Y1389D01*
X1536Y1389D01*
X1536Y1391D01*
X1542Y1391D01*
X1542Y1393D01*
X1548Y1393D01*
X1548Y1395D01*
X1554Y1395D01*
X1554Y1397D01*
X1560Y1397D01*
X1560Y1399D01*
X1568Y1399D01*
X1568Y1401D01*
X1574Y1401D01*
X1574Y1403D01*
X1580Y1403D01*
X1580Y1405D01*
X1586Y1405D01*
X1586Y1407D01*
X1592Y1407D01*
X1592Y1409D01*
X1598Y1409D01*
X1598Y1411D01*
X1606Y1411D01*
X1606Y1413D01*
X1612Y1413D01*
X1612Y1415D01*
X1618Y1415D01*
X1618Y1417D01*
X1624Y1417D01*
X1624Y1419D01*
X650Y1419D01*
G37*
D02*
G36*
X650Y1401D02*
X650Y1399D01*
X670Y1399D01*
X670Y1401D01*
X650Y1401D01*
G37*
D02*
G36*
X650Y1323D02*
X650Y1321D01*
X676Y1321D01*
X676Y1323D01*
X650Y1323D01*
G37*
D02*
G36*
X650Y1321D02*
X650Y1319D01*
X1314Y1319D01*
X1314Y1321D01*
X650Y1321D01*
G37*
D02*
G36*
X650Y1321D02*
X650Y1319D01*
X1314Y1319D01*
X1314Y1321D01*
X650Y1321D01*
G37*
D02*
G36*
X650Y1319D02*
X650Y1301D01*
X686Y1301D01*
X686Y1299D01*
X692Y1299D01*
X692Y1297D01*
X696Y1297D01*
X696Y1295D01*
X700Y1295D01*
X700Y1293D01*
X702Y1293D01*
X702Y1291D01*
X704Y1291D01*
X704Y1289D01*
X706Y1289D01*
X706Y1287D01*
X708Y1287D01*
X708Y1285D01*
X710Y1285D01*
X710Y1283D01*
X712Y1283D01*
X712Y1279D01*
X714Y1279D01*
X714Y1275D01*
X716Y1275D01*
X716Y1269D01*
X718Y1269D01*
X718Y1253D01*
X716Y1253D01*
X716Y1247D01*
X714Y1247D01*
X714Y1245D01*
X712Y1245D01*
X712Y1241D01*
X710Y1241D01*
X710Y1239D01*
X708Y1239D01*
X708Y1235D01*
X706Y1235D01*
X706Y1233D01*
X704Y1233D01*
X704Y1231D01*
X700Y1231D01*
X700Y1229D01*
X698Y1229D01*
X698Y1227D01*
X694Y1227D01*
X694Y1225D01*
X690Y1225D01*
X690Y1223D01*
X680Y1223D01*
X680Y1221D01*
X1004Y1221D01*
X1004Y1223D01*
X1010Y1223D01*
X1010Y1225D01*
X1016Y1225D01*
X1016Y1227D01*
X1022Y1227D01*
X1022Y1229D01*
X1028Y1229D01*
X1028Y1231D01*
X1036Y1231D01*
X1036Y1233D01*
X1042Y1233D01*
X1042Y1235D01*
X1048Y1235D01*
X1048Y1237D01*
X1054Y1237D01*
X1054Y1239D01*
X1060Y1239D01*
X1060Y1241D01*
X1066Y1241D01*
X1066Y1243D01*
X1074Y1243D01*
X1074Y1245D01*
X1080Y1245D01*
X1080Y1247D01*
X1086Y1247D01*
X1086Y1249D01*
X1092Y1249D01*
X1092Y1251D01*
X1098Y1251D01*
X1098Y1253D01*
X1104Y1253D01*
X1104Y1255D01*
X1112Y1255D01*
X1112Y1257D01*
X1118Y1257D01*
X1118Y1259D01*
X1124Y1259D01*
X1124Y1261D01*
X1130Y1261D01*
X1130Y1263D01*
X1136Y1263D01*
X1136Y1265D01*
X1142Y1265D01*
X1142Y1267D01*
X1150Y1267D01*
X1150Y1269D01*
X1156Y1269D01*
X1156Y1271D01*
X1162Y1271D01*
X1162Y1273D01*
X1168Y1273D01*
X1168Y1275D01*
X1174Y1275D01*
X1174Y1277D01*
X1180Y1277D01*
X1180Y1279D01*
X1188Y1279D01*
X1188Y1281D01*
X1194Y1281D01*
X1194Y1283D01*
X1200Y1283D01*
X1200Y1285D01*
X1206Y1285D01*
X1206Y1287D01*
X1212Y1287D01*
X1212Y1289D01*
X1218Y1289D01*
X1218Y1291D01*
X1226Y1291D01*
X1226Y1293D01*
X1232Y1293D01*
X1232Y1295D01*
X1238Y1295D01*
X1238Y1297D01*
X1244Y1297D01*
X1244Y1299D01*
X1250Y1299D01*
X1250Y1301D01*
X1256Y1301D01*
X1256Y1303D01*
X1264Y1303D01*
X1264Y1305D01*
X1270Y1305D01*
X1270Y1307D01*
X1276Y1307D01*
X1276Y1309D01*
X1282Y1309D01*
X1282Y1311D01*
X1288Y1311D01*
X1288Y1313D01*
X1294Y1313D01*
X1294Y1315D01*
X1302Y1315D01*
X1302Y1317D01*
X1308Y1317D01*
X1308Y1319D01*
X650Y1319D01*
G37*
D02*
G36*
X650Y1301D02*
X650Y1299D01*
X670Y1299D01*
X670Y1301D01*
X650Y1301D01*
G37*
D02*
G36*
X618Y1263D02*
X618Y1253D01*
X616Y1253D01*
X616Y1247D01*
X614Y1247D01*
X614Y1245D01*
X612Y1245D01*
X612Y1241D01*
X610Y1241D01*
X610Y1239D01*
X608Y1239D01*
X608Y1235D01*
X606Y1235D01*
X606Y1233D01*
X604Y1233D01*
X604Y1231D01*
X600Y1231D01*
X600Y1229D01*
X598Y1229D01*
X598Y1227D01*
X594Y1227D01*
X594Y1225D01*
X590Y1225D01*
X590Y1223D01*
X580Y1223D01*
X580Y1221D01*
X676Y1221D01*
X676Y1223D01*
X668Y1223D01*
X668Y1225D01*
X662Y1225D01*
X662Y1227D01*
X660Y1227D01*
X660Y1229D01*
X656Y1229D01*
X656Y1231D01*
X654Y1231D01*
X654Y1233D01*
X652Y1233D01*
X652Y1235D01*
X650Y1235D01*
X650Y1237D01*
X648Y1237D01*
X648Y1239D01*
X646Y1239D01*
X646Y1243D01*
X644Y1243D01*
X644Y1245D01*
X642Y1245D01*
X642Y1251D01*
X640Y1251D01*
X640Y1259D01*
X638Y1259D01*
X638Y1263D01*
X618Y1263D01*
G37*
D02*
G36*
X538Y1229D02*
X538Y1221D01*
X576Y1221D01*
X576Y1223D01*
X568Y1223D01*
X568Y1225D01*
X562Y1225D01*
X562Y1227D01*
X560Y1227D01*
X560Y1229D01*
X538Y1229D01*
G37*
D02*
G36*
X538Y1221D02*
X538Y1219D01*
X998Y1219D01*
X998Y1221D01*
X538Y1221D01*
G37*
D02*
G36*
X538Y1221D02*
X538Y1219D01*
X998Y1219D01*
X998Y1221D01*
X538Y1221D01*
G37*
D02*
G36*
X538Y1221D02*
X538Y1219D01*
X998Y1219D01*
X998Y1221D01*
X538Y1221D01*
G37*
D02*
G36*
X538Y1219D02*
X538Y1201D01*
X686Y1201D01*
X686Y1199D01*
X692Y1199D01*
X692Y1197D01*
X696Y1197D01*
X696Y1195D01*
X700Y1195D01*
X700Y1193D01*
X702Y1193D01*
X702Y1191D01*
X704Y1191D01*
X704Y1189D01*
X706Y1189D01*
X706Y1187D01*
X708Y1187D01*
X708Y1185D01*
X710Y1185D01*
X710Y1183D01*
X712Y1183D01*
X712Y1179D01*
X714Y1179D01*
X714Y1175D01*
X716Y1175D01*
X716Y1169D01*
X718Y1169D01*
X718Y1153D01*
X716Y1153D01*
X716Y1137D01*
X738Y1137D01*
X738Y1139D01*
X744Y1139D01*
X744Y1141D01*
X750Y1141D01*
X750Y1143D01*
X756Y1143D01*
X756Y1145D01*
X762Y1145D01*
X762Y1147D01*
X770Y1147D01*
X770Y1149D01*
X776Y1149D01*
X776Y1151D01*
X782Y1151D01*
X782Y1153D01*
X788Y1153D01*
X788Y1155D01*
X794Y1155D01*
X794Y1157D01*
X800Y1157D01*
X800Y1159D01*
X808Y1159D01*
X808Y1161D01*
X814Y1161D01*
X814Y1163D01*
X820Y1163D01*
X820Y1165D01*
X826Y1165D01*
X826Y1167D01*
X832Y1167D01*
X832Y1169D01*
X838Y1169D01*
X838Y1171D01*
X846Y1171D01*
X846Y1173D01*
X852Y1173D01*
X852Y1175D01*
X858Y1175D01*
X858Y1177D01*
X864Y1177D01*
X864Y1179D01*
X870Y1179D01*
X870Y1181D01*
X876Y1181D01*
X876Y1183D01*
X884Y1183D01*
X884Y1185D01*
X890Y1185D01*
X890Y1187D01*
X896Y1187D01*
X896Y1189D01*
X902Y1189D01*
X902Y1191D01*
X908Y1191D01*
X908Y1193D01*
X914Y1193D01*
X914Y1195D01*
X922Y1195D01*
X922Y1197D01*
X928Y1197D01*
X928Y1199D01*
X934Y1199D01*
X934Y1201D01*
X940Y1201D01*
X940Y1203D01*
X946Y1203D01*
X946Y1205D01*
X952Y1205D01*
X952Y1207D01*
X960Y1207D01*
X960Y1209D01*
X966Y1209D01*
X966Y1211D01*
X972Y1211D01*
X972Y1213D01*
X978Y1213D01*
X978Y1215D01*
X984Y1215D01*
X984Y1217D01*
X990Y1217D01*
X990Y1219D01*
X538Y1219D01*
G37*
D02*
G36*
X538Y1201D02*
X538Y1193D01*
X558Y1193D01*
X558Y1195D01*
X560Y1195D01*
X560Y1197D01*
X564Y1197D01*
X564Y1199D01*
X570Y1199D01*
X570Y1201D01*
X538Y1201D01*
G37*
D02*
G36*
X586Y1201D02*
X586Y1199D01*
X592Y1199D01*
X592Y1197D01*
X596Y1197D01*
X596Y1195D01*
X600Y1195D01*
X600Y1193D01*
X602Y1193D01*
X602Y1191D01*
X604Y1191D01*
X604Y1189D01*
X606Y1189D01*
X606Y1187D01*
X608Y1187D01*
X608Y1185D01*
X610Y1185D01*
X610Y1183D01*
X612Y1183D01*
X612Y1179D01*
X614Y1179D01*
X614Y1175D01*
X616Y1175D01*
X616Y1169D01*
X618Y1169D01*
X618Y1153D01*
X616Y1153D01*
X616Y1129D01*
X642Y1129D01*
X642Y1151D01*
X640Y1151D01*
X640Y1159D01*
X638Y1159D01*
X638Y1165D01*
X640Y1165D01*
X640Y1173D01*
X642Y1173D01*
X642Y1177D01*
X644Y1177D01*
X644Y1181D01*
X646Y1181D01*
X646Y1183D01*
X648Y1183D01*
X648Y1187D01*
X650Y1187D01*
X650Y1189D01*
X652Y1189D01*
X652Y1191D01*
X654Y1191D01*
X654Y1193D01*
X658Y1193D01*
X658Y1195D01*
X660Y1195D01*
X660Y1197D01*
X664Y1197D01*
X664Y1199D01*
X670Y1199D01*
X670Y1201D01*
X586Y1201D01*
G37*
D02*
G36*
X794Y741D02*
X794Y719D01*
X796Y719D01*
X796Y707D01*
X794Y707D01*
X794Y701D01*
X792Y701D01*
X792Y699D01*
X890Y699D01*
X890Y697D01*
X896Y697D01*
X896Y695D01*
X900Y695D01*
X900Y693D01*
X902Y693D01*
X902Y691D01*
X904Y691D01*
X904Y689D01*
X906Y689D01*
X906Y687D01*
X908Y687D01*
X908Y685D01*
X910Y685D01*
X910Y681D01*
X912Y681D01*
X912Y677D01*
X914Y677D01*
X914Y661D01*
X912Y661D01*
X912Y657D01*
X910Y657D01*
X910Y653D01*
X908Y653D01*
X908Y651D01*
X906Y651D01*
X906Y649D01*
X904Y649D01*
X904Y647D01*
X902Y647D01*
X902Y645D01*
X900Y645D01*
X900Y643D01*
X896Y643D01*
X896Y641D01*
X890Y641D01*
X890Y639D01*
X870Y639D01*
X870Y637D01*
X866Y637D01*
X866Y635D01*
X862Y635D01*
X862Y633D01*
X860Y633D01*
X860Y631D01*
X856Y631D01*
X856Y629D01*
X854Y629D01*
X854Y627D01*
X850Y627D01*
X850Y625D01*
X846Y625D01*
X846Y623D01*
X844Y623D01*
X844Y621D01*
X840Y621D01*
X840Y619D01*
X838Y619D01*
X838Y617D01*
X834Y617D01*
X834Y615D01*
X830Y615D01*
X830Y613D01*
X828Y613D01*
X828Y611D01*
X824Y611D01*
X824Y609D01*
X822Y609D01*
X822Y607D01*
X818Y607D01*
X818Y605D01*
X814Y605D01*
X814Y603D01*
X812Y603D01*
X812Y601D01*
X808Y601D01*
X808Y599D01*
X804Y599D01*
X804Y597D01*
X802Y597D01*
X802Y595D01*
X798Y595D01*
X798Y593D01*
X796Y593D01*
X796Y591D01*
X792Y591D01*
X792Y589D01*
X788Y589D01*
X788Y587D01*
X786Y587D01*
X786Y585D01*
X782Y585D01*
X782Y583D01*
X780Y583D01*
X780Y581D01*
X776Y581D01*
X776Y579D01*
X772Y579D01*
X772Y577D01*
X770Y577D01*
X770Y575D01*
X766Y575D01*
X766Y573D01*
X764Y573D01*
X764Y571D01*
X760Y571D01*
X760Y569D01*
X756Y569D01*
X756Y567D01*
X754Y567D01*
X754Y565D01*
X750Y565D01*
X750Y563D01*
X748Y563D01*
X748Y561D01*
X744Y561D01*
X744Y559D01*
X740Y559D01*
X740Y557D01*
X738Y557D01*
X738Y555D01*
X734Y555D01*
X734Y553D01*
X730Y553D01*
X730Y551D01*
X728Y551D01*
X728Y549D01*
X724Y549D01*
X724Y547D01*
X722Y547D01*
X722Y545D01*
X718Y545D01*
X718Y543D01*
X714Y543D01*
X714Y541D01*
X712Y541D01*
X712Y539D01*
X708Y539D01*
X708Y537D01*
X706Y537D01*
X706Y535D01*
X702Y535D01*
X702Y533D01*
X698Y533D01*
X698Y531D01*
X696Y531D01*
X696Y529D01*
X692Y529D01*
X692Y527D01*
X690Y527D01*
X690Y525D01*
X686Y525D01*
X686Y523D01*
X682Y523D01*
X682Y521D01*
X680Y521D01*
X680Y519D01*
X676Y519D01*
X676Y517D01*
X674Y517D01*
X674Y515D01*
X670Y515D01*
X670Y513D01*
X666Y513D01*
X666Y511D01*
X664Y511D01*
X664Y509D01*
X660Y509D01*
X660Y507D01*
X656Y507D01*
X656Y505D01*
X654Y505D01*
X654Y503D01*
X650Y503D01*
X650Y501D01*
X648Y501D01*
X648Y499D01*
X644Y499D01*
X644Y497D01*
X640Y497D01*
X640Y495D01*
X638Y495D01*
X638Y493D01*
X634Y493D01*
X634Y491D01*
X632Y491D01*
X632Y489D01*
X628Y489D01*
X628Y487D01*
X624Y487D01*
X624Y485D01*
X622Y485D01*
X622Y483D01*
X618Y483D01*
X618Y481D01*
X616Y481D01*
X616Y479D01*
X612Y479D01*
X612Y477D01*
X608Y477D01*
X608Y475D01*
X606Y475D01*
X606Y473D01*
X1904Y473D01*
X1904Y475D01*
X1898Y475D01*
X1898Y477D01*
X1892Y477D01*
X1892Y479D01*
X1890Y479D01*
X1890Y481D01*
X1886Y481D01*
X1886Y483D01*
X1884Y483D01*
X1884Y485D01*
X1880Y485D01*
X1880Y487D01*
X1878Y487D01*
X1878Y489D01*
X1876Y489D01*
X1876Y491D01*
X1874Y491D01*
X1874Y495D01*
X1872Y495D01*
X1872Y497D01*
X1870Y497D01*
X1870Y499D01*
X1868Y499D01*
X1868Y503D01*
X1866Y503D01*
X1866Y507D01*
X1864Y507D01*
X1864Y513D01*
X1862Y513D01*
X1862Y533D01*
X1864Y533D01*
X1864Y539D01*
X1866Y539D01*
X1866Y559D01*
X1864Y559D01*
X1864Y561D01*
X1862Y561D01*
X1862Y565D01*
X1860Y565D01*
X1860Y567D01*
X1858Y567D01*
X1858Y571D01*
X1856Y571D01*
X1856Y573D01*
X1854Y573D01*
X1854Y577D01*
X1852Y577D01*
X1852Y579D01*
X1850Y579D01*
X1850Y581D01*
X1848Y581D01*
X1848Y585D01*
X1846Y585D01*
X1846Y587D01*
X1844Y587D01*
X1844Y591D01*
X1842Y591D01*
X1842Y593D01*
X1840Y593D01*
X1840Y597D01*
X1838Y597D01*
X1838Y599D01*
X1836Y599D01*
X1836Y603D01*
X1834Y603D01*
X1834Y605D01*
X1832Y605D01*
X1832Y609D01*
X1830Y609D01*
X1830Y741D01*
X794Y741D01*
G37*
D02*
G36*
X790Y699D02*
X790Y695D01*
X788Y695D01*
X788Y693D01*
X786Y693D01*
X786Y691D01*
X784Y691D01*
X784Y689D01*
X780Y689D01*
X780Y687D01*
X778Y687D01*
X778Y685D01*
X772Y685D01*
X772Y683D01*
X744Y683D01*
X744Y681D01*
X740Y681D01*
X740Y679D01*
X736Y679D01*
X736Y677D01*
X732Y677D01*
X732Y675D01*
X728Y675D01*
X728Y673D01*
X724Y673D01*
X724Y671D01*
X720Y671D01*
X720Y669D01*
X716Y669D01*
X716Y667D01*
X712Y667D01*
X712Y665D01*
X708Y665D01*
X708Y663D01*
X704Y663D01*
X704Y661D01*
X700Y661D01*
X700Y659D01*
X696Y659D01*
X696Y657D01*
X692Y657D01*
X692Y655D01*
X688Y655D01*
X688Y653D01*
X684Y653D01*
X684Y651D01*
X680Y651D01*
X680Y649D01*
X676Y649D01*
X676Y647D01*
X672Y647D01*
X672Y645D01*
X668Y645D01*
X668Y643D01*
X664Y643D01*
X664Y641D01*
X660Y641D01*
X660Y639D01*
X656Y639D01*
X656Y637D01*
X652Y637D01*
X652Y635D01*
X648Y635D01*
X648Y633D01*
X644Y633D01*
X644Y631D01*
X640Y631D01*
X640Y629D01*
X636Y629D01*
X636Y627D01*
X632Y627D01*
X632Y625D01*
X628Y625D01*
X628Y623D01*
X624Y623D01*
X624Y621D01*
X620Y621D01*
X620Y619D01*
X616Y619D01*
X616Y617D01*
X612Y617D01*
X612Y615D01*
X608Y615D01*
X608Y613D01*
X604Y613D01*
X604Y611D01*
X600Y611D01*
X600Y609D01*
X596Y609D01*
X596Y607D01*
X592Y607D01*
X592Y605D01*
X588Y605D01*
X588Y603D01*
X584Y603D01*
X584Y601D01*
X580Y601D01*
X580Y599D01*
X576Y599D01*
X576Y597D01*
X572Y597D01*
X572Y595D01*
X568Y595D01*
X568Y593D01*
X564Y593D01*
X564Y591D01*
X560Y591D01*
X560Y589D01*
X556Y589D01*
X556Y587D01*
X552Y587D01*
X552Y585D01*
X548Y585D01*
X548Y583D01*
X544Y583D01*
X544Y581D01*
X540Y581D01*
X540Y579D01*
X536Y579D01*
X536Y577D01*
X532Y577D01*
X532Y575D01*
X528Y575D01*
X528Y573D01*
X524Y573D01*
X524Y571D01*
X520Y571D01*
X520Y569D01*
X516Y569D01*
X516Y567D01*
X512Y567D01*
X512Y565D01*
X508Y565D01*
X508Y563D01*
X504Y563D01*
X504Y561D01*
X500Y561D01*
X500Y559D01*
X496Y559D01*
X496Y557D01*
X492Y557D01*
X492Y555D01*
X490Y555D01*
X490Y553D01*
X486Y553D01*
X486Y551D01*
X482Y551D01*
X482Y549D01*
X478Y549D01*
X478Y547D01*
X474Y547D01*
X474Y545D01*
X470Y545D01*
X470Y543D01*
X466Y543D01*
X466Y541D01*
X462Y541D01*
X462Y539D01*
X458Y539D01*
X458Y537D01*
X454Y537D01*
X454Y535D01*
X450Y535D01*
X450Y533D01*
X446Y533D01*
X446Y531D01*
X442Y531D01*
X442Y529D01*
X438Y529D01*
X438Y527D01*
X434Y527D01*
X434Y525D01*
X430Y525D01*
X430Y523D01*
X426Y523D01*
X426Y521D01*
X422Y521D01*
X422Y519D01*
X418Y519D01*
X418Y517D01*
X414Y517D01*
X414Y515D01*
X410Y515D01*
X410Y513D01*
X406Y513D01*
X406Y511D01*
X402Y511D01*
X402Y509D01*
X398Y509D01*
X398Y507D01*
X394Y507D01*
X394Y505D01*
X390Y505D01*
X390Y503D01*
X386Y503D01*
X386Y501D01*
X382Y501D01*
X382Y499D01*
X378Y499D01*
X378Y497D01*
X374Y497D01*
X374Y495D01*
X370Y495D01*
X370Y493D01*
X366Y493D01*
X366Y491D01*
X362Y491D01*
X362Y489D01*
X358Y489D01*
X358Y487D01*
X354Y487D01*
X354Y485D01*
X350Y485D01*
X350Y483D01*
X346Y483D01*
X346Y481D01*
X342Y481D01*
X342Y479D01*
X338Y479D01*
X338Y477D01*
X334Y477D01*
X334Y475D01*
X330Y475D01*
X330Y473D01*
X326Y473D01*
X326Y471D01*
X322Y471D01*
X322Y469D01*
X318Y469D01*
X318Y467D01*
X314Y467D01*
X314Y465D01*
X310Y465D01*
X310Y463D01*
X306Y463D01*
X306Y461D01*
X302Y461D01*
X302Y459D01*
X298Y459D01*
X298Y457D01*
X294Y457D01*
X294Y455D01*
X290Y455D01*
X290Y453D01*
X286Y453D01*
X286Y451D01*
X282Y451D01*
X282Y449D01*
X278Y449D01*
X278Y447D01*
X274Y447D01*
X274Y445D01*
X270Y445D01*
X270Y443D01*
X266Y443D01*
X266Y441D01*
X262Y441D01*
X262Y439D01*
X258Y439D01*
X258Y437D01*
X254Y437D01*
X254Y435D01*
X250Y435D01*
X250Y433D01*
X246Y433D01*
X246Y431D01*
X242Y431D01*
X242Y429D01*
X238Y429D01*
X238Y415D01*
X236Y415D01*
X236Y409D01*
X234Y409D01*
X234Y405D01*
X232Y405D01*
X232Y403D01*
X230Y403D01*
X230Y399D01*
X228Y399D01*
X228Y397D01*
X226Y397D01*
X226Y395D01*
X224Y395D01*
X224Y393D01*
X222Y393D01*
X222Y391D01*
X220Y391D01*
X220Y389D01*
X216Y389D01*
X216Y387D01*
X214Y387D01*
X214Y365D01*
X216Y365D01*
X216Y363D01*
X220Y363D01*
X220Y361D01*
X222Y361D01*
X222Y359D01*
X224Y359D01*
X224Y357D01*
X226Y357D01*
X226Y355D01*
X228Y355D01*
X228Y353D01*
X230Y353D01*
X230Y349D01*
X232Y349D01*
X232Y347D01*
X234Y347D01*
X234Y343D01*
X236Y343D01*
X236Y337D01*
X238Y337D01*
X238Y315D01*
X236Y315D01*
X236Y309D01*
X234Y309D01*
X234Y305D01*
X232Y305D01*
X232Y303D01*
X230Y303D01*
X230Y295D01*
X250Y295D01*
X250Y297D01*
X254Y297D01*
X254Y299D01*
X258Y299D01*
X258Y301D01*
X260Y301D01*
X260Y303D01*
X264Y303D01*
X264Y305D01*
X266Y305D01*
X266Y307D01*
X270Y307D01*
X270Y309D01*
X274Y309D01*
X274Y311D01*
X276Y311D01*
X276Y313D01*
X280Y313D01*
X280Y315D01*
X284Y315D01*
X284Y317D01*
X286Y317D01*
X286Y319D01*
X290Y319D01*
X290Y321D01*
X292Y321D01*
X292Y323D01*
X296Y323D01*
X296Y325D01*
X300Y325D01*
X300Y327D01*
X302Y327D01*
X302Y329D01*
X306Y329D01*
X306Y331D01*
X308Y331D01*
X308Y333D01*
X312Y333D01*
X312Y335D01*
X316Y335D01*
X316Y337D01*
X318Y337D01*
X318Y339D01*
X322Y339D01*
X322Y341D01*
X324Y341D01*
X324Y343D01*
X328Y343D01*
X328Y345D01*
X332Y345D01*
X332Y347D01*
X334Y347D01*
X334Y349D01*
X338Y349D01*
X338Y351D01*
X340Y351D01*
X340Y353D01*
X344Y353D01*
X344Y355D01*
X348Y355D01*
X348Y357D01*
X350Y357D01*
X350Y359D01*
X354Y359D01*
X354Y361D01*
X358Y361D01*
X358Y363D01*
X360Y363D01*
X360Y365D01*
X364Y365D01*
X364Y367D01*
X366Y367D01*
X366Y369D01*
X370Y369D01*
X370Y371D01*
X374Y371D01*
X374Y373D01*
X376Y373D01*
X376Y375D01*
X380Y375D01*
X380Y377D01*
X382Y377D01*
X382Y379D01*
X386Y379D01*
X386Y381D01*
X390Y381D01*
X390Y383D01*
X392Y383D01*
X392Y385D01*
X396Y385D01*
X396Y387D01*
X398Y387D01*
X398Y389D01*
X402Y389D01*
X402Y391D01*
X406Y391D01*
X406Y393D01*
X408Y393D01*
X408Y395D01*
X412Y395D01*
X412Y397D01*
X414Y397D01*
X414Y399D01*
X418Y399D01*
X418Y401D01*
X422Y401D01*
X422Y403D01*
X424Y403D01*
X424Y405D01*
X428Y405D01*
X428Y407D01*
X432Y407D01*
X432Y409D01*
X434Y409D01*
X434Y411D01*
X438Y411D01*
X438Y413D01*
X440Y413D01*
X440Y415D01*
X444Y415D01*
X444Y417D01*
X448Y417D01*
X448Y419D01*
X450Y419D01*
X450Y421D01*
X454Y421D01*
X454Y423D01*
X456Y423D01*
X456Y425D01*
X460Y425D01*
X460Y427D01*
X464Y427D01*
X464Y429D01*
X466Y429D01*
X466Y431D01*
X470Y431D01*
X470Y433D01*
X472Y433D01*
X472Y435D01*
X476Y435D01*
X476Y437D01*
X480Y437D01*
X480Y439D01*
X482Y439D01*
X482Y441D01*
X486Y441D01*
X486Y443D01*
X488Y443D01*
X488Y445D01*
X492Y445D01*
X492Y447D01*
X496Y447D01*
X496Y449D01*
X498Y449D01*
X498Y451D01*
X502Y451D01*
X502Y453D01*
X506Y453D01*
X506Y455D01*
X508Y455D01*
X508Y457D01*
X512Y457D01*
X512Y459D01*
X514Y459D01*
X514Y461D01*
X518Y461D01*
X518Y463D01*
X522Y463D01*
X522Y465D01*
X524Y465D01*
X524Y467D01*
X528Y467D01*
X528Y469D01*
X530Y469D01*
X530Y471D01*
X534Y471D01*
X534Y473D01*
X538Y473D01*
X538Y475D01*
X540Y475D01*
X540Y477D01*
X544Y477D01*
X544Y479D01*
X546Y479D01*
X546Y481D01*
X550Y481D01*
X550Y483D01*
X554Y483D01*
X554Y485D01*
X556Y485D01*
X556Y487D01*
X560Y487D01*
X560Y489D01*
X562Y489D01*
X562Y491D01*
X566Y491D01*
X566Y493D01*
X570Y493D01*
X570Y495D01*
X572Y495D01*
X572Y497D01*
X576Y497D01*
X576Y499D01*
X580Y499D01*
X580Y501D01*
X582Y501D01*
X582Y503D01*
X586Y503D01*
X586Y505D01*
X588Y505D01*
X588Y507D01*
X592Y507D01*
X592Y509D01*
X596Y509D01*
X596Y511D01*
X598Y511D01*
X598Y513D01*
X602Y513D01*
X602Y515D01*
X604Y515D01*
X604Y517D01*
X608Y517D01*
X608Y519D01*
X612Y519D01*
X612Y521D01*
X614Y521D01*
X614Y523D01*
X618Y523D01*
X618Y525D01*
X620Y525D01*
X620Y527D01*
X624Y527D01*
X624Y529D01*
X628Y529D01*
X628Y531D01*
X630Y531D01*
X630Y533D01*
X634Y533D01*
X634Y535D01*
X636Y535D01*
X636Y537D01*
X640Y537D01*
X640Y539D01*
X644Y539D01*
X644Y541D01*
X646Y541D01*
X646Y543D01*
X650Y543D01*
X650Y545D01*
X654Y545D01*
X654Y547D01*
X656Y547D01*
X656Y549D01*
X660Y549D01*
X660Y551D01*
X662Y551D01*
X662Y553D01*
X666Y553D01*
X666Y555D01*
X670Y555D01*
X670Y557D01*
X672Y557D01*
X672Y559D01*
X676Y559D01*
X676Y561D01*
X678Y561D01*
X678Y563D01*
X682Y563D01*
X682Y565D01*
X686Y565D01*
X686Y567D01*
X688Y567D01*
X688Y569D01*
X692Y569D01*
X692Y571D01*
X694Y571D01*
X694Y573D01*
X698Y573D01*
X698Y575D01*
X702Y575D01*
X702Y577D01*
X704Y577D01*
X704Y579D01*
X708Y579D01*
X708Y581D01*
X710Y581D01*
X710Y583D01*
X714Y583D01*
X714Y585D01*
X718Y585D01*
X718Y587D01*
X720Y587D01*
X720Y589D01*
X724Y589D01*
X724Y591D01*
X728Y591D01*
X728Y593D01*
X730Y593D01*
X730Y595D01*
X734Y595D01*
X734Y597D01*
X736Y597D01*
X736Y599D01*
X740Y599D01*
X740Y601D01*
X744Y601D01*
X744Y603D01*
X746Y603D01*
X746Y605D01*
X750Y605D01*
X750Y607D01*
X752Y607D01*
X752Y609D01*
X756Y609D01*
X756Y611D01*
X760Y611D01*
X760Y613D01*
X762Y613D01*
X762Y615D01*
X766Y615D01*
X766Y617D01*
X768Y617D01*
X768Y619D01*
X772Y619D01*
X772Y621D01*
X776Y621D01*
X776Y623D01*
X778Y623D01*
X778Y625D01*
X782Y625D01*
X782Y627D01*
X784Y627D01*
X784Y629D01*
X788Y629D01*
X788Y631D01*
X792Y631D01*
X792Y633D01*
X794Y633D01*
X794Y635D01*
X798Y635D01*
X798Y637D01*
X802Y637D01*
X802Y639D01*
X804Y639D01*
X804Y641D01*
X808Y641D01*
X808Y643D01*
X810Y643D01*
X810Y645D01*
X814Y645D01*
X814Y647D01*
X818Y647D01*
X818Y649D01*
X820Y649D01*
X820Y651D01*
X824Y651D01*
X824Y653D01*
X826Y653D01*
X826Y655D01*
X830Y655D01*
X830Y657D01*
X834Y657D01*
X834Y659D01*
X836Y659D01*
X836Y661D01*
X840Y661D01*
X840Y663D01*
X842Y663D01*
X842Y665D01*
X846Y665D01*
X846Y667D01*
X850Y667D01*
X850Y669D01*
X852Y669D01*
X852Y671D01*
X856Y671D01*
X856Y677D01*
X858Y677D01*
X858Y681D01*
X860Y681D01*
X860Y685D01*
X862Y685D01*
X862Y687D01*
X864Y687D01*
X864Y689D01*
X866Y689D01*
X866Y691D01*
X868Y691D01*
X868Y693D01*
X870Y693D01*
X870Y695D01*
X874Y695D01*
X874Y697D01*
X880Y697D01*
X880Y699D01*
X790Y699D01*
G37*
D02*
G36*
X1866Y621D02*
X1866Y619D01*
X1868Y619D01*
X1868Y617D01*
X1870Y617D01*
X1870Y613D01*
X1872Y613D01*
X1872Y611D01*
X1904Y611D01*
X1904Y613D01*
X1896Y613D01*
X1896Y615D01*
X1892Y615D01*
X1892Y617D01*
X1888Y617D01*
X1888Y619D01*
X1886Y619D01*
X1886Y621D01*
X1866Y621D01*
G37*
D02*
G36*
X1874Y611D02*
X1874Y609D01*
X2184Y609D01*
X2184Y611D01*
X1874Y611D01*
G37*
D02*
G36*
X1874Y611D02*
X1874Y609D01*
X2184Y609D01*
X2184Y611D01*
X1874Y611D01*
G37*
D02*
G36*
X1874Y609D02*
X1874Y607D01*
X1876Y607D01*
X1876Y605D01*
X1878Y605D01*
X1878Y601D01*
X1880Y601D01*
X1880Y599D01*
X1882Y599D01*
X1882Y597D01*
X1884Y597D01*
X1884Y593D01*
X1886Y593D01*
X1886Y591D01*
X1888Y591D01*
X1888Y587D01*
X1890Y587D01*
X1890Y585D01*
X1892Y585D01*
X1892Y581D01*
X1894Y581D01*
X1894Y579D01*
X1896Y579D01*
X1896Y577D01*
X1898Y577D01*
X1898Y573D01*
X1922Y573D01*
X1922Y571D01*
X1928Y571D01*
X1928Y569D01*
X1932Y569D01*
X1932Y567D01*
X1936Y567D01*
X1936Y565D01*
X1938Y565D01*
X1938Y563D01*
X1940Y563D01*
X1940Y561D01*
X1944Y561D01*
X1944Y559D01*
X1946Y559D01*
X1946Y557D01*
X1948Y557D01*
X1948Y555D01*
X1950Y555D01*
X1950Y551D01*
X1952Y551D01*
X1952Y549D01*
X1954Y549D01*
X1954Y545D01*
X1956Y545D01*
X1956Y543D01*
X1958Y543D01*
X1958Y537D01*
X1960Y537D01*
X1960Y531D01*
X1962Y531D01*
X1962Y515D01*
X1960Y515D01*
X1960Y509D01*
X1958Y509D01*
X1958Y505D01*
X1956Y505D01*
X1956Y501D01*
X1954Y501D01*
X1954Y497D01*
X1952Y497D01*
X1952Y495D01*
X1950Y495D01*
X1950Y493D01*
X1948Y493D01*
X1948Y489D01*
X1946Y489D01*
X1946Y487D01*
X1942Y487D01*
X1942Y485D01*
X1940Y485D01*
X1940Y483D01*
X1938Y483D01*
X1938Y481D01*
X1934Y481D01*
X1934Y479D01*
X1930Y479D01*
X1930Y477D01*
X1926Y477D01*
X1926Y475D01*
X1920Y475D01*
X1920Y473D01*
X2184Y473D01*
X2184Y609D01*
X1874Y609D01*
G37*
D02*
G36*
X602Y473D02*
X602Y471D01*
X2184Y471D01*
X2184Y473D01*
X602Y473D01*
G37*
D02*
G36*
X602Y473D02*
X602Y471D01*
X2184Y471D01*
X2184Y473D01*
X602Y473D01*
G37*
D02*
G36*
X600Y471D02*
X600Y469D01*
X596Y469D01*
X596Y467D01*
X592Y467D01*
X592Y465D01*
X590Y465D01*
X590Y463D01*
X586Y463D01*
X586Y461D01*
X582Y461D01*
X582Y459D01*
X580Y459D01*
X580Y457D01*
X576Y457D01*
X576Y455D01*
X574Y455D01*
X574Y453D01*
X570Y453D01*
X570Y451D01*
X566Y451D01*
X566Y449D01*
X564Y449D01*
X564Y447D01*
X560Y447D01*
X560Y445D01*
X558Y445D01*
X558Y443D01*
X554Y443D01*
X554Y441D01*
X550Y441D01*
X550Y439D01*
X548Y439D01*
X548Y437D01*
X544Y437D01*
X544Y435D01*
X542Y435D01*
X542Y433D01*
X538Y433D01*
X538Y431D01*
X534Y431D01*
X534Y429D01*
X532Y429D01*
X532Y427D01*
X528Y427D01*
X528Y425D01*
X526Y425D01*
X526Y423D01*
X522Y423D01*
X522Y421D01*
X518Y421D01*
X518Y419D01*
X516Y419D01*
X516Y417D01*
X512Y417D01*
X512Y415D01*
X508Y415D01*
X508Y413D01*
X506Y413D01*
X506Y411D01*
X502Y411D01*
X502Y409D01*
X500Y409D01*
X500Y407D01*
X496Y407D01*
X496Y405D01*
X492Y405D01*
X492Y403D01*
X490Y403D01*
X490Y401D01*
X486Y401D01*
X486Y399D01*
X484Y399D01*
X484Y397D01*
X480Y397D01*
X480Y395D01*
X476Y395D01*
X476Y393D01*
X474Y393D01*
X474Y391D01*
X470Y391D01*
X470Y389D01*
X468Y389D01*
X468Y387D01*
X464Y387D01*
X464Y385D01*
X460Y385D01*
X460Y383D01*
X458Y383D01*
X458Y381D01*
X454Y381D01*
X454Y379D01*
X452Y379D01*
X452Y377D01*
X448Y377D01*
X448Y375D01*
X444Y375D01*
X444Y373D01*
X442Y373D01*
X442Y371D01*
X438Y371D01*
X438Y369D01*
X434Y369D01*
X434Y367D01*
X432Y367D01*
X432Y365D01*
X428Y365D01*
X428Y363D01*
X426Y363D01*
X426Y361D01*
X422Y361D01*
X422Y359D01*
X418Y359D01*
X418Y357D01*
X416Y357D01*
X416Y355D01*
X412Y355D01*
X412Y353D01*
X410Y353D01*
X410Y351D01*
X406Y351D01*
X406Y349D01*
X402Y349D01*
X402Y347D01*
X400Y347D01*
X400Y345D01*
X396Y345D01*
X396Y343D01*
X394Y343D01*
X394Y341D01*
X390Y341D01*
X390Y339D01*
X386Y339D01*
X386Y337D01*
X384Y337D01*
X384Y335D01*
X380Y335D01*
X380Y333D01*
X378Y333D01*
X378Y331D01*
X374Y331D01*
X374Y329D01*
X370Y329D01*
X370Y327D01*
X368Y327D01*
X368Y325D01*
X364Y325D01*
X364Y323D01*
X360Y323D01*
X360Y321D01*
X358Y321D01*
X358Y319D01*
X354Y319D01*
X354Y317D01*
X352Y317D01*
X352Y315D01*
X348Y315D01*
X348Y313D01*
X344Y313D01*
X344Y311D01*
X342Y311D01*
X342Y309D01*
X338Y309D01*
X338Y307D01*
X336Y307D01*
X336Y305D01*
X332Y305D01*
X332Y303D01*
X328Y303D01*
X328Y301D01*
X326Y301D01*
X326Y299D01*
X322Y299D01*
X322Y297D01*
X320Y297D01*
X320Y295D01*
X316Y295D01*
X316Y293D01*
X312Y293D01*
X312Y291D01*
X310Y291D01*
X310Y289D01*
X306Y289D01*
X306Y287D01*
X304Y287D01*
X304Y285D01*
X300Y285D01*
X300Y283D01*
X296Y283D01*
X296Y281D01*
X294Y281D01*
X294Y279D01*
X290Y279D01*
X290Y277D01*
X286Y277D01*
X286Y275D01*
X284Y275D01*
X284Y273D01*
X280Y273D01*
X280Y271D01*
X278Y271D01*
X278Y269D01*
X274Y269D01*
X274Y267D01*
X270Y267D01*
X270Y265D01*
X268Y265D01*
X268Y263D01*
X264Y263D01*
X264Y261D01*
X262Y261D01*
X262Y259D01*
X258Y259D01*
X258Y257D01*
X254Y257D01*
X254Y255D01*
X252Y255D01*
X252Y253D01*
X248Y253D01*
X248Y251D01*
X246Y251D01*
X246Y249D01*
X242Y249D01*
X242Y247D01*
X238Y247D01*
X238Y245D01*
X218Y245D01*
X218Y231D01*
X2132Y231D01*
X2132Y229D01*
X2140Y229D01*
X2140Y227D01*
X2144Y227D01*
X2144Y225D01*
X2148Y225D01*
X2148Y223D01*
X2152Y223D01*
X2152Y221D01*
X2154Y221D01*
X2154Y219D01*
X2158Y219D01*
X2158Y217D01*
X2160Y217D01*
X2160Y215D01*
X2162Y215D01*
X2162Y213D01*
X2164Y213D01*
X2164Y211D01*
X2184Y211D01*
X2184Y471D01*
X600Y471D01*
G37*
D02*
G36*
X218Y231D02*
X218Y225D01*
X222Y225D01*
X222Y223D01*
X224Y223D01*
X224Y221D01*
X228Y221D01*
X228Y219D01*
X230Y219D01*
X230Y217D01*
X232Y217D01*
X232Y215D01*
X234Y215D01*
X234Y213D01*
X236Y213D01*
X236Y209D01*
X238Y209D01*
X238Y207D01*
X240Y207D01*
X240Y203D01*
X242Y203D01*
X242Y201D01*
X244Y201D01*
X244Y197D01*
X246Y197D01*
X246Y191D01*
X248Y191D01*
X248Y185D01*
X250Y185D01*
X250Y91D01*
X248Y91D01*
X248Y83D01*
X246Y83D01*
X246Y77D01*
X244Y77D01*
X244Y73D01*
X242Y73D01*
X242Y69D01*
X240Y69D01*
X240Y65D01*
X238Y65D01*
X238Y63D01*
X236Y63D01*
X236Y61D01*
X234Y61D01*
X234Y41D01*
X2006Y41D01*
X2006Y61D01*
X2004Y61D01*
X2004Y63D01*
X2002Y63D01*
X2002Y67D01*
X2000Y67D01*
X2000Y69D01*
X1998Y69D01*
X1998Y73D01*
X1996Y73D01*
X1996Y79D01*
X1994Y79D01*
X1994Y87D01*
X1992Y87D01*
X1992Y181D01*
X1994Y181D01*
X1994Y191D01*
X1996Y191D01*
X1996Y195D01*
X1998Y195D01*
X1998Y201D01*
X2000Y201D01*
X2000Y203D01*
X2002Y203D01*
X2002Y207D01*
X2004Y207D01*
X2004Y209D01*
X2006Y209D01*
X2006Y211D01*
X2008Y211D01*
X2008Y215D01*
X2010Y215D01*
X2010Y217D01*
X2014Y217D01*
X2014Y219D01*
X2016Y219D01*
X2016Y221D01*
X2018Y221D01*
X2018Y223D01*
X2022Y223D01*
X2022Y225D01*
X2026Y225D01*
X2026Y227D01*
X2030Y227D01*
X2030Y229D01*
X2038Y229D01*
X2038Y231D01*
X218Y231D01*
G37*
D02*
G36*
X132Y705D02*
X132Y703D01*
X130Y703D01*
X130Y699D01*
X128Y699D01*
X128Y697D01*
X126Y697D01*
X126Y695D01*
X124Y695D01*
X124Y693D01*
X122Y693D01*
X122Y691D01*
X120Y691D01*
X120Y689D01*
X116Y689D01*
X116Y687D01*
X114Y687D01*
X114Y665D01*
X116Y665D01*
X116Y663D01*
X120Y663D01*
X120Y661D01*
X122Y661D01*
X122Y659D01*
X124Y659D01*
X124Y657D01*
X126Y657D01*
X126Y655D01*
X128Y655D01*
X128Y653D01*
X130Y653D01*
X130Y649D01*
X132Y649D01*
X132Y647D01*
X154Y647D01*
X154Y649D01*
X156Y649D01*
X156Y653D01*
X158Y653D01*
X158Y655D01*
X160Y655D01*
X160Y657D01*
X162Y657D01*
X162Y659D01*
X164Y659D01*
X164Y661D01*
X166Y661D01*
X166Y663D01*
X170Y663D01*
X170Y665D01*
X172Y665D01*
X172Y687D01*
X170Y687D01*
X170Y689D01*
X166Y689D01*
X166Y691D01*
X164Y691D01*
X164Y693D01*
X162Y693D01*
X162Y695D01*
X160Y695D01*
X160Y697D01*
X158Y697D01*
X158Y699D01*
X156Y699D01*
X156Y703D01*
X154Y703D01*
X154Y705D01*
X132Y705D01*
G37*
D02*
G36*
X132Y605D02*
X132Y603D01*
X130Y603D01*
X130Y599D01*
X128Y599D01*
X128Y597D01*
X126Y597D01*
X126Y595D01*
X124Y595D01*
X124Y593D01*
X122Y593D01*
X122Y591D01*
X120Y591D01*
X120Y589D01*
X116Y589D01*
X116Y587D01*
X114Y587D01*
X114Y565D01*
X116Y565D01*
X116Y563D01*
X120Y563D01*
X120Y561D01*
X122Y561D01*
X122Y559D01*
X124Y559D01*
X124Y557D01*
X126Y557D01*
X126Y555D01*
X128Y555D01*
X128Y553D01*
X130Y553D01*
X130Y549D01*
X132Y549D01*
X132Y547D01*
X154Y547D01*
X154Y549D01*
X156Y549D01*
X156Y553D01*
X158Y553D01*
X158Y555D01*
X160Y555D01*
X160Y557D01*
X162Y557D01*
X162Y559D01*
X164Y559D01*
X164Y561D01*
X166Y561D01*
X166Y563D01*
X170Y563D01*
X170Y565D01*
X172Y565D01*
X172Y587D01*
X170Y587D01*
X170Y589D01*
X166Y589D01*
X166Y591D01*
X164Y591D01*
X164Y593D01*
X162Y593D01*
X162Y595D01*
X160Y595D01*
X160Y597D01*
X158Y597D01*
X158Y599D01*
X156Y599D01*
X156Y603D01*
X154Y603D01*
X154Y605D01*
X132Y605D01*
G37*
D02*
G36*
X132Y505D02*
X132Y503D01*
X130Y503D01*
X130Y499D01*
X128Y499D01*
X128Y497D01*
X126Y497D01*
X126Y495D01*
X124Y495D01*
X124Y493D01*
X122Y493D01*
X122Y491D01*
X120Y491D01*
X120Y489D01*
X116Y489D01*
X116Y487D01*
X114Y487D01*
X114Y465D01*
X116Y465D01*
X116Y463D01*
X120Y463D01*
X120Y461D01*
X122Y461D01*
X122Y459D01*
X124Y459D01*
X124Y457D01*
X126Y457D01*
X126Y455D01*
X128Y455D01*
X128Y453D01*
X130Y453D01*
X130Y449D01*
X132Y449D01*
X132Y447D01*
X154Y447D01*
X154Y449D01*
X156Y449D01*
X156Y453D01*
X158Y453D01*
X158Y455D01*
X160Y455D01*
X160Y457D01*
X162Y457D01*
X162Y459D01*
X164Y459D01*
X164Y461D01*
X166Y461D01*
X166Y463D01*
X170Y463D01*
X170Y465D01*
X172Y465D01*
X172Y487D01*
X170Y487D01*
X170Y489D01*
X166Y489D01*
X166Y491D01*
X164Y491D01*
X164Y493D01*
X162Y493D01*
X162Y495D01*
X160Y495D01*
X160Y497D01*
X158Y497D01*
X158Y499D01*
X156Y499D01*
X156Y503D01*
X154Y503D01*
X154Y505D01*
X132Y505D01*
G37*
D02*
G36*
X132Y405D02*
X132Y403D01*
X130Y403D01*
X130Y399D01*
X128Y399D01*
X128Y397D01*
X126Y397D01*
X126Y395D01*
X124Y395D01*
X124Y393D01*
X122Y393D01*
X122Y391D01*
X120Y391D01*
X120Y389D01*
X116Y389D01*
X116Y387D01*
X114Y387D01*
X114Y365D01*
X116Y365D01*
X116Y363D01*
X120Y363D01*
X120Y361D01*
X122Y361D01*
X122Y359D01*
X124Y359D01*
X124Y357D01*
X126Y357D01*
X126Y355D01*
X128Y355D01*
X128Y353D01*
X130Y353D01*
X130Y349D01*
X132Y349D01*
X132Y347D01*
X154Y347D01*
X154Y349D01*
X156Y349D01*
X156Y353D01*
X158Y353D01*
X158Y355D01*
X160Y355D01*
X160Y357D01*
X162Y357D01*
X162Y359D01*
X164Y359D01*
X164Y361D01*
X166Y361D01*
X166Y363D01*
X170Y363D01*
X170Y365D01*
X172Y365D01*
X172Y387D01*
X170Y387D01*
X170Y389D01*
X166Y389D01*
X166Y391D01*
X164Y391D01*
X164Y393D01*
X162Y393D01*
X162Y395D01*
X160Y395D01*
X160Y397D01*
X158Y397D01*
X158Y399D01*
X156Y399D01*
X156Y403D01*
X154Y403D01*
X154Y405D01*
X132Y405D01*
G37*
D02*
G36*
X40Y245D02*
X40Y157D01*
X42Y157D01*
X42Y147D01*
X44Y147D01*
X44Y135D01*
X46Y135D01*
X46Y127D01*
X48Y127D01*
X48Y121D01*
X68Y121D01*
X68Y185D01*
X70Y185D01*
X70Y193D01*
X72Y193D01*
X72Y197D01*
X74Y197D01*
X74Y201D01*
X76Y201D01*
X76Y205D01*
X78Y205D01*
X78Y209D01*
X80Y209D01*
X80Y211D01*
X82Y211D01*
X82Y213D01*
X84Y213D01*
X84Y215D01*
X86Y215D01*
X86Y217D01*
X88Y217D01*
X88Y219D01*
X90Y219D01*
X90Y221D01*
X92Y221D01*
X92Y223D01*
X96Y223D01*
X96Y225D01*
X98Y225D01*
X98Y245D01*
X40Y245D01*
G37*
D02*
G04 End of Copper1*
M02*