G04 MADE WITH FRITZING*
G04 WWW.FRITZING.ORG*
G04 DOUBLE SIDED*
G04 HOLES PLATED*
G04 CONTOUR ON CENTER OF CONTOUR VECTOR*
%ASAXBY*%
%FSLAX23Y23*%
%MOIN*%
%OFA0B0*%
%SFA1.0B1.0*%
%ADD10C,0.075000*%
%ADD11C,0.039370*%
%ADD12C,0.071889*%
%ADD13C,0.071917*%
%ADD14C,0.059370*%
%ADD15C,0.080000*%
%ADD16R,0.080000X0.080000*%
%ADD17C,0.016000*%
%LNCOPPER0*%
G90*
G70*
G54D10*
X791Y2071D03*
X284Y1589D03*
X331Y2453D03*
G54D11*
X312Y2087D03*
X488Y1815D03*
X488Y1735D03*
X424Y1367D03*
X766Y713D03*
X885Y669D03*
X424Y1495D03*
X184Y1127D03*
X1048Y935D03*
X1579Y1634D03*
X1128Y935D03*
X776Y2263D03*
X2104Y1943D03*
X456Y2215D03*
X1056Y1475D03*
X1337Y1468D03*
G54D12*
X193Y326D03*
X193Y426D03*
X193Y526D03*
X193Y626D03*
G54D13*
X193Y726D03*
G54D12*
X193Y826D03*
X193Y926D03*
X193Y1026D03*
X193Y1126D03*
G54D13*
X193Y1226D03*
G54D12*
X193Y1326D03*
G54D13*
X193Y1426D03*
G54D12*
X193Y1526D03*
X193Y1626D03*
X193Y1726D03*
X193Y1826D03*
G54D13*
X193Y1926D03*
G54D12*
X193Y2026D03*
X193Y2126D03*
X193Y2226D03*
X93Y2226D03*
X93Y2126D03*
X93Y2026D03*
G54D13*
X93Y1926D03*
G54D12*
X93Y1826D03*
X93Y1726D03*
X93Y1626D03*
X93Y1526D03*
G54D13*
X93Y1426D03*
G54D12*
X93Y1326D03*
G54D13*
X93Y1226D03*
G54D12*
X93Y1126D03*
X93Y1026D03*
X93Y926D03*
X93Y826D03*
G54D13*
X93Y726D03*
G54D12*
X93Y626D03*
X93Y526D03*
X93Y426D03*
X93Y326D03*
G54D14*
X1982Y1427D03*
X1982Y1527D03*
X1982Y1627D03*
X1982Y1727D03*
X1982Y1827D03*
X1982Y1927D03*
X1982Y1427D03*
X1982Y1527D03*
X1982Y1627D03*
X1982Y1727D03*
X1982Y1827D03*
X1982Y1927D03*
X1882Y1927D03*
X1882Y1827D03*
X1882Y1727D03*
X1882Y1627D03*
X1882Y1527D03*
X1882Y1427D03*
X578Y2262D03*
X578Y2162D03*
X578Y2062D03*
X578Y1962D03*
X578Y1862D03*
X578Y1762D03*
X578Y1662D03*
X578Y1562D03*
X578Y1462D03*
X578Y1362D03*
X578Y1262D03*
X578Y1162D03*
X578Y1062D03*
X578Y2262D03*
X578Y2162D03*
X578Y2062D03*
X578Y1962D03*
X578Y1862D03*
X578Y1762D03*
X578Y1662D03*
X578Y1562D03*
X578Y1462D03*
X578Y1362D03*
X578Y1262D03*
X578Y1162D03*
X578Y1062D03*
X678Y1062D03*
X678Y1162D03*
X678Y1262D03*
X678Y1362D03*
X678Y1462D03*
X678Y1562D03*
X678Y1662D03*
X678Y1762D03*
X678Y1862D03*
X678Y1962D03*
X678Y2062D03*
X678Y2162D03*
X678Y2262D03*
G54D15*
X1912Y799D03*
X1912Y661D03*
X1912Y523D03*
X1912Y1249D03*
X1912Y1111D03*
X1912Y973D03*
G54D16*
X1912Y799D03*
X1912Y1249D03*
G54D17*
X221Y1925D02*
X1928Y1879D01*
X1928Y1879D02*
X1963Y1911D01*
D02*
X220Y2025D02*
X452Y2016D01*
D02*
X452Y2016D02*
X520Y2199D01*
X520Y2199D02*
X536Y2215D01*
X536Y2215D02*
X712Y2215D01*
X712Y2215D02*
X1857Y1933D01*
D02*
X213Y1045D02*
X520Y1335D01*
D02*
X520Y1335D02*
X520Y1495D01*
X520Y1495D02*
X562Y1543D01*
D02*
X219Y2118D02*
X299Y2091D01*
D02*
X501Y1815D02*
X1857Y1827D01*
D02*
X219Y1818D02*
X475Y1739D01*
D02*
X198Y953D02*
X200Y967D01*
D02*
X200Y967D02*
X504Y1207D01*
X504Y1207D02*
X504Y1111D01*
X504Y1111D02*
X616Y1111D01*
X616Y1111D02*
X632Y1127D01*
X632Y1127D02*
X632Y1623D01*
X632Y1623D02*
X599Y1647D01*
D02*
X217Y1712D02*
X486Y1550D01*
D02*
X486Y1550D02*
X488Y1367D01*
X488Y1367D02*
X437Y1367D01*
D02*
X72Y1108D02*
X40Y1079D01*
X40Y1079D02*
X40Y279D01*
X40Y279D02*
X280Y263D01*
X280Y263D02*
X312Y999D01*
X312Y999D02*
X728Y999D01*
X728Y999D02*
X728Y1399D01*
X728Y1399D02*
X694Y1442D01*
D02*
X772Y725D02*
X984Y1207D01*
X984Y1207D02*
X1886Y1248D01*
D02*
X889Y682D02*
X1016Y1175D01*
X1016Y1175D02*
X1976Y1191D01*
X1976Y1191D02*
X1976Y1319D01*
D02*
X1043Y1478D02*
X703Y1556D01*
D02*
X1976Y1319D02*
X1350Y1465D01*
D02*
X1904Y1716D02*
X1928Y1703D01*
X1928Y1703D02*
X1928Y1591D01*
X1928Y1591D02*
X1944Y1575D01*
X1944Y1575D02*
X2040Y1575D01*
X2040Y1575D02*
X2040Y1399D01*
X2040Y1399D02*
X2008Y1383D01*
X2008Y1383D02*
X2008Y1159D01*
X2008Y1159D02*
X1976Y1159D01*
X1976Y1159D02*
X1976Y1079D01*
X1976Y1079D02*
X1896Y1015D01*
X1896Y1015D02*
X1903Y997D01*
D02*
X437Y1495D02*
X456Y1495D01*
X456Y1495D02*
X192Y1138D01*
D02*
X1048Y949D02*
X1048Y1031D01*
X1048Y1031D02*
X1886Y975D01*
D02*
X1587Y1624D02*
X1693Y1490D01*
D02*
X1693Y1490D02*
X1832Y1479D01*
X1832Y1479D02*
X1928Y1479D01*
X1928Y1479D02*
X1964Y1445D01*
D02*
X1141Y935D02*
X1944Y911D01*
X1944Y911D02*
X1968Y935D01*
X1968Y935D02*
X1984Y1031D01*
X1984Y1031D02*
X2008Y1047D01*
X2008Y1047D02*
X2008Y1127D01*
X2008Y1127D02*
X2040Y1127D01*
X2040Y1127D02*
X2040Y1351D01*
X2040Y1351D02*
X2072Y1367D01*
X2072Y1367D02*
X2072Y1623D01*
X2072Y1623D02*
X2024Y1991D01*
X2024Y1991D02*
X789Y2260D01*
D02*
X220Y2225D02*
X443Y2216D01*
G36*
X786Y2237D02*
X786Y2235D01*
X784Y2235D01*
X784Y2215D01*
X792Y2215D01*
X792Y2213D01*
X800Y2213D01*
X800Y2211D01*
X808Y2211D01*
X808Y2209D01*
X816Y2209D01*
X816Y2207D01*
X824Y2207D01*
X824Y2205D01*
X832Y2205D01*
X832Y2203D01*
X840Y2203D01*
X840Y2201D01*
X848Y2201D01*
X848Y2199D01*
X856Y2199D01*
X856Y2197D01*
X864Y2197D01*
X864Y2195D01*
X872Y2195D01*
X872Y2193D01*
X880Y2193D01*
X880Y2191D01*
X890Y2191D01*
X890Y2189D01*
X898Y2189D01*
X898Y2187D01*
X906Y2187D01*
X906Y2185D01*
X914Y2185D01*
X914Y2183D01*
X922Y2183D01*
X922Y2181D01*
X930Y2181D01*
X930Y2179D01*
X938Y2179D01*
X938Y2177D01*
X946Y2177D01*
X946Y2175D01*
X954Y2175D01*
X954Y2173D01*
X962Y2173D01*
X962Y2171D01*
X970Y2171D01*
X970Y2169D01*
X978Y2169D01*
X978Y2167D01*
X986Y2167D01*
X986Y2165D01*
X994Y2165D01*
X994Y2163D01*
X1002Y2163D01*
X1002Y2161D01*
X1010Y2161D01*
X1010Y2159D01*
X1020Y2159D01*
X1020Y2157D01*
X1028Y2157D01*
X1028Y2155D01*
X1036Y2155D01*
X1036Y2153D01*
X1044Y2153D01*
X1044Y2151D01*
X1052Y2151D01*
X1052Y2149D01*
X1060Y2149D01*
X1060Y2147D01*
X1068Y2147D01*
X1068Y2145D01*
X1076Y2145D01*
X1076Y2143D01*
X1084Y2143D01*
X1084Y2141D01*
X1092Y2141D01*
X1092Y2139D01*
X1100Y2139D01*
X1100Y2137D01*
X1108Y2137D01*
X1108Y2135D01*
X1116Y2135D01*
X1116Y2133D01*
X1124Y2133D01*
X1124Y2131D01*
X1132Y2131D01*
X1132Y2129D01*
X1140Y2129D01*
X1140Y2127D01*
X1150Y2127D01*
X1150Y2125D01*
X1158Y2125D01*
X1158Y2123D01*
X1166Y2123D01*
X1166Y2121D01*
X1174Y2121D01*
X1174Y2119D01*
X1182Y2119D01*
X1182Y2117D01*
X1190Y2117D01*
X1190Y2115D01*
X1198Y2115D01*
X1198Y2113D01*
X1206Y2113D01*
X1206Y2111D01*
X1214Y2111D01*
X1214Y2109D01*
X1222Y2109D01*
X1222Y2107D01*
X1230Y2107D01*
X1230Y2105D01*
X1238Y2105D01*
X1238Y2103D01*
X1246Y2103D01*
X1246Y2101D01*
X1254Y2101D01*
X1254Y2099D01*
X1262Y2099D01*
X1262Y2097D01*
X1270Y2097D01*
X1270Y2095D01*
X1280Y2095D01*
X1280Y2093D01*
X1288Y2093D01*
X1288Y2091D01*
X1296Y2091D01*
X1296Y2089D01*
X1304Y2089D01*
X1304Y2087D01*
X1312Y2087D01*
X1312Y2085D01*
X1320Y2085D01*
X1320Y2083D01*
X1328Y2083D01*
X1328Y2081D01*
X1336Y2081D01*
X1336Y2079D01*
X1344Y2079D01*
X1344Y2077D01*
X1352Y2077D01*
X1352Y2075D01*
X1360Y2075D01*
X1360Y2073D01*
X1368Y2073D01*
X1368Y2071D01*
X1376Y2071D01*
X1376Y2069D01*
X1384Y2069D01*
X1384Y2067D01*
X1392Y2067D01*
X1392Y2065D01*
X1400Y2065D01*
X1400Y2063D01*
X1410Y2063D01*
X1410Y2061D01*
X1418Y2061D01*
X1418Y2059D01*
X1426Y2059D01*
X1426Y2057D01*
X1434Y2057D01*
X1434Y2055D01*
X1442Y2055D01*
X1442Y2053D01*
X1450Y2053D01*
X1450Y2051D01*
X1458Y2051D01*
X1458Y2049D01*
X1466Y2049D01*
X1466Y2047D01*
X1474Y2047D01*
X1474Y2045D01*
X1482Y2045D01*
X1482Y2043D01*
X1490Y2043D01*
X1490Y2041D01*
X1498Y2041D01*
X1498Y2039D01*
X1506Y2039D01*
X1506Y2037D01*
X1514Y2037D01*
X1514Y2035D01*
X1522Y2035D01*
X1522Y2033D01*
X1530Y2033D01*
X1530Y2031D01*
X1540Y2031D01*
X1540Y2029D01*
X1548Y2029D01*
X1548Y2027D01*
X1556Y2027D01*
X1556Y2025D01*
X1564Y2025D01*
X1564Y2023D01*
X1572Y2023D01*
X1572Y2021D01*
X1580Y2021D01*
X1580Y2019D01*
X1588Y2019D01*
X1588Y2017D01*
X1596Y2017D01*
X1596Y2015D01*
X1604Y2015D01*
X1604Y2013D01*
X1612Y2013D01*
X1612Y2011D01*
X1620Y2011D01*
X1620Y2009D01*
X1628Y2009D01*
X1628Y2007D01*
X1636Y2007D01*
X1636Y2005D01*
X1644Y2005D01*
X1644Y2003D01*
X1652Y2003D01*
X1652Y2001D01*
X1660Y2001D01*
X1660Y1999D01*
X1670Y1999D01*
X1670Y1997D01*
X1678Y1997D01*
X1678Y1995D01*
X1686Y1995D01*
X1686Y1993D01*
X1694Y1993D01*
X1694Y1991D01*
X1702Y1991D01*
X1702Y1989D01*
X1710Y1989D01*
X1710Y1987D01*
X1718Y1987D01*
X1718Y1985D01*
X1726Y1985D01*
X1726Y1983D01*
X1734Y1983D01*
X1734Y1981D01*
X1742Y1981D01*
X1742Y1979D01*
X1750Y1979D01*
X1750Y1977D01*
X1758Y1977D01*
X1758Y1975D01*
X1766Y1975D01*
X1766Y1973D01*
X1774Y1973D01*
X1774Y1971D01*
X1782Y1971D01*
X1782Y1969D01*
X1792Y1969D01*
X1792Y1967D01*
X1888Y1967D01*
X1888Y1965D01*
X1894Y1965D01*
X1894Y1963D01*
X1898Y1963D01*
X1898Y1961D01*
X1902Y1961D01*
X1902Y1959D01*
X1904Y1959D01*
X1904Y1957D01*
X1908Y1957D01*
X1908Y1955D01*
X1910Y1955D01*
X1910Y1953D01*
X1912Y1953D01*
X1912Y1949D01*
X1914Y1949D01*
X1914Y1947D01*
X1916Y1947D01*
X1916Y1943D01*
X1918Y1943D01*
X1918Y1939D01*
X1920Y1939D01*
X1920Y1933D01*
X1922Y1933D01*
X1922Y1921D01*
X1920Y1921D01*
X1920Y1913D01*
X1940Y1913D01*
X1940Y1915D01*
X1942Y1915D01*
X1942Y1935D01*
X1944Y1935D01*
X1944Y1941D01*
X1946Y1941D01*
X1946Y1945D01*
X1948Y1945D01*
X1948Y1947D01*
X1950Y1947D01*
X1950Y1951D01*
X1952Y1951D01*
X1952Y1953D01*
X1954Y1953D01*
X1954Y1955D01*
X1956Y1955D01*
X1956Y1957D01*
X1958Y1957D01*
X1958Y1959D01*
X1962Y1959D01*
X1962Y1961D01*
X1964Y1961D01*
X1964Y1963D01*
X1968Y1963D01*
X1968Y1965D01*
X1972Y1965D01*
X1972Y1985D01*
X1962Y1985D01*
X1962Y1987D01*
X1954Y1987D01*
X1954Y1989D01*
X1944Y1989D01*
X1944Y1991D01*
X1934Y1991D01*
X1934Y1993D01*
X1926Y1993D01*
X1926Y1995D01*
X1916Y1995D01*
X1916Y1997D01*
X1908Y1997D01*
X1908Y1999D01*
X1898Y1999D01*
X1898Y2001D01*
X1890Y2001D01*
X1890Y2003D01*
X1880Y2003D01*
X1880Y2005D01*
X1870Y2005D01*
X1870Y2007D01*
X1862Y2007D01*
X1862Y2009D01*
X1852Y2009D01*
X1852Y2011D01*
X1844Y2011D01*
X1844Y2013D01*
X1834Y2013D01*
X1834Y2015D01*
X1824Y2015D01*
X1824Y2017D01*
X1816Y2017D01*
X1816Y2019D01*
X1806Y2019D01*
X1806Y2021D01*
X1798Y2021D01*
X1798Y2023D01*
X1788Y2023D01*
X1788Y2025D01*
X1778Y2025D01*
X1778Y2027D01*
X1770Y2027D01*
X1770Y2029D01*
X1760Y2029D01*
X1760Y2031D01*
X1752Y2031D01*
X1752Y2033D01*
X1742Y2033D01*
X1742Y2035D01*
X1734Y2035D01*
X1734Y2037D01*
X1724Y2037D01*
X1724Y2039D01*
X1714Y2039D01*
X1714Y2041D01*
X1706Y2041D01*
X1706Y2043D01*
X1696Y2043D01*
X1696Y2045D01*
X1688Y2045D01*
X1688Y2047D01*
X1678Y2047D01*
X1678Y2049D01*
X1668Y2049D01*
X1668Y2051D01*
X1660Y2051D01*
X1660Y2053D01*
X1650Y2053D01*
X1650Y2055D01*
X1642Y2055D01*
X1642Y2057D01*
X1632Y2057D01*
X1632Y2059D01*
X1622Y2059D01*
X1622Y2061D01*
X1614Y2061D01*
X1614Y2063D01*
X1604Y2063D01*
X1604Y2065D01*
X1596Y2065D01*
X1596Y2067D01*
X1586Y2067D01*
X1586Y2069D01*
X1578Y2069D01*
X1578Y2071D01*
X1568Y2071D01*
X1568Y2073D01*
X1558Y2073D01*
X1558Y2075D01*
X1550Y2075D01*
X1550Y2077D01*
X1540Y2077D01*
X1540Y2079D01*
X1532Y2079D01*
X1532Y2081D01*
X1522Y2081D01*
X1522Y2083D01*
X1512Y2083D01*
X1512Y2085D01*
X1504Y2085D01*
X1504Y2087D01*
X1494Y2087D01*
X1494Y2089D01*
X1486Y2089D01*
X1486Y2091D01*
X1476Y2091D01*
X1476Y2093D01*
X1466Y2093D01*
X1466Y2095D01*
X1458Y2095D01*
X1458Y2097D01*
X1448Y2097D01*
X1448Y2099D01*
X1440Y2099D01*
X1440Y2101D01*
X1430Y2101D01*
X1430Y2103D01*
X1422Y2103D01*
X1422Y2105D01*
X1412Y2105D01*
X1412Y2107D01*
X1402Y2107D01*
X1402Y2109D01*
X1394Y2109D01*
X1394Y2111D01*
X1384Y2111D01*
X1384Y2113D01*
X1376Y2113D01*
X1376Y2115D01*
X1366Y2115D01*
X1366Y2117D01*
X1356Y2117D01*
X1356Y2119D01*
X1348Y2119D01*
X1348Y2121D01*
X1338Y2121D01*
X1338Y2123D01*
X1330Y2123D01*
X1330Y2125D01*
X1320Y2125D01*
X1320Y2127D01*
X1310Y2127D01*
X1310Y2129D01*
X1302Y2129D01*
X1302Y2131D01*
X1292Y2131D01*
X1292Y2133D01*
X1284Y2133D01*
X1284Y2135D01*
X1274Y2135D01*
X1274Y2137D01*
X1266Y2137D01*
X1266Y2139D01*
X1256Y2139D01*
X1256Y2141D01*
X1246Y2141D01*
X1246Y2143D01*
X1238Y2143D01*
X1238Y2145D01*
X1228Y2145D01*
X1228Y2147D01*
X1220Y2147D01*
X1220Y2149D01*
X1210Y2149D01*
X1210Y2151D01*
X1200Y2151D01*
X1200Y2153D01*
X1192Y2153D01*
X1192Y2155D01*
X1182Y2155D01*
X1182Y2157D01*
X1174Y2157D01*
X1174Y2159D01*
X1164Y2159D01*
X1164Y2161D01*
X1154Y2161D01*
X1154Y2163D01*
X1146Y2163D01*
X1146Y2165D01*
X1136Y2165D01*
X1136Y2167D01*
X1128Y2167D01*
X1128Y2169D01*
X1118Y2169D01*
X1118Y2171D01*
X1110Y2171D01*
X1110Y2173D01*
X1100Y2173D01*
X1100Y2175D01*
X1090Y2175D01*
X1090Y2177D01*
X1082Y2177D01*
X1082Y2179D01*
X1072Y2179D01*
X1072Y2181D01*
X1064Y2181D01*
X1064Y2183D01*
X1054Y2183D01*
X1054Y2185D01*
X1044Y2185D01*
X1044Y2187D01*
X1036Y2187D01*
X1036Y2189D01*
X1026Y2189D01*
X1026Y2191D01*
X1018Y2191D01*
X1018Y2193D01*
X1008Y2193D01*
X1008Y2195D01*
X998Y2195D01*
X998Y2197D01*
X990Y2197D01*
X990Y2199D01*
X980Y2199D01*
X980Y2201D01*
X972Y2201D01*
X972Y2203D01*
X962Y2203D01*
X962Y2205D01*
X954Y2205D01*
X954Y2207D01*
X944Y2207D01*
X944Y2209D01*
X934Y2209D01*
X934Y2211D01*
X926Y2211D01*
X926Y2213D01*
X916Y2213D01*
X916Y2215D01*
X908Y2215D01*
X908Y2217D01*
X898Y2217D01*
X898Y2219D01*
X888Y2219D01*
X888Y2221D01*
X880Y2221D01*
X880Y2223D01*
X870Y2223D01*
X870Y2225D01*
X862Y2225D01*
X862Y2227D01*
X852Y2227D01*
X852Y2229D01*
X842Y2229D01*
X842Y2231D01*
X834Y2231D01*
X834Y2233D01*
X824Y2233D01*
X824Y2235D01*
X816Y2235D01*
X816Y2237D01*
X786Y2237D01*
G37*
D02*
G36*
X1800Y1967D02*
X1800Y1965D01*
X1808Y1965D01*
X1808Y1963D01*
X1816Y1963D01*
X1816Y1961D01*
X1824Y1961D01*
X1824Y1959D01*
X1832Y1959D01*
X1832Y1957D01*
X1858Y1957D01*
X1858Y1959D01*
X1862Y1959D01*
X1862Y1961D01*
X1864Y1961D01*
X1864Y1963D01*
X1868Y1963D01*
X1868Y1965D01*
X1874Y1965D01*
X1874Y1967D01*
X1800Y1967D01*
G37*
D02*
G36*
X132Y2205D02*
X132Y2203D01*
X130Y2203D01*
X130Y2199D01*
X128Y2199D01*
X128Y2197D01*
X126Y2197D01*
X126Y2195D01*
X124Y2195D01*
X124Y2193D01*
X122Y2193D01*
X122Y2191D01*
X120Y2191D01*
X120Y2189D01*
X116Y2189D01*
X116Y2187D01*
X114Y2187D01*
X114Y2165D01*
X116Y2165D01*
X116Y2163D01*
X120Y2163D01*
X120Y2161D01*
X122Y2161D01*
X122Y2159D01*
X124Y2159D01*
X124Y2157D01*
X126Y2157D01*
X126Y2155D01*
X128Y2155D01*
X128Y2153D01*
X130Y2153D01*
X130Y2149D01*
X132Y2149D01*
X132Y2147D01*
X154Y2147D01*
X154Y2149D01*
X156Y2149D01*
X156Y2153D01*
X158Y2153D01*
X158Y2155D01*
X160Y2155D01*
X160Y2157D01*
X162Y2157D01*
X162Y2159D01*
X164Y2159D01*
X164Y2161D01*
X166Y2161D01*
X166Y2163D01*
X170Y2163D01*
X170Y2165D01*
X172Y2165D01*
X172Y2187D01*
X170Y2187D01*
X170Y2189D01*
X166Y2189D01*
X166Y2191D01*
X164Y2191D01*
X164Y2193D01*
X162Y2193D01*
X162Y2195D01*
X160Y2195D01*
X160Y2197D01*
X158Y2197D01*
X158Y2199D01*
X156Y2199D01*
X156Y2203D01*
X154Y2203D01*
X154Y2205D01*
X132Y2205D01*
G37*
D02*
G36*
X132Y2105D02*
X132Y2103D01*
X130Y2103D01*
X130Y2099D01*
X128Y2099D01*
X128Y2097D01*
X126Y2097D01*
X126Y2095D01*
X124Y2095D01*
X124Y2093D01*
X122Y2093D01*
X122Y2091D01*
X120Y2091D01*
X120Y2089D01*
X116Y2089D01*
X116Y2087D01*
X114Y2087D01*
X114Y2065D01*
X116Y2065D01*
X116Y2063D01*
X120Y2063D01*
X120Y2061D01*
X122Y2061D01*
X122Y2059D01*
X124Y2059D01*
X124Y2057D01*
X126Y2057D01*
X126Y2055D01*
X128Y2055D01*
X128Y2053D01*
X130Y2053D01*
X130Y2049D01*
X132Y2049D01*
X132Y2047D01*
X154Y2047D01*
X154Y2049D01*
X156Y2049D01*
X156Y2053D01*
X158Y2053D01*
X158Y2055D01*
X160Y2055D01*
X160Y2057D01*
X162Y2057D01*
X162Y2059D01*
X164Y2059D01*
X164Y2061D01*
X166Y2061D01*
X166Y2063D01*
X170Y2063D01*
X170Y2065D01*
X172Y2065D01*
X172Y2087D01*
X170Y2087D01*
X170Y2089D01*
X166Y2089D01*
X166Y2091D01*
X164Y2091D01*
X164Y2093D01*
X162Y2093D01*
X162Y2095D01*
X160Y2095D01*
X160Y2097D01*
X158Y2097D01*
X158Y2099D01*
X156Y2099D01*
X156Y2103D01*
X154Y2103D01*
X154Y2105D01*
X132Y2105D01*
G37*
D02*
G36*
X220Y2091D02*
X220Y2089D01*
X216Y2089D01*
X216Y2087D01*
X214Y2087D01*
X214Y2065D01*
X216Y2065D01*
X216Y2063D01*
X220Y2063D01*
X220Y2061D01*
X222Y2061D01*
X222Y2059D01*
X224Y2059D01*
X224Y2057D01*
X226Y2057D01*
X226Y2055D01*
X228Y2055D01*
X228Y2053D01*
X230Y2053D01*
X230Y2049D01*
X232Y2049D01*
X232Y2047D01*
X234Y2047D01*
X234Y2043D01*
X244Y2043D01*
X244Y2041D01*
X308Y2041D01*
X308Y2059D01*
X302Y2059D01*
X302Y2061D01*
X298Y2061D01*
X298Y2063D01*
X296Y2063D01*
X296Y2065D01*
X292Y2065D01*
X292Y2067D01*
X290Y2067D01*
X290Y2071D01*
X288Y2071D01*
X288Y2073D01*
X286Y2073D01*
X286Y2077D01*
X282Y2077D01*
X282Y2079D01*
X276Y2079D01*
X276Y2081D01*
X270Y2081D01*
X270Y2083D01*
X264Y2083D01*
X264Y2085D01*
X258Y2085D01*
X258Y2087D01*
X252Y2087D01*
X252Y2089D01*
X244Y2089D01*
X244Y2091D01*
X220Y2091D01*
G37*
D02*
G36*
X132Y2005D02*
X132Y2003D01*
X130Y2003D01*
X130Y1999D01*
X128Y1999D01*
X128Y1997D01*
X126Y1997D01*
X126Y1995D01*
X124Y1995D01*
X124Y1993D01*
X122Y1993D01*
X122Y1991D01*
X120Y1991D01*
X120Y1989D01*
X116Y1989D01*
X116Y1987D01*
X114Y1987D01*
X114Y1965D01*
X116Y1965D01*
X116Y1963D01*
X120Y1963D01*
X120Y1961D01*
X122Y1961D01*
X122Y1959D01*
X124Y1959D01*
X124Y1957D01*
X126Y1957D01*
X126Y1955D01*
X128Y1955D01*
X128Y1953D01*
X130Y1953D01*
X130Y1949D01*
X132Y1949D01*
X132Y1947D01*
X154Y1947D01*
X154Y1949D01*
X156Y1949D01*
X156Y1953D01*
X158Y1953D01*
X158Y1955D01*
X160Y1955D01*
X160Y1957D01*
X162Y1957D01*
X162Y1959D01*
X164Y1959D01*
X164Y1961D01*
X166Y1961D01*
X166Y1963D01*
X170Y1963D01*
X170Y1965D01*
X172Y1965D01*
X172Y1987D01*
X170Y1987D01*
X170Y1989D01*
X166Y1989D01*
X166Y1991D01*
X164Y1991D01*
X164Y1993D01*
X162Y1993D01*
X162Y1995D01*
X160Y1995D01*
X160Y1997D01*
X158Y1997D01*
X158Y1999D01*
X156Y1999D01*
X156Y2003D01*
X154Y2003D01*
X154Y2005D01*
X132Y2005D01*
G37*
D02*
G36*
X614Y2197D02*
X614Y2175D01*
X616Y2175D01*
X616Y2169D01*
X618Y2169D01*
X618Y2153D01*
X616Y2153D01*
X616Y2147D01*
X614Y2147D01*
X614Y2145D01*
X612Y2145D01*
X612Y2141D01*
X610Y2141D01*
X610Y2139D01*
X608Y2139D01*
X608Y2135D01*
X606Y2135D01*
X606Y2133D01*
X604Y2133D01*
X604Y2131D01*
X600Y2131D01*
X600Y2129D01*
X598Y2129D01*
X598Y2127D01*
X594Y2127D01*
X594Y2125D01*
X590Y2125D01*
X590Y2123D01*
X580Y2123D01*
X580Y2121D01*
X676Y2121D01*
X676Y2123D01*
X668Y2123D01*
X668Y2125D01*
X662Y2125D01*
X662Y2127D01*
X660Y2127D01*
X660Y2129D01*
X656Y2129D01*
X656Y2131D01*
X654Y2131D01*
X654Y2133D01*
X652Y2133D01*
X652Y2135D01*
X650Y2135D01*
X650Y2137D01*
X648Y2137D01*
X648Y2139D01*
X646Y2139D01*
X646Y2143D01*
X644Y2143D01*
X644Y2145D01*
X642Y2145D01*
X642Y2151D01*
X640Y2151D01*
X640Y2159D01*
X638Y2159D01*
X638Y2165D01*
X640Y2165D01*
X640Y2173D01*
X642Y2173D01*
X642Y2177D01*
X644Y2177D01*
X644Y2197D01*
X614Y2197D01*
G37*
D02*
G36*
X714Y2191D02*
X714Y2175D01*
X716Y2175D01*
X716Y2169D01*
X718Y2169D01*
X718Y2153D01*
X716Y2153D01*
X716Y2147D01*
X714Y2147D01*
X714Y2145D01*
X712Y2145D01*
X712Y2141D01*
X710Y2141D01*
X710Y2139D01*
X708Y2139D01*
X708Y2135D01*
X706Y2135D01*
X706Y2133D01*
X704Y2133D01*
X704Y2131D01*
X700Y2131D01*
X700Y2129D01*
X698Y2129D01*
X698Y2127D01*
X694Y2127D01*
X694Y2125D01*
X690Y2125D01*
X690Y2123D01*
X680Y2123D01*
X680Y2121D01*
X1014Y2121D01*
X1014Y2123D01*
X1006Y2123D01*
X1006Y2125D01*
X998Y2125D01*
X998Y2127D01*
X990Y2127D01*
X990Y2129D01*
X982Y2129D01*
X982Y2131D01*
X974Y2131D01*
X974Y2133D01*
X966Y2133D01*
X966Y2135D01*
X958Y2135D01*
X958Y2137D01*
X950Y2137D01*
X950Y2139D01*
X942Y2139D01*
X942Y2141D01*
X934Y2141D01*
X934Y2143D01*
X926Y2143D01*
X926Y2145D01*
X918Y2145D01*
X918Y2147D01*
X908Y2147D01*
X908Y2149D01*
X900Y2149D01*
X900Y2151D01*
X892Y2151D01*
X892Y2153D01*
X884Y2153D01*
X884Y2155D01*
X876Y2155D01*
X876Y2157D01*
X868Y2157D01*
X868Y2159D01*
X860Y2159D01*
X860Y2161D01*
X852Y2161D01*
X852Y2163D01*
X844Y2163D01*
X844Y2165D01*
X836Y2165D01*
X836Y2167D01*
X828Y2167D01*
X828Y2169D01*
X820Y2169D01*
X820Y2171D01*
X812Y2171D01*
X812Y2173D01*
X804Y2173D01*
X804Y2175D01*
X796Y2175D01*
X796Y2177D01*
X788Y2177D01*
X788Y2179D01*
X778Y2179D01*
X778Y2181D01*
X770Y2181D01*
X770Y2183D01*
X762Y2183D01*
X762Y2185D01*
X754Y2185D01*
X754Y2187D01*
X746Y2187D01*
X746Y2189D01*
X738Y2189D01*
X738Y2191D01*
X714Y2191D01*
G37*
D02*
G36*
X522Y2151D02*
X522Y2149D01*
X520Y2149D01*
X520Y2145D01*
X518Y2145D01*
X518Y2139D01*
X516Y2139D01*
X516Y2133D01*
X514Y2133D01*
X514Y2129D01*
X512Y2129D01*
X512Y2123D01*
X510Y2123D01*
X510Y2121D01*
X576Y2121D01*
X576Y2123D01*
X568Y2123D01*
X568Y2125D01*
X562Y2125D01*
X562Y2127D01*
X560Y2127D01*
X560Y2129D01*
X556Y2129D01*
X556Y2131D01*
X554Y2131D01*
X554Y2133D01*
X552Y2133D01*
X552Y2135D01*
X550Y2135D01*
X550Y2137D01*
X548Y2137D01*
X548Y2139D01*
X546Y2139D01*
X546Y2143D01*
X544Y2143D01*
X544Y2145D01*
X542Y2145D01*
X542Y2151D01*
X522Y2151D01*
G37*
D02*
G36*
X510Y2121D02*
X510Y2119D01*
X1022Y2119D01*
X1022Y2121D01*
X510Y2121D01*
G37*
D02*
G36*
X510Y2121D02*
X510Y2119D01*
X1022Y2119D01*
X1022Y2121D01*
X510Y2121D01*
G37*
D02*
G36*
X510Y2121D02*
X510Y2119D01*
X1022Y2119D01*
X1022Y2121D01*
X510Y2121D01*
G37*
D02*
G36*
X510Y2119D02*
X510Y2117D01*
X508Y2117D01*
X508Y2113D01*
X506Y2113D01*
X506Y2107D01*
X504Y2107D01*
X504Y2101D01*
X686Y2101D01*
X686Y2099D01*
X692Y2099D01*
X692Y2097D01*
X696Y2097D01*
X696Y2095D01*
X700Y2095D01*
X700Y2093D01*
X702Y2093D01*
X702Y2091D01*
X704Y2091D01*
X704Y2089D01*
X706Y2089D01*
X706Y2087D01*
X708Y2087D01*
X708Y2085D01*
X710Y2085D01*
X710Y2083D01*
X712Y2083D01*
X712Y2079D01*
X714Y2079D01*
X714Y2075D01*
X716Y2075D01*
X716Y2069D01*
X718Y2069D01*
X718Y2053D01*
X716Y2053D01*
X716Y2047D01*
X714Y2047D01*
X714Y2045D01*
X712Y2045D01*
X712Y2041D01*
X710Y2041D01*
X710Y2039D01*
X708Y2039D01*
X708Y2035D01*
X706Y2035D01*
X706Y2033D01*
X704Y2033D01*
X704Y2031D01*
X700Y2031D01*
X700Y2029D01*
X698Y2029D01*
X698Y2027D01*
X694Y2027D01*
X694Y2025D01*
X690Y2025D01*
X690Y2023D01*
X680Y2023D01*
X680Y2021D01*
X1420Y2021D01*
X1420Y2023D01*
X1412Y2023D01*
X1412Y2025D01*
X1404Y2025D01*
X1404Y2027D01*
X1396Y2027D01*
X1396Y2029D01*
X1388Y2029D01*
X1388Y2031D01*
X1380Y2031D01*
X1380Y2033D01*
X1372Y2033D01*
X1372Y2035D01*
X1364Y2035D01*
X1364Y2037D01*
X1356Y2037D01*
X1356Y2039D01*
X1348Y2039D01*
X1348Y2041D01*
X1340Y2041D01*
X1340Y2043D01*
X1332Y2043D01*
X1332Y2045D01*
X1324Y2045D01*
X1324Y2047D01*
X1316Y2047D01*
X1316Y2049D01*
X1308Y2049D01*
X1308Y2051D01*
X1298Y2051D01*
X1298Y2053D01*
X1290Y2053D01*
X1290Y2055D01*
X1282Y2055D01*
X1282Y2057D01*
X1274Y2057D01*
X1274Y2059D01*
X1266Y2059D01*
X1266Y2061D01*
X1258Y2061D01*
X1258Y2063D01*
X1250Y2063D01*
X1250Y2065D01*
X1242Y2065D01*
X1242Y2067D01*
X1234Y2067D01*
X1234Y2069D01*
X1226Y2069D01*
X1226Y2071D01*
X1218Y2071D01*
X1218Y2073D01*
X1210Y2073D01*
X1210Y2075D01*
X1202Y2075D01*
X1202Y2077D01*
X1194Y2077D01*
X1194Y2079D01*
X1186Y2079D01*
X1186Y2081D01*
X1178Y2081D01*
X1178Y2083D01*
X1168Y2083D01*
X1168Y2085D01*
X1160Y2085D01*
X1160Y2087D01*
X1152Y2087D01*
X1152Y2089D01*
X1144Y2089D01*
X1144Y2091D01*
X1136Y2091D01*
X1136Y2093D01*
X1128Y2093D01*
X1128Y2095D01*
X1120Y2095D01*
X1120Y2097D01*
X1112Y2097D01*
X1112Y2099D01*
X1104Y2099D01*
X1104Y2101D01*
X1096Y2101D01*
X1096Y2103D01*
X1088Y2103D01*
X1088Y2105D01*
X1080Y2105D01*
X1080Y2107D01*
X1072Y2107D01*
X1072Y2109D01*
X1064Y2109D01*
X1064Y2111D01*
X1056Y2111D01*
X1056Y2113D01*
X1048Y2113D01*
X1048Y2115D01*
X1038Y2115D01*
X1038Y2117D01*
X1030Y2117D01*
X1030Y2119D01*
X510Y2119D01*
G37*
D02*
G36*
X502Y2101D02*
X502Y2095D01*
X500Y2095D01*
X500Y2091D01*
X498Y2091D01*
X498Y2085D01*
X496Y2085D01*
X496Y2079D01*
X494Y2079D01*
X494Y2075D01*
X492Y2075D01*
X492Y2069D01*
X490Y2069D01*
X490Y2063D01*
X488Y2063D01*
X488Y2059D01*
X486Y2059D01*
X486Y2053D01*
X484Y2053D01*
X484Y2047D01*
X482Y2047D01*
X482Y2043D01*
X480Y2043D01*
X480Y2037D01*
X478Y2037D01*
X478Y2031D01*
X476Y2031D01*
X476Y2025D01*
X474Y2025D01*
X474Y2021D01*
X576Y2021D01*
X576Y2023D01*
X568Y2023D01*
X568Y2025D01*
X562Y2025D01*
X562Y2027D01*
X560Y2027D01*
X560Y2029D01*
X556Y2029D01*
X556Y2031D01*
X554Y2031D01*
X554Y2033D01*
X552Y2033D01*
X552Y2035D01*
X550Y2035D01*
X550Y2037D01*
X548Y2037D01*
X548Y2039D01*
X546Y2039D01*
X546Y2043D01*
X544Y2043D01*
X544Y2045D01*
X542Y2045D01*
X542Y2051D01*
X540Y2051D01*
X540Y2059D01*
X538Y2059D01*
X538Y2065D01*
X540Y2065D01*
X540Y2073D01*
X542Y2073D01*
X542Y2077D01*
X544Y2077D01*
X544Y2081D01*
X546Y2081D01*
X546Y2083D01*
X548Y2083D01*
X548Y2087D01*
X550Y2087D01*
X550Y2089D01*
X552Y2089D01*
X552Y2091D01*
X554Y2091D01*
X554Y2093D01*
X558Y2093D01*
X558Y2095D01*
X560Y2095D01*
X560Y2097D01*
X564Y2097D01*
X564Y2099D01*
X570Y2099D01*
X570Y2101D01*
X502Y2101D01*
G37*
D02*
G36*
X586Y2101D02*
X586Y2099D01*
X592Y2099D01*
X592Y2097D01*
X596Y2097D01*
X596Y2095D01*
X600Y2095D01*
X600Y2093D01*
X602Y2093D01*
X602Y2091D01*
X604Y2091D01*
X604Y2089D01*
X606Y2089D01*
X606Y2087D01*
X608Y2087D01*
X608Y2085D01*
X610Y2085D01*
X610Y2083D01*
X612Y2083D01*
X612Y2079D01*
X614Y2079D01*
X614Y2075D01*
X616Y2075D01*
X616Y2069D01*
X618Y2069D01*
X618Y2053D01*
X616Y2053D01*
X616Y2047D01*
X614Y2047D01*
X614Y2045D01*
X612Y2045D01*
X612Y2041D01*
X610Y2041D01*
X610Y2039D01*
X608Y2039D01*
X608Y2035D01*
X606Y2035D01*
X606Y2033D01*
X604Y2033D01*
X604Y2031D01*
X600Y2031D01*
X600Y2029D01*
X598Y2029D01*
X598Y2027D01*
X594Y2027D01*
X594Y2025D01*
X590Y2025D01*
X590Y2023D01*
X580Y2023D01*
X580Y2021D01*
X676Y2021D01*
X676Y2023D01*
X668Y2023D01*
X668Y2025D01*
X662Y2025D01*
X662Y2027D01*
X660Y2027D01*
X660Y2029D01*
X656Y2029D01*
X656Y2031D01*
X654Y2031D01*
X654Y2033D01*
X652Y2033D01*
X652Y2035D01*
X650Y2035D01*
X650Y2037D01*
X648Y2037D01*
X648Y2039D01*
X646Y2039D01*
X646Y2043D01*
X644Y2043D01*
X644Y2045D01*
X642Y2045D01*
X642Y2051D01*
X640Y2051D01*
X640Y2059D01*
X638Y2059D01*
X638Y2065D01*
X640Y2065D01*
X640Y2073D01*
X642Y2073D01*
X642Y2077D01*
X644Y2077D01*
X644Y2081D01*
X646Y2081D01*
X646Y2083D01*
X648Y2083D01*
X648Y2087D01*
X650Y2087D01*
X650Y2089D01*
X652Y2089D01*
X652Y2091D01*
X654Y2091D01*
X654Y2093D01*
X658Y2093D01*
X658Y2095D01*
X660Y2095D01*
X660Y2097D01*
X664Y2097D01*
X664Y2099D01*
X670Y2099D01*
X670Y2101D01*
X586Y2101D01*
G37*
D02*
G36*
X472Y2021D02*
X472Y2019D01*
X1428Y2019D01*
X1428Y2021D01*
X472Y2021D01*
G37*
D02*
G36*
X472Y2021D02*
X472Y2019D01*
X1428Y2019D01*
X1428Y2021D01*
X472Y2021D01*
G37*
D02*
G36*
X472Y2021D02*
X472Y2019D01*
X1428Y2019D01*
X1428Y2021D01*
X472Y2021D01*
G37*
D02*
G36*
X472Y2019D02*
X472Y2015D01*
X470Y2015D01*
X470Y2009D01*
X468Y2009D01*
X468Y2005D01*
X466Y2005D01*
X466Y2003D01*
X464Y2003D01*
X464Y2001D01*
X686Y2001D01*
X686Y1999D01*
X692Y1999D01*
X692Y1997D01*
X696Y1997D01*
X696Y1995D01*
X700Y1995D01*
X700Y1993D01*
X702Y1993D01*
X702Y1991D01*
X704Y1991D01*
X704Y1989D01*
X706Y1989D01*
X706Y1987D01*
X708Y1987D01*
X708Y1985D01*
X710Y1985D01*
X710Y1983D01*
X712Y1983D01*
X712Y1979D01*
X714Y1979D01*
X714Y1975D01*
X716Y1975D01*
X716Y1969D01*
X718Y1969D01*
X718Y1953D01*
X716Y1953D01*
X716Y1929D01*
X784Y1929D01*
X784Y1927D01*
X858Y1927D01*
X858Y1925D01*
X932Y1925D01*
X932Y1923D01*
X1006Y1923D01*
X1006Y1921D01*
X1080Y1921D01*
X1080Y1919D01*
X1154Y1919D01*
X1154Y1917D01*
X1228Y1917D01*
X1228Y1915D01*
X1302Y1915D01*
X1302Y1913D01*
X1376Y1913D01*
X1376Y1911D01*
X1448Y1911D01*
X1448Y1909D01*
X1522Y1909D01*
X1522Y1907D01*
X1596Y1907D01*
X1596Y1905D01*
X1670Y1905D01*
X1670Y1903D01*
X1744Y1903D01*
X1744Y1901D01*
X1818Y1901D01*
X1818Y1899D01*
X1844Y1899D01*
X1844Y1919D01*
X1836Y1919D01*
X1836Y1921D01*
X1828Y1921D01*
X1828Y1923D01*
X1820Y1923D01*
X1820Y1925D01*
X1810Y1925D01*
X1810Y1927D01*
X1802Y1927D01*
X1802Y1929D01*
X1794Y1929D01*
X1794Y1931D01*
X1786Y1931D01*
X1786Y1933D01*
X1778Y1933D01*
X1778Y1935D01*
X1770Y1935D01*
X1770Y1937D01*
X1762Y1937D01*
X1762Y1939D01*
X1754Y1939D01*
X1754Y1941D01*
X1746Y1941D01*
X1746Y1943D01*
X1738Y1943D01*
X1738Y1945D01*
X1730Y1945D01*
X1730Y1947D01*
X1722Y1947D01*
X1722Y1949D01*
X1714Y1949D01*
X1714Y1951D01*
X1706Y1951D01*
X1706Y1953D01*
X1698Y1953D01*
X1698Y1955D01*
X1690Y1955D01*
X1690Y1957D01*
X1680Y1957D01*
X1680Y1959D01*
X1672Y1959D01*
X1672Y1961D01*
X1664Y1961D01*
X1664Y1963D01*
X1656Y1963D01*
X1656Y1965D01*
X1648Y1965D01*
X1648Y1967D01*
X1640Y1967D01*
X1640Y1969D01*
X1632Y1969D01*
X1632Y1971D01*
X1624Y1971D01*
X1624Y1973D01*
X1616Y1973D01*
X1616Y1975D01*
X1608Y1975D01*
X1608Y1977D01*
X1600Y1977D01*
X1600Y1979D01*
X1592Y1979D01*
X1592Y1981D01*
X1584Y1981D01*
X1584Y1983D01*
X1576Y1983D01*
X1576Y1985D01*
X1568Y1985D01*
X1568Y1987D01*
X1560Y1987D01*
X1560Y1989D01*
X1550Y1989D01*
X1550Y1991D01*
X1542Y1991D01*
X1542Y1993D01*
X1534Y1993D01*
X1534Y1995D01*
X1526Y1995D01*
X1526Y1997D01*
X1518Y1997D01*
X1518Y1999D01*
X1510Y1999D01*
X1510Y2001D01*
X1502Y2001D01*
X1502Y2003D01*
X1494Y2003D01*
X1494Y2005D01*
X1486Y2005D01*
X1486Y2007D01*
X1478Y2007D01*
X1478Y2009D01*
X1470Y2009D01*
X1470Y2011D01*
X1462Y2011D01*
X1462Y2013D01*
X1454Y2013D01*
X1454Y2015D01*
X1446Y2015D01*
X1446Y2017D01*
X1438Y2017D01*
X1438Y2019D01*
X472Y2019D01*
G37*
D02*
G36*
X232Y2005D02*
X232Y2003D01*
X230Y2003D01*
X230Y1999D01*
X400Y1999D01*
X400Y2001D01*
X348Y2001D01*
X348Y2003D01*
X296Y2003D01*
X296Y2005D01*
X232Y2005D01*
G37*
D02*
G36*
X460Y2001D02*
X460Y1999D01*
X570Y1999D01*
X570Y2001D01*
X460Y2001D01*
G37*
D02*
G36*
X586Y2001D02*
X586Y1999D01*
X592Y1999D01*
X592Y1997D01*
X596Y1997D01*
X596Y1995D01*
X600Y1995D01*
X600Y1993D01*
X602Y1993D01*
X602Y1991D01*
X604Y1991D01*
X604Y1989D01*
X606Y1989D01*
X606Y1987D01*
X608Y1987D01*
X608Y1985D01*
X610Y1985D01*
X610Y1983D01*
X612Y1983D01*
X612Y1979D01*
X614Y1979D01*
X614Y1975D01*
X616Y1975D01*
X616Y1969D01*
X618Y1969D01*
X618Y1953D01*
X616Y1953D01*
X616Y1933D01*
X642Y1933D01*
X642Y1951D01*
X640Y1951D01*
X640Y1959D01*
X638Y1959D01*
X638Y1965D01*
X640Y1965D01*
X640Y1973D01*
X642Y1973D01*
X642Y1977D01*
X644Y1977D01*
X644Y1981D01*
X646Y1981D01*
X646Y1983D01*
X648Y1983D01*
X648Y1987D01*
X650Y1987D01*
X650Y1989D01*
X652Y1989D01*
X652Y1991D01*
X654Y1991D01*
X654Y1993D01*
X658Y1993D01*
X658Y1995D01*
X660Y1995D01*
X660Y1997D01*
X664Y1997D01*
X664Y1999D01*
X670Y1999D01*
X670Y2001D01*
X586Y2001D01*
G37*
D02*
G36*
X228Y1999D02*
X228Y1997D01*
X564Y1997D01*
X564Y1999D01*
X228Y1999D01*
G37*
D02*
G36*
X228Y1999D02*
X228Y1997D01*
X564Y1997D01*
X564Y1999D01*
X228Y1999D01*
G37*
D02*
G36*
X226Y1997D02*
X226Y1995D01*
X224Y1995D01*
X224Y1993D01*
X222Y1993D01*
X222Y1991D01*
X220Y1991D01*
X220Y1989D01*
X216Y1989D01*
X216Y1987D01*
X214Y1987D01*
X214Y1965D01*
X216Y1965D01*
X216Y1963D01*
X220Y1963D01*
X220Y1961D01*
X222Y1961D01*
X222Y1959D01*
X224Y1959D01*
X224Y1957D01*
X226Y1957D01*
X226Y1955D01*
X228Y1955D01*
X228Y1953D01*
X230Y1953D01*
X230Y1949D01*
X232Y1949D01*
X232Y1947D01*
X234Y1947D01*
X234Y1943D01*
X268Y1943D01*
X268Y1941D01*
X342Y1941D01*
X342Y1939D01*
X416Y1939D01*
X416Y1937D01*
X490Y1937D01*
X490Y1935D01*
X540Y1935D01*
X540Y1959D01*
X538Y1959D01*
X538Y1965D01*
X540Y1965D01*
X540Y1973D01*
X542Y1973D01*
X542Y1977D01*
X544Y1977D01*
X544Y1981D01*
X546Y1981D01*
X546Y1983D01*
X548Y1983D01*
X548Y1987D01*
X550Y1987D01*
X550Y1989D01*
X552Y1989D01*
X552Y1991D01*
X554Y1991D01*
X554Y1993D01*
X558Y1993D01*
X558Y1995D01*
X560Y1995D01*
X560Y1997D01*
X226Y1997D01*
G37*
D02*
G36*
X132Y1905D02*
X132Y1903D01*
X130Y1903D01*
X130Y1899D01*
X128Y1899D01*
X128Y1897D01*
X126Y1897D01*
X126Y1895D01*
X124Y1895D01*
X124Y1893D01*
X122Y1893D01*
X122Y1891D01*
X120Y1891D01*
X120Y1889D01*
X116Y1889D01*
X116Y1887D01*
X114Y1887D01*
X114Y1865D01*
X116Y1865D01*
X116Y1863D01*
X120Y1863D01*
X120Y1861D01*
X122Y1861D01*
X122Y1859D01*
X124Y1859D01*
X124Y1857D01*
X126Y1857D01*
X126Y1855D01*
X128Y1855D01*
X128Y1853D01*
X130Y1853D01*
X130Y1849D01*
X132Y1849D01*
X132Y1847D01*
X154Y1847D01*
X154Y1849D01*
X156Y1849D01*
X156Y1853D01*
X158Y1853D01*
X158Y1855D01*
X160Y1855D01*
X160Y1857D01*
X162Y1857D01*
X162Y1859D01*
X164Y1859D01*
X164Y1861D01*
X166Y1861D01*
X166Y1863D01*
X170Y1863D01*
X170Y1865D01*
X172Y1865D01*
X172Y1887D01*
X170Y1887D01*
X170Y1889D01*
X166Y1889D01*
X166Y1891D01*
X164Y1891D01*
X164Y1893D01*
X162Y1893D01*
X162Y1895D01*
X160Y1895D01*
X160Y1897D01*
X158Y1897D01*
X158Y1899D01*
X156Y1899D01*
X156Y1903D01*
X154Y1903D01*
X154Y1905D01*
X132Y1905D01*
G37*
D02*
G36*
X614Y1897D02*
X614Y1875D01*
X616Y1875D01*
X616Y1869D01*
X618Y1869D01*
X618Y1835D01*
X640Y1835D01*
X640Y1859D01*
X638Y1859D01*
X638Y1865D01*
X640Y1865D01*
X640Y1873D01*
X642Y1873D01*
X642Y1895D01*
X636Y1895D01*
X636Y1897D01*
X614Y1897D01*
G37*
D02*
G36*
X716Y1893D02*
X716Y1869D01*
X718Y1869D01*
X718Y1835D01*
X832Y1835D01*
X832Y1837D01*
X1062Y1837D01*
X1062Y1839D01*
X1294Y1839D01*
X1294Y1841D01*
X1524Y1841D01*
X1524Y1843D01*
X1754Y1843D01*
X1754Y1845D01*
X1818Y1845D01*
X1818Y1865D01*
X1744Y1865D01*
X1744Y1867D01*
X1670Y1867D01*
X1670Y1869D01*
X1596Y1869D01*
X1596Y1871D01*
X1522Y1871D01*
X1522Y1873D01*
X1448Y1873D01*
X1448Y1875D01*
X1374Y1875D01*
X1374Y1877D01*
X1300Y1877D01*
X1300Y1879D01*
X1226Y1879D01*
X1226Y1881D01*
X1152Y1881D01*
X1152Y1883D01*
X1078Y1883D01*
X1078Y1885D01*
X1004Y1885D01*
X1004Y1887D01*
X932Y1887D01*
X932Y1889D01*
X858Y1889D01*
X858Y1891D01*
X784Y1891D01*
X784Y1893D01*
X716Y1893D01*
G37*
D02*
G36*
X132Y1805D02*
X132Y1803D01*
X130Y1803D01*
X130Y1799D01*
X128Y1799D01*
X128Y1797D01*
X126Y1797D01*
X126Y1795D01*
X124Y1795D01*
X124Y1793D01*
X122Y1793D01*
X122Y1791D01*
X120Y1791D01*
X120Y1789D01*
X116Y1789D01*
X116Y1787D01*
X114Y1787D01*
X114Y1765D01*
X116Y1765D01*
X116Y1763D01*
X120Y1763D01*
X120Y1761D01*
X122Y1761D01*
X122Y1759D01*
X124Y1759D01*
X124Y1757D01*
X126Y1757D01*
X126Y1755D01*
X128Y1755D01*
X128Y1753D01*
X130Y1753D01*
X130Y1749D01*
X132Y1749D01*
X132Y1747D01*
X154Y1747D01*
X154Y1749D01*
X156Y1749D01*
X156Y1753D01*
X158Y1753D01*
X158Y1755D01*
X160Y1755D01*
X160Y1757D01*
X162Y1757D01*
X162Y1759D01*
X164Y1759D01*
X164Y1761D01*
X166Y1761D01*
X166Y1763D01*
X170Y1763D01*
X170Y1765D01*
X172Y1765D01*
X172Y1787D01*
X170Y1787D01*
X170Y1789D01*
X166Y1789D01*
X166Y1791D01*
X164Y1791D01*
X164Y1793D01*
X162Y1793D01*
X162Y1795D01*
X160Y1795D01*
X160Y1797D01*
X158Y1797D01*
X158Y1799D01*
X156Y1799D01*
X156Y1803D01*
X154Y1803D01*
X154Y1805D01*
X132Y1805D01*
G37*
D02*
G36*
X132Y1705D02*
X132Y1703D01*
X130Y1703D01*
X130Y1699D01*
X128Y1699D01*
X128Y1697D01*
X126Y1697D01*
X126Y1695D01*
X124Y1695D01*
X124Y1693D01*
X122Y1693D01*
X122Y1691D01*
X120Y1691D01*
X120Y1689D01*
X116Y1689D01*
X116Y1687D01*
X114Y1687D01*
X114Y1665D01*
X116Y1665D01*
X116Y1663D01*
X120Y1663D01*
X120Y1661D01*
X122Y1661D01*
X122Y1659D01*
X124Y1659D01*
X124Y1657D01*
X126Y1657D01*
X126Y1655D01*
X128Y1655D01*
X128Y1653D01*
X130Y1653D01*
X130Y1649D01*
X132Y1649D01*
X132Y1647D01*
X154Y1647D01*
X154Y1649D01*
X156Y1649D01*
X156Y1653D01*
X158Y1653D01*
X158Y1655D01*
X160Y1655D01*
X160Y1657D01*
X162Y1657D01*
X162Y1659D01*
X164Y1659D01*
X164Y1661D01*
X166Y1661D01*
X166Y1663D01*
X170Y1663D01*
X170Y1665D01*
X172Y1665D01*
X172Y1687D01*
X170Y1687D01*
X170Y1689D01*
X166Y1689D01*
X166Y1691D01*
X164Y1691D01*
X164Y1693D01*
X162Y1693D01*
X162Y1695D01*
X160Y1695D01*
X160Y1697D01*
X158Y1697D01*
X158Y1699D01*
X156Y1699D01*
X156Y1703D01*
X154Y1703D01*
X154Y1705D01*
X132Y1705D01*
G37*
D02*
G36*
X2020Y1721D02*
X2020Y1715D01*
X2018Y1715D01*
X2018Y1711D01*
X2016Y1711D01*
X2016Y1707D01*
X2014Y1707D01*
X2014Y1705D01*
X2012Y1705D01*
X2012Y1703D01*
X2010Y1703D01*
X2010Y1699D01*
X2006Y1699D01*
X2006Y1697D01*
X2004Y1697D01*
X2004Y1695D01*
X2002Y1695D01*
X2002Y1693D01*
X1998Y1693D01*
X1998Y1691D01*
X1994Y1691D01*
X1994Y1689D01*
X1988Y1689D01*
X1988Y1687D01*
X2046Y1687D01*
X2046Y1691D01*
X2044Y1691D01*
X2044Y1705D01*
X2042Y1705D01*
X2042Y1721D01*
X2020Y1721D01*
G37*
D02*
G36*
X1946Y1693D02*
X1946Y1687D01*
X1976Y1687D01*
X1976Y1689D01*
X1970Y1689D01*
X1970Y1691D01*
X1966Y1691D01*
X1966Y1693D01*
X1946Y1693D01*
G37*
D02*
G36*
X1946Y1687D02*
X1946Y1685D01*
X2046Y1685D01*
X2046Y1687D01*
X1946Y1687D01*
G37*
D02*
G36*
X1946Y1687D02*
X1946Y1685D01*
X2046Y1685D01*
X2046Y1687D01*
X1946Y1687D01*
G37*
D02*
G36*
X1946Y1685D02*
X1946Y1667D01*
X1988Y1667D01*
X1988Y1665D01*
X1994Y1665D01*
X1994Y1663D01*
X1998Y1663D01*
X1998Y1661D01*
X2002Y1661D01*
X2002Y1659D01*
X2004Y1659D01*
X2004Y1657D01*
X2008Y1657D01*
X2008Y1655D01*
X2010Y1655D01*
X2010Y1653D01*
X2012Y1653D01*
X2012Y1649D01*
X2014Y1649D01*
X2014Y1647D01*
X2016Y1647D01*
X2016Y1643D01*
X2018Y1643D01*
X2018Y1639D01*
X2020Y1639D01*
X2020Y1633D01*
X2022Y1633D01*
X2022Y1621D01*
X2020Y1621D01*
X2020Y1615D01*
X2018Y1615D01*
X2018Y1593D01*
X2054Y1593D01*
X2054Y1629D01*
X2052Y1629D01*
X2052Y1645D01*
X2050Y1645D01*
X2050Y1659D01*
X2048Y1659D01*
X2048Y1675D01*
X2046Y1675D01*
X2046Y1685D01*
X1946Y1685D01*
G37*
D02*
G36*
X1946Y1667D02*
X1946Y1663D01*
X1968Y1663D01*
X1968Y1665D01*
X1974Y1665D01*
X1974Y1667D01*
X1946Y1667D01*
G37*
D02*
G36*
X214Y1681D02*
X214Y1665D01*
X216Y1665D01*
X216Y1663D01*
X220Y1663D01*
X220Y1661D01*
X222Y1661D01*
X222Y1659D01*
X224Y1659D01*
X224Y1657D01*
X226Y1657D01*
X226Y1655D01*
X228Y1655D01*
X228Y1653D01*
X230Y1653D01*
X230Y1649D01*
X232Y1649D01*
X232Y1647D01*
X234Y1647D01*
X234Y1643D01*
X236Y1643D01*
X236Y1637D01*
X238Y1637D01*
X238Y1615D01*
X236Y1615D01*
X236Y1609D01*
X234Y1609D01*
X234Y1605D01*
X232Y1605D01*
X232Y1603D01*
X230Y1603D01*
X230Y1599D01*
X228Y1599D01*
X228Y1597D01*
X226Y1597D01*
X226Y1595D01*
X224Y1595D01*
X224Y1593D01*
X222Y1593D01*
X222Y1591D01*
X220Y1591D01*
X220Y1589D01*
X216Y1589D01*
X216Y1587D01*
X214Y1587D01*
X214Y1565D01*
X216Y1565D01*
X216Y1563D01*
X220Y1563D01*
X220Y1561D01*
X222Y1561D01*
X222Y1559D01*
X224Y1559D01*
X224Y1557D01*
X226Y1557D01*
X226Y1555D01*
X228Y1555D01*
X228Y1553D01*
X230Y1553D01*
X230Y1549D01*
X232Y1549D01*
X232Y1547D01*
X234Y1547D01*
X234Y1543D01*
X236Y1543D01*
X236Y1537D01*
X238Y1537D01*
X238Y1525D01*
X430Y1525D01*
X430Y1523D01*
X434Y1523D01*
X434Y1521D01*
X438Y1521D01*
X438Y1519D01*
X440Y1519D01*
X440Y1517D01*
X444Y1517D01*
X444Y1515D01*
X446Y1515D01*
X446Y1513D01*
X468Y1513D01*
X468Y1539D01*
X466Y1539D01*
X466Y1541D01*
X462Y1541D01*
X462Y1543D01*
X460Y1543D01*
X460Y1545D01*
X456Y1545D01*
X456Y1547D01*
X452Y1547D01*
X452Y1549D01*
X450Y1549D01*
X450Y1551D01*
X446Y1551D01*
X446Y1553D01*
X442Y1553D01*
X442Y1555D01*
X440Y1555D01*
X440Y1557D01*
X436Y1557D01*
X436Y1559D01*
X432Y1559D01*
X432Y1561D01*
X430Y1561D01*
X430Y1563D01*
X426Y1563D01*
X426Y1565D01*
X424Y1565D01*
X424Y1567D01*
X420Y1567D01*
X420Y1569D01*
X416Y1569D01*
X416Y1571D01*
X414Y1571D01*
X414Y1573D01*
X410Y1573D01*
X410Y1575D01*
X406Y1575D01*
X406Y1577D01*
X404Y1577D01*
X404Y1579D01*
X400Y1579D01*
X400Y1581D01*
X396Y1581D01*
X396Y1583D01*
X394Y1583D01*
X394Y1585D01*
X390Y1585D01*
X390Y1587D01*
X386Y1587D01*
X386Y1589D01*
X384Y1589D01*
X384Y1591D01*
X380Y1591D01*
X380Y1593D01*
X376Y1593D01*
X376Y1595D01*
X374Y1595D01*
X374Y1597D01*
X370Y1597D01*
X370Y1599D01*
X366Y1599D01*
X366Y1601D01*
X364Y1601D01*
X364Y1603D01*
X360Y1603D01*
X360Y1605D01*
X356Y1605D01*
X356Y1607D01*
X354Y1607D01*
X354Y1609D01*
X350Y1609D01*
X350Y1611D01*
X346Y1611D01*
X346Y1613D01*
X344Y1613D01*
X344Y1615D01*
X340Y1615D01*
X340Y1617D01*
X336Y1617D01*
X336Y1619D01*
X334Y1619D01*
X334Y1621D01*
X330Y1621D01*
X330Y1623D01*
X326Y1623D01*
X326Y1625D01*
X324Y1625D01*
X324Y1627D01*
X320Y1627D01*
X320Y1629D01*
X318Y1629D01*
X318Y1631D01*
X314Y1631D01*
X314Y1633D01*
X310Y1633D01*
X310Y1635D01*
X308Y1635D01*
X308Y1637D01*
X304Y1637D01*
X304Y1639D01*
X300Y1639D01*
X300Y1641D01*
X298Y1641D01*
X298Y1643D01*
X294Y1643D01*
X294Y1645D01*
X290Y1645D01*
X290Y1647D01*
X288Y1647D01*
X288Y1649D01*
X284Y1649D01*
X284Y1651D01*
X280Y1651D01*
X280Y1653D01*
X278Y1653D01*
X278Y1655D01*
X274Y1655D01*
X274Y1657D01*
X270Y1657D01*
X270Y1659D01*
X268Y1659D01*
X268Y1661D01*
X264Y1661D01*
X264Y1663D01*
X260Y1663D01*
X260Y1665D01*
X258Y1665D01*
X258Y1667D01*
X254Y1667D01*
X254Y1669D01*
X250Y1669D01*
X250Y1671D01*
X248Y1671D01*
X248Y1673D01*
X244Y1673D01*
X244Y1675D01*
X240Y1675D01*
X240Y1677D01*
X238Y1677D01*
X238Y1679D01*
X234Y1679D01*
X234Y1681D01*
X214Y1681D01*
G37*
D02*
G36*
X238Y1525D02*
X238Y1515D01*
X236Y1515D01*
X236Y1509D01*
X234Y1509D01*
X234Y1505D01*
X232Y1505D01*
X232Y1503D01*
X230Y1503D01*
X230Y1499D01*
X228Y1499D01*
X228Y1497D01*
X226Y1497D01*
X226Y1495D01*
X224Y1495D01*
X224Y1493D01*
X222Y1493D01*
X222Y1491D01*
X220Y1491D01*
X220Y1489D01*
X216Y1489D01*
X216Y1487D01*
X214Y1487D01*
X214Y1465D01*
X216Y1465D01*
X216Y1463D01*
X220Y1463D01*
X220Y1461D01*
X222Y1461D01*
X222Y1459D01*
X224Y1459D01*
X224Y1457D01*
X226Y1457D01*
X226Y1455D01*
X228Y1455D01*
X228Y1453D01*
X230Y1453D01*
X230Y1449D01*
X232Y1449D01*
X232Y1447D01*
X234Y1447D01*
X234Y1443D01*
X236Y1443D01*
X236Y1437D01*
X238Y1437D01*
X238Y1415D01*
X236Y1415D01*
X236Y1409D01*
X234Y1409D01*
X234Y1405D01*
X232Y1405D01*
X232Y1403D01*
X230Y1403D01*
X230Y1399D01*
X228Y1399D01*
X228Y1397D01*
X226Y1397D01*
X226Y1395D01*
X224Y1395D01*
X224Y1393D01*
X222Y1393D01*
X222Y1391D01*
X220Y1391D01*
X220Y1389D01*
X216Y1389D01*
X216Y1387D01*
X214Y1387D01*
X214Y1365D01*
X216Y1365D01*
X216Y1363D01*
X220Y1363D01*
X220Y1361D01*
X222Y1361D01*
X222Y1359D01*
X224Y1359D01*
X224Y1357D01*
X226Y1357D01*
X226Y1355D01*
X228Y1355D01*
X228Y1353D01*
X230Y1353D01*
X230Y1349D01*
X232Y1349D01*
X232Y1347D01*
X234Y1347D01*
X234Y1343D01*
X236Y1343D01*
X236Y1337D01*
X238Y1337D01*
X238Y1315D01*
X236Y1315D01*
X236Y1309D01*
X234Y1309D01*
X234Y1305D01*
X232Y1305D01*
X232Y1303D01*
X230Y1303D01*
X230Y1299D01*
X228Y1299D01*
X228Y1297D01*
X226Y1297D01*
X226Y1295D01*
X224Y1295D01*
X224Y1293D01*
X222Y1293D01*
X222Y1291D01*
X220Y1291D01*
X220Y1289D01*
X216Y1289D01*
X216Y1287D01*
X214Y1287D01*
X214Y1265D01*
X216Y1265D01*
X216Y1263D01*
X220Y1263D01*
X220Y1261D01*
X222Y1261D01*
X222Y1259D01*
X224Y1259D01*
X224Y1257D01*
X226Y1257D01*
X226Y1255D01*
X228Y1255D01*
X228Y1253D01*
X230Y1253D01*
X230Y1249D01*
X232Y1249D01*
X232Y1247D01*
X252Y1247D01*
X252Y1251D01*
X254Y1251D01*
X254Y1253D01*
X256Y1253D01*
X256Y1257D01*
X258Y1257D01*
X258Y1259D01*
X260Y1259D01*
X260Y1261D01*
X262Y1261D01*
X262Y1265D01*
X264Y1265D01*
X264Y1267D01*
X266Y1267D01*
X266Y1269D01*
X268Y1269D01*
X268Y1273D01*
X270Y1273D01*
X270Y1275D01*
X272Y1275D01*
X272Y1277D01*
X274Y1277D01*
X274Y1281D01*
X276Y1281D01*
X276Y1283D01*
X278Y1283D01*
X278Y1285D01*
X280Y1285D01*
X280Y1289D01*
X282Y1289D01*
X282Y1291D01*
X284Y1291D01*
X284Y1293D01*
X286Y1293D01*
X286Y1297D01*
X288Y1297D01*
X288Y1299D01*
X290Y1299D01*
X290Y1303D01*
X292Y1303D01*
X292Y1305D01*
X294Y1305D01*
X294Y1307D01*
X296Y1307D01*
X296Y1311D01*
X298Y1311D01*
X298Y1313D01*
X300Y1313D01*
X300Y1315D01*
X302Y1315D01*
X302Y1319D01*
X304Y1319D01*
X304Y1321D01*
X306Y1321D01*
X306Y1323D01*
X308Y1323D01*
X308Y1327D01*
X310Y1327D01*
X310Y1329D01*
X312Y1329D01*
X312Y1331D01*
X314Y1331D01*
X314Y1335D01*
X316Y1335D01*
X316Y1337D01*
X318Y1337D01*
X318Y1339D01*
X320Y1339D01*
X320Y1343D01*
X322Y1343D01*
X322Y1345D01*
X324Y1345D01*
X324Y1349D01*
X326Y1349D01*
X326Y1351D01*
X328Y1351D01*
X328Y1353D01*
X330Y1353D01*
X330Y1357D01*
X332Y1357D01*
X332Y1359D01*
X334Y1359D01*
X334Y1361D01*
X336Y1361D01*
X336Y1365D01*
X338Y1365D01*
X338Y1367D01*
X340Y1367D01*
X340Y1369D01*
X342Y1369D01*
X342Y1373D01*
X344Y1373D01*
X344Y1375D01*
X346Y1375D01*
X346Y1377D01*
X348Y1377D01*
X348Y1381D01*
X350Y1381D01*
X350Y1383D01*
X352Y1383D01*
X352Y1385D01*
X354Y1385D01*
X354Y1389D01*
X356Y1389D01*
X356Y1391D01*
X358Y1391D01*
X358Y1395D01*
X360Y1395D01*
X360Y1397D01*
X362Y1397D01*
X362Y1399D01*
X364Y1399D01*
X364Y1403D01*
X366Y1403D01*
X366Y1405D01*
X368Y1405D01*
X368Y1407D01*
X370Y1407D01*
X370Y1411D01*
X372Y1411D01*
X372Y1413D01*
X374Y1413D01*
X374Y1415D01*
X376Y1415D01*
X376Y1419D01*
X378Y1419D01*
X378Y1421D01*
X380Y1421D01*
X380Y1423D01*
X382Y1423D01*
X382Y1427D01*
X384Y1427D01*
X384Y1429D01*
X386Y1429D01*
X386Y1431D01*
X388Y1431D01*
X388Y1435D01*
X390Y1435D01*
X390Y1437D01*
X392Y1437D01*
X392Y1441D01*
X394Y1441D01*
X394Y1443D01*
X396Y1443D01*
X396Y1445D01*
X398Y1445D01*
X398Y1449D01*
X400Y1449D01*
X400Y1451D01*
X402Y1451D01*
X402Y1453D01*
X404Y1453D01*
X404Y1475D01*
X402Y1475D01*
X402Y1479D01*
X400Y1479D01*
X400Y1481D01*
X398Y1481D01*
X398Y1485D01*
X396Y1485D01*
X396Y1489D01*
X394Y1489D01*
X394Y1501D01*
X396Y1501D01*
X396Y1505D01*
X398Y1505D01*
X398Y1509D01*
X400Y1509D01*
X400Y1511D01*
X402Y1511D01*
X402Y1515D01*
X404Y1515D01*
X404Y1517D01*
X408Y1517D01*
X408Y1519D01*
X410Y1519D01*
X410Y1521D01*
X414Y1521D01*
X414Y1523D01*
X418Y1523D01*
X418Y1525D01*
X238Y1525D01*
G37*
D02*
G36*
X132Y1605D02*
X132Y1603D01*
X130Y1603D01*
X130Y1599D01*
X128Y1599D01*
X128Y1597D01*
X126Y1597D01*
X126Y1595D01*
X124Y1595D01*
X124Y1593D01*
X122Y1593D01*
X122Y1591D01*
X120Y1591D01*
X120Y1589D01*
X116Y1589D01*
X116Y1587D01*
X114Y1587D01*
X114Y1565D01*
X116Y1565D01*
X116Y1563D01*
X120Y1563D01*
X120Y1561D01*
X122Y1561D01*
X122Y1559D01*
X124Y1559D01*
X124Y1557D01*
X126Y1557D01*
X126Y1555D01*
X128Y1555D01*
X128Y1553D01*
X130Y1553D01*
X130Y1549D01*
X132Y1549D01*
X132Y1547D01*
X154Y1547D01*
X154Y1549D01*
X156Y1549D01*
X156Y1553D01*
X158Y1553D01*
X158Y1555D01*
X160Y1555D01*
X160Y1557D01*
X162Y1557D01*
X162Y1559D01*
X164Y1559D01*
X164Y1561D01*
X166Y1561D01*
X166Y1563D01*
X170Y1563D01*
X170Y1565D01*
X172Y1565D01*
X172Y1587D01*
X170Y1587D01*
X170Y1589D01*
X166Y1589D01*
X166Y1591D01*
X164Y1591D01*
X164Y1593D01*
X162Y1593D01*
X162Y1595D01*
X160Y1595D01*
X160Y1597D01*
X158Y1597D01*
X158Y1599D01*
X156Y1599D01*
X156Y1603D01*
X154Y1603D01*
X154Y1605D01*
X132Y1605D01*
G37*
D02*
G36*
X594Y1527D02*
X594Y1525D01*
X590Y1525D01*
X590Y1523D01*
X580Y1523D01*
X580Y1521D01*
X566Y1521D01*
X566Y1519D01*
X564Y1519D01*
X564Y1517D01*
X562Y1517D01*
X562Y1501D01*
X586Y1501D01*
X586Y1499D01*
X592Y1499D01*
X592Y1497D01*
X614Y1497D01*
X614Y1527D01*
X594Y1527D01*
G37*
D02*
G36*
X132Y1505D02*
X132Y1503D01*
X130Y1503D01*
X130Y1499D01*
X128Y1499D01*
X128Y1497D01*
X126Y1497D01*
X126Y1495D01*
X124Y1495D01*
X124Y1493D01*
X122Y1493D01*
X122Y1491D01*
X120Y1491D01*
X120Y1489D01*
X116Y1489D01*
X116Y1487D01*
X114Y1487D01*
X114Y1465D01*
X116Y1465D01*
X116Y1463D01*
X120Y1463D01*
X120Y1461D01*
X122Y1461D01*
X122Y1459D01*
X124Y1459D01*
X124Y1457D01*
X126Y1457D01*
X126Y1455D01*
X128Y1455D01*
X128Y1453D01*
X130Y1453D01*
X130Y1449D01*
X132Y1449D01*
X132Y1447D01*
X154Y1447D01*
X154Y1449D01*
X156Y1449D01*
X156Y1453D01*
X158Y1453D01*
X158Y1455D01*
X160Y1455D01*
X160Y1457D01*
X162Y1457D01*
X162Y1459D01*
X164Y1459D01*
X164Y1461D01*
X166Y1461D01*
X166Y1463D01*
X170Y1463D01*
X170Y1465D01*
X172Y1465D01*
X172Y1487D01*
X170Y1487D01*
X170Y1489D01*
X166Y1489D01*
X166Y1491D01*
X164Y1491D01*
X164Y1493D01*
X162Y1493D01*
X162Y1495D01*
X160Y1495D01*
X160Y1497D01*
X158Y1497D01*
X158Y1499D01*
X156Y1499D01*
X156Y1503D01*
X154Y1503D01*
X154Y1505D01*
X132Y1505D01*
G37*
D02*
G36*
X448Y1455D02*
X448Y1453D01*
X446Y1453D01*
X446Y1449D01*
X444Y1449D01*
X444Y1447D01*
X442Y1447D01*
X442Y1445D01*
X440Y1445D01*
X440Y1441D01*
X438Y1441D01*
X438Y1439D01*
X436Y1439D01*
X436Y1437D01*
X434Y1437D01*
X434Y1433D01*
X432Y1433D01*
X432Y1431D01*
X430Y1431D01*
X430Y1429D01*
X428Y1429D01*
X428Y1425D01*
X426Y1425D01*
X426Y1423D01*
X424Y1423D01*
X424Y1421D01*
X422Y1421D01*
X422Y1417D01*
X420Y1417D01*
X420Y1397D01*
X430Y1397D01*
X430Y1395D01*
X434Y1395D01*
X434Y1393D01*
X438Y1393D01*
X438Y1391D01*
X440Y1391D01*
X440Y1389D01*
X444Y1389D01*
X444Y1387D01*
X446Y1387D01*
X446Y1385D01*
X470Y1385D01*
X470Y1439D01*
X468Y1439D01*
X468Y1455D01*
X448Y1455D01*
G37*
D02*
G36*
X538Y1429D02*
X538Y1427D01*
X560Y1427D01*
X560Y1429D01*
X538Y1429D01*
G37*
D02*
G36*
X538Y1427D02*
X538Y1421D01*
X576Y1421D01*
X576Y1423D01*
X568Y1423D01*
X568Y1425D01*
X562Y1425D01*
X562Y1427D01*
X538Y1427D01*
G37*
D02*
G36*
X594Y1427D02*
X594Y1425D01*
X590Y1425D01*
X590Y1423D01*
X580Y1423D01*
X580Y1421D01*
X614Y1421D01*
X614Y1427D01*
X594Y1427D01*
G37*
D02*
G36*
X538Y1421D02*
X538Y1419D01*
X614Y1419D01*
X614Y1421D01*
X538Y1421D01*
G37*
D02*
G36*
X538Y1421D02*
X538Y1419D01*
X614Y1419D01*
X614Y1421D01*
X538Y1421D01*
G37*
D02*
G36*
X538Y1419D02*
X538Y1401D01*
X586Y1401D01*
X586Y1399D01*
X592Y1399D01*
X592Y1397D01*
X614Y1397D01*
X614Y1419D01*
X538Y1419D01*
G37*
D02*
G36*
X538Y1401D02*
X538Y1393D01*
X558Y1393D01*
X558Y1395D01*
X560Y1395D01*
X560Y1397D01*
X564Y1397D01*
X564Y1399D01*
X570Y1399D01*
X570Y1401D01*
X538Y1401D01*
G37*
D02*
G36*
X132Y1405D02*
X132Y1403D01*
X130Y1403D01*
X130Y1399D01*
X128Y1399D01*
X128Y1397D01*
X126Y1397D01*
X126Y1395D01*
X124Y1395D01*
X124Y1393D01*
X122Y1393D01*
X122Y1391D01*
X120Y1391D01*
X120Y1389D01*
X116Y1389D01*
X116Y1387D01*
X114Y1387D01*
X114Y1365D01*
X116Y1365D01*
X116Y1363D01*
X120Y1363D01*
X120Y1361D01*
X122Y1361D01*
X122Y1359D01*
X124Y1359D01*
X124Y1357D01*
X126Y1357D01*
X126Y1355D01*
X128Y1355D01*
X128Y1353D01*
X130Y1353D01*
X130Y1349D01*
X132Y1349D01*
X132Y1347D01*
X154Y1347D01*
X154Y1349D01*
X156Y1349D01*
X156Y1353D01*
X158Y1353D01*
X158Y1355D01*
X160Y1355D01*
X160Y1357D01*
X162Y1357D01*
X162Y1359D01*
X164Y1359D01*
X164Y1361D01*
X166Y1361D01*
X166Y1363D01*
X170Y1363D01*
X170Y1365D01*
X172Y1365D01*
X172Y1387D01*
X170Y1387D01*
X170Y1389D01*
X166Y1389D01*
X166Y1391D01*
X164Y1391D01*
X164Y1393D01*
X162Y1393D01*
X162Y1395D01*
X160Y1395D01*
X160Y1397D01*
X158Y1397D01*
X158Y1399D01*
X156Y1399D01*
X156Y1403D01*
X154Y1403D01*
X154Y1405D01*
X132Y1405D01*
G37*
D02*
G36*
X376Y1357D02*
X376Y1355D01*
X374Y1355D01*
X374Y1353D01*
X372Y1353D01*
X372Y1349D01*
X370Y1349D01*
X370Y1347D01*
X368Y1347D01*
X368Y1345D01*
X366Y1345D01*
X366Y1341D01*
X364Y1341D01*
X364Y1339D01*
X362Y1339D01*
X362Y1337D01*
X420Y1337D01*
X420Y1339D01*
X414Y1339D01*
X414Y1341D01*
X410Y1341D01*
X410Y1343D01*
X408Y1343D01*
X408Y1345D01*
X404Y1345D01*
X404Y1347D01*
X402Y1347D01*
X402Y1351D01*
X400Y1351D01*
X400Y1353D01*
X398Y1353D01*
X398Y1357D01*
X376Y1357D01*
G37*
D02*
G36*
X446Y1349D02*
X446Y1347D01*
X444Y1347D01*
X444Y1345D01*
X440Y1345D01*
X440Y1343D01*
X438Y1343D01*
X438Y1341D01*
X434Y1341D01*
X434Y1339D01*
X428Y1339D01*
X428Y1337D01*
X488Y1337D01*
X488Y1349D01*
X446Y1349D01*
G37*
D02*
G36*
X360Y1337D02*
X360Y1335D01*
X488Y1335D01*
X488Y1337D01*
X360Y1337D01*
G37*
D02*
G36*
X360Y1337D02*
X360Y1335D01*
X488Y1335D01*
X488Y1337D01*
X360Y1337D01*
G37*
D02*
G36*
X360Y1335D02*
X360Y1333D01*
X358Y1333D01*
X358Y1331D01*
X356Y1331D01*
X356Y1329D01*
X354Y1329D01*
X354Y1325D01*
X352Y1325D01*
X352Y1323D01*
X350Y1323D01*
X350Y1319D01*
X348Y1319D01*
X348Y1317D01*
X346Y1317D01*
X346Y1315D01*
X344Y1315D01*
X344Y1311D01*
X342Y1311D01*
X342Y1309D01*
X340Y1309D01*
X340Y1307D01*
X338Y1307D01*
X338Y1303D01*
X336Y1303D01*
X336Y1301D01*
X334Y1301D01*
X334Y1299D01*
X332Y1299D01*
X332Y1295D01*
X330Y1295D01*
X330Y1293D01*
X328Y1293D01*
X328Y1291D01*
X326Y1291D01*
X326Y1287D01*
X324Y1287D01*
X324Y1285D01*
X322Y1285D01*
X322Y1283D01*
X320Y1283D01*
X320Y1279D01*
X318Y1279D01*
X318Y1277D01*
X316Y1277D01*
X316Y1273D01*
X314Y1273D01*
X314Y1271D01*
X312Y1271D01*
X312Y1269D01*
X310Y1269D01*
X310Y1265D01*
X308Y1265D01*
X308Y1263D01*
X306Y1263D01*
X306Y1261D01*
X304Y1261D01*
X304Y1257D01*
X302Y1257D01*
X302Y1255D01*
X300Y1255D01*
X300Y1253D01*
X298Y1253D01*
X298Y1249D01*
X296Y1249D01*
X296Y1247D01*
X294Y1247D01*
X294Y1245D01*
X292Y1245D01*
X292Y1241D01*
X290Y1241D01*
X290Y1239D01*
X288Y1239D01*
X288Y1237D01*
X286Y1237D01*
X286Y1233D01*
X284Y1233D01*
X284Y1231D01*
X282Y1231D01*
X282Y1227D01*
X280Y1227D01*
X280Y1225D01*
X278Y1225D01*
X278Y1223D01*
X276Y1223D01*
X276Y1219D01*
X274Y1219D01*
X274Y1217D01*
X272Y1217D01*
X272Y1215D01*
X270Y1215D01*
X270Y1211D01*
X268Y1211D01*
X268Y1209D01*
X266Y1209D01*
X266Y1207D01*
X264Y1207D01*
X264Y1203D01*
X262Y1203D01*
X262Y1201D01*
X260Y1201D01*
X260Y1199D01*
X258Y1199D01*
X258Y1195D01*
X256Y1195D01*
X256Y1193D01*
X254Y1193D01*
X254Y1191D01*
X252Y1191D01*
X252Y1187D01*
X250Y1187D01*
X250Y1185D01*
X248Y1185D01*
X248Y1181D01*
X246Y1181D01*
X246Y1179D01*
X244Y1179D01*
X244Y1177D01*
X242Y1177D01*
X242Y1173D01*
X240Y1173D01*
X240Y1171D01*
X238Y1171D01*
X238Y1169D01*
X236Y1169D01*
X236Y1165D01*
X234Y1165D01*
X234Y1143D01*
X236Y1143D01*
X236Y1137D01*
X238Y1137D01*
X238Y1115D01*
X236Y1115D01*
X236Y1109D01*
X256Y1109D01*
X256Y1111D01*
X258Y1111D01*
X258Y1113D01*
X260Y1113D01*
X260Y1115D01*
X262Y1115D01*
X262Y1117D01*
X264Y1117D01*
X264Y1119D01*
X266Y1119D01*
X266Y1121D01*
X268Y1121D01*
X268Y1123D01*
X270Y1123D01*
X270Y1125D01*
X272Y1125D01*
X272Y1127D01*
X274Y1127D01*
X274Y1129D01*
X276Y1129D01*
X276Y1131D01*
X278Y1131D01*
X278Y1133D01*
X280Y1133D01*
X280Y1135D01*
X284Y1135D01*
X284Y1137D01*
X286Y1137D01*
X286Y1139D01*
X288Y1139D01*
X288Y1141D01*
X290Y1141D01*
X290Y1143D01*
X292Y1143D01*
X292Y1145D01*
X294Y1145D01*
X294Y1147D01*
X296Y1147D01*
X296Y1149D01*
X298Y1149D01*
X298Y1151D01*
X300Y1151D01*
X300Y1153D01*
X302Y1153D01*
X302Y1155D01*
X304Y1155D01*
X304Y1157D01*
X306Y1157D01*
X306Y1159D01*
X308Y1159D01*
X308Y1161D01*
X310Y1161D01*
X310Y1163D01*
X312Y1163D01*
X312Y1165D01*
X314Y1165D01*
X314Y1167D01*
X316Y1167D01*
X316Y1169D01*
X320Y1169D01*
X320Y1171D01*
X322Y1171D01*
X322Y1173D01*
X324Y1173D01*
X324Y1175D01*
X326Y1175D01*
X326Y1177D01*
X328Y1177D01*
X328Y1179D01*
X330Y1179D01*
X330Y1181D01*
X332Y1181D01*
X332Y1183D01*
X334Y1183D01*
X334Y1185D01*
X336Y1185D01*
X336Y1187D01*
X338Y1187D01*
X338Y1189D01*
X340Y1189D01*
X340Y1191D01*
X342Y1191D01*
X342Y1193D01*
X344Y1193D01*
X344Y1195D01*
X346Y1195D01*
X346Y1197D01*
X348Y1197D01*
X348Y1199D01*
X350Y1199D01*
X350Y1201D01*
X352Y1201D01*
X352Y1203D01*
X356Y1203D01*
X356Y1205D01*
X358Y1205D01*
X358Y1207D01*
X360Y1207D01*
X360Y1209D01*
X362Y1209D01*
X362Y1211D01*
X364Y1211D01*
X364Y1213D01*
X366Y1213D01*
X366Y1215D01*
X368Y1215D01*
X368Y1217D01*
X370Y1217D01*
X370Y1219D01*
X372Y1219D01*
X372Y1221D01*
X374Y1221D01*
X374Y1223D01*
X376Y1223D01*
X376Y1225D01*
X378Y1225D01*
X378Y1227D01*
X380Y1227D01*
X380Y1229D01*
X382Y1229D01*
X382Y1231D01*
X384Y1231D01*
X384Y1233D01*
X386Y1233D01*
X386Y1235D01*
X388Y1235D01*
X388Y1237D01*
X392Y1237D01*
X392Y1239D01*
X394Y1239D01*
X394Y1241D01*
X396Y1241D01*
X396Y1243D01*
X398Y1243D01*
X398Y1245D01*
X400Y1245D01*
X400Y1247D01*
X402Y1247D01*
X402Y1249D01*
X404Y1249D01*
X404Y1251D01*
X406Y1251D01*
X406Y1253D01*
X408Y1253D01*
X408Y1255D01*
X410Y1255D01*
X410Y1257D01*
X412Y1257D01*
X412Y1259D01*
X414Y1259D01*
X414Y1261D01*
X416Y1261D01*
X416Y1263D01*
X418Y1263D01*
X418Y1265D01*
X420Y1265D01*
X420Y1267D01*
X422Y1267D01*
X422Y1269D01*
X424Y1269D01*
X424Y1271D01*
X428Y1271D01*
X428Y1273D01*
X430Y1273D01*
X430Y1275D01*
X432Y1275D01*
X432Y1277D01*
X434Y1277D01*
X434Y1279D01*
X436Y1279D01*
X436Y1281D01*
X438Y1281D01*
X438Y1283D01*
X440Y1283D01*
X440Y1285D01*
X442Y1285D01*
X442Y1287D01*
X444Y1287D01*
X444Y1289D01*
X446Y1289D01*
X446Y1291D01*
X448Y1291D01*
X448Y1293D01*
X450Y1293D01*
X450Y1295D01*
X452Y1295D01*
X452Y1297D01*
X454Y1297D01*
X454Y1299D01*
X456Y1299D01*
X456Y1301D01*
X458Y1301D01*
X458Y1303D01*
X460Y1303D01*
X460Y1305D01*
X464Y1305D01*
X464Y1307D01*
X466Y1307D01*
X466Y1309D01*
X468Y1309D01*
X468Y1311D01*
X470Y1311D01*
X470Y1313D01*
X472Y1313D01*
X472Y1315D01*
X474Y1315D01*
X474Y1317D01*
X476Y1317D01*
X476Y1319D01*
X478Y1319D01*
X478Y1321D01*
X480Y1321D01*
X480Y1323D01*
X482Y1323D01*
X482Y1325D01*
X484Y1325D01*
X484Y1327D01*
X486Y1327D01*
X486Y1329D01*
X488Y1329D01*
X488Y1335D01*
X360Y1335D01*
G37*
D02*
G36*
X536Y1329D02*
X536Y1327D01*
X560Y1327D01*
X560Y1329D01*
X536Y1329D01*
G37*
D02*
G36*
X536Y1327D02*
X536Y1325D01*
X534Y1325D01*
X534Y1323D01*
X532Y1323D01*
X532Y1321D01*
X576Y1321D01*
X576Y1323D01*
X568Y1323D01*
X568Y1325D01*
X562Y1325D01*
X562Y1327D01*
X536Y1327D01*
G37*
D02*
G36*
X594Y1327D02*
X594Y1325D01*
X590Y1325D01*
X590Y1323D01*
X580Y1323D01*
X580Y1321D01*
X614Y1321D01*
X614Y1327D01*
X594Y1327D01*
G37*
D02*
G36*
X530Y1321D02*
X530Y1319D01*
X614Y1319D01*
X614Y1321D01*
X530Y1321D01*
G37*
D02*
G36*
X530Y1321D02*
X530Y1319D01*
X614Y1319D01*
X614Y1321D01*
X530Y1321D01*
G37*
D02*
G36*
X528Y1319D02*
X528Y1317D01*
X526Y1317D01*
X526Y1315D01*
X524Y1315D01*
X524Y1313D01*
X522Y1313D01*
X522Y1311D01*
X520Y1311D01*
X520Y1309D01*
X518Y1309D01*
X518Y1307D01*
X516Y1307D01*
X516Y1305D01*
X514Y1305D01*
X514Y1303D01*
X512Y1303D01*
X512Y1301D01*
X586Y1301D01*
X586Y1299D01*
X592Y1299D01*
X592Y1297D01*
X614Y1297D01*
X614Y1319D01*
X528Y1319D01*
G37*
D02*
G36*
X510Y1301D02*
X510Y1299D01*
X508Y1299D01*
X508Y1297D01*
X504Y1297D01*
X504Y1295D01*
X502Y1295D01*
X502Y1293D01*
X500Y1293D01*
X500Y1291D01*
X498Y1291D01*
X498Y1289D01*
X496Y1289D01*
X496Y1287D01*
X494Y1287D01*
X494Y1285D01*
X492Y1285D01*
X492Y1283D01*
X490Y1283D01*
X490Y1281D01*
X488Y1281D01*
X488Y1279D01*
X486Y1279D01*
X486Y1277D01*
X484Y1277D01*
X484Y1275D01*
X482Y1275D01*
X482Y1273D01*
X480Y1273D01*
X480Y1271D01*
X478Y1271D01*
X478Y1269D01*
X476Y1269D01*
X476Y1267D01*
X474Y1267D01*
X474Y1265D01*
X472Y1265D01*
X472Y1263D01*
X468Y1263D01*
X468Y1261D01*
X466Y1261D01*
X466Y1259D01*
X464Y1259D01*
X464Y1257D01*
X462Y1257D01*
X462Y1255D01*
X460Y1255D01*
X460Y1253D01*
X458Y1253D01*
X458Y1251D01*
X456Y1251D01*
X456Y1249D01*
X454Y1249D01*
X454Y1247D01*
X452Y1247D01*
X452Y1245D01*
X450Y1245D01*
X450Y1243D01*
X448Y1243D01*
X448Y1241D01*
X446Y1241D01*
X446Y1239D01*
X444Y1239D01*
X444Y1237D01*
X442Y1237D01*
X442Y1235D01*
X440Y1235D01*
X440Y1233D01*
X438Y1233D01*
X438Y1231D01*
X436Y1231D01*
X436Y1229D01*
X432Y1229D01*
X432Y1227D01*
X430Y1227D01*
X430Y1225D01*
X510Y1225D01*
X510Y1223D01*
X514Y1223D01*
X514Y1221D01*
X576Y1221D01*
X576Y1223D01*
X568Y1223D01*
X568Y1225D01*
X562Y1225D01*
X562Y1227D01*
X560Y1227D01*
X560Y1229D01*
X556Y1229D01*
X556Y1231D01*
X554Y1231D01*
X554Y1233D01*
X552Y1233D01*
X552Y1235D01*
X550Y1235D01*
X550Y1237D01*
X548Y1237D01*
X548Y1239D01*
X546Y1239D01*
X546Y1243D01*
X544Y1243D01*
X544Y1245D01*
X542Y1245D01*
X542Y1251D01*
X540Y1251D01*
X540Y1259D01*
X538Y1259D01*
X538Y1265D01*
X540Y1265D01*
X540Y1273D01*
X542Y1273D01*
X542Y1277D01*
X544Y1277D01*
X544Y1281D01*
X546Y1281D01*
X546Y1283D01*
X548Y1283D01*
X548Y1287D01*
X550Y1287D01*
X550Y1289D01*
X552Y1289D01*
X552Y1291D01*
X554Y1291D01*
X554Y1293D01*
X558Y1293D01*
X558Y1295D01*
X560Y1295D01*
X560Y1297D01*
X564Y1297D01*
X564Y1299D01*
X570Y1299D01*
X570Y1301D01*
X510Y1301D01*
G37*
D02*
G36*
X594Y1227D02*
X594Y1225D01*
X590Y1225D01*
X590Y1223D01*
X580Y1223D01*
X580Y1221D01*
X614Y1221D01*
X614Y1227D01*
X594Y1227D01*
G37*
D02*
G36*
X428Y1225D02*
X428Y1223D01*
X426Y1223D01*
X426Y1221D01*
X424Y1221D01*
X424Y1219D01*
X422Y1219D01*
X422Y1217D01*
X420Y1217D01*
X420Y1215D01*
X418Y1215D01*
X418Y1213D01*
X416Y1213D01*
X416Y1211D01*
X414Y1211D01*
X414Y1209D01*
X412Y1209D01*
X412Y1207D01*
X410Y1207D01*
X410Y1205D01*
X408Y1205D01*
X408Y1203D01*
X406Y1203D01*
X406Y1201D01*
X404Y1201D01*
X404Y1199D01*
X402Y1199D01*
X402Y1197D01*
X400Y1197D01*
X400Y1195D01*
X396Y1195D01*
X396Y1193D01*
X394Y1193D01*
X394Y1191D01*
X392Y1191D01*
X392Y1189D01*
X390Y1189D01*
X390Y1187D01*
X388Y1187D01*
X388Y1185D01*
X386Y1185D01*
X386Y1183D01*
X384Y1183D01*
X384Y1181D01*
X382Y1181D01*
X382Y1179D01*
X380Y1179D01*
X380Y1177D01*
X378Y1177D01*
X378Y1175D01*
X376Y1175D01*
X376Y1173D01*
X374Y1173D01*
X374Y1171D01*
X372Y1171D01*
X372Y1169D01*
X370Y1169D01*
X370Y1167D01*
X368Y1167D01*
X368Y1165D01*
X366Y1165D01*
X366Y1163D01*
X364Y1163D01*
X364Y1161D01*
X360Y1161D01*
X360Y1159D01*
X358Y1159D01*
X358Y1157D01*
X356Y1157D01*
X356Y1155D01*
X354Y1155D01*
X354Y1153D01*
X352Y1153D01*
X352Y1151D01*
X350Y1151D01*
X350Y1149D01*
X348Y1149D01*
X348Y1147D01*
X346Y1147D01*
X346Y1145D01*
X344Y1145D01*
X344Y1143D01*
X342Y1143D01*
X342Y1141D01*
X340Y1141D01*
X340Y1139D01*
X338Y1139D01*
X338Y1137D01*
X336Y1137D01*
X336Y1135D01*
X334Y1135D01*
X334Y1133D01*
X332Y1133D01*
X332Y1131D01*
X330Y1131D01*
X330Y1129D01*
X328Y1129D01*
X328Y1127D01*
X324Y1127D01*
X324Y1125D01*
X322Y1125D01*
X322Y1123D01*
X320Y1123D01*
X320Y1121D01*
X318Y1121D01*
X318Y1119D01*
X316Y1119D01*
X316Y1117D01*
X314Y1117D01*
X314Y1115D01*
X312Y1115D01*
X312Y1113D01*
X310Y1113D01*
X310Y1111D01*
X308Y1111D01*
X308Y1109D01*
X306Y1109D01*
X306Y1107D01*
X304Y1107D01*
X304Y1105D01*
X302Y1105D01*
X302Y1103D01*
X300Y1103D01*
X300Y1101D01*
X298Y1101D01*
X298Y1099D01*
X296Y1099D01*
X296Y1097D01*
X294Y1097D01*
X294Y1095D01*
X292Y1095D01*
X292Y1093D01*
X288Y1093D01*
X288Y1091D01*
X286Y1091D01*
X286Y1089D01*
X284Y1089D01*
X284Y1087D01*
X282Y1087D01*
X282Y1085D01*
X280Y1085D01*
X280Y1083D01*
X278Y1083D01*
X278Y1081D01*
X276Y1081D01*
X276Y1079D01*
X274Y1079D01*
X274Y1077D01*
X272Y1077D01*
X272Y1075D01*
X270Y1075D01*
X270Y1073D01*
X268Y1073D01*
X268Y1071D01*
X266Y1071D01*
X266Y1069D01*
X264Y1069D01*
X264Y1067D01*
X262Y1067D01*
X262Y1065D01*
X260Y1065D01*
X260Y1063D01*
X258Y1063D01*
X258Y1061D01*
X256Y1061D01*
X256Y1059D01*
X252Y1059D01*
X252Y1057D01*
X250Y1057D01*
X250Y1055D01*
X248Y1055D01*
X248Y1053D01*
X246Y1053D01*
X246Y1051D01*
X244Y1051D01*
X244Y1049D01*
X242Y1049D01*
X242Y1047D01*
X240Y1047D01*
X240Y1045D01*
X238Y1045D01*
X238Y1035D01*
X258Y1035D01*
X258Y1037D01*
X260Y1037D01*
X260Y1039D01*
X264Y1039D01*
X264Y1041D01*
X266Y1041D01*
X266Y1043D01*
X268Y1043D01*
X268Y1045D01*
X270Y1045D01*
X270Y1047D01*
X274Y1047D01*
X274Y1049D01*
X276Y1049D01*
X276Y1051D01*
X278Y1051D01*
X278Y1053D01*
X282Y1053D01*
X282Y1055D01*
X284Y1055D01*
X284Y1057D01*
X286Y1057D01*
X286Y1059D01*
X288Y1059D01*
X288Y1061D01*
X292Y1061D01*
X292Y1063D01*
X294Y1063D01*
X294Y1065D01*
X296Y1065D01*
X296Y1067D01*
X298Y1067D01*
X298Y1069D01*
X302Y1069D01*
X302Y1071D01*
X304Y1071D01*
X304Y1073D01*
X306Y1073D01*
X306Y1075D01*
X308Y1075D01*
X308Y1077D01*
X312Y1077D01*
X312Y1079D01*
X314Y1079D01*
X314Y1081D01*
X316Y1081D01*
X316Y1083D01*
X320Y1083D01*
X320Y1085D01*
X322Y1085D01*
X322Y1087D01*
X324Y1087D01*
X324Y1089D01*
X326Y1089D01*
X326Y1091D01*
X330Y1091D01*
X330Y1093D01*
X332Y1093D01*
X332Y1095D01*
X334Y1095D01*
X334Y1097D01*
X336Y1097D01*
X336Y1099D01*
X340Y1099D01*
X340Y1101D01*
X342Y1101D01*
X342Y1103D01*
X344Y1103D01*
X344Y1105D01*
X346Y1105D01*
X346Y1107D01*
X350Y1107D01*
X350Y1109D01*
X352Y1109D01*
X352Y1111D01*
X354Y1111D01*
X354Y1113D01*
X358Y1113D01*
X358Y1115D01*
X360Y1115D01*
X360Y1117D01*
X362Y1117D01*
X362Y1119D01*
X364Y1119D01*
X364Y1121D01*
X368Y1121D01*
X368Y1123D01*
X370Y1123D01*
X370Y1125D01*
X372Y1125D01*
X372Y1127D01*
X374Y1127D01*
X374Y1129D01*
X378Y1129D01*
X378Y1131D01*
X380Y1131D01*
X380Y1133D01*
X382Y1133D01*
X382Y1135D01*
X384Y1135D01*
X384Y1137D01*
X388Y1137D01*
X388Y1139D01*
X390Y1139D01*
X390Y1141D01*
X392Y1141D01*
X392Y1143D01*
X396Y1143D01*
X396Y1145D01*
X398Y1145D01*
X398Y1147D01*
X400Y1147D01*
X400Y1149D01*
X402Y1149D01*
X402Y1151D01*
X406Y1151D01*
X406Y1153D01*
X408Y1153D01*
X408Y1155D01*
X410Y1155D01*
X410Y1157D01*
X412Y1157D01*
X412Y1159D01*
X416Y1159D01*
X416Y1161D01*
X418Y1161D01*
X418Y1163D01*
X420Y1163D01*
X420Y1165D01*
X422Y1165D01*
X422Y1167D01*
X426Y1167D01*
X426Y1169D01*
X428Y1169D01*
X428Y1171D01*
X430Y1171D01*
X430Y1173D01*
X434Y1173D01*
X434Y1175D01*
X436Y1175D01*
X436Y1177D01*
X438Y1177D01*
X438Y1179D01*
X440Y1179D01*
X440Y1181D01*
X444Y1181D01*
X444Y1183D01*
X446Y1183D01*
X446Y1185D01*
X448Y1185D01*
X448Y1187D01*
X450Y1187D01*
X450Y1189D01*
X454Y1189D01*
X454Y1191D01*
X456Y1191D01*
X456Y1193D01*
X458Y1193D01*
X458Y1195D01*
X460Y1195D01*
X460Y1197D01*
X464Y1197D01*
X464Y1199D01*
X466Y1199D01*
X466Y1201D01*
X468Y1201D01*
X468Y1203D01*
X472Y1203D01*
X472Y1205D01*
X474Y1205D01*
X474Y1207D01*
X476Y1207D01*
X476Y1209D01*
X478Y1209D01*
X478Y1211D01*
X482Y1211D01*
X482Y1213D01*
X484Y1213D01*
X484Y1215D01*
X486Y1215D01*
X486Y1217D01*
X488Y1217D01*
X488Y1219D01*
X492Y1219D01*
X492Y1221D01*
X494Y1221D01*
X494Y1223D01*
X498Y1223D01*
X498Y1225D01*
X428Y1225D01*
G37*
D02*
G36*
X516Y1221D02*
X516Y1219D01*
X614Y1219D01*
X614Y1221D01*
X516Y1221D01*
G37*
D02*
G36*
X516Y1221D02*
X516Y1219D01*
X614Y1219D01*
X614Y1221D01*
X516Y1221D01*
G37*
D02*
G36*
X518Y1219D02*
X518Y1217D01*
X520Y1217D01*
X520Y1213D01*
X522Y1213D01*
X522Y1201D01*
X586Y1201D01*
X586Y1199D01*
X592Y1199D01*
X592Y1197D01*
X614Y1197D01*
X614Y1219D01*
X518Y1219D01*
G37*
D02*
G36*
X522Y1201D02*
X522Y1173D01*
X542Y1173D01*
X542Y1177D01*
X544Y1177D01*
X544Y1181D01*
X546Y1181D01*
X546Y1183D01*
X548Y1183D01*
X548Y1187D01*
X550Y1187D01*
X550Y1189D01*
X552Y1189D01*
X552Y1191D01*
X554Y1191D01*
X554Y1193D01*
X558Y1193D01*
X558Y1195D01*
X560Y1195D01*
X560Y1197D01*
X564Y1197D01*
X564Y1199D01*
X570Y1199D01*
X570Y1201D01*
X522Y1201D01*
G37*
D02*
G36*
X690Y1325D02*
X690Y1323D01*
X680Y1323D01*
X680Y1321D01*
X710Y1321D01*
X710Y1325D01*
X690Y1325D01*
G37*
D02*
G36*
X650Y1323D02*
X650Y1321D01*
X676Y1321D01*
X676Y1323D01*
X650Y1323D01*
G37*
D02*
G36*
X650Y1321D02*
X650Y1319D01*
X710Y1319D01*
X710Y1321D01*
X650Y1321D01*
G37*
D02*
G36*
X650Y1321D02*
X650Y1319D01*
X710Y1319D01*
X710Y1321D01*
X650Y1321D01*
G37*
D02*
G36*
X650Y1319D02*
X650Y1301D01*
X686Y1301D01*
X686Y1299D01*
X710Y1299D01*
X710Y1319D01*
X650Y1319D01*
G37*
D02*
G36*
X650Y1301D02*
X650Y1299D01*
X670Y1299D01*
X670Y1301D01*
X650Y1301D01*
G37*
D02*
G36*
X132Y1305D02*
X132Y1303D01*
X130Y1303D01*
X130Y1299D01*
X128Y1299D01*
X128Y1297D01*
X126Y1297D01*
X126Y1295D01*
X124Y1295D01*
X124Y1293D01*
X122Y1293D01*
X122Y1291D01*
X120Y1291D01*
X120Y1289D01*
X116Y1289D01*
X116Y1287D01*
X114Y1287D01*
X114Y1265D01*
X116Y1265D01*
X116Y1263D01*
X120Y1263D01*
X120Y1261D01*
X122Y1261D01*
X122Y1259D01*
X124Y1259D01*
X124Y1257D01*
X126Y1257D01*
X126Y1255D01*
X128Y1255D01*
X128Y1253D01*
X130Y1253D01*
X130Y1249D01*
X132Y1249D01*
X132Y1247D01*
X154Y1247D01*
X154Y1249D01*
X156Y1249D01*
X156Y1253D01*
X158Y1253D01*
X158Y1255D01*
X160Y1255D01*
X160Y1257D01*
X162Y1257D01*
X162Y1259D01*
X164Y1259D01*
X164Y1261D01*
X166Y1261D01*
X166Y1263D01*
X170Y1263D01*
X170Y1265D01*
X172Y1265D01*
X172Y1287D01*
X170Y1287D01*
X170Y1289D01*
X166Y1289D01*
X166Y1291D01*
X164Y1291D01*
X164Y1293D01*
X162Y1293D01*
X162Y1295D01*
X160Y1295D01*
X160Y1297D01*
X158Y1297D01*
X158Y1299D01*
X156Y1299D01*
X156Y1303D01*
X154Y1303D01*
X154Y1305D01*
X132Y1305D01*
G37*
D02*
G36*
X1806Y1227D02*
X1806Y1207D01*
X1862Y1207D01*
X1862Y1227D01*
X1806Y1227D01*
G37*
D02*
G36*
X690Y1225D02*
X690Y1223D01*
X680Y1223D01*
X680Y1221D01*
X710Y1221D01*
X710Y1225D01*
X690Y1225D01*
G37*
D02*
G36*
X650Y1223D02*
X650Y1221D01*
X676Y1221D01*
X676Y1223D01*
X650Y1223D01*
G37*
D02*
G36*
X650Y1221D02*
X650Y1219D01*
X710Y1219D01*
X710Y1221D01*
X650Y1221D01*
G37*
D02*
G36*
X650Y1221D02*
X650Y1219D01*
X710Y1219D01*
X710Y1221D01*
X650Y1221D01*
G37*
D02*
G36*
X650Y1219D02*
X650Y1201D01*
X686Y1201D01*
X686Y1199D01*
X710Y1199D01*
X710Y1219D01*
X650Y1219D01*
G37*
D02*
G36*
X650Y1201D02*
X650Y1199D01*
X670Y1199D01*
X670Y1201D01*
X650Y1201D01*
G37*
D02*
G36*
X132Y1205D02*
X132Y1203D01*
X130Y1203D01*
X130Y1199D01*
X128Y1199D01*
X128Y1197D01*
X126Y1197D01*
X126Y1195D01*
X124Y1195D01*
X124Y1193D01*
X122Y1193D01*
X122Y1191D01*
X120Y1191D01*
X120Y1189D01*
X116Y1189D01*
X116Y1187D01*
X114Y1187D01*
X114Y1165D01*
X116Y1165D01*
X116Y1163D01*
X120Y1163D01*
X120Y1161D01*
X122Y1161D01*
X122Y1159D01*
X124Y1159D01*
X124Y1157D01*
X126Y1157D01*
X126Y1155D01*
X128Y1155D01*
X128Y1153D01*
X130Y1153D01*
X130Y1149D01*
X132Y1149D01*
X132Y1147D01*
X154Y1147D01*
X154Y1149D01*
X156Y1149D01*
X156Y1153D01*
X158Y1153D01*
X158Y1155D01*
X160Y1155D01*
X160Y1157D01*
X162Y1157D01*
X162Y1159D01*
X164Y1159D01*
X164Y1161D01*
X166Y1161D01*
X166Y1163D01*
X170Y1163D01*
X170Y1165D01*
X172Y1165D01*
X172Y1187D01*
X170Y1187D01*
X170Y1189D01*
X166Y1189D01*
X166Y1191D01*
X164Y1191D01*
X164Y1193D01*
X162Y1193D01*
X162Y1195D01*
X160Y1195D01*
X160Y1197D01*
X158Y1197D01*
X158Y1199D01*
X156Y1199D01*
X156Y1203D01*
X154Y1203D01*
X154Y1205D01*
X132Y1205D01*
G37*
D02*
G36*
X466Y1155D02*
X466Y1153D01*
X464Y1153D01*
X464Y1151D01*
X460Y1151D01*
X460Y1149D01*
X458Y1149D01*
X458Y1147D01*
X456Y1147D01*
X456Y1145D01*
X454Y1145D01*
X454Y1143D01*
X450Y1143D01*
X450Y1141D01*
X448Y1141D01*
X448Y1139D01*
X446Y1139D01*
X446Y1137D01*
X444Y1137D01*
X444Y1135D01*
X440Y1135D01*
X440Y1133D01*
X438Y1133D01*
X438Y1131D01*
X436Y1131D01*
X436Y1129D01*
X432Y1129D01*
X432Y1127D01*
X430Y1127D01*
X430Y1125D01*
X428Y1125D01*
X428Y1123D01*
X426Y1123D01*
X426Y1121D01*
X422Y1121D01*
X422Y1119D01*
X420Y1119D01*
X420Y1117D01*
X418Y1117D01*
X418Y1115D01*
X416Y1115D01*
X416Y1113D01*
X412Y1113D01*
X412Y1111D01*
X410Y1111D01*
X410Y1109D01*
X408Y1109D01*
X408Y1107D01*
X406Y1107D01*
X406Y1105D01*
X402Y1105D01*
X402Y1103D01*
X400Y1103D01*
X400Y1101D01*
X398Y1101D01*
X398Y1099D01*
X394Y1099D01*
X394Y1097D01*
X392Y1097D01*
X392Y1095D01*
X390Y1095D01*
X390Y1093D01*
X388Y1093D01*
X388Y1091D01*
X384Y1091D01*
X384Y1089D01*
X382Y1089D01*
X382Y1087D01*
X380Y1087D01*
X380Y1085D01*
X378Y1085D01*
X378Y1083D01*
X374Y1083D01*
X374Y1081D01*
X372Y1081D01*
X372Y1079D01*
X370Y1079D01*
X370Y1077D01*
X368Y1077D01*
X368Y1075D01*
X364Y1075D01*
X364Y1073D01*
X362Y1073D01*
X362Y1071D01*
X360Y1071D01*
X360Y1069D01*
X356Y1069D01*
X356Y1067D01*
X354Y1067D01*
X354Y1065D01*
X352Y1065D01*
X352Y1063D01*
X350Y1063D01*
X350Y1061D01*
X346Y1061D01*
X346Y1059D01*
X344Y1059D01*
X344Y1057D01*
X342Y1057D01*
X342Y1055D01*
X340Y1055D01*
X340Y1053D01*
X336Y1053D01*
X336Y1051D01*
X334Y1051D01*
X334Y1049D01*
X332Y1049D01*
X332Y1047D01*
X330Y1047D01*
X330Y1045D01*
X326Y1045D01*
X326Y1043D01*
X324Y1043D01*
X324Y1041D01*
X322Y1041D01*
X322Y1039D01*
X318Y1039D01*
X318Y1037D01*
X316Y1037D01*
X316Y1017D01*
X550Y1017D01*
X550Y1037D01*
X548Y1037D01*
X548Y1039D01*
X546Y1039D01*
X546Y1043D01*
X544Y1043D01*
X544Y1045D01*
X542Y1045D01*
X542Y1051D01*
X540Y1051D01*
X540Y1059D01*
X538Y1059D01*
X538Y1065D01*
X540Y1065D01*
X540Y1073D01*
X542Y1073D01*
X542Y1093D01*
X498Y1093D01*
X498Y1095D01*
X494Y1095D01*
X494Y1097D01*
X492Y1097D01*
X492Y1099D01*
X490Y1099D01*
X490Y1101D01*
X488Y1101D01*
X488Y1105D01*
X486Y1105D01*
X486Y1155D01*
X466Y1155D01*
G37*
D02*
G36*
X690Y1125D02*
X690Y1123D01*
X680Y1123D01*
X680Y1121D01*
X710Y1121D01*
X710Y1125D01*
X690Y1125D01*
G37*
D02*
G36*
X650Y1123D02*
X650Y1121D01*
X676Y1121D01*
X676Y1123D01*
X650Y1123D01*
G37*
D02*
G36*
X648Y1121D02*
X648Y1119D01*
X710Y1119D01*
X710Y1121D01*
X648Y1121D01*
G37*
D02*
G36*
X648Y1121D02*
X648Y1119D01*
X710Y1119D01*
X710Y1121D01*
X648Y1121D01*
G37*
D02*
G36*
X648Y1119D02*
X648Y1117D01*
X646Y1117D01*
X646Y1115D01*
X644Y1115D01*
X644Y1113D01*
X642Y1113D01*
X642Y1111D01*
X640Y1111D01*
X640Y1109D01*
X638Y1109D01*
X638Y1107D01*
X636Y1107D01*
X636Y1105D01*
X634Y1105D01*
X634Y1103D01*
X632Y1103D01*
X632Y1101D01*
X686Y1101D01*
X686Y1099D01*
X710Y1099D01*
X710Y1119D01*
X648Y1119D01*
G37*
D02*
G36*
X630Y1101D02*
X630Y1099D01*
X628Y1099D01*
X628Y1097D01*
X626Y1097D01*
X626Y1095D01*
X622Y1095D01*
X622Y1093D01*
X616Y1093D01*
X616Y1069D01*
X618Y1069D01*
X618Y1053D01*
X616Y1053D01*
X616Y1047D01*
X614Y1047D01*
X614Y1045D01*
X612Y1045D01*
X612Y1041D01*
X610Y1041D01*
X610Y1039D01*
X608Y1039D01*
X608Y1017D01*
X650Y1017D01*
X650Y1037D01*
X648Y1037D01*
X648Y1039D01*
X646Y1039D01*
X646Y1043D01*
X644Y1043D01*
X644Y1045D01*
X642Y1045D01*
X642Y1051D01*
X640Y1051D01*
X640Y1059D01*
X638Y1059D01*
X638Y1065D01*
X640Y1065D01*
X640Y1073D01*
X642Y1073D01*
X642Y1077D01*
X644Y1077D01*
X644Y1081D01*
X646Y1081D01*
X646Y1083D01*
X648Y1083D01*
X648Y1087D01*
X650Y1087D01*
X650Y1089D01*
X652Y1089D01*
X652Y1091D01*
X654Y1091D01*
X654Y1093D01*
X658Y1093D01*
X658Y1095D01*
X660Y1095D01*
X660Y1097D01*
X664Y1097D01*
X664Y1099D01*
X670Y1099D01*
X670Y1101D01*
X630Y1101D01*
G37*
D02*
G36*
X132Y1105D02*
X132Y1103D01*
X130Y1103D01*
X130Y1099D01*
X128Y1099D01*
X128Y1097D01*
X126Y1097D01*
X126Y1095D01*
X124Y1095D01*
X124Y1093D01*
X122Y1093D01*
X122Y1091D01*
X120Y1091D01*
X120Y1089D01*
X116Y1089D01*
X116Y1087D01*
X114Y1087D01*
X114Y1065D01*
X116Y1065D01*
X116Y1063D01*
X120Y1063D01*
X120Y1061D01*
X122Y1061D01*
X122Y1059D01*
X124Y1059D01*
X124Y1057D01*
X126Y1057D01*
X126Y1055D01*
X128Y1055D01*
X128Y1053D01*
X130Y1053D01*
X130Y1049D01*
X132Y1049D01*
X132Y1047D01*
X154Y1047D01*
X154Y1049D01*
X156Y1049D01*
X156Y1053D01*
X158Y1053D01*
X158Y1055D01*
X160Y1055D01*
X160Y1057D01*
X162Y1057D01*
X162Y1059D01*
X164Y1059D01*
X164Y1061D01*
X166Y1061D01*
X166Y1063D01*
X170Y1063D01*
X170Y1065D01*
X172Y1065D01*
X172Y1087D01*
X170Y1087D01*
X170Y1089D01*
X166Y1089D01*
X166Y1091D01*
X164Y1091D01*
X164Y1093D01*
X162Y1093D01*
X162Y1095D01*
X160Y1095D01*
X160Y1097D01*
X158Y1097D01*
X158Y1099D01*
X156Y1099D01*
X156Y1103D01*
X154Y1103D01*
X154Y1105D01*
X132Y1105D01*
G37*
D02*
G36*
X132Y1005D02*
X132Y1003D01*
X130Y1003D01*
X130Y999D01*
X128Y999D01*
X128Y997D01*
X126Y997D01*
X126Y995D01*
X124Y995D01*
X124Y993D01*
X122Y993D01*
X122Y991D01*
X120Y991D01*
X120Y989D01*
X116Y989D01*
X116Y987D01*
X114Y987D01*
X114Y965D01*
X116Y965D01*
X116Y963D01*
X120Y963D01*
X120Y961D01*
X122Y961D01*
X122Y959D01*
X124Y959D01*
X124Y957D01*
X126Y957D01*
X126Y955D01*
X128Y955D01*
X128Y953D01*
X130Y953D01*
X130Y949D01*
X132Y949D01*
X132Y947D01*
X154Y947D01*
X154Y949D01*
X156Y949D01*
X156Y953D01*
X158Y953D01*
X158Y955D01*
X160Y955D01*
X160Y957D01*
X162Y957D01*
X162Y959D01*
X164Y959D01*
X164Y961D01*
X166Y961D01*
X166Y963D01*
X170Y963D01*
X170Y965D01*
X172Y965D01*
X172Y987D01*
X170Y987D01*
X170Y989D01*
X166Y989D01*
X166Y991D01*
X164Y991D01*
X164Y993D01*
X162Y993D01*
X162Y995D01*
X160Y995D01*
X160Y997D01*
X158Y997D01*
X158Y999D01*
X156Y999D01*
X156Y1003D01*
X154Y1003D01*
X154Y1005D01*
X132Y1005D01*
G37*
D02*
G36*
X274Y1003D02*
X274Y1001D01*
X270Y1001D01*
X270Y999D01*
X268Y999D01*
X268Y997D01*
X266Y997D01*
X266Y995D01*
X264Y995D01*
X264Y993D01*
X260Y993D01*
X260Y991D01*
X258Y991D01*
X258Y989D01*
X256Y989D01*
X256Y987D01*
X254Y987D01*
X254Y985D01*
X250Y985D01*
X250Y983D01*
X248Y983D01*
X248Y981D01*
X246Y981D01*
X246Y979D01*
X242Y979D01*
X242Y977D01*
X240Y977D01*
X240Y975D01*
X238Y975D01*
X238Y973D01*
X236Y973D01*
X236Y971D01*
X232Y971D01*
X232Y969D01*
X230Y969D01*
X230Y949D01*
X232Y949D01*
X232Y947D01*
X234Y947D01*
X234Y943D01*
X236Y943D01*
X236Y937D01*
X238Y937D01*
X238Y915D01*
X236Y915D01*
X236Y909D01*
X234Y909D01*
X234Y905D01*
X232Y905D01*
X232Y903D01*
X230Y903D01*
X230Y899D01*
X228Y899D01*
X228Y897D01*
X226Y897D01*
X226Y895D01*
X224Y895D01*
X224Y893D01*
X222Y893D01*
X222Y891D01*
X220Y891D01*
X220Y889D01*
X216Y889D01*
X216Y887D01*
X214Y887D01*
X214Y865D01*
X216Y865D01*
X216Y863D01*
X220Y863D01*
X220Y861D01*
X222Y861D01*
X222Y859D01*
X224Y859D01*
X224Y857D01*
X226Y857D01*
X226Y855D01*
X228Y855D01*
X228Y853D01*
X230Y853D01*
X230Y849D01*
X232Y849D01*
X232Y847D01*
X234Y847D01*
X234Y843D01*
X236Y843D01*
X236Y837D01*
X238Y837D01*
X238Y815D01*
X236Y815D01*
X236Y809D01*
X234Y809D01*
X234Y805D01*
X232Y805D01*
X232Y803D01*
X230Y803D01*
X230Y799D01*
X228Y799D01*
X228Y797D01*
X226Y797D01*
X226Y795D01*
X224Y795D01*
X224Y793D01*
X222Y793D01*
X222Y791D01*
X220Y791D01*
X220Y789D01*
X216Y789D01*
X216Y787D01*
X214Y787D01*
X214Y765D01*
X216Y765D01*
X216Y763D01*
X220Y763D01*
X220Y761D01*
X222Y761D01*
X222Y759D01*
X224Y759D01*
X224Y757D01*
X226Y757D01*
X226Y755D01*
X228Y755D01*
X228Y753D01*
X230Y753D01*
X230Y749D01*
X232Y749D01*
X232Y747D01*
X234Y747D01*
X234Y743D01*
X236Y743D01*
X236Y737D01*
X238Y737D01*
X238Y715D01*
X236Y715D01*
X236Y709D01*
X234Y709D01*
X234Y705D01*
X232Y705D01*
X232Y703D01*
X230Y703D01*
X230Y699D01*
X228Y699D01*
X228Y697D01*
X226Y697D01*
X226Y695D01*
X224Y695D01*
X224Y693D01*
X222Y693D01*
X222Y691D01*
X220Y691D01*
X220Y689D01*
X216Y689D01*
X216Y687D01*
X214Y687D01*
X214Y665D01*
X216Y665D01*
X216Y663D01*
X220Y663D01*
X220Y661D01*
X222Y661D01*
X222Y659D01*
X224Y659D01*
X224Y657D01*
X226Y657D01*
X226Y655D01*
X228Y655D01*
X228Y653D01*
X230Y653D01*
X230Y649D01*
X232Y649D01*
X232Y647D01*
X234Y647D01*
X234Y643D01*
X236Y643D01*
X236Y637D01*
X238Y637D01*
X238Y615D01*
X236Y615D01*
X236Y609D01*
X234Y609D01*
X234Y605D01*
X232Y605D01*
X232Y603D01*
X230Y603D01*
X230Y599D01*
X228Y599D01*
X228Y597D01*
X226Y597D01*
X226Y595D01*
X224Y595D01*
X224Y593D01*
X222Y593D01*
X222Y591D01*
X220Y591D01*
X220Y589D01*
X216Y589D01*
X216Y587D01*
X214Y587D01*
X214Y565D01*
X216Y565D01*
X216Y563D01*
X220Y563D01*
X220Y561D01*
X222Y561D01*
X222Y559D01*
X224Y559D01*
X224Y557D01*
X226Y557D01*
X226Y555D01*
X228Y555D01*
X228Y553D01*
X230Y553D01*
X230Y549D01*
X232Y549D01*
X232Y547D01*
X234Y547D01*
X234Y543D01*
X236Y543D01*
X236Y537D01*
X238Y537D01*
X238Y515D01*
X236Y515D01*
X236Y509D01*
X234Y509D01*
X234Y505D01*
X232Y505D01*
X232Y503D01*
X230Y503D01*
X230Y499D01*
X228Y499D01*
X228Y497D01*
X226Y497D01*
X226Y495D01*
X224Y495D01*
X224Y493D01*
X222Y493D01*
X222Y491D01*
X220Y491D01*
X220Y489D01*
X216Y489D01*
X216Y487D01*
X214Y487D01*
X214Y465D01*
X216Y465D01*
X216Y463D01*
X220Y463D01*
X220Y461D01*
X222Y461D01*
X222Y459D01*
X224Y459D01*
X224Y457D01*
X226Y457D01*
X226Y455D01*
X228Y455D01*
X228Y453D01*
X230Y453D01*
X230Y449D01*
X232Y449D01*
X232Y447D01*
X234Y447D01*
X234Y443D01*
X236Y443D01*
X236Y437D01*
X238Y437D01*
X238Y415D01*
X236Y415D01*
X236Y409D01*
X234Y409D01*
X234Y405D01*
X232Y405D01*
X232Y403D01*
X230Y403D01*
X230Y399D01*
X228Y399D01*
X228Y397D01*
X226Y397D01*
X226Y395D01*
X224Y395D01*
X224Y393D01*
X222Y393D01*
X222Y391D01*
X220Y391D01*
X220Y389D01*
X216Y389D01*
X216Y387D01*
X214Y387D01*
X214Y365D01*
X216Y365D01*
X216Y363D01*
X220Y363D01*
X220Y361D01*
X222Y361D01*
X222Y359D01*
X224Y359D01*
X224Y357D01*
X226Y357D01*
X226Y355D01*
X228Y355D01*
X228Y353D01*
X230Y353D01*
X230Y349D01*
X232Y349D01*
X232Y347D01*
X234Y347D01*
X234Y343D01*
X236Y343D01*
X236Y337D01*
X238Y337D01*
X238Y315D01*
X236Y315D01*
X236Y309D01*
X234Y309D01*
X234Y305D01*
X232Y305D01*
X232Y285D01*
X236Y285D01*
X236Y283D01*
X262Y283D01*
X262Y287D01*
X264Y287D01*
X264Y333D01*
X266Y333D01*
X266Y379D01*
X268Y379D01*
X268Y425D01*
X270Y425D01*
X270Y471D01*
X272Y471D01*
X272Y517D01*
X274Y517D01*
X274Y563D01*
X276Y563D01*
X276Y609D01*
X278Y609D01*
X278Y655D01*
X280Y655D01*
X280Y701D01*
X282Y701D01*
X282Y747D01*
X284Y747D01*
X284Y793D01*
X286Y793D01*
X286Y839D01*
X288Y839D01*
X288Y885D01*
X290Y885D01*
X290Y931D01*
X292Y931D01*
X292Y977D01*
X294Y977D01*
X294Y1003D01*
X274Y1003D01*
G37*
D02*
G36*
X132Y905D02*
X132Y903D01*
X130Y903D01*
X130Y899D01*
X128Y899D01*
X128Y897D01*
X126Y897D01*
X126Y895D01*
X124Y895D01*
X124Y893D01*
X122Y893D01*
X122Y891D01*
X120Y891D01*
X120Y889D01*
X116Y889D01*
X116Y887D01*
X114Y887D01*
X114Y865D01*
X116Y865D01*
X116Y863D01*
X120Y863D01*
X120Y861D01*
X122Y861D01*
X122Y859D01*
X124Y859D01*
X124Y857D01*
X126Y857D01*
X126Y855D01*
X128Y855D01*
X128Y853D01*
X130Y853D01*
X130Y849D01*
X132Y849D01*
X132Y847D01*
X154Y847D01*
X154Y849D01*
X156Y849D01*
X156Y853D01*
X158Y853D01*
X158Y855D01*
X160Y855D01*
X160Y857D01*
X162Y857D01*
X162Y859D01*
X164Y859D01*
X164Y861D01*
X166Y861D01*
X166Y863D01*
X170Y863D01*
X170Y865D01*
X172Y865D01*
X172Y887D01*
X170Y887D01*
X170Y889D01*
X166Y889D01*
X166Y891D01*
X164Y891D01*
X164Y893D01*
X162Y893D01*
X162Y895D01*
X160Y895D01*
X160Y897D01*
X158Y897D01*
X158Y899D01*
X156Y899D01*
X156Y903D01*
X154Y903D01*
X154Y905D01*
X132Y905D01*
G37*
D02*
G36*
X132Y805D02*
X132Y803D01*
X130Y803D01*
X130Y799D01*
X128Y799D01*
X128Y797D01*
X126Y797D01*
X126Y795D01*
X124Y795D01*
X124Y793D01*
X122Y793D01*
X122Y791D01*
X120Y791D01*
X120Y789D01*
X116Y789D01*
X116Y787D01*
X114Y787D01*
X114Y765D01*
X116Y765D01*
X116Y763D01*
X120Y763D01*
X120Y761D01*
X122Y761D01*
X122Y759D01*
X124Y759D01*
X124Y757D01*
X126Y757D01*
X126Y755D01*
X128Y755D01*
X128Y753D01*
X130Y753D01*
X130Y749D01*
X132Y749D01*
X132Y747D01*
X154Y747D01*
X154Y749D01*
X156Y749D01*
X156Y753D01*
X158Y753D01*
X158Y755D01*
X160Y755D01*
X160Y757D01*
X162Y757D01*
X162Y759D01*
X164Y759D01*
X164Y761D01*
X166Y761D01*
X166Y763D01*
X170Y763D01*
X170Y765D01*
X172Y765D01*
X172Y787D01*
X170Y787D01*
X170Y789D01*
X166Y789D01*
X166Y791D01*
X164Y791D01*
X164Y793D01*
X162Y793D01*
X162Y795D01*
X160Y795D01*
X160Y797D01*
X158Y797D01*
X158Y799D01*
X156Y799D01*
X156Y803D01*
X154Y803D01*
X154Y805D01*
X132Y805D01*
G37*
D02*
G36*
X132Y705D02*
X132Y703D01*
X130Y703D01*
X130Y699D01*
X128Y699D01*
X128Y697D01*
X126Y697D01*
X126Y695D01*
X124Y695D01*
X124Y693D01*
X122Y693D01*
X122Y691D01*
X120Y691D01*
X120Y689D01*
X116Y689D01*
X116Y687D01*
X114Y687D01*
X114Y665D01*
X116Y665D01*
X116Y663D01*
X120Y663D01*
X120Y661D01*
X122Y661D01*
X122Y659D01*
X124Y659D01*
X124Y657D01*
X126Y657D01*
X126Y655D01*
X128Y655D01*
X128Y653D01*
X130Y653D01*
X130Y649D01*
X132Y649D01*
X132Y647D01*
X154Y647D01*
X154Y649D01*
X156Y649D01*
X156Y653D01*
X158Y653D01*
X158Y655D01*
X160Y655D01*
X160Y657D01*
X162Y657D01*
X162Y659D01*
X164Y659D01*
X164Y661D01*
X166Y661D01*
X166Y663D01*
X170Y663D01*
X170Y665D01*
X172Y665D01*
X172Y687D01*
X170Y687D01*
X170Y689D01*
X166Y689D01*
X166Y691D01*
X164Y691D01*
X164Y693D01*
X162Y693D01*
X162Y695D01*
X160Y695D01*
X160Y697D01*
X158Y697D01*
X158Y699D01*
X156Y699D01*
X156Y703D01*
X154Y703D01*
X154Y705D01*
X132Y705D01*
G37*
D02*
G36*
X132Y605D02*
X132Y603D01*
X130Y603D01*
X130Y599D01*
X128Y599D01*
X128Y597D01*
X126Y597D01*
X126Y595D01*
X124Y595D01*
X124Y593D01*
X122Y593D01*
X122Y591D01*
X120Y591D01*
X120Y589D01*
X116Y589D01*
X116Y587D01*
X114Y587D01*
X114Y565D01*
X116Y565D01*
X116Y563D01*
X120Y563D01*
X120Y561D01*
X122Y561D01*
X122Y559D01*
X124Y559D01*
X124Y557D01*
X126Y557D01*
X126Y555D01*
X128Y555D01*
X128Y553D01*
X130Y553D01*
X130Y549D01*
X132Y549D01*
X132Y547D01*
X154Y547D01*
X154Y549D01*
X156Y549D01*
X156Y553D01*
X158Y553D01*
X158Y555D01*
X160Y555D01*
X160Y557D01*
X162Y557D01*
X162Y559D01*
X164Y559D01*
X164Y561D01*
X166Y561D01*
X166Y563D01*
X170Y563D01*
X170Y565D01*
X172Y565D01*
X172Y587D01*
X170Y587D01*
X170Y589D01*
X166Y589D01*
X166Y591D01*
X164Y591D01*
X164Y593D01*
X162Y593D01*
X162Y595D01*
X160Y595D01*
X160Y597D01*
X158Y597D01*
X158Y599D01*
X156Y599D01*
X156Y603D01*
X154Y603D01*
X154Y605D01*
X132Y605D01*
G37*
D02*
G36*
X132Y505D02*
X132Y503D01*
X130Y503D01*
X130Y499D01*
X128Y499D01*
X128Y497D01*
X126Y497D01*
X126Y495D01*
X124Y495D01*
X124Y493D01*
X122Y493D01*
X122Y491D01*
X120Y491D01*
X120Y489D01*
X116Y489D01*
X116Y487D01*
X114Y487D01*
X114Y465D01*
X116Y465D01*
X116Y463D01*
X120Y463D01*
X120Y461D01*
X122Y461D01*
X122Y459D01*
X124Y459D01*
X124Y457D01*
X126Y457D01*
X126Y455D01*
X128Y455D01*
X128Y453D01*
X130Y453D01*
X130Y449D01*
X132Y449D01*
X132Y447D01*
X154Y447D01*
X154Y449D01*
X156Y449D01*
X156Y453D01*
X158Y453D01*
X158Y455D01*
X160Y455D01*
X160Y457D01*
X162Y457D01*
X162Y459D01*
X164Y459D01*
X164Y461D01*
X166Y461D01*
X166Y463D01*
X170Y463D01*
X170Y465D01*
X172Y465D01*
X172Y487D01*
X170Y487D01*
X170Y489D01*
X166Y489D01*
X166Y491D01*
X164Y491D01*
X164Y493D01*
X162Y493D01*
X162Y495D01*
X160Y495D01*
X160Y497D01*
X158Y497D01*
X158Y499D01*
X156Y499D01*
X156Y503D01*
X154Y503D01*
X154Y505D01*
X132Y505D01*
G37*
D02*
G36*
X132Y405D02*
X132Y403D01*
X130Y403D01*
X130Y399D01*
X128Y399D01*
X128Y397D01*
X126Y397D01*
X126Y395D01*
X124Y395D01*
X124Y393D01*
X122Y393D01*
X122Y391D01*
X120Y391D01*
X120Y389D01*
X116Y389D01*
X116Y387D01*
X114Y387D01*
X114Y365D01*
X116Y365D01*
X116Y363D01*
X120Y363D01*
X120Y361D01*
X122Y361D01*
X122Y359D01*
X124Y359D01*
X124Y357D01*
X126Y357D01*
X126Y355D01*
X128Y355D01*
X128Y353D01*
X130Y353D01*
X130Y349D01*
X132Y349D01*
X132Y347D01*
X154Y347D01*
X154Y349D01*
X156Y349D01*
X156Y353D01*
X158Y353D01*
X158Y355D01*
X160Y355D01*
X160Y357D01*
X162Y357D01*
X162Y359D01*
X164Y359D01*
X164Y361D01*
X166Y361D01*
X166Y363D01*
X170Y363D01*
X170Y365D01*
X172Y365D01*
X172Y387D01*
X170Y387D01*
X170Y389D01*
X166Y389D01*
X166Y391D01*
X164Y391D01*
X164Y393D01*
X162Y393D01*
X162Y395D01*
X160Y395D01*
X160Y397D01*
X158Y397D01*
X158Y399D01*
X156Y399D01*
X156Y403D01*
X154Y403D01*
X154Y405D01*
X132Y405D01*
G37*
D02*
G36*
X40Y259D02*
X40Y157D01*
X42Y157D01*
X42Y147D01*
X44Y147D01*
X44Y135D01*
X46Y135D01*
X46Y127D01*
X48Y127D01*
X48Y121D01*
X68Y121D01*
X68Y185D01*
X70Y185D01*
X70Y193D01*
X72Y193D01*
X72Y197D01*
X74Y197D01*
X74Y201D01*
X76Y201D01*
X76Y205D01*
X78Y205D01*
X78Y209D01*
X80Y209D01*
X80Y211D01*
X82Y211D01*
X82Y213D01*
X84Y213D01*
X84Y215D01*
X86Y215D01*
X86Y217D01*
X88Y217D01*
X88Y219D01*
X90Y219D01*
X90Y221D01*
X92Y221D01*
X92Y223D01*
X96Y223D01*
X96Y225D01*
X98Y225D01*
X98Y227D01*
X102Y227D01*
X102Y229D01*
X108Y229D01*
X108Y231D01*
X204Y231D01*
X204Y251D01*
X174Y251D01*
X174Y253D01*
X144Y253D01*
X144Y255D01*
X114Y255D01*
X114Y257D01*
X84Y257D01*
X84Y259D01*
X40Y259D01*
G37*
D02*
G36*
X228Y2519D02*
X228Y2499D01*
X230Y2499D01*
X230Y2497D01*
X232Y2497D01*
X232Y2495D01*
X234Y2495D01*
X234Y2493D01*
X236Y2493D01*
X236Y2491D01*
X238Y2491D01*
X238Y2489D01*
X240Y2489D01*
X240Y2485D01*
X242Y2485D01*
X242Y2483D01*
X244Y2483D01*
X244Y2479D01*
X246Y2479D01*
X246Y2475D01*
X248Y2475D01*
X248Y2467D01*
X250Y2467D01*
X250Y2371D01*
X248Y2371D01*
X248Y2363D01*
X246Y2363D01*
X246Y2359D01*
X244Y2359D01*
X244Y2355D01*
X242Y2355D01*
X242Y2351D01*
X240Y2351D01*
X240Y2349D01*
X238Y2349D01*
X238Y2347D01*
X236Y2347D01*
X236Y2345D01*
X234Y2345D01*
X234Y2343D01*
X232Y2343D01*
X232Y2341D01*
X230Y2341D01*
X230Y2339D01*
X228Y2339D01*
X228Y2337D01*
X226Y2337D01*
X226Y2335D01*
X222Y2335D01*
X222Y2333D01*
X218Y2333D01*
X218Y2331D01*
X214Y2331D01*
X214Y2329D01*
X2034Y2329D01*
X2034Y2331D01*
X2026Y2331D01*
X2026Y2333D01*
X2022Y2333D01*
X2022Y2335D01*
X2018Y2335D01*
X2018Y2337D01*
X2014Y2337D01*
X2014Y2339D01*
X2010Y2339D01*
X2010Y2341D01*
X2008Y2341D01*
X2008Y2343D01*
X2006Y2343D01*
X2006Y2345D01*
X2004Y2345D01*
X2004Y2347D01*
X2002Y2347D01*
X2002Y2351D01*
X2000Y2351D01*
X2000Y2353D01*
X1998Y2353D01*
X1998Y2357D01*
X1996Y2357D01*
X1996Y2363D01*
X1994Y2363D01*
X1994Y2377D01*
X1992Y2377D01*
X1992Y2469D01*
X1994Y2469D01*
X1994Y2477D01*
X1996Y2477D01*
X1996Y2481D01*
X1998Y2481D01*
X1998Y2485D01*
X2000Y2485D01*
X2000Y2489D01*
X2002Y2489D01*
X2002Y2491D01*
X2004Y2491D01*
X2004Y2493D01*
X2006Y2493D01*
X2006Y2497D01*
X2008Y2497D01*
X2008Y2499D01*
X2010Y2499D01*
X2010Y2519D01*
X228Y2519D01*
G37*
D02*
G36*
X42Y2411D02*
X42Y2399D01*
X40Y2399D01*
X40Y2327D01*
X116Y2327D01*
X116Y2329D01*
X100Y2329D01*
X100Y2331D01*
X94Y2331D01*
X94Y2333D01*
X92Y2333D01*
X92Y2335D01*
X88Y2335D01*
X88Y2337D01*
X86Y2337D01*
X86Y2339D01*
X84Y2339D01*
X84Y2341D01*
X82Y2341D01*
X82Y2343D01*
X80Y2343D01*
X80Y2345D01*
X78Y2345D01*
X78Y2347D01*
X76Y2347D01*
X76Y2349D01*
X74Y2349D01*
X74Y2351D01*
X72Y2351D01*
X72Y2355D01*
X70Y2355D01*
X70Y2359D01*
X68Y2359D01*
X68Y2363D01*
X66Y2363D01*
X66Y2369D01*
X64Y2369D01*
X64Y2377D01*
X62Y2377D01*
X62Y2411D01*
X42Y2411D01*
G37*
D02*
G36*
X2164Y2345D02*
X2164Y2343D01*
X2162Y2343D01*
X2162Y2341D01*
X2160Y2341D01*
X2160Y2339D01*
X2156Y2339D01*
X2156Y2337D01*
X2154Y2337D01*
X2154Y2335D01*
X2150Y2335D01*
X2150Y2333D01*
X2144Y2333D01*
X2144Y2331D01*
X2138Y2331D01*
X2138Y2329D01*
X2184Y2329D01*
X2184Y2345D01*
X2164Y2345D01*
G37*
D02*
G36*
X204Y2329D02*
X204Y2327D01*
X2184Y2327D01*
X2184Y2329D01*
X204Y2329D01*
G37*
D02*
G36*
X204Y2329D02*
X204Y2327D01*
X2184Y2327D01*
X2184Y2329D01*
X204Y2329D01*
G37*
D02*
G36*
X40Y2327D02*
X40Y2325D01*
X2184Y2325D01*
X2184Y2327D01*
X40Y2327D01*
G37*
D02*
G36*
X40Y2327D02*
X40Y2325D01*
X2184Y2325D01*
X2184Y2327D01*
X40Y2327D01*
G37*
D02*
G36*
X40Y2325D02*
X40Y2301D01*
X686Y2301D01*
X686Y2299D01*
X692Y2299D01*
X692Y2297D01*
X696Y2297D01*
X696Y2295D01*
X700Y2295D01*
X700Y2293D01*
X782Y2293D01*
X782Y2291D01*
X786Y2291D01*
X786Y2289D01*
X790Y2289D01*
X790Y2287D01*
X792Y2287D01*
X792Y2285D01*
X796Y2285D01*
X796Y2283D01*
X798Y2283D01*
X798Y2279D01*
X800Y2279D01*
X800Y2277D01*
X802Y2277D01*
X802Y2275D01*
X810Y2275D01*
X810Y2273D01*
X820Y2273D01*
X820Y2271D01*
X828Y2271D01*
X828Y2269D01*
X838Y2269D01*
X838Y2267D01*
X846Y2267D01*
X846Y2265D01*
X856Y2265D01*
X856Y2263D01*
X866Y2263D01*
X866Y2261D01*
X874Y2261D01*
X874Y2259D01*
X884Y2259D01*
X884Y2257D01*
X892Y2257D01*
X892Y2255D01*
X902Y2255D01*
X902Y2253D01*
X912Y2253D01*
X912Y2251D01*
X920Y2251D01*
X920Y2249D01*
X930Y2249D01*
X930Y2247D01*
X938Y2247D01*
X938Y2245D01*
X948Y2245D01*
X948Y2243D01*
X956Y2243D01*
X956Y2241D01*
X966Y2241D01*
X966Y2239D01*
X976Y2239D01*
X976Y2237D01*
X984Y2237D01*
X984Y2235D01*
X994Y2235D01*
X994Y2233D01*
X1002Y2233D01*
X1002Y2231D01*
X1012Y2231D01*
X1012Y2229D01*
X1022Y2229D01*
X1022Y2227D01*
X1030Y2227D01*
X1030Y2225D01*
X1040Y2225D01*
X1040Y2223D01*
X1048Y2223D01*
X1048Y2221D01*
X1058Y2221D01*
X1058Y2219D01*
X1068Y2219D01*
X1068Y2217D01*
X1076Y2217D01*
X1076Y2215D01*
X1086Y2215D01*
X1086Y2213D01*
X1094Y2213D01*
X1094Y2211D01*
X1104Y2211D01*
X1104Y2209D01*
X1112Y2209D01*
X1112Y2207D01*
X1122Y2207D01*
X1122Y2205D01*
X1132Y2205D01*
X1132Y2203D01*
X1140Y2203D01*
X1140Y2201D01*
X1150Y2201D01*
X1150Y2199D01*
X1158Y2199D01*
X1158Y2197D01*
X1168Y2197D01*
X1168Y2195D01*
X1178Y2195D01*
X1178Y2193D01*
X1186Y2193D01*
X1186Y2191D01*
X1196Y2191D01*
X1196Y2189D01*
X1204Y2189D01*
X1204Y2187D01*
X1214Y2187D01*
X1214Y2185D01*
X1224Y2185D01*
X1224Y2183D01*
X1232Y2183D01*
X1232Y2181D01*
X1242Y2181D01*
X1242Y2179D01*
X1250Y2179D01*
X1250Y2177D01*
X1260Y2177D01*
X1260Y2175D01*
X1268Y2175D01*
X1268Y2173D01*
X1278Y2173D01*
X1278Y2171D01*
X1288Y2171D01*
X1288Y2169D01*
X1296Y2169D01*
X1296Y2167D01*
X1306Y2167D01*
X1306Y2165D01*
X1314Y2165D01*
X1314Y2163D01*
X1324Y2163D01*
X1324Y2161D01*
X1334Y2161D01*
X1334Y2159D01*
X1342Y2159D01*
X1342Y2157D01*
X1352Y2157D01*
X1352Y2155D01*
X1360Y2155D01*
X1360Y2153D01*
X1370Y2153D01*
X1370Y2151D01*
X1380Y2151D01*
X1380Y2149D01*
X1388Y2149D01*
X1388Y2147D01*
X1398Y2147D01*
X1398Y2145D01*
X1406Y2145D01*
X1406Y2143D01*
X1416Y2143D01*
X1416Y2141D01*
X1424Y2141D01*
X1424Y2139D01*
X1434Y2139D01*
X1434Y2137D01*
X1444Y2137D01*
X1444Y2135D01*
X1452Y2135D01*
X1452Y2133D01*
X1462Y2133D01*
X1462Y2131D01*
X1470Y2131D01*
X1470Y2129D01*
X1480Y2129D01*
X1480Y2127D01*
X1490Y2127D01*
X1490Y2125D01*
X1498Y2125D01*
X1498Y2123D01*
X1508Y2123D01*
X1508Y2121D01*
X1516Y2121D01*
X1516Y2119D01*
X1526Y2119D01*
X1526Y2117D01*
X1536Y2117D01*
X1536Y2115D01*
X1544Y2115D01*
X1544Y2113D01*
X1554Y2113D01*
X1554Y2111D01*
X1562Y2111D01*
X1562Y2109D01*
X1572Y2109D01*
X1572Y2107D01*
X1580Y2107D01*
X1580Y2105D01*
X1590Y2105D01*
X1590Y2103D01*
X1600Y2103D01*
X1600Y2101D01*
X1608Y2101D01*
X1608Y2099D01*
X1618Y2099D01*
X1618Y2097D01*
X1626Y2097D01*
X1626Y2095D01*
X1636Y2095D01*
X1636Y2093D01*
X1646Y2093D01*
X1646Y2091D01*
X1654Y2091D01*
X1654Y2089D01*
X1664Y2089D01*
X1664Y2087D01*
X1672Y2087D01*
X1672Y2085D01*
X1682Y2085D01*
X1682Y2083D01*
X1692Y2083D01*
X1692Y2081D01*
X1700Y2081D01*
X1700Y2079D01*
X1710Y2079D01*
X1710Y2077D01*
X1718Y2077D01*
X1718Y2075D01*
X1728Y2075D01*
X1728Y2073D01*
X1736Y2073D01*
X1736Y2071D01*
X1746Y2071D01*
X1746Y2069D01*
X1756Y2069D01*
X1756Y2067D01*
X1764Y2067D01*
X1764Y2065D01*
X1774Y2065D01*
X1774Y2063D01*
X1782Y2063D01*
X1782Y2061D01*
X1792Y2061D01*
X1792Y2059D01*
X1802Y2059D01*
X1802Y2057D01*
X1810Y2057D01*
X1810Y2055D01*
X1820Y2055D01*
X1820Y2053D01*
X1828Y2053D01*
X1828Y2051D01*
X1838Y2051D01*
X1838Y2049D01*
X1848Y2049D01*
X1848Y2047D01*
X1856Y2047D01*
X1856Y2045D01*
X1866Y2045D01*
X1866Y2043D01*
X1874Y2043D01*
X1874Y2041D01*
X1884Y2041D01*
X1884Y2039D01*
X1892Y2039D01*
X1892Y2037D01*
X1902Y2037D01*
X1902Y2035D01*
X1912Y2035D01*
X1912Y2033D01*
X1920Y2033D01*
X1920Y2031D01*
X1930Y2031D01*
X1930Y2029D01*
X1938Y2029D01*
X1938Y2027D01*
X1948Y2027D01*
X1948Y2025D01*
X1958Y2025D01*
X1958Y2023D01*
X1966Y2023D01*
X1966Y2021D01*
X1976Y2021D01*
X1976Y2019D01*
X1984Y2019D01*
X1984Y2017D01*
X1994Y2017D01*
X1994Y2015D01*
X2004Y2015D01*
X2004Y2013D01*
X2012Y2013D01*
X2012Y2011D01*
X2022Y2011D01*
X2022Y2009D01*
X2030Y2009D01*
X2030Y2007D01*
X2034Y2007D01*
X2034Y2005D01*
X2036Y2005D01*
X2036Y2003D01*
X2038Y2003D01*
X2038Y2001D01*
X2040Y2001D01*
X2040Y1997D01*
X2042Y1997D01*
X2042Y1985D01*
X2044Y1985D01*
X2044Y1973D01*
X2110Y1973D01*
X2110Y1971D01*
X2114Y1971D01*
X2114Y1969D01*
X2118Y1969D01*
X2118Y1967D01*
X2120Y1967D01*
X2120Y1965D01*
X2124Y1965D01*
X2124Y1963D01*
X2126Y1963D01*
X2126Y1959D01*
X2128Y1959D01*
X2128Y1957D01*
X2130Y1957D01*
X2130Y1953D01*
X2132Y1953D01*
X2132Y1947D01*
X2134Y1947D01*
X2134Y1939D01*
X2132Y1939D01*
X2132Y1933D01*
X2130Y1933D01*
X2130Y1929D01*
X2128Y1929D01*
X2128Y1927D01*
X2126Y1927D01*
X2126Y1923D01*
X2124Y1923D01*
X2124Y1921D01*
X2120Y1921D01*
X2120Y1919D01*
X2118Y1919D01*
X2118Y1917D01*
X2114Y1917D01*
X2114Y1915D01*
X2108Y1915D01*
X2108Y1913D01*
X2184Y1913D01*
X2184Y2325D01*
X40Y2325D01*
G37*
D02*
G36*
X40Y2301D02*
X40Y2271D01*
X204Y2271D01*
X204Y2269D01*
X210Y2269D01*
X210Y2267D01*
X214Y2267D01*
X214Y2265D01*
X216Y2265D01*
X216Y2263D01*
X220Y2263D01*
X220Y2261D01*
X222Y2261D01*
X222Y2259D01*
X224Y2259D01*
X224Y2257D01*
X226Y2257D01*
X226Y2255D01*
X228Y2255D01*
X228Y2253D01*
X230Y2253D01*
X230Y2249D01*
X232Y2249D01*
X232Y2247D01*
X234Y2247D01*
X234Y2245D01*
X462Y2245D01*
X462Y2243D01*
X466Y2243D01*
X466Y2241D01*
X470Y2241D01*
X470Y2239D01*
X472Y2239D01*
X472Y2237D01*
X476Y2237D01*
X476Y2235D01*
X478Y2235D01*
X478Y2231D01*
X480Y2231D01*
X480Y2229D01*
X482Y2229D01*
X482Y2225D01*
X484Y2225D01*
X484Y2219D01*
X486Y2219D01*
X486Y2211D01*
X484Y2211D01*
X484Y2205D01*
X482Y2205D01*
X482Y2201D01*
X480Y2201D01*
X480Y2199D01*
X478Y2199D01*
X478Y2195D01*
X476Y2195D01*
X476Y2193D01*
X472Y2193D01*
X472Y2191D01*
X470Y2191D01*
X470Y2189D01*
X466Y2189D01*
X466Y2187D01*
X460Y2187D01*
X460Y2185D01*
X496Y2185D01*
X496Y2189D01*
X498Y2189D01*
X498Y2195D01*
X500Y2195D01*
X500Y2199D01*
X502Y2199D01*
X502Y2205D01*
X504Y2205D01*
X504Y2209D01*
X506Y2209D01*
X506Y2211D01*
X508Y2211D01*
X508Y2213D01*
X510Y2213D01*
X510Y2215D01*
X512Y2215D01*
X512Y2217D01*
X514Y2217D01*
X514Y2219D01*
X516Y2219D01*
X516Y2221D01*
X518Y2221D01*
X518Y2223D01*
X520Y2223D01*
X520Y2225D01*
X522Y2225D01*
X522Y2227D01*
X524Y2227D01*
X524Y2229D01*
X526Y2229D01*
X526Y2231D01*
X530Y2231D01*
X530Y2233D01*
X540Y2233D01*
X540Y2259D01*
X538Y2259D01*
X538Y2265D01*
X540Y2265D01*
X540Y2273D01*
X542Y2273D01*
X542Y2277D01*
X544Y2277D01*
X544Y2281D01*
X546Y2281D01*
X546Y2283D01*
X548Y2283D01*
X548Y2287D01*
X550Y2287D01*
X550Y2289D01*
X552Y2289D01*
X552Y2291D01*
X554Y2291D01*
X554Y2293D01*
X558Y2293D01*
X558Y2295D01*
X560Y2295D01*
X560Y2297D01*
X564Y2297D01*
X564Y2299D01*
X570Y2299D01*
X570Y2301D01*
X40Y2301D01*
G37*
D02*
G36*
X586Y2301D02*
X586Y2299D01*
X592Y2299D01*
X592Y2297D01*
X596Y2297D01*
X596Y2295D01*
X600Y2295D01*
X600Y2293D01*
X602Y2293D01*
X602Y2291D01*
X604Y2291D01*
X604Y2289D01*
X606Y2289D01*
X606Y2287D01*
X608Y2287D01*
X608Y2285D01*
X610Y2285D01*
X610Y2283D01*
X612Y2283D01*
X612Y2279D01*
X614Y2279D01*
X614Y2275D01*
X616Y2275D01*
X616Y2269D01*
X618Y2269D01*
X618Y2253D01*
X616Y2253D01*
X616Y2233D01*
X640Y2233D01*
X640Y2259D01*
X638Y2259D01*
X638Y2265D01*
X640Y2265D01*
X640Y2273D01*
X642Y2273D01*
X642Y2277D01*
X644Y2277D01*
X644Y2281D01*
X646Y2281D01*
X646Y2283D01*
X648Y2283D01*
X648Y2287D01*
X650Y2287D01*
X650Y2289D01*
X652Y2289D01*
X652Y2291D01*
X654Y2291D01*
X654Y2293D01*
X658Y2293D01*
X658Y2295D01*
X660Y2295D01*
X660Y2297D01*
X664Y2297D01*
X664Y2299D01*
X670Y2299D01*
X670Y2301D01*
X586Y2301D01*
G37*
D02*
G36*
X702Y2293D02*
X702Y2291D01*
X704Y2291D01*
X704Y2289D01*
X706Y2289D01*
X706Y2287D01*
X708Y2287D01*
X708Y2285D01*
X710Y2285D01*
X710Y2283D01*
X712Y2283D01*
X712Y2279D01*
X714Y2279D01*
X714Y2275D01*
X716Y2275D01*
X716Y2269D01*
X718Y2269D01*
X718Y2253D01*
X716Y2253D01*
X716Y2233D01*
X718Y2233D01*
X718Y2231D01*
X726Y2231D01*
X726Y2229D01*
X734Y2229D01*
X734Y2227D01*
X756Y2227D01*
X756Y2243D01*
X754Y2243D01*
X754Y2247D01*
X752Y2247D01*
X752Y2249D01*
X750Y2249D01*
X750Y2253D01*
X748Y2253D01*
X748Y2257D01*
X746Y2257D01*
X746Y2269D01*
X748Y2269D01*
X748Y2273D01*
X750Y2273D01*
X750Y2277D01*
X752Y2277D01*
X752Y2279D01*
X754Y2279D01*
X754Y2283D01*
X756Y2283D01*
X756Y2285D01*
X760Y2285D01*
X760Y2287D01*
X762Y2287D01*
X762Y2289D01*
X766Y2289D01*
X766Y2291D01*
X770Y2291D01*
X770Y2293D01*
X702Y2293D01*
G37*
D02*
G36*
X40Y2271D02*
X40Y2255D01*
X60Y2255D01*
X60Y2257D01*
X62Y2257D01*
X62Y2259D01*
X64Y2259D01*
X64Y2261D01*
X66Y2261D01*
X66Y2263D01*
X70Y2263D01*
X70Y2265D01*
X72Y2265D01*
X72Y2267D01*
X76Y2267D01*
X76Y2269D01*
X82Y2269D01*
X82Y2271D01*
X40Y2271D01*
G37*
D02*
G36*
X104Y2271D02*
X104Y2269D01*
X110Y2269D01*
X110Y2267D01*
X114Y2267D01*
X114Y2265D01*
X116Y2265D01*
X116Y2263D01*
X120Y2263D01*
X120Y2261D01*
X122Y2261D01*
X122Y2259D01*
X124Y2259D01*
X124Y2257D01*
X126Y2257D01*
X126Y2255D01*
X128Y2255D01*
X128Y2253D01*
X130Y2253D01*
X130Y2249D01*
X132Y2249D01*
X132Y2247D01*
X154Y2247D01*
X154Y2249D01*
X156Y2249D01*
X156Y2253D01*
X158Y2253D01*
X158Y2255D01*
X160Y2255D01*
X160Y2257D01*
X162Y2257D01*
X162Y2259D01*
X164Y2259D01*
X164Y2261D01*
X166Y2261D01*
X166Y2263D01*
X170Y2263D01*
X170Y2265D01*
X172Y2265D01*
X172Y2267D01*
X176Y2267D01*
X176Y2269D01*
X182Y2269D01*
X182Y2271D01*
X104Y2271D01*
G37*
D02*
G36*
X234Y2245D02*
X234Y2243D01*
X236Y2243D01*
X236Y2237D01*
X238Y2237D01*
X238Y2215D01*
X236Y2215D01*
X236Y2209D01*
X234Y2209D01*
X234Y2205D01*
X232Y2205D01*
X232Y2203D01*
X230Y2203D01*
X230Y2199D01*
X228Y2199D01*
X228Y2197D01*
X226Y2197D01*
X226Y2195D01*
X224Y2195D01*
X224Y2193D01*
X222Y2193D01*
X222Y2191D01*
X220Y2191D01*
X220Y2189D01*
X216Y2189D01*
X216Y2187D01*
X214Y2187D01*
X214Y2185D01*
X452Y2185D01*
X452Y2187D01*
X446Y2187D01*
X446Y2189D01*
X442Y2189D01*
X442Y2191D01*
X440Y2191D01*
X440Y2193D01*
X436Y2193D01*
X436Y2195D01*
X434Y2195D01*
X434Y2199D01*
X432Y2199D01*
X432Y2201D01*
X430Y2201D01*
X430Y2205D01*
X428Y2205D01*
X428Y2209D01*
X426Y2209D01*
X426Y2221D01*
X428Y2221D01*
X428Y2225D01*
X430Y2225D01*
X430Y2229D01*
X432Y2229D01*
X432Y2231D01*
X434Y2231D01*
X434Y2235D01*
X436Y2235D01*
X436Y2237D01*
X440Y2237D01*
X440Y2239D01*
X442Y2239D01*
X442Y2241D01*
X446Y2241D01*
X446Y2243D01*
X450Y2243D01*
X450Y2245D01*
X234Y2245D01*
G37*
D02*
G36*
X214Y2185D02*
X214Y2183D01*
X496Y2183D01*
X496Y2185D01*
X214Y2185D01*
G37*
D02*
G36*
X214Y2185D02*
X214Y2183D01*
X496Y2183D01*
X496Y2185D01*
X214Y2185D01*
G37*
D02*
G36*
X214Y2183D02*
X214Y2165D01*
X216Y2165D01*
X216Y2163D01*
X220Y2163D01*
X220Y2161D01*
X222Y2161D01*
X222Y2159D01*
X224Y2159D01*
X224Y2157D01*
X226Y2157D01*
X226Y2155D01*
X228Y2155D01*
X228Y2153D01*
X230Y2153D01*
X230Y2149D01*
X232Y2149D01*
X232Y2147D01*
X234Y2147D01*
X234Y2143D01*
X236Y2143D01*
X236Y2137D01*
X238Y2137D01*
X238Y2129D01*
X244Y2129D01*
X244Y2127D01*
X250Y2127D01*
X250Y2125D01*
X256Y2125D01*
X256Y2123D01*
X262Y2123D01*
X262Y2121D01*
X270Y2121D01*
X270Y2119D01*
X276Y2119D01*
X276Y2117D01*
X318Y2117D01*
X318Y2115D01*
X322Y2115D01*
X322Y2113D01*
X326Y2113D01*
X326Y2111D01*
X328Y2111D01*
X328Y2109D01*
X332Y2109D01*
X332Y2107D01*
X334Y2107D01*
X334Y2103D01*
X336Y2103D01*
X336Y2101D01*
X338Y2101D01*
X338Y2097D01*
X340Y2097D01*
X340Y2091D01*
X342Y2091D01*
X342Y2083D01*
X340Y2083D01*
X340Y2077D01*
X338Y2077D01*
X338Y2073D01*
X336Y2073D01*
X336Y2071D01*
X334Y2071D01*
X334Y2067D01*
X332Y2067D01*
X332Y2065D01*
X328Y2065D01*
X328Y2063D01*
X326Y2063D01*
X326Y2061D01*
X322Y2061D01*
X322Y2059D01*
X316Y2059D01*
X316Y2039D01*
X348Y2039D01*
X348Y2037D01*
X400Y2037D01*
X400Y2035D01*
X440Y2035D01*
X440Y2037D01*
X442Y2037D01*
X442Y2043D01*
X444Y2043D01*
X444Y2049D01*
X446Y2049D01*
X446Y2053D01*
X448Y2053D01*
X448Y2059D01*
X450Y2059D01*
X450Y2065D01*
X452Y2065D01*
X452Y2071D01*
X454Y2071D01*
X454Y2075D01*
X456Y2075D01*
X456Y2081D01*
X458Y2081D01*
X458Y2087D01*
X460Y2087D01*
X460Y2091D01*
X462Y2091D01*
X462Y2097D01*
X464Y2097D01*
X464Y2103D01*
X466Y2103D01*
X466Y2107D01*
X468Y2107D01*
X468Y2113D01*
X470Y2113D01*
X470Y2119D01*
X472Y2119D01*
X472Y2125D01*
X474Y2125D01*
X474Y2129D01*
X476Y2129D01*
X476Y2135D01*
X478Y2135D01*
X478Y2141D01*
X480Y2141D01*
X480Y2145D01*
X482Y2145D01*
X482Y2151D01*
X484Y2151D01*
X484Y2157D01*
X486Y2157D01*
X486Y2161D01*
X488Y2161D01*
X488Y2167D01*
X490Y2167D01*
X490Y2173D01*
X492Y2173D01*
X492Y2179D01*
X494Y2179D01*
X494Y2183D01*
X214Y2183D01*
G37*
D02*
G36*
X282Y2117D02*
X282Y2115D01*
X306Y2115D01*
X306Y2117D01*
X282Y2117D01*
G37*
D02*
G36*
X2044Y1973D02*
X2044Y1969D01*
X2046Y1969D01*
X2046Y1953D01*
X2048Y1953D01*
X2048Y1939D01*
X2050Y1939D01*
X2050Y1923D01*
X2052Y1923D01*
X2052Y1913D01*
X2100Y1913D01*
X2100Y1915D01*
X2094Y1915D01*
X2094Y1917D01*
X2090Y1917D01*
X2090Y1919D01*
X2088Y1919D01*
X2088Y1921D01*
X2084Y1921D01*
X2084Y1923D01*
X2082Y1923D01*
X2082Y1927D01*
X2080Y1927D01*
X2080Y1929D01*
X2078Y1929D01*
X2078Y1933D01*
X2076Y1933D01*
X2076Y1937D01*
X2074Y1937D01*
X2074Y1949D01*
X2076Y1949D01*
X2076Y1953D01*
X2078Y1953D01*
X2078Y1957D01*
X2080Y1957D01*
X2080Y1959D01*
X2082Y1959D01*
X2082Y1963D01*
X2084Y1963D01*
X2084Y1965D01*
X2088Y1965D01*
X2088Y1967D01*
X2090Y1967D01*
X2090Y1969D01*
X2094Y1969D01*
X2094Y1971D01*
X2098Y1971D01*
X2098Y1973D01*
X2044Y1973D01*
G37*
D02*
G36*
X2052Y1913D02*
X2052Y1911D01*
X2184Y1911D01*
X2184Y1913D01*
X2052Y1913D01*
G37*
D02*
G36*
X2052Y1913D02*
X2052Y1911D01*
X2184Y1911D01*
X2184Y1913D01*
X2052Y1913D01*
G37*
D02*
G36*
X2052Y1911D02*
X2052Y1907D01*
X2054Y1907D01*
X2054Y1893D01*
X2056Y1893D01*
X2056Y1877D01*
X2058Y1877D01*
X2058Y1861D01*
X2060Y1861D01*
X2060Y1847D01*
X2062Y1847D01*
X2062Y1831D01*
X2064Y1831D01*
X2064Y1815D01*
X2066Y1815D01*
X2066Y1801D01*
X2068Y1801D01*
X2068Y1785D01*
X2070Y1785D01*
X2070Y1769D01*
X2072Y1769D01*
X2072Y1755D01*
X2074Y1755D01*
X2074Y1739D01*
X2076Y1739D01*
X2076Y1723D01*
X2078Y1723D01*
X2078Y1709D01*
X2080Y1709D01*
X2080Y1693D01*
X2082Y1693D01*
X2082Y1677D01*
X2084Y1677D01*
X2084Y1663D01*
X2086Y1663D01*
X2086Y1647D01*
X2088Y1647D01*
X2088Y1631D01*
X2090Y1631D01*
X2090Y1361D01*
X2088Y1361D01*
X2088Y1357D01*
X2086Y1357D01*
X2086Y1355D01*
X2084Y1355D01*
X2084Y1353D01*
X2082Y1353D01*
X2082Y1351D01*
X2078Y1351D01*
X2078Y1349D01*
X2074Y1349D01*
X2074Y1347D01*
X2070Y1347D01*
X2070Y1345D01*
X2066Y1345D01*
X2066Y1343D01*
X2062Y1343D01*
X2062Y1341D01*
X2058Y1341D01*
X2058Y1121D01*
X2056Y1121D01*
X2056Y1117D01*
X2054Y1117D01*
X2054Y1115D01*
X2052Y1115D01*
X2052Y1113D01*
X2050Y1113D01*
X2050Y1111D01*
X2046Y1111D01*
X2046Y1109D01*
X2026Y1109D01*
X2026Y1041D01*
X2024Y1041D01*
X2024Y1037D01*
X2022Y1037D01*
X2022Y1035D01*
X2020Y1035D01*
X2020Y1033D01*
X2018Y1033D01*
X2018Y1031D01*
X2014Y1031D01*
X2014Y1029D01*
X2012Y1029D01*
X2012Y1027D01*
X2008Y1027D01*
X2008Y1025D01*
X2006Y1025D01*
X2006Y1023D01*
X2002Y1023D01*
X2002Y1021D01*
X2000Y1021D01*
X2000Y1011D01*
X1998Y1011D01*
X1998Y999D01*
X1996Y999D01*
X1996Y987D01*
X1994Y987D01*
X1994Y975D01*
X1992Y975D01*
X1992Y963D01*
X1990Y963D01*
X1990Y951D01*
X1988Y951D01*
X1988Y939D01*
X1986Y939D01*
X1986Y929D01*
X1984Y929D01*
X1984Y925D01*
X1982Y925D01*
X1982Y923D01*
X1980Y923D01*
X1980Y921D01*
X1978Y921D01*
X1978Y919D01*
X1976Y919D01*
X1976Y917D01*
X1974Y917D01*
X1974Y915D01*
X1972Y915D01*
X1972Y913D01*
X1970Y913D01*
X1970Y911D01*
X1968Y911D01*
X1968Y909D01*
X1966Y909D01*
X1966Y907D01*
X1964Y907D01*
X1964Y905D01*
X1962Y905D01*
X1962Y903D01*
X1960Y903D01*
X1960Y901D01*
X1958Y901D01*
X1958Y899D01*
X1956Y899D01*
X1956Y897D01*
X1954Y897D01*
X1954Y895D01*
X1950Y895D01*
X1950Y893D01*
X2184Y893D01*
X2184Y1911D01*
X2052Y1911D01*
G37*
D02*
G36*
X234Y1907D02*
X234Y1905D01*
X232Y1905D01*
X232Y1903D01*
X230Y1903D01*
X230Y1899D01*
X228Y1899D01*
X228Y1897D01*
X226Y1897D01*
X226Y1895D01*
X224Y1895D01*
X224Y1893D01*
X222Y1893D01*
X222Y1891D01*
X220Y1891D01*
X220Y1889D01*
X216Y1889D01*
X216Y1887D01*
X214Y1887D01*
X214Y1865D01*
X216Y1865D01*
X216Y1863D01*
X220Y1863D01*
X220Y1861D01*
X222Y1861D01*
X222Y1859D01*
X224Y1859D01*
X224Y1857D01*
X226Y1857D01*
X226Y1855D01*
X228Y1855D01*
X228Y1853D01*
X230Y1853D01*
X230Y1849D01*
X232Y1849D01*
X232Y1847D01*
X234Y1847D01*
X234Y1845D01*
X494Y1845D01*
X494Y1843D01*
X498Y1843D01*
X498Y1841D01*
X502Y1841D01*
X502Y1839D01*
X504Y1839D01*
X504Y1837D01*
X508Y1837D01*
X508Y1835D01*
X510Y1835D01*
X510Y1833D01*
X540Y1833D01*
X540Y1859D01*
X538Y1859D01*
X538Y1865D01*
X540Y1865D01*
X540Y1873D01*
X542Y1873D01*
X542Y1877D01*
X544Y1877D01*
X544Y1899D01*
X488Y1899D01*
X488Y1901D01*
X414Y1901D01*
X414Y1903D01*
X340Y1903D01*
X340Y1905D01*
X266Y1905D01*
X266Y1907D01*
X234Y1907D01*
G37*
D02*
G36*
X1998Y1893D02*
X1998Y1891D01*
X1994Y1891D01*
X1994Y1889D01*
X1988Y1889D01*
X1988Y1887D01*
X1962Y1887D01*
X1962Y1885D01*
X1960Y1885D01*
X1960Y1883D01*
X1958Y1883D01*
X1958Y1881D01*
X1956Y1881D01*
X1956Y1879D01*
X1954Y1879D01*
X1954Y1877D01*
X1952Y1877D01*
X1952Y1875D01*
X1950Y1875D01*
X1950Y1873D01*
X1948Y1873D01*
X1948Y1871D01*
X1944Y1871D01*
X1944Y1869D01*
X1942Y1869D01*
X1942Y1867D01*
X1988Y1867D01*
X1988Y1865D01*
X1994Y1865D01*
X1994Y1863D01*
X1998Y1863D01*
X1998Y1861D01*
X2002Y1861D01*
X2002Y1859D01*
X2004Y1859D01*
X2004Y1857D01*
X2024Y1857D01*
X2024Y1859D01*
X2022Y1859D01*
X2022Y1875D01*
X2020Y1875D01*
X2020Y1889D01*
X2018Y1889D01*
X2018Y1893D01*
X1998Y1893D01*
G37*
D02*
G36*
X1940Y1867D02*
X1940Y1865D01*
X1938Y1865D01*
X1938Y1863D01*
X1934Y1863D01*
X1934Y1861D01*
X1918Y1861D01*
X1918Y1839D01*
X1920Y1839D01*
X1920Y1833D01*
X1922Y1833D01*
X1922Y1821D01*
X1920Y1821D01*
X1920Y1815D01*
X1918Y1815D01*
X1918Y1811D01*
X1916Y1811D01*
X1916Y1807D01*
X1914Y1807D01*
X1914Y1805D01*
X1912Y1805D01*
X1912Y1803D01*
X1910Y1803D01*
X1910Y1799D01*
X1906Y1799D01*
X1906Y1797D01*
X1904Y1797D01*
X1904Y1795D01*
X1902Y1795D01*
X1902Y1793D01*
X1898Y1793D01*
X1898Y1791D01*
X1894Y1791D01*
X1894Y1789D01*
X1888Y1789D01*
X1888Y1787D01*
X1976Y1787D01*
X1976Y1789D01*
X1970Y1789D01*
X1970Y1791D01*
X1966Y1791D01*
X1966Y1793D01*
X1962Y1793D01*
X1962Y1795D01*
X1960Y1795D01*
X1960Y1797D01*
X1956Y1797D01*
X1956Y1799D01*
X1954Y1799D01*
X1954Y1801D01*
X1952Y1801D01*
X1952Y1803D01*
X1950Y1803D01*
X1950Y1807D01*
X1948Y1807D01*
X1948Y1809D01*
X1946Y1809D01*
X1946Y1813D01*
X1944Y1813D01*
X1944Y1819D01*
X1942Y1819D01*
X1942Y1835D01*
X1944Y1835D01*
X1944Y1841D01*
X1946Y1841D01*
X1946Y1845D01*
X1948Y1845D01*
X1948Y1847D01*
X1950Y1847D01*
X1950Y1851D01*
X1952Y1851D01*
X1952Y1853D01*
X1954Y1853D01*
X1954Y1855D01*
X1956Y1855D01*
X1956Y1857D01*
X1958Y1857D01*
X1958Y1859D01*
X1962Y1859D01*
X1962Y1861D01*
X1964Y1861D01*
X1964Y1863D01*
X1968Y1863D01*
X1968Y1865D01*
X1974Y1865D01*
X1974Y1867D01*
X1940Y1867D01*
G37*
D02*
G36*
X234Y1845D02*
X234Y1843D01*
X236Y1843D01*
X236Y1837D01*
X238Y1837D01*
X238Y1831D01*
X242Y1831D01*
X242Y1829D01*
X248Y1829D01*
X248Y1827D01*
X254Y1827D01*
X254Y1825D01*
X260Y1825D01*
X260Y1823D01*
X266Y1823D01*
X266Y1821D01*
X274Y1821D01*
X274Y1819D01*
X280Y1819D01*
X280Y1817D01*
X286Y1817D01*
X286Y1815D01*
X292Y1815D01*
X292Y1813D01*
X300Y1813D01*
X300Y1811D01*
X306Y1811D01*
X306Y1809D01*
X312Y1809D01*
X312Y1807D01*
X318Y1807D01*
X318Y1805D01*
X326Y1805D01*
X326Y1803D01*
X332Y1803D01*
X332Y1801D01*
X338Y1801D01*
X338Y1799D01*
X344Y1799D01*
X344Y1797D01*
X352Y1797D01*
X352Y1795D01*
X358Y1795D01*
X358Y1793D01*
X364Y1793D01*
X364Y1791D01*
X370Y1791D01*
X370Y1789D01*
X378Y1789D01*
X378Y1787D01*
X384Y1787D01*
X384Y1785D01*
X484Y1785D01*
X484Y1787D01*
X478Y1787D01*
X478Y1789D01*
X474Y1789D01*
X474Y1791D01*
X472Y1791D01*
X472Y1793D01*
X468Y1793D01*
X468Y1795D01*
X466Y1795D01*
X466Y1799D01*
X464Y1799D01*
X464Y1801D01*
X462Y1801D01*
X462Y1805D01*
X460Y1805D01*
X460Y1809D01*
X458Y1809D01*
X458Y1821D01*
X460Y1821D01*
X460Y1825D01*
X462Y1825D01*
X462Y1829D01*
X464Y1829D01*
X464Y1831D01*
X466Y1831D01*
X466Y1835D01*
X468Y1835D01*
X468Y1837D01*
X472Y1837D01*
X472Y1839D01*
X474Y1839D01*
X474Y1841D01*
X478Y1841D01*
X478Y1843D01*
X482Y1843D01*
X482Y1845D01*
X234Y1845D01*
G37*
D02*
G36*
X1756Y1809D02*
X1756Y1807D01*
X1526Y1807D01*
X1526Y1805D01*
X1294Y1805D01*
X1294Y1803D01*
X1064Y1803D01*
X1064Y1801D01*
X834Y1801D01*
X834Y1799D01*
X712Y1799D01*
X712Y1787D01*
X1876Y1787D01*
X1876Y1789D01*
X1870Y1789D01*
X1870Y1791D01*
X1866Y1791D01*
X1866Y1793D01*
X1862Y1793D01*
X1862Y1795D01*
X1860Y1795D01*
X1860Y1797D01*
X1856Y1797D01*
X1856Y1799D01*
X1854Y1799D01*
X1854Y1801D01*
X1852Y1801D01*
X1852Y1803D01*
X1850Y1803D01*
X1850Y1807D01*
X1848Y1807D01*
X1848Y1809D01*
X1756Y1809D01*
G37*
D02*
G36*
X2010Y1803D02*
X2010Y1799D01*
X2006Y1799D01*
X2006Y1797D01*
X2004Y1797D01*
X2004Y1795D01*
X2002Y1795D01*
X2002Y1793D01*
X1998Y1793D01*
X1998Y1791D01*
X1994Y1791D01*
X1994Y1789D01*
X1988Y1789D01*
X1988Y1787D01*
X2032Y1787D01*
X2032Y1797D01*
X2030Y1797D01*
X2030Y1803D01*
X2010Y1803D01*
G37*
D02*
G36*
X612Y1799D02*
X612Y1779D01*
X614Y1779D01*
X614Y1775D01*
X616Y1775D01*
X616Y1769D01*
X618Y1769D01*
X618Y1753D01*
X616Y1753D01*
X616Y1747D01*
X614Y1747D01*
X614Y1745D01*
X612Y1745D01*
X612Y1741D01*
X610Y1741D01*
X610Y1739D01*
X608Y1739D01*
X608Y1735D01*
X606Y1735D01*
X606Y1733D01*
X604Y1733D01*
X604Y1731D01*
X600Y1731D01*
X600Y1729D01*
X598Y1729D01*
X598Y1727D01*
X594Y1727D01*
X594Y1725D01*
X590Y1725D01*
X590Y1723D01*
X580Y1723D01*
X580Y1721D01*
X676Y1721D01*
X676Y1723D01*
X668Y1723D01*
X668Y1725D01*
X662Y1725D01*
X662Y1727D01*
X660Y1727D01*
X660Y1729D01*
X656Y1729D01*
X656Y1731D01*
X654Y1731D01*
X654Y1733D01*
X652Y1733D01*
X652Y1735D01*
X650Y1735D01*
X650Y1737D01*
X648Y1737D01*
X648Y1739D01*
X646Y1739D01*
X646Y1743D01*
X644Y1743D01*
X644Y1745D01*
X642Y1745D01*
X642Y1751D01*
X640Y1751D01*
X640Y1759D01*
X638Y1759D01*
X638Y1765D01*
X640Y1765D01*
X640Y1773D01*
X642Y1773D01*
X642Y1777D01*
X644Y1777D01*
X644Y1799D01*
X612Y1799D01*
G37*
D02*
G36*
X510Y1797D02*
X510Y1795D01*
X508Y1795D01*
X508Y1793D01*
X504Y1793D01*
X504Y1791D01*
X502Y1791D01*
X502Y1789D01*
X498Y1789D01*
X498Y1787D01*
X492Y1787D01*
X492Y1785D01*
X544Y1785D01*
X544Y1797D01*
X510Y1797D01*
G37*
D02*
G36*
X222Y1793D02*
X222Y1791D01*
X220Y1791D01*
X220Y1789D01*
X216Y1789D01*
X216Y1787D01*
X214Y1787D01*
X214Y1765D01*
X216Y1765D01*
X216Y1763D01*
X220Y1763D01*
X220Y1761D01*
X222Y1761D01*
X222Y1759D01*
X224Y1759D01*
X224Y1757D01*
X226Y1757D01*
X226Y1755D01*
X228Y1755D01*
X228Y1753D01*
X230Y1753D01*
X230Y1749D01*
X232Y1749D01*
X232Y1747D01*
X234Y1747D01*
X234Y1743D01*
X236Y1743D01*
X236Y1737D01*
X238Y1737D01*
X238Y1719D01*
X240Y1719D01*
X240Y1717D01*
X244Y1717D01*
X244Y1715D01*
X248Y1715D01*
X248Y1713D01*
X250Y1713D01*
X250Y1711D01*
X254Y1711D01*
X254Y1709D01*
X258Y1709D01*
X258Y1707D01*
X260Y1707D01*
X260Y1705D01*
X484Y1705D01*
X484Y1707D01*
X478Y1707D01*
X478Y1709D01*
X474Y1709D01*
X474Y1711D01*
X472Y1711D01*
X472Y1713D01*
X468Y1713D01*
X468Y1715D01*
X466Y1715D01*
X466Y1719D01*
X464Y1719D01*
X464Y1721D01*
X462Y1721D01*
X462Y1725D01*
X456Y1725D01*
X456Y1727D01*
X450Y1727D01*
X450Y1729D01*
X444Y1729D01*
X444Y1731D01*
X436Y1731D01*
X436Y1733D01*
X430Y1733D01*
X430Y1735D01*
X424Y1735D01*
X424Y1737D01*
X418Y1737D01*
X418Y1739D01*
X410Y1739D01*
X410Y1741D01*
X404Y1741D01*
X404Y1743D01*
X398Y1743D01*
X398Y1745D01*
X392Y1745D01*
X392Y1747D01*
X384Y1747D01*
X384Y1749D01*
X378Y1749D01*
X378Y1751D01*
X372Y1751D01*
X372Y1753D01*
X366Y1753D01*
X366Y1755D01*
X358Y1755D01*
X358Y1757D01*
X352Y1757D01*
X352Y1759D01*
X346Y1759D01*
X346Y1761D01*
X340Y1761D01*
X340Y1763D01*
X332Y1763D01*
X332Y1765D01*
X326Y1765D01*
X326Y1767D01*
X320Y1767D01*
X320Y1769D01*
X314Y1769D01*
X314Y1771D01*
X306Y1771D01*
X306Y1773D01*
X300Y1773D01*
X300Y1775D01*
X294Y1775D01*
X294Y1777D01*
X288Y1777D01*
X288Y1779D01*
X280Y1779D01*
X280Y1781D01*
X274Y1781D01*
X274Y1783D01*
X268Y1783D01*
X268Y1785D01*
X262Y1785D01*
X262Y1787D01*
X256Y1787D01*
X256Y1789D01*
X248Y1789D01*
X248Y1791D01*
X242Y1791D01*
X242Y1793D01*
X222Y1793D01*
G37*
D02*
G36*
X712Y1787D02*
X712Y1785D01*
X2032Y1785D01*
X2032Y1787D01*
X712Y1787D01*
G37*
D02*
G36*
X712Y1787D02*
X712Y1785D01*
X2032Y1785D01*
X2032Y1787D01*
X712Y1787D01*
G37*
D02*
G36*
X712Y1787D02*
X712Y1785D01*
X2032Y1785D01*
X2032Y1787D01*
X712Y1787D01*
G37*
D02*
G36*
X390Y1785D02*
X390Y1783D01*
X544Y1783D01*
X544Y1785D01*
X390Y1785D01*
G37*
D02*
G36*
X390Y1785D02*
X390Y1783D01*
X544Y1783D01*
X544Y1785D01*
X390Y1785D01*
G37*
D02*
G36*
X712Y1785D02*
X712Y1779D01*
X714Y1779D01*
X714Y1775D01*
X716Y1775D01*
X716Y1769D01*
X718Y1769D01*
X718Y1767D01*
X1988Y1767D01*
X1988Y1765D01*
X1994Y1765D01*
X1994Y1763D01*
X1998Y1763D01*
X1998Y1761D01*
X2002Y1761D01*
X2002Y1759D01*
X2004Y1759D01*
X2004Y1757D01*
X2008Y1757D01*
X2008Y1755D01*
X2010Y1755D01*
X2010Y1753D01*
X2012Y1753D01*
X2012Y1749D01*
X2014Y1749D01*
X2014Y1747D01*
X2016Y1747D01*
X2016Y1743D01*
X2018Y1743D01*
X2018Y1739D01*
X2038Y1739D01*
X2038Y1751D01*
X2036Y1751D01*
X2036Y1767D01*
X2034Y1767D01*
X2034Y1783D01*
X2032Y1783D01*
X2032Y1785D01*
X712Y1785D01*
G37*
D02*
G36*
X396Y1783D02*
X396Y1781D01*
X404Y1781D01*
X404Y1779D01*
X410Y1779D01*
X410Y1777D01*
X416Y1777D01*
X416Y1775D01*
X422Y1775D01*
X422Y1773D01*
X430Y1773D01*
X430Y1771D01*
X436Y1771D01*
X436Y1769D01*
X442Y1769D01*
X442Y1767D01*
X448Y1767D01*
X448Y1765D01*
X494Y1765D01*
X494Y1763D01*
X498Y1763D01*
X498Y1761D01*
X502Y1761D01*
X502Y1759D01*
X504Y1759D01*
X504Y1757D01*
X508Y1757D01*
X508Y1755D01*
X510Y1755D01*
X510Y1751D01*
X512Y1751D01*
X512Y1749D01*
X514Y1749D01*
X514Y1745D01*
X516Y1745D01*
X516Y1739D01*
X518Y1739D01*
X518Y1731D01*
X516Y1731D01*
X516Y1725D01*
X514Y1725D01*
X514Y1721D01*
X576Y1721D01*
X576Y1723D01*
X568Y1723D01*
X568Y1725D01*
X562Y1725D01*
X562Y1727D01*
X560Y1727D01*
X560Y1729D01*
X556Y1729D01*
X556Y1731D01*
X554Y1731D01*
X554Y1733D01*
X552Y1733D01*
X552Y1735D01*
X550Y1735D01*
X550Y1737D01*
X548Y1737D01*
X548Y1739D01*
X546Y1739D01*
X546Y1743D01*
X544Y1743D01*
X544Y1745D01*
X542Y1745D01*
X542Y1751D01*
X540Y1751D01*
X540Y1759D01*
X538Y1759D01*
X538Y1765D01*
X540Y1765D01*
X540Y1773D01*
X542Y1773D01*
X542Y1777D01*
X544Y1777D01*
X544Y1783D01*
X396Y1783D01*
G37*
D02*
G36*
X718Y1767D02*
X718Y1753D01*
X716Y1753D01*
X716Y1747D01*
X714Y1747D01*
X714Y1745D01*
X712Y1745D01*
X712Y1741D01*
X710Y1741D01*
X710Y1739D01*
X708Y1739D01*
X708Y1735D01*
X706Y1735D01*
X706Y1733D01*
X704Y1733D01*
X704Y1731D01*
X700Y1731D01*
X700Y1729D01*
X698Y1729D01*
X698Y1727D01*
X694Y1727D01*
X694Y1725D01*
X690Y1725D01*
X690Y1723D01*
X680Y1723D01*
X680Y1721D01*
X1842Y1721D01*
X1842Y1735D01*
X1844Y1735D01*
X1844Y1741D01*
X1846Y1741D01*
X1846Y1745D01*
X1848Y1745D01*
X1848Y1747D01*
X1850Y1747D01*
X1850Y1751D01*
X1852Y1751D01*
X1852Y1753D01*
X1854Y1753D01*
X1854Y1755D01*
X1856Y1755D01*
X1856Y1757D01*
X1858Y1757D01*
X1858Y1759D01*
X1862Y1759D01*
X1862Y1761D01*
X1864Y1761D01*
X1864Y1763D01*
X1868Y1763D01*
X1868Y1765D01*
X1874Y1765D01*
X1874Y1767D01*
X718Y1767D01*
G37*
D02*
G36*
X1888Y1767D02*
X1888Y1765D01*
X1894Y1765D01*
X1894Y1763D01*
X1898Y1763D01*
X1898Y1761D01*
X1902Y1761D01*
X1902Y1759D01*
X1904Y1759D01*
X1904Y1757D01*
X1908Y1757D01*
X1908Y1755D01*
X1910Y1755D01*
X1910Y1753D01*
X1912Y1753D01*
X1912Y1749D01*
X1914Y1749D01*
X1914Y1747D01*
X1916Y1747D01*
X1916Y1743D01*
X1918Y1743D01*
X1918Y1739D01*
X1920Y1739D01*
X1920Y1733D01*
X1922Y1733D01*
X1922Y1725D01*
X1942Y1725D01*
X1942Y1735D01*
X1944Y1735D01*
X1944Y1741D01*
X1946Y1741D01*
X1946Y1745D01*
X1948Y1745D01*
X1948Y1747D01*
X1950Y1747D01*
X1950Y1751D01*
X1952Y1751D01*
X1952Y1753D01*
X1954Y1753D01*
X1954Y1755D01*
X1956Y1755D01*
X1956Y1757D01*
X1958Y1757D01*
X1958Y1759D01*
X1962Y1759D01*
X1962Y1761D01*
X1964Y1761D01*
X1964Y1763D01*
X1968Y1763D01*
X1968Y1765D01*
X1974Y1765D01*
X1974Y1767D01*
X1888Y1767D01*
G37*
D02*
G36*
X456Y1765D02*
X456Y1763D01*
X482Y1763D01*
X482Y1765D01*
X456Y1765D01*
G37*
D02*
G36*
X512Y1721D02*
X512Y1719D01*
X1842Y1719D01*
X1842Y1721D01*
X512Y1721D01*
G37*
D02*
G36*
X512Y1721D02*
X512Y1719D01*
X1842Y1719D01*
X1842Y1721D01*
X512Y1721D01*
G37*
D02*
G36*
X512Y1721D02*
X512Y1719D01*
X1842Y1719D01*
X1842Y1721D01*
X512Y1721D01*
G37*
D02*
G36*
X510Y1719D02*
X510Y1715D01*
X508Y1715D01*
X508Y1713D01*
X504Y1713D01*
X504Y1711D01*
X502Y1711D01*
X502Y1709D01*
X498Y1709D01*
X498Y1707D01*
X492Y1707D01*
X492Y1705D01*
X1850Y1705D01*
X1850Y1707D01*
X1848Y1707D01*
X1848Y1709D01*
X1846Y1709D01*
X1846Y1713D01*
X1844Y1713D01*
X1844Y1719D01*
X510Y1719D01*
G37*
D02*
G36*
X264Y1705D02*
X264Y1703D01*
X1850Y1703D01*
X1850Y1705D01*
X264Y1705D01*
G37*
D02*
G36*
X264Y1705D02*
X264Y1703D01*
X1850Y1703D01*
X1850Y1705D01*
X264Y1705D01*
G37*
D02*
G36*
X268Y1703D02*
X268Y1701D01*
X686Y1701D01*
X686Y1699D01*
X692Y1699D01*
X692Y1697D01*
X696Y1697D01*
X696Y1695D01*
X700Y1695D01*
X700Y1693D01*
X702Y1693D01*
X702Y1691D01*
X704Y1691D01*
X704Y1689D01*
X706Y1689D01*
X706Y1687D01*
X1876Y1687D01*
X1876Y1689D01*
X1870Y1689D01*
X1870Y1691D01*
X1866Y1691D01*
X1866Y1693D01*
X1862Y1693D01*
X1862Y1695D01*
X1860Y1695D01*
X1860Y1697D01*
X1856Y1697D01*
X1856Y1699D01*
X1854Y1699D01*
X1854Y1701D01*
X1852Y1701D01*
X1852Y1703D01*
X268Y1703D01*
G37*
D02*
G36*
X270Y1701D02*
X270Y1699D01*
X274Y1699D01*
X274Y1697D01*
X278Y1697D01*
X278Y1695D01*
X280Y1695D01*
X280Y1693D01*
X284Y1693D01*
X284Y1691D01*
X288Y1691D01*
X288Y1689D01*
X290Y1689D01*
X290Y1687D01*
X294Y1687D01*
X294Y1685D01*
X298Y1685D01*
X298Y1683D01*
X300Y1683D01*
X300Y1681D01*
X304Y1681D01*
X304Y1679D01*
X308Y1679D01*
X308Y1677D01*
X310Y1677D01*
X310Y1675D01*
X314Y1675D01*
X314Y1673D01*
X318Y1673D01*
X318Y1671D01*
X320Y1671D01*
X320Y1669D01*
X324Y1669D01*
X324Y1667D01*
X328Y1667D01*
X328Y1665D01*
X330Y1665D01*
X330Y1663D01*
X334Y1663D01*
X334Y1661D01*
X338Y1661D01*
X338Y1659D01*
X340Y1659D01*
X340Y1657D01*
X344Y1657D01*
X344Y1655D01*
X346Y1655D01*
X346Y1653D01*
X350Y1653D01*
X350Y1651D01*
X354Y1651D01*
X354Y1649D01*
X356Y1649D01*
X356Y1647D01*
X360Y1647D01*
X360Y1645D01*
X364Y1645D01*
X364Y1643D01*
X366Y1643D01*
X366Y1641D01*
X370Y1641D01*
X370Y1639D01*
X374Y1639D01*
X374Y1637D01*
X376Y1637D01*
X376Y1635D01*
X380Y1635D01*
X380Y1633D01*
X384Y1633D01*
X384Y1631D01*
X386Y1631D01*
X386Y1629D01*
X390Y1629D01*
X390Y1627D01*
X394Y1627D01*
X394Y1625D01*
X396Y1625D01*
X396Y1623D01*
X400Y1623D01*
X400Y1621D01*
X576Y1621D01*
X576Y1623D01*
X568Y1623D01*
X568Y1625D01*
X562Y1625D01*
X562Y1627D01*
X560Y1627D01*
X560Y1629D01*
X556Y1629D01*
X556Y1631D01*
X554Y1631D01*
X554Y1633D01*
X552Y1633D01*
X552Y1635D01*
X550Y1635D01*
X550Y1637D01*
X548Y1637D01*
X548Y1639D01*
X546Y1639D01*
X546Y1643D01*
X544Y1643D01*
X544Y1645D01*
X542Y1645D01*
X542Y1651D01*
X540Y1651D01*
X540Y1659D01*
X538Y1659D01*
X538Y1665D01*
X540Y1665D01*
X540Y1673D01*
X542Y1673D01*
X542Y1677D01*
X544Y1677D01*
X544Y1681D01*
X546Y1681D01*
X546Y1683D01*
X548Y1683D01*
X548Y1687D01*
X550Y1687D01*
X550Y1689D01*
X552Y1689D01*
X552Y1691D01*
X554Y1691D01*
X554Y1693D01*
X558Y1693D01*
X558Y1695D01*
X560Y1695D01*
X560Y1697D01*
X564Y1697D01*
X564Y1699D01*
X570Y1699D01*
X570Y1701D01*
X270Y1701D01*
G37*
D02*
G36*
X586Y1701D02*
X586Y1699D01*
X592Y1699D01*
X592Y1697D01*
X596Y1697D01*
X596Y1695D01*
X600Y1695D01*
X600Y1693D01*
X602Y1693D01*
X602Y1691D01*
X604Y1691D01*
X604Y1689D01*
X606Y1689D01*
X606Y1687D01*
X608Y1687D01*
X608Y1685D01*
X610Y1685D01*
X610Y1683D01*
X612Y1683D01*
X612Y1679D01*
X614Y1679D01*
X614Y1675D01*
X616Y1675D01*
X616Y1669D01*
X618Y1669D01*
X618Y1655D01*
X638Y1655D01*
X638Y1665D01*
X640Y1665D01*
X640Y1673D01*
X642Y1673D01*
X642Y1677D01*
X644Y1677D01*
X644Y1681D01*
X646Y1681D01*
X646Y1683D01*
X648Y1683D01*
X648Y1687D01*
X650Y1687D01*
X650Y1689D01*
X652Y1689D01*
X652Y1691D01*
X654Y1691D01*
X654Y1693D01*
X658Y1693D01*
X658Y1695D01*
X660Y1695D01*
X660Y1697D01*
X664Y1697D01*
X664Y1699D01*
X670Y1699D01*
X670Y1701D01*
X586Y1701D01*
G37*
D02*
G36*
X1888Y1689D02*
X1888Y1687D01*
X1910Y1687D01*
X1910Y1689D01*
X1888Y1689D01*
G37*
D02*
G36*
X708Y1687D02*
X708Y1685D01*
X1910Y1685D01*
X1910Y1687D01*
X708Y1687D01*
G37*
D02*
G36*
X708Y1687D02*
X708Y1685D01*
X1910Y1685D01*
X1910Y1687D01*
X708Y1687D01*
G37*
D02*
G36*
X710Y1685D02*
X710Y1683D01*
X712Y1683D01*
X712Y1679D01*
X714Y1679D01*
X714Y1675D01*
X716Y1675D01*
X716Y1669D01*
X718Y1669D01*
X718Y1667D01*
X1888Y1667D01*
X1888Y1665D01*
X1910Y1665D01*
X1910Y1685D01*
X710Y1685D01*
G37*
D02*
G36*
X718Y1667D02*
X718Y1663D01*
X1588Y1663D01*
X1588Y1661D01*
X1592Y1661D01*
X1592Y1659D01*
X1594Y1659D01*
X1594Y1657D01*
X1598Y1657D01*
X1598Y1655D01*
X1600Y1655D01*
X1600Y1653D01*
X1602Y1653D01*
X1602Y1649D01*
X1604Y1649D01*
X1604Y1647D01*
X1606Y1647D01*
X1606Y1643D01*
X1608Y1643D01*
X1608Y1625D01*
X1610Y1625D01*
X1610Y1623D01*
X1612Y1623D01*
X1612Y1621D01*
X1614Y1621D01*
X1614Y1617D01*
X1616Y1617D01*
X1616Y1615D01*
X1618Y1615D01*
X1618Y1613D01*
X1620Y1613D01*
X1620Y1611D01*
X1622Y1611D01*
X1622Y1607D01*
X1624Y1607D01*
X1624Y1605D01*
X1626Y1605D01*
X1626Y1603D01*
X1628Y1603D01*
X1628Y1601D01*
X1630Y1601D01*
X1630Y1597D01*
X1632Y1597D01*
X1632Y1595D01*
X1634Y1595D01*
X1634Y1593D01*
X1636Y1593D01*
X1636Y1589D01*
X1638Y1589D01*
X1638Y1587D01*
X1876Y1587D01*
X1876Y1589D01*
X1870Y1589D01*
X1870Y1591D01*
X1866Y1591D01*
X1866Y1593D01*
X1862Y1593D01*
X1862Y1595D01*
X1860Y1595D01*
X1860Y1597D01*
X1856Y1597D01*
X1856Y1599D01*
X1854Y1599D01*
X1854Y1601D01*
X1852Y1601D01*
X1852Y1603D01*
X1850Y1603D01*
X1850Y1607D01*
X1848Y1607D01*
X1848Y1609D01*
X1846Y1609D01*
X1846Y1613D01*
X1844Y1613D01*
X1844Y1619D01*
X1842Y1619D01*
X1842Y1635D01*
X1844Y1635D01*
X1844Y1641D01*
X1846Y1641D01*
X1846Y1645D01*
X1848Y1645D01*
X1848Y1647D01*
X1850Y1647D01*
X1850Y1651D01*
X1852Y1651D01*
X1852Y1653D01*
X1854Y1653D01*
X1854Y1655D01*
X1856Y1655D01*
X1856Y1657D01*
X1858Y1657D01*
X1858Y1659D01*
X1862Y1659D01*
X1862Y1661D01*
X1864Y1661D01*
X1864Y1663D01*
X1868Y1663D01*
X1868Y1665D01*
X1874Y1665D01*
X1874Y1667D01*
X718Y1667D01*
G37*
D02*
G36*
X718Y1663D02*
X718Y1653D01*
X716Y1653D01*
X716Y1647D01*
X714Y1647D01*
X714Y1645D01*
X712Y1645D01*
X712Y1641D01*
X710Y1641D01*
X710Y1639D01*
X708Y1639D01*
X708Y1635D01*
X706Y1635D01*
X706Y1633D01*
X704Y1633D01*
X704Y1631D01*
X700Y1631D01*
X700Y1629D01*
X698Y1629D01*
X698Y1627D01*
X694Y1627D01*
X694Y1625D01*
X690Y1625D01*
X690Y1623D01*
X680Y1623D01*
X680Y1621D01*
X1552Y1621D01*
X1552Y1627D01*
X1550Y1627D01*
X1550Y1641D01*
X1552Y1641D01*
X1552Y1647D01*
X1554Y1647D01*
X1554Y1649D01*
X1556Y1649D01*
X1556Y1653D01*
X1558Y1653D01*
X1558Y1655D01*
X1560Y1655D01*
X1560Y1657D01*
X1564Y1657D01*
X1564Y1659D01*
X1566Y1659D01*
X1566Y1661D01*
X1570Y1661D01*
X1570Y1663D01*
X718Y1663D01*
G37*
D02*
G36*
X580Y1623D02*
X580Y1621D01*
X602Y1621D01*
X602Y1623D01*
X580Y1623D01*
G37*
D02*
G36*
X650Y1623D02*
X650Y1621D01*
X676Y1621D01*
X676Y1623D01*
X650Y1623D01*
G37*
D02*
G36*
X404Y1621D02*
X404Y1619D01*
X606Y1619D01*
X606Y1621D01*
X404Y1621D01*
G37*
D02*
G36*
X404Y1621D02*
X404Y1619D01*
X606Y1619D01*
X606Y1621D01*
X404Y1621D01*
G37*
D02*
G36*
X650Y1621D02*
X650Y1619D01*
X1554Y1619D01*
X1554Y1621D01*
X650Y1621D01*
G37*
D02*
G36*
X650Y1621D02*
X650Y1619D01*
X1554Y1619D01*
X1554Y1621D01*
X650Y1621D01*
G37*
D02*
G36*
X406Y1619D02*
X406Y1617D01*
X410Y1617D01*
X410Y1615D01*
X414Y1615D01*
X414Y1613D01*
X416Y1613D01*
X416Y1611D01*
X420Y1611D01*
X420Y1609D01*
X424Y1609D01*
X424Y1607D01*
X426Y1607D01*
X426Y1605D01*
X430Y1605D01*
X430Y1603D01*
X434Y1603D01*
X434Y1601D01*
X586Y1601D01*
X586Y1599D01*
X592Y1599D01*
X592Y1597D01*
X614Y1597D01*
X614Y1615D01*
X610Y1615D01*
X610Y1617D01*
X608Y1617D01*
X608Y1619D01*
X406Y1619D01*
G37*
D02*
G36*
X650Y1619D02*
X650Y1601D01*
X686Y1601D01*
X686Y1599D01*
X692Y1599D01*
X692Y1597D01*
X696Y1597D01*
X696Y1595D01*
X700Y1595D01*
X700Y1593D01*
X702Y1593D01*
X702Y1591D01*
X704Y1591D01*
X704Y1589D01*
X706Y1589D01*
X706Y1587D01*
X708Y1587D01*
X708Y1585D01*
X710Y1585D01*
X710Y1583D01*
X712Y1583D01*
X712Y1579D01*
X714Y1579D01*
X714Y1575D01*
X716Y1575D01*
X716Y1571D01*
X722Y1571D01*
X722Y1569D01*
X732Y1569D01*
X732Y1567D01*
X740Y1567D01*
X740Y1565D01*
X748Y1565D01*
X748Y1563D01*
X758Y1563D01*
X758Y1561D01*
X766Y1561D01*
X766Y1559D01*
X774Y1559D01*
X774Y1557D01*
X784Y1557D01*
X784Y1555D01*
X792Y1555D01*
X792Y1553D01*
X800Y1553D01*
X800Y1551D01*
X810Y1551D01*
X810Y1549D01*
X818Y1549D01*
X818Y1547D01*
X828Y1547D01*
X828Y1545D01*
X836Y1545D01*
X836Y1543D01*
X844Y1543D01*
X844Y1541D01*
X854Y1541D01*
X854Y1539D01*
X862Y1539D01*
X862Y1537D01*
X870Y1537D01*
X870Y1535D01*
X880Y1535D01*
X880Y1533D01*
X888Y1533D01*
X888Y1531D01*
X898Y1531D01*
X898Y1529D01*
X906Y1529D01*
X906Y1527D01*
X914Y1527D01*
X914Y1525D01*
X924Y1525D01*
X924Y1523D01*
X932Y1523D01*
X932Y1521D01*
X940Y1521D01*
X940Y1519D01*
X950Y1519D01*
X950Y1517D01*
X958Y1517D01*
X958Y1515D01*
X968Y1515D01*
X968Y1513D01*
X976Y1513D01*
X976Y1511D01*
X984Y1511D01*
X984Y1509D01*
X994Y1509D01*
X994Y1507D01*
X1002Y1507D01*
X1002Y1505D01*
X1062Y1505D01*
X1062Y1503D01*
X1066Y1503D01*
X1066Y1501D01*
X1070Y1501D01*
X1070Y1499D01*
X1074Y1499D01*
X1074Y1497D01*
X1346Y1497D01*
X1346Y1495D01*
X1350Y1495D01*
X1350Y1493D01*
X1352Y1493D01*
X1352Y1491D01*
X1356Y1491D01*
X1356Y1489D01*
X1358Y1489D01*
X1358Y1487D01*
X1360Y1487D01*
X1360Y1483D01*
X1362Y1483D01*
X1362Y1481D01*
X1364Y1481D01*
X1364Y1479D01*
X1374Y1479D01*
X1374Y1477D01*
X1382Y1477D01*
X1382Y1475D01*
X1390Y1475D01*
X1390Y1473D01*
X1398Y1473D01*
X1398Y1471D01*
X1408Y1471D01*
X1408Y1469D01*
X1416Y1469D01*
X1416Y1467D01*
X1424Y1467D01*
X1424Y1465D01*
X1434Y1465D01*
X1434Y1463D01*
X1442Y1463D01*
X1442Y1461D01*
X1450Y1461D01*
X1450Y1459D01*
X1458Y1459D01*
X1458Y1457D01*
X1468Y1457D01*
X1468Y1455D01*
X1476Y1455D01*
X1476Y1453D01*
X1484Y1453D01*
X1484Y1451D01*
X1494Y1451D01*
X1494Y1449D01*
X1502Y1449D01*
X1502Y1447D01*
X1510Y1447D01*
X1510Y1445D01*
X1518Y1445D01*
X1518Y1443D01*
X1528Y1443D01*
X1528Y1441D01*
X1536Y1441D01*
X1536Y1439D01*
X1544Y1439D01*
X1544Y1437D01*
X1554Y1437D01*
X1554Y1435D01*
X1562Y1435D01*
X1562Y1433D01*
X1570Y1433D01*
X1570Y1431D01*
X1580Y1431D01*
X1580Y1429D01*
X1588Y1429D01*
X1588Y1427D01*
X1596Y1427D01*
X1596Y1425D01*
X1604Y1425D01*
X1604Y1423D01*
X1614Y1423D01*
X1614Y1421D01*
X1622Y1421D01*
X1622Y1419D01*
X1630Y1419D01*
X1630Y1417D01*
X1640Y1417D01*
X1640Y1415D01*
X1648Y1415D01*
X1648Y1413D01*
X1656Y1413D01*
X1656Y1411D01*
X1664Y1411D01*
X1664Y1409D01*
X1674Y1409D01*
X1674Y1407D01*
X1682Y1407D01*
X1682Y1405D01*
X1690Y1405D01*
X1690Y1403D01*
X1700Y1403D01*
X1700Y1401D01*
X1708Y1401D01*
X1708Y1399D01*
X1716Y1399D01*
X1716Y1397D01*
X1724Y1397D01*
X1724Y1395D01*
X1734Y1395D01*
X1734Y1393D01*
X1742Y1393D01*
X1742Y1391D01*
X1750Y1391D01*
X1750Y1389D01*
X1760Y1389D01*
X1760Y1387D01*
X1876Y1387D01*
X1876Y1389D01*
X1870Y1389D01*
X1870Y1391D01*
X1866Y1391D01*
X1866Y1393D01*
X1862Y1393D01*
X1862Y1395D01*
X1860Y1395D01*
X1860Y1397D01*
X1856Y1397D01*
X1856Y1399D01*
X1854Y1399D01*
X1854Y1401D01*
X1852Y1401D01*
X1852Y1403D01*
X1850Y1403D01*
X1850Y1407D01*
X1848Y1407D01*
X1848Y1409D01*
X1846Y1409D01*
X1846Y1413D01*
X1844Y1413D01*
X1844Y1419D01*
X1842Y1419D01*
X1842Y1435D01*
X1844Y1435D01*
X1844Y1441D01*
X1846Y1441D01*
X1846Y1461D01*
X1818Y1461D01*
X1818Y1463D01*
X1794Y1463D01*
X1794Y1465D01*
X1768Y1465D01*
X1768Y1467D01*
X1744Y1467D01*
X1744Y1469D01*
X1718Y1469D01*
X1718Y1471D01*
X1694Y1471D01*
X1694Y1473D01*
X1684Y1473D01*
X1684Y1475D01*
X1682Y1475D01*
X1682Y1477D01*
X1680Y1477D01*
X1680Y1479D01*
X1678Y1479D01*
X1678Y1481D01*
X1676Y1481D01*
X1676Y1483D01*
X1674Y1483D01*
X1674Y1487D01*
X1672Y1487D01*
X1672Y1489D01*
X1670Y1489D01*
X1670Y1491D01*
X1668Y1491D01*
X1668Y1493D01*
X1666Y1493D01*
X1666Y1497D01*
X1664Y1497D01*
X1664Y1499D01*
X1662Y1499D01*
X1662Y1501D01*
X1660Y1501D01*
X1660Y1503D01*
X1658Y1503D01*
X1658Y1507D01*
X1656Y1507D01*
X1656Y1509D01*
X1654Y1509D01*
X1654Y1511D01*
X1652Y1511D01*
X1652Y1515D01*
X1650Y1515D01*
X1650Y1517D01*
X1648Y1517D01*
X1648Y1519D01*
X1646Y1519D01*
X1646Y1521D01*
X1644Y1521D01*
X1644Y1525D01*
X1642Y1525D01*
X1642Y1527D01*
X1640Y1527D01*
X1640Y1529D01*
X1638Y1529D01*
X1638Y1531D01*
X1636Y1531D01*
X1636Y1535D01*
X1634Y1535D01*
X1634Y1537D01*
X1632Y1537D01*
X1632Y1539D01*
X1630Y1539D01*
X1630Y1541D01*
X1628Y1541D01*
X1628Y1545D01*
X1626Y1545D01*
X1626Y1547D01*
X1624Y1547D01*
X1624Y1549D01*
X1622Y1549D01*
X1622Y1553D01*
X1620Y1553D01*
X1620Y1555D01*
X1618Y1555D01*
X1618Y1557D01*
X1616Y1557D01*
X1616Y1559D01*
X1614Y1559D01*
X1614Y1563D01*
X1612Y1563D01*
X1612Y1565D01*
X1610Y1565D01*
X1610Y1567D01*
X1608Y1567D01*
X1608Y1569D01*
X1606Y1569D01*
X1606Y1573D01*
X1604Y1573D01*
X1604Y1575D01*
X1602Y1575D01*
X1602Y1577D01*
X1600Y1577D01*
X1600Y1579D01*
X1598Y1579D01*
X1598Y1583D01*
X1596Y1583D01*
X1596Y1585D01*
X1594Y1585D01*
X1594Y1587D01*
X1592Y1587D01*
X1592Y1591D01*
X1590Y1591D01*
X1590Y1593D01*
X1588Y1593D01*
X1588Y1595D01*
X1586Y1595D01*
X1586Y1597D01*
X1584Y1597D01*
X1584Y1601D01*
X1582Y1601D01*
X1582Y1603D01*
X1580Y1603D01*
X1580Y1605D01*
X1572Y1605D01*
X1572Y1607D01*
X1566Y1607D01*
X1566Y1609D01*
X1564Y1609D01*
X1564Y1611D01*
X1562Y1611D01*
X1562Y1613D01*
X1558Y1613D01*
X1558Y1617D01*
X1556Y1617D01*
X1556Y1619D01*
X650Y1619D01*
G37*
D02*
G36*
X436Y1601D02*
X436Y1599D01*
X440Y1599D01*
X440Y1597D01*
X444Y1597D01*
X444Y1595D01*
X446Y1595D01*
X446Y1593D01*
X450Y1593D01*
X450Y1591D01*
X452Y1591D01*
X452Y1589D01*
X456Y1589D01*
X456Y1587D01*
X460Y1587D01*
X460Y1585D01*
X462Y1585D01*
X462Y1583D01*
X466Y1583D01*
X466Y1581D01*
X470Y1581D01*
X470Y1579D01*
X472Y1579D01*
X472Y1577D01*
X476Y1577D01*
X476Y1575D01*
X480Y1575D01*
X480Y1573D01*
X482Y1573D01*
X482Y1571D01*
X486Y1571D01*
X486Y1569D01*
X490Y1569D01*
X490Y1567D01*
X492Y1567D01*
X492Y1565D01*
X496Y1565D01*
X496Y1563D01*
X498Y1563D01*
X498Y1561D01*
X500Y1561D01*
X500Y1559D01*
X502Y1559D01*
X502Y1553D01*
X504Y1553D01*
X504Y1525D01*
X524Y1525D01*
X524Y1527D01*
X526Y1527D01*
X526Y1531D01*
X528Y1531D01*
X528Y1533D01*
X530Y1533D01*
X530Y1535D01*
X532Y1535D01*
X532Y1537D01*
X534Y1537D01*
X534Y1539D01*
X536Y1539D01*
X536Y1541D01*
X538Y1541D01*
X538Y1565D01*
X540Y1565D01*
X540Y1573D01*
X542Y1573D01*
X542Y1577D01*
X544Y1577D01*
X544Y1581D01*
X546Y1581D01*
X546Y1583D01*
X548Y1583D01*
X548Y1587D01*
X550Y1587D01*
X550Y1589D01*
X552Y1589D01*
X552Y1591D01*
X554Y1591D01*
X554Y1593D01*
X558Y1593D01*
X558Y1595D01*
X560Y1595D01*
X560Y1597D01*
X564Y1597D01*
X564Y1599D01*
X570Y1599D01*
X570Y1601D01*
X436Y1601D01*
G37*
D02*
G36*
X650Y1601D02*
X650Y1599D01*
X670Y1599D01*
X670Y1601D01*
X650Y1601D01*
G37*
D02*
G36*
X1888Y1589D02*
X1888Y1587D01*
X1910Y1587D01*
X1910Y1589D01*
X1888Y1589D01*
G37*
D02*
G36*
X1640Y1587D02*
X1640Y1585D01*
X1910Y1585D01*
X1910Y1587D01*
X1640Y1587D01*
G37*
D02*
G36*
X1640Y1587D02*
X1640Y1585D01*
X1910Y1585D01*
X1910Y1587D01*
X1640Y1587D01*
G37*
D02*
G36*
X1642Y1585D02*
X1642Y1583D01*
X1644Y1583D01*
X1644Y1579D01*
X1646Y1579D01*
X1646Y1577D01*
X1648Y1577D01*
X1648Y1575D01*
X1650Y1575D01*
X1650Y1573D01*
X1652Y1573D01*
X1652Y1569D01*
X1654Y1569D01*
X1654Y1567D01*
X1888Y1567D01*
X1888Y1565D01*
X1894Y1565D01*
X1894Y1563D01*
X1898Y1563D01*
X1898Y1561D01*
X1902Y1561D01*
X1902Y1559D01*
X1904Y1559D01*
X1904Y1557D01*
X1908Y1557D01*
X1908Y1555D01*
X1910Y1555D01*
X1910Y1553D01*
X1912Y1553D01*
X1912Y1549D01*
X1914Y1549D01*
X1914Y1547D01*
X1916Y1547D01*
X1916Y1543D01*
X1918Y1543D01*
X1918Y1539D01*
X1920Y1539D01*
X1920Y1533D01*
X1922Y1533D01*
X1922Y1521D01*
X1920Y1521D01*
X1920Y1497D01*
X1934Y1497D01*
X1934Y1495D01*
X1938Y1495D01*
X1938Y1493D01*
X1940Y1493D01*
X1940Y1491D01*
X1942Y1491D01*
X1942Y1489D01*
X1944Y1489D01*
X1944Y1487D01*
X1976Y1487D01*
X1976Y1489D01*
X1970Y1489D01*
X1970Y1491D01*
X1966Y1491D01*
X1966Y1493D01*
X1962Y1493D01*
X1962Y1495D01*
X1960Y1495D01*
X1960Y1497D01*
X1956Y1497D01*
X1956Y1499D01*
X1954Y1499D01*
X1954Y1501D01*
X1952Y1501D01*
X1952Y1503D01*
X1950Y1503D01*
X1950Y1507D01*
X1948Y1507D01*
X1948Y1509D01*
X1946Y1509D01*
X1946Y1513D01*
X1944Y1513D01*
X1944Y1519D01*
X1942Y1519D01*
X1942Y1535D01*
X1944Y1535D01*
X1944Y1557D01*
X1938Y1557D01*
X1938Y1559D01*
X1934Y1559D01*
X1934Y1561D01*
X1932Y1561D01*
X1932Y1563D01*
X1930Y1563D01*
X1930Y1565D01*
X1928Y1565D01*
X1928Y1567D01*
X1926Y1567D01*
X1926Y1569D01*
X1924Y1569D01*
X1924Y1571D01*
X1922Y1571D01*
X1922Y1573D01*
X1920Y1573D01*
X1920Y1575D01*
X1918Y1575D01*
X1918Y1577D01*
X1916Y1577D01*
X1916Y1579D01*
X1914Y1579D01*
X1914Y1581D01*
X1912Y1581D01*
X1912Y1585D01*
X1642Y1585D01*
G37*
D02*
G36*
X1656Y1567D02*
X1656Y1565D01*
X1658Y1565D01*
X1658Y1563D01*
X1660Y1563D01*
X1660Y1559D01*
X1662Y1559D01*
X1662Y1557D01*
X1664Y1557D01*
X1664Y1555D01*
X1666Y1555D01*
X1666Y1551D01*
X1668Y1551D01*
X1668Y1549D01*
X1670Y1549D01*
X1670Y1547D01*
X1672Y1547D01*
X1672Y1545D01*
X1674Y1545D01*
X1674Y1541D01*
X1676Y1541D01*
X1676Y1539D01*
X1678Y1539D01*
X1678Y1537D01*
X1680Y1537D01*
X1680Y1535D01*
X1682Y1535D01*
X1682Y1531D01*
X1684Y1531D01*
X1684Y1529D01*
X1686Y1529D01*
X1686Y1527D01*
X1688Y1527D01*
X1688Y1525D01*
X1690Y1525D01*
X1690Y1521D01*
X1692Y1521D01*
X1692Y1519D01*
X1694Y1519D01*
X1694Y1517D01*
X1696Y1517D01*
X1696Y1513D01*
X1698Y1513D01*
X1698Y1511D01*
X1700Y1511D01*
X1700Y1509D01*
X1702Y1509D01*
X1702Y1507D01*
X1720Y1507D01*
X1720Y1505D01*
X1744Y1505D01*
X1744Y1503D01*
X1770Y1503D01*
X1770Y1501D01*
X1796Y1501D01*
X1796Y1499D01*
X1820Y1499D01*
X1820Y1497D01*
X1844Y1497D01*
X1844Y1519D01*
X1842Y1519D01*
X1842Y1535D01*
X1844Y1535D01*
X1844Y1541D01*
X1846Y1541D01*
X1846Y1545D01*
X1848Y1545D01*
X1848Y1547D01*
X1850Y1547D01*
X1850Y1551D01*
X1852Y1551D01*
X1852Y1553D01*
X1854Y1553D01*
X1854Y1555D01*
X1856Y1555D01*
X1856Y1557D01*
X1858Y1557D01*
X1858Y1559D01*
X1862Y1559D01*
X1862Y1561D01*
X1864Y1561D01*
X1864Y1563D01*
X1868Y1563D01*
X1868Y1565D01*
X1874Y1565D01*
X1874Y1567D01*
X1656Y1567D01*
G37*
D02*
G36*
X704Y1533D02*
X704Y1531D01*
X700Y1531D01*
X700Y1529D01*
X698Y1529D01*
X698Y1527D01*
X694Y1527D01*
X694Y1525D01*
X690Y1525D01*
X690Y1523D01*
X680Y1523D01*
X680Y1521D01*
X770Y1521D01*
X770Y1523D01*
X762Y1523D01*
X762Y1525D01*
X754Y1525D01*
X754Y1527D01*
X744Y1527D01*
X744Y1529D01*
X736Y1529D01*
X736Y1531D01*
X726Y1531D01*
X726Y1533D01*
X704Y1533D01*
G37*
D02*
G36*
X650Y1523D02*
X650Y1521D01*
X676Y1521D01*
X676Y1523D01*
X650Y1523D01*
G37*
D02*
G36*
X650Y1521D02*
X650Y1519D01*
X780Y1519D01*
X780Y1521D01*
X650Y1521D01*
G37*
D02*
G36*
X650Y1521D02*
X650Y1519D01*
X780Y1519D01*
X780Y1521D01*
X650Y1521D01*
G37*
D02*
G36*
X650Y1519D02*
X650Y1501D01*
X686Y1501D01*
X686Y1499D01*
X692Y1499D01*
X692Y1497D01*
X696Y1497D01*
X696Y1495D01*
X700Y1495D01*
X700Y1493D01*
X702Y1493D01*
X702Y1491D01*
X704Y1491D01*
X704Y1489D01*
X706Y1489D01*
X706Y1487D01*
X708Y1487D01*
X708Y1485D01*
X710Y1485D01*
X710Y1483D01*
X712Y1483D01*
X712Y1479D01*
X714Y1479D01*
X714Y1475D01*
X716Y1475D01*
X716Y1469D01*
X718Y1469D01*
X718Y1445D01*
X1052Y1445D01*
X1052Y1447D01*
X1046Y1447D01*
X1046Y1449D01*
X1042Y1449D01*
X1042Y1451D01*
X1040Y1451D01*
X1040Y1453D01*
X1036Y1453D01*
X1036Y1455D01*
X1034Y1455D01*
X1034Y1459D01*
X1032Y1459D01*
X1032Y1461D01*
X1030Y1461D01*
X1030Y1463D01*
X1024Y1463D01*
X1024Y1465D01*
X1016Y1465D01*
X1016Y1467D01*
X1006Y1467D01*
X1006Y1469D01*
X998Y1469D01*
X998Y1471D01*
X990Y1471D01*
X990Y1473D01*
X980Y1473D01*
X980Y1475D01*
X972Y1475D01*
X972Y1477D01*
X964Y1477D01*
X964Y1479D01*
X954Y1479D01*
X954Y1481D01*
X946Y1481D01*
X946Y1483D01*
X936Y1483D01*
X936Y1485D01*
X928Y1485D01*
X928Y1487D01*
X920Y1487D01*
X920Y1489D01*
X910Y1489D01*
X910Y1491D01*
X902Y1491D01*
X902Y1493D01*
X894Y1493D01*
X894Y1495D01*
X884Y1495D01*
X884Y1497D01*
X876Y1497D01*
X876Y1499D01*
X866Y1499D01*
X866Y1501D01*
X858Y1501D01*
X858Y1503D01*
X850Y1503D01*
X850Y1505D01*
X840Y1505D01*
X840Y1507D01*
X832Y1507D01*
X832Y1509D01*
X824Y1509D01*
X824Y1511D01*
X814Y1511D01*
X814Y1513D01*
X806Y1513D01*
X806Y1515D01*
X796Y1515D01*
X796Y1517D01*
X788Y1517D01*
X788Y1519D01*
X650Y1519D01*
G37*
D02*
G36*
X1010Y1505D02*
X1010Y1503D01*
X1020Y1503D01*
X1020Y1501D01*
X1044Y1501D01*
X1044Y1503D01*
X1050Y1503D01*
X1050Y1505D01*
X1010Y1505D01*
G37*
D02*
G36*
X650Y1501D02*
X650Y1499D01*
X670Y1499D01*
X670Y1501D01*
X650Y1501D01*
G37*
D02*
G36*
X1076Y1497D02*
X1076Y1495D01*
X1078Y1495D01*
X1078Y1491D01*
X1080Y1491D01*
X1080Y1489D01*
X1082Y1489D01*
X1082Y1485D01*
X1084Y1485D01*
X1084Y1479D01*
X1086Y1479D01*
X1086Y1471D01*
X1084Y1471D01*
X1084Y1465D01*
X1082Y1465D01*
X1082Y1461D01*
X1080Y1461D01*
X1080Y1459D01*
X1078Y1459D01*
X1078Y1457D01*
X1076Y1457D01*
X1076Y1455D01*
X1074Y1455D01*
X1074Y1453D01*
X1072Y1453D01*
X1072Y1451D01*
X1070Y1451D01*
X1070Y1449D01*
X1066Y1449D01*
X1066Y1447D01*
X1060Y1447D01*
X1060Y1445D01*
X1320Y1445D01*
X1320Y1447D01*
X1316Y1447D01*
X1316Y1451D01*
X1314Y1451D01*
X1314Y1453D01*
X1312Y1453D01*
X1312Y1457D01*
X1310Y1457D01*
X1310Y1461D01*
X1308Y1461D01*
X1308Y1475D01*
X1310Y1475D01*
X1310Y1479D01*
X1312Y1479D01*
X1312Y1483D01*
X1314Y1483D01*
X1314Y1485D01*
X1316Y1485D01*
X1316Y1487D01*
X1318Y1487D01*
X1318Y1489D01*
X1320Y1489D01*
X1320Y1491D01*
X1322Y1491D01*
X1322Y1493D01*
X1326Y1493D01*
X1326Y1495D01*
X1330Y1495D01*
X1330Y1497D01*
X1076Y1497D01*
G37*
D02*
G36*
X2002Y1495D02*
X2002Y1493D01*
X1998Y1493D01*
X1998Y1491D01*
X1994Y1491D01*
X1994Y1489D01*
X1988Y1489D01*
X1988Y1487D01*
X2022Y1487D01*
X2022Y1495D01*
X2002Y1495D01*
G37*
D02*
G36*
X1946Y1487D02*
X1946Y1485D01*
X2022Y1485D01*
X2022Y1487D01*
X1946Y1487D01*
G37*
D02*
G36*
X1946Y1487D02*
X1946Y1485D01*
X2022Y1485D01*
X2022Y1487D01*
X1946Y1487D01*
G37*
D02*
G36*
X1948Y1485D02*
X1948Y1483D01*
X1950Y1483D01*
X1950Y1481D01*
X1952Y1481D01*
X1952Y1479D01*
X1954Y1479D01*
X1954Y1477D01*
X1958Y1477D01*
X1958Y1475D01*
X1960Y1475D01*
X1960Y1473D01*
X1962Y1473D01*
X1962Y1471D01*
X1964Y1471D01*
X1964Y1469D01*
X1966Y1469D01*
X1966Y1467D01*
X1988Y1467D01*
X1988Y1465D01*
X1994Y1465D01*
X1994Y1463D01*
X1998Y1463D01*
X1998Y1461D01*
X2002Y1461D01*
X2002Y1459D01*
X2022Y1459D01*
X2022Y1485D01*
X1948Y1485D01*
G37*
D02*
G36*
X718Y1445D02*
X718Y1443D01*
X1322Y1443D01*
X1322Y1445D01*
X718Y1445D01*
G37*
D02*
G36*
X718Y1445D02*
X718Y1443D01*
X1322Y1443D01*
X1322Y1445D01*
X718Y1445D01*
G37*
D02*
G36*
X1918Y1445D02*
X1918Y1439D01*
X1920Y1439D01*
X1920Y1433D01*
X1922Y1433D01*
X1922Y1421D01*
X1920Y1421D01*
X1920Y1415D01*
X1918Y1415D01*
X1918Y1411D01*
X1916Y1411D01*
X1916Y1407D01*
X1914Y1407D01*
X1914Y1405D01*
X1912Y1405D01*
X1912Y1403D01*
X1910Y1403D01*
X1910Y1399D01*
X1906Y1399D01*
X1906Y1397D01*
X1904Y1397D01*
X1904Y1395D01*
X1902Y1395D01*
X1902Y1393D01*
X1898Y1393D01*
X1898Y1391D01*
X1894Y1391D01*
X1894Y1389D01*
X1888Y1389D01*
X1888Y1387D01*
X1976Y1387D01*
X1976Y1389D01*
X1970Y1389D01*
X1970Y1391D01*
X1966Y1391D01*
X1966Y1393D01*
X1962Y1393D01*
X1962Y1395D01*
X1960Y1395D01*
X1960Y1397D01*
X1956Y1397D01*
X1956Y1399D01*
X1954Y1399D01*
X1954Y1401D01*
X1952Y1401D01*
X1952Y1403D01*
X1950Y1403D01*
X1950Y1407D01*
X1948Y1407D01*
X1948Y1409D01*
X1946Y1409D01*
X1946Y1413D01*
X1944Y1413D01*
X1944Y1419D01*
X1942Y1419D01*
X1942Y1441D01*
X1940Y1441D01*
X1940Y1443D01*
X1938Y1443D01*
X1938Y1445D01*
X1918Y1445D01*
G37*
D02*
G36*
X718Y1443D02*
X718Y1439D01*
X1328Y1439D01*
X1328Y1441D01*
X1324Y1441D01*
X1324Y1443D01*
X718Y1443D01*
G37*
D02*
G36*
X1346Y1441D02*
X1346Y1439D01*
X1378Y1439D01*
X1378Y1441D01*
X1346Y1441D01*
G37*
D02*
G36*
X720Y1439D02*
X720Y1437D01*
X1386Y1437D01*
X1386Y1439D01*
X720Y1439D01*
G37*
D02*
G36*
X720Y1439D02*
X720Y1437D01*
X1386Y1437D01*
X1386Y1439D01*
X720Y1439D01*
G37*
D02*
G36*
X722Y1437D02*
X722Y1435D01*
X724Y1435D01*
X724Y1431D01*
X726Y1431D01*
X726Y1429D01*
X728Y1429D01*
X728Y1427D01*
X730Y1427D01*
X730Y1425D01*
X732Y1425D01*
X732Y1421D01*
X734Y1421D01*
X734Y1419D01*
X736Y1419D01*
X736Y1417D01*
X738Y1417D01*
X738Y1415D01*
X740Y1415D01*
X740Y1411D01*
X742Y1411D01*
X742Y1409D01*
X744Y1409D01*
X744Y1405D01*
X746Y1405D01*
X746Y993D01*
X744Y993D01*
X744Y989D01*
X742Y989D01*
X742Y987D01*
X740Y987D01*
X740Y985D01*
X738Y985D01*
X738Y983D01*
X734Y983D01*
X734Y981D01*
X330Y981D01*
X330Y975D01*
X328Y975D01*
X328Y929D01*
X326Y929D01*
X326Y883D01*
X324Y883D01*
X324Y837D01*
X322Y837D01*
X322Y791D01*
X320Y791D01*
X320Y745D01*
X318Y745D01*
X318Y699D01*
X316Y699D01*
X316Y683D01*
X760Y683D01*
X760Y685D01*
X756Y685D01*
X756Y687D01*
X752Y687D01*
X752Y689D01*
X750Y689D01*
X750Y691D01*
X746Y691D01*
X746Y693D01*
X744Y693D01*
X744Y697D01*
X742Y697D01*
X742Y699D01*
X740Y699D01*
X740Y703D01*
X738Y703D01*
X738Y709D01*
X736Y709D01*
X736Y717D01*
X738Y717D01*
X738Y723D01*
X740Y723D01*
X740Y727D01*
X742Y727D01*
X742Y729D01*
X744Y729D01*
X744Y731D01*
X746Y731D01*
X746Y733D01*
X748Y733D01*
X748Y735D01*
X750Y735D01*
X750Y737D01*
X752Y737D01*
X752Y739D01*
X756Y739D01*
X756Y741D01*
X760Y741D01*
X760Y745D01*
X762Y745D01*
X762Y751D01*
X764Y751D01*
X764Y755D01*
X766Y755D01*
X766Y759D01*
X768Y759D01*
X768Y763D01*
X770Y763D01*
X770Y769D01*
X772Y769D01*
X772Y773D01*
X774Y773D01*
X774Y777D01*
X776Y777D01*
X776Y781D01*
X778Y781D01*
X778Y787D01*
X780Y787D01*
X780Y791D01*
X782Y791D01*
X782Y795D01*
X784Y795D01*
X784Y801D01*
X786Y801D01*
X786Y805D01*
X788Y805D01*
X788Y809D01*
X790Y809D01*
X790Y813D01*
X792Y813D01*
X792Y819D01*
X794Y819D01*
X794Y823D01*
X796Y823D01*
X796Y827D01*
X798Y827D01*
X798Y831D01*
X800Y831D01*
X800Y837D01*
X802Y837D01*
X802Y841D01*
X804Y841D01*
X804Y845D01*
X806Y845D01*
X806Y851D01*
X808Y851D01*
X808Y855D01*
X810Y855D01*
X810Y859D01*
X812Y859D01*
X812Y863D01*
X814Y863D01*
X814Y869D01*
X816Y869D01*
X816Y873D01*
X818Y873D01*
X818Y877D01*
X820Y877D01*
X820Y881D01*
X822Y881D01*
X822Y887D01*
X824Y887D01*
X824Y891D01*
X826Y891D01*
X826Y895D01*
X828Y895D01*
X828Y899D01*
X830Y899D01*
X830Y905D01*
X832Y905D01*
X832Y909D01*
X834Y909D01*
X834Y913D01*
X836Y913D01*
X836Y919D01*
X838Y919D01*
X838Y923D01*
X840Y923D01*
X840Y927D01*
X842Y927D01*
X842Y931D01*
X844Y931D01*
X844Y937D01*
X846Y937D01*
X846Y941D01*
X848Y941D01*
X848Y945D01*
X850Y945D01*
X850Y949D01*
X852Y949D01*
X852Y955D01*
X854Y955D01*
X854Y959D01*
X856Y959D01*
X856Y963D01*
X858Y963D01*
X858Y969D01*
X860Y969D01*
X860Y973D01*
X862Y973D01*
X862Y977D01*
X864Y977D01*
X864Y981D01*
X866Y981D01*
X866Y987D01*
X868Y987D01*
X868Y991D01*
X870Y991D01*
X870Y995D01*
X872Y995D01*
X872Y999D01*
X874Y999D01*
X874Y1005D01*
X876Y1005D01*
X876Y1009D01*
X878Y1009D01*
X878Y1013D01*
X880Y1013D01*
X880Y1017D01*
X882Y1017D01*
X882Y1023D01*
X884Y1023D01*
X884Y1027D01*
X886Y1027D01*
X886Y1031D01*
X888Y1031D01*
X888Y1037D01*
X890Y1037D01*
X890Y1041D01*
X892Y1041D01*
X892Y1045D01*
X894Y1045D01*
X894Y1049D01*
X896Y1049D01*
X896Y1055D01*
X898Y1055D01*
X898Y1059D01*
X900Y1059D01*
X900Y1063D01*
X902Y1063D01*
X902Y1067D01*
X904Y1067D01*
X904Y1073D01*
X906Y1073D01*
X906Y1077D01*
X908Y1077D01*
X908Y1081D01*
X910Y1081D01*
X910Y1087D01*
X912Y1087D01*
X912Y1091D01*
X914Y1091D01*
X914Y1095D01*
X916Y1095D01*
X916Y1099D01*
X918Y1099D01*
X918Y1105D01*
X920Y1105D01*
X920Y1109D01*
X922Y1109D01*
X922Y1113D01*
X924Y1113D01*
X924Y1117D01*
X926Y1117D01*
X926Y1123D01*
X928Y1123D01*
X928Y1127D01*
X930Y1127D01*
X930Y1131D01*
X932Y1131D01*
X932Y1137D01*
X934Y1137D01*
X934Y1141D01*
X936Y1141D01*
X936Y1145D01*
X938Y1145D01*
X938Y1149D01*
X940Y1149D01*
X940Y1155D01*
X942Y1155D01*
X942Y1159D01*
X944Y1159D01*
X944Y1163D01*
X946Y1163D01*
X946Y1167D01*
X948Y1167D01*
X948Y1173D01*
X950Y1173D01*
X950Y1177D01*
X952Y1177D01*
X952Y1181D01*
X954Y1181D01*
X954Y1185D01*
X956Y1185D01*
X956Y1191D01*
X958Y1191D01*
X958Y1195D01*
X960Y1195D01*
X960Y1199D01*
X962Y1199D01*
X962Y1205D01*
X964Y1205D01*
X964Y1209D01*
X966Y1209D01*
X966Y1213D01*
X968Y1213D01*
X968Y1217D01*
X970Y1217D01*
X970Y1219D01*
X972Y1219D01*
X972Y1221D01*
X974Y1221D01*
X974Y1223D01*
X978Y1223D01*
X978Y1225D01*
X1006Y1225D01*
X1006Y1227D01*
X1050Y1227D01*
X1050Y1229D01*
X1094Y1229D01*
X1094Y1231D01*
X1138Y1231D01*
X1138Y1233D01*
X1182Y1233D01*
X1182Y1235D01*
X1228Y1235D01*
X1228Y1237D01*
X1272Y1237D01*
X1272Y1239D01*
X1316Y1239D01*
X1316Y1241D01*
X1360Y1241D01*
X1360Y1243D01*
X1404Y1243D01*
X1404Y1245D01*
X1450Y1245D01*
X1450Y1247D01*
X1494Y1247D01*
X1494Y1249D01*
X1538Y1249D01*
X1538Y1251D01*
X1582Y1251D01*
X1582Y1253D01*
X1628Y1253D01*
X1628Y1255D01*
X1672Y1255D01*
X1672Y1257D01*
X1716Y1257D01*
X1716Y1259D01*
X1760Y1259D01*
X1760Y1261D01*
X1804Y1261D01*
X1804Y1263D01*
X1850Y1263D01*
X1850Y1265D01*
X1862Y1265D01*
X1862Y1299D01*
X1902Y1299D01*
X1902Y1319D01*
X1892Y1319D01*
X1892Y1321D01*
X1884Y1321D01*
X1884Y1323D01*
X1876Y1323D01*
X1876Y1325D01*
X1866Y1325D01*
X1866Y1327D01*
X1858Y1327D01*
X1858Y1329D01*
X1850Y1329D01*
X1850Y1331D01*
X1840Y1331D01*
X1840Y1333D01*
X1832Y1333D01*
X1832Y1335D01*
X1824Y1335D01*
X1824Y1337D01*
X1816Y1337D01*
X1816Y1339D01*
X1806Y1339D01*
X1806Y1341D01*
X1798Y1341D01*
X1798Y1343D01*
X1790Y1343D01*
X1790Y1345D01*
X1780Y1345D01*
X1780Y1347D01*
X1772Y1347D01*
X1772Y1349D01*
X1764Y1349D01*
X1764Y1351D01*
X1756Y1351D01*
X1756Y1353D01*
X1746Y1353D01*
X1746Y1355D01*
X1738Y1355D01*
X1738Y1357D01*
X1730Y1357D01*
X1730Y1359D01*
X1720Y1359D01*
X1720Y1361D01*
X1712Y1361D01*
X1712Y1363D01*
X1704Y1363D01*
X1704Y1365D01*
X1696Y1365D01*
X1696Y1367D01*
X1686Y1367D01*
X1686Y1369D01*
X1678Y1369D01*
X1678Y1371D01*
X1670Y1371D01*
X1670Y1373D01*
X1660Y1373D01*
X1660Y1375D01*
X1652Y1375D01*
X1652Y1377D01*
X1644Y1377D01*
X1644Y1379D01*
X1634Y1379D01*
X1634Y1381D01*
X1626Y1381D01*
X1626Y1383D01*
X1618Y1383D01*
X1618Y1385D01*
X1610Y1385D01*
X1610Y1387D01*
X1600Y1387D01*
X1600Y1389D01*
X1592Y1389D01*
X1592Y1391D01*
X1584Y1391D01*
X1584Y1393D01*
X1574Y1393D01*
X1574Y1395D01*
X1566Y1395D01*
X1566Y1397D01*
X1558Y1397D01*
X1558Y1399D01*
X1550Y1399D01*
X1550Y1401D01*
X1540Y1401D01*
X1540Y1403D01*
X1532Y1403D01*
X1532Y1405D01*
X1524Y1405D01*
X1524Y1407D01*
X1514Y1407D01*
X1514Y1409D01*
X1506Y1409D01*
X1506Y1411D01*
X1498Y1411D01*
X1498Y1413D01*
X1490Y1413D01*
X1490Y1415D01*
X1480Y1415D01*
X1480Y1417D01*
X1472Y1417D01*
X1472Y1419D01*
X1464Y1419D01*
X1464Y1421D01*
X1454Y1421D01*
X1454Y1423D01*
X1446Y1423D01*
X1446Y1425D01*
X1438Y1425D01*
X1438Y1427D01*
X1428Y1427D01*
X1428Y1429D01*
X1420Y1429D01*
X1420Y1431D01*
X1412Y1431D01*
X1412Y1433D01*
X1404Y1433D01*
X1404Y1435D01*
X1394Y1435D01*
X1394Y1437D01*
X722Y1437D01*
G37*
D02*
G36*
X1768Y1387D02*
X1768Y1385D01*
X1990Y1385D01*
X1990Y1387D01*
X1768Y1387D01*
G37*
D02*
G36*
X1768Y1387D02*
X1768Y1385D01*
X1990Y1385D01*
X1990Y1387D01*
X1768Y1387D01*
G37*
D02*
G36*
X1776Y1385D02*
X1776Y1383D01*
X1784Y1383D01*
X1784Y1381D01*
X1794Y1381D01*
X1794Y1379D01*
X1802Y1379D01*
X1802Y1377D01*
X1810Y1377D01*
X1810Y1375D01*
X1820Y1375D01*
X1820Y1373D01*
X1828Y1373D01*
X1828Y1371D01*
X1836Y1371D01*
X1836Y1369D01*
X1846Y1369D01*
X1846Y1367D01*
X1854Y1367D01*
X1854Y1365D01*
X1862Y1365D01*
X1862Y1363D01*
X1870Y1363D01*
X1870Y1361D01*
X1880Y1361D01*
X1880Y1359D01*
X1888Y1359D01*
X1888Y1357D01*
X1896Y1357D01*
X1896Y1355D01*
X1906Y1355D01*
X1906Y1353D01*
X1914Y1353D01*
X1914Y1351D01*
X1922Y1351D01*
X1922Y1349D01*
X1930Y1349D01*
X1930Y1347D01*
X1940Y1347D01*
X1940Y1345D01*
X1948Y1345D01*
X1948Y1343D01*
X1956Y1343D01*
X1956Y1341D01*
X1966Y1341D01*
X1966Y1339D01*
X1990Y1339D01*
X1990Y1385D01*
X1776Y1385D01*
G37*
D02*
G36*
X1794Y1171D02*
X1794Y1169D01*
X1674Y1169D01*
X1674Y1167D01*
X1554Y1167D01*
X1554Y1165D01*
X1434Y1165D01*
X1434Y1163D01*
X1314Y1163D01*
X1314Y1161D01*
X1194Y1161D01*
X1194Y1159D01*
X1074Y1159D01*
X1074Y1157D01*
X1030Y1157D01*
X1030Y1153D01*
X1028Y1153D01*
X1028Y1145D01*
X1026Y1145D01*
X1026Y1137D01*
X1024Y1137D01*
X1024Y1131D01*
X1022Y1131D01*
X1022Y1123D01*
X1020Y1123D01*
X1020Y1115D01*
X1018Y1115D01*
X1018Y1107D01*
X1016Y1107D01*
X1016Y1099D01*
X1014Y1099D01*
X1014Y1091D01*
X1012Y1091D01*
X1012Y1083D01*
X1010Y1083D01*
X1010Y1077D01*
X1008Y1077D01*
X1008Y1069D01*
X1006Y1069D01*
X1006Y1061D01*
X1004Y1061D01*
X1004Y1053D01*
X1002Y1053D01*
X1002Y1049D01*
X1064Y1049D01*
X1064Y1047D01*
X1094Y1047D01*
X1094Y1045D01*
X1124Y1045D01*
X1124Y1043D01*
X1154Y1043D01*
X1154Y1041D01*
X1184Y1041D01*
X1184Y1039D01*
X1214Y1039D01*
X1214Y1037D01*
X1244Y1037D01*
X1244Y1035D01*
X1274Y1035D01*
X1274Y1033D01*
X1302Y1033D01*
X1302Y1031D01*
X1332Y1031D01*
X1332Y1029D01*
X1362Y1029D01*
X1362Y1027D01*
X1392Y1027D01*
X1392Y1025D01*
X1422Y1025D01*
X1422Y1023D01*
X1452Y1023D01*
X1452Y1021D01*
X1482Y1021D01*
X1482Y1019D01*
X1512Y1019D01*
X1512Y1017D01*
X1542Y1017D01*
X1542Y1015D01*
X1572Y1015D01*
X1572Y1013D01*
X1602Y1013D01*
X1602Y1011D01*
X1632Y1011D01*
X1632Y1009D01*
X1662Y1009D01*
X1662Y1007D01*
X1692Y1007D01*
X1692Y1005D01*
X1722Y1005D01*
X1722Y1003D01*
X1752Y1003D01*
X1752Y1001D01*
X1782Y1001D01*
X1782Y999D01*
X1812Y999D01*
X1812Y997D01*
X1840Y997D01*
X1840Y995D01*
X1868Y995D01*
X1868Y997D01*
X1870Y997D01*
X1870Y999D01*
X1872Y999D01*
X1872Y1003D01*
X1874Y1003D01*
X1874Y1005D01*
X1876Y1005D01*
X1876Y1007D01*
X1878Y1007D01*
X1878Y1021D01*
X1880Y1021D01*
X1880Y1025D01*
X1882Y1025D01*
X1882Y1027D01*
X1884Y1027D01*
X1884Y1029D01*
X1886Y1029D01*
X1886Y1031D01*
X1888Y1031D01*
X1888Y1033D01*
X1890Y1033D01*
X1890Y1035D01*
X1894Y1035D01*
X1894Y1037D01*
X1896Y1037D01*
X1896Y1039D01*
X1898Y1039D01*
X1898Y1041D01*
X1900Y1041D01*
X1900Y1043D01*
X1904Y1043D01*
X1904Y1063D01*
X1896Y1063D01*
X1896Y1065D01*
X1892Y1065D01*
X1892Y1067D01*
X1888Y1067D01*
X1888Y1069D01*
X1886Y1069D01*
X1886Y1071D01*
X1882Y1071D01*
X1882Y1073D01*
X1880Y1073D01*
X1880Y1075D01*
X1878Y1075D01*
X1878Y1077D01*
X1876Y1077D01*
X1876Y1079D01*
X1874Y1079D01*
X1874Y1081D01*
X1872Y1081D01*
X1872Y1085D01*
X1870Y1085D01*
X1870Y1087D01*
X1868Y1087D01*
X1868Y1091D01*
X1866Y1091D01*
X1866Y1095D01*
X1864Y1095D01*
X1864Y1101D01*
X1862Y1101D01*
X1862Y1121D01*
X1864Y1121D01*
X1864Y1127D01*
X1866Y1127D01*
X1866Y1131D01*
X1868Y1131D01*
X1868Y1135D01*
X1870Y1135D01*
X1870Y1137D01*
X1872Y1137D01*
X1872Y1141D01*
X1874Y1141D01*
X1874Y1143D01*
X1876Y1143D01*
X1876Y1145D01*
X1878Y1145D01*
X1878Y1147D01*
X1880Y1147D01*
X1880Y1149D01*
X1882Y1149D01*
X1882Y1151D01*
X1886Y1151D01*
X1886Y1171D01*
X1794Y1171D01*
G37*
D02*
G36*
X962Y1115D02*
X962Y1111D01*
X960Y1111D01*
X960Y1105D01*
X958Y1105D01*
X958Y1101D01*
X956Y1101D01*
X956Y1097D01*
X954Y1097D01*
X954Y1093D01*
X952Y1093D01*
X952Y1087D01*
X950Y1087D01*
X950Y1083D01*
X948Y1083D01*
X948Y1079D01*
X946Y1079D01*
X946Y1073D01*
X944Y1073D01*
X944Y1069D01*
X942Y1069D01*
X942Y1065D01*
X940Y1065D01*
X940Y1061D01*
X938Y1061D01*
X938Y1055D01*
X936Y1055D01*
X936Y1051D01*
X934Y1051D01*
X934Y1047D01*
X932Y1047D01*
X932Y1043D01*
X930Y1043D01*
X930Y1037D01*
X928Y1037D01*
X928Y1033D01*
X926Y1033D01*
X926Y1029D01*
X924Y1029D01*
X924Y1023D01*
X922Y1023D01*
X922Y1019D01*
X920Y1019D01*
X920Y1015D01*
X918Y1015D01*
X918Y1011D01*
X916Y1011D01*
X916Y1005D01*
X914Y1005D01*
X914Y1001D01*
X912Y1001D01*
X912Y997D01*
X910Y997D01*
X910Y993D01*
X908Y993D01*
X908Y987D01*
X906Y987D01*
X906Y983D01*
X904Y983D01*
X904Y979D01*
X902Y979D01*
X902Y975D01*
X900Y975D01*
X900Y969D01*
X898Y969D01*
X898Y965D01*
X896Y965D01*
X896Y961D01*
X894Y961D01*
X894Y955D01*
X892Y955D01*
X892Y951D01*
X890Y951D01*
X890Y947D01*
X888Y947D01*
X888Y943D01*
X886Y943D01*
X886Y937D01*
X884Y937D01*
X884Y933D01*
X882Y933D01*
X882Y929D01*
X880Y929D01*
X880Y925D01*
X878Y925D01*
X878Y919D01*
X876Y919D01*
X876Y915D01*
X874Y915D01*
X874Y911D01*
X872Y911D01*
X872Y905D01*
X870Y905D01*
X870Y901D01*
X868Y901D01*
X868Y897D01*
X866Y897D01*
X866Y893D01*
X864Y893D01*
X864Y887D01*
X862Y887D01*
X862Y883D01*
X860Y883D01*
X860Y879D01*
X858Y879D01*
X858Y875D01*
X856Y875D01*
X856Y869D01*
X854Y869D01*
X854Y865D01*
X852Y865D01*
X852Y861D01*
X850Y861D01*
X850Y857D01*
X848Y857D01*
X848Y851D01*
X846Y851D01*
X846Y847D01*
X844Y847D01*
X844Y843D01*
X842Y843D01*
X842Y837D01*
X840Y837D01*
X840Y833D01*
X838Y833D01*
X838Y829D01*
X836Y829D01*
X836Y825D01*
X834Y825D01*
X834Y819D01*
X832Y819D01*
X832Y815D01*
X830Y815D01*
X830Y811D01*
X828Y811D01*
X828Y807D01*
X826Y807D01*
X826Y801D01*
X824Y801D01*
X824Y797D01*
X822Y797D01*
X822Y793D01*
X820Y793D01*
X820Y787D01*
X818Y787D01*
X818Y783D01*
X816Y783D01*
X816Y779D01*
X814Y779D01*
X814Y775D01*
X812Y775D01*
X812Y769D01*
X810Y769D01*
X810Y765D01*
X808Y765D01*
X808Y761D01*
X806Y761D01*
X806Y757D01*
X804Y757D01*
X804Y751D01*
X802Y751D01*
X802Y747D01*
X800Y747D01*
X800Y743D01*
X798Y743D01*
X798Y739D01*
X796Y739D01*
X796Y707D01*
X794Y707D01*
X794Y701D01*
X792Y701D01*
X792Y699D01*
X790Y699D01*
X790Y695D01*
X788Y695D01*
X788Y693D01*
X786Y693D01*
X786Y691D01*
X784Y691D01*
X784Y689D01*
X780Y689D01*
X780Y687D01*
X778Y687D01*
X778Y685D01*
X772Y685D01*
X772Y683D01*
X860Y683D01*
X860Y685D01*
X862Y685D01*
X862Y687D01*
X864Y687D01*
X864Y689D01*
X866Y689D01*
X866Y691D01*
X868Y691D01*
X868Y693D01*
X870Y693D01*
X870Y695D01*
X874Y695D01*
X874Y701D01*
X876Y701D01*
X876Y709D01*
X878Y709D01*
X878Y717D01*
X880Y717D01*
X880Y725D01*
X882Y725D01*
X882Y733D01*
X884Y733D01*
X884Y741D01*
X886Y741D01*
X886Y749D01*
X888Y749D01*
X888Y755D01*
X890Y755D01*
X890Y763D01*
X892Y763D01*
X892Y771D01*
X894Y771D01*
X894Y779D01*
X896Y779D01*
X896Y787D01*
X898Y787D01*
X898Y795D01*
X900Y795D01*
X900Y803D01*
X902Y803D01*
X902Y811D01*
X904Y811D01*
X904Y817D01*
X906Y817D01*
X906Y825D01*
X908Y825D01*
X908Y833D01*
X910Y833D01*
X910Y841D01*
X912Y841D01*
X912Y849D01*
X914Y849D01*
X914Y857D01*
X916Y857D01*
X916Y865D01*
X918Y865D01*
X918Y871D01*
X920Y871D01*
X920Y879D01*
X922Y879D01*
X922Y887D01*
X924Y887D01*
X924Y895D01*
X926Y895D01*
X926Y903D01*
X928Y903D01*
X928Y911D01*
X930Y911D01*
X930Y919D01*
X932Y919D01*
X932Y927D01*
X934Y927D01*
X934Y933D01*
X936Y933D01*
X936Y941D01*
X938Y941D01*
X938Y949D01*
X940Y949D01*
X940Y957D01*
X942Y957D01*
X942Y965D01*
X944Y965D01*
X944Y973D01*
X946Y973D01*
X946Y981D01*
X948Y981D01*
X948Y987D01*
X950Y987D01*
X950Y995D01*
X952Y995D01*
X952Y1003D01*
X954Y1003D01*
X954Y1011D01*
X956Y1011D01*
X956Y1019D01*
X958Y1019D01*
X958Y1027D01*
X960Y1027D01*
X960Y1035D01*
X962Y1035D01*
X962Y1043D01*
X964Y1043D01*
X964Y1049D01*
X966Y1049D01*
X966Y1057D01*
X968Y1057D01*
X968Y1065D01*
X970Y1065D01*
X970Y1073D01*
X972Y1073D01*
X972Y1081D01*
X974Y1081D01*
X974Y1089D01*
X976Y1089D01*
X976Y1097D01*
X978Y1097D01*
X978Y1103D01*
X980Y1103D01*
X980Y1111D01*
X982Y1111D01*
X982Y1115D01*
X962Y1115D01*
G37*
D02*
G36*
X1002Y1049D02*
X1002Y1045D01*
X1000Y1045D01*
X1000Y1037D01*
X998Y1037D01*
X998Y1029D01*
X996Y1029D01*
X996Y1021D01*
X994Y1021D01*
X994Y1015D01*
X992Y1015D01*
X992Y1007D01*
X990Y1007D01*
X990Y999D01*
X988Y999D01*
X988Y991D01*
X986Y991D01*
X986Y983D01*
X984Y983D01*
X984Y975D01*
X982Y975D01*
X982Y967D01*
X980Y967D01*
X980Y961D01*
X978Y961D01*
X978Y953D01*
X976Y953D01*
X976Y945D01*
X974Y945D01*
X974Y937D01*
X972Y937D01*
X972Y929D01*
X970Y929D01*
X970Y921D01*
X968Y921D01*
X968Y913D01*
X966Y913D01*
X966Y905D01*
X1044Y905D01*
X1044Y907D01*
X1038Y907D01*
X1038Y909D01*
X1034Y909D01*
X1034Y911D01*
X1032Y911D01*
X1032Y913D01*
X1028Y913D01*
X1028Y915D01*
X1026Y915D01*
X1026Y919D01*
X1024Y919D01*
X1024Y921D01*
X1022Y921D01*
X1022Y925D01*
X1020Y925D01*
X1020Y929D01*
X1018Y929D01*
X1018Y941D01*
X1020Y941D01*
X1020Y945D01*
X1022Y945D01*
X1022Y949D01*
X1024Y949D01*
X1024Y951D01*
X1026Y951D01*
X1026Y955D01*
X1028Y955D01*
X1028Y957D01*
X1030Y957D01*
X1030Y1037D01*
X1032Y1037D01*
X1032Y1041D01*
X1034Y1041D01*
X1034Y1043D01*
X1036Y1043D01*
X1036Y1045D01*
X1038Y1045D01*
X1038Y1047D01*
X1042Y1047D01*
X1042Y1049D01*
X1002Y1049D01*
G37*
D02*
G36*
X1066Y1011D02*
X1066Y965D01*
X1134Y965D01*
X1134Y963D01*
X1138Y963D01*
X1138Y961D01*
X1142Y961D01*
X1142Y959D01*
X1144Y959D01*
X1144Y957D01*
X1148Y957D01*
X1148Y955D01*
X1150Y955D01*
X1150Y953D01*
X1164Y953D01*
X1164Y951D01*
X1232Y951D01*
X1232Y949D01*
X1300Y949D01*
X1300Y947D01*
X1368Y947D01*
X1368Y945D01*
X1436Y945D01*
X1436Y943D01*
X1504Y943D01*
X1504Y941D01*
X1572Y941D01*
X1572Y939D01*
X1640Y939D01*
X1640Y937D01*
X1708Y937D01*
X1708Y935D01*
X1774Y935D01*
X1774Y933D01*
X1842Y933D01*
X1842Y931D01*
X1868Y931D01*
X1868Y953D01*
X1866Y953D01*
X1866Y957D01*
X1864Y957D01*
X1864Y959D01*
X1840Y959D01*
X1840Y961D01*
X1810Y961D01*
X1810Y963D01*
X1780Y963D01*
X1780Y965D01*
X1750Y965D01*
X1750Y967D01*
X1720Y967D01*
X1720Y969D01*
X1690Y969D01*
X1690Y971D01*
X1660Y971D01*
X1660Y973D01*
X1630Y973D01*
X1630Y975D01*
X1600Y975D01*
X1600Y977D01*
X1570Y977D01*
X1570Y979D01*
X1540Y979D01*
X1540Y981D01*
X1510Y981D01*
X1510Y983D01*
X1480Y983D01*
X1480Y985D01*
X1450Y985D01*
X1450Y987D01*
X1422Y987D01*
X1422Y989D01*
X1392Y989D01*
X1392Y991D01*
X1362Y991D01*
X1362Y993D01*
X1332Y993D01*
X1332Y995D01*
X1302Y995D01*
X1302Y997D01*
X1272Y997D01*
X1272Y999D01*
X1242Y999D01*
X1242Y1001D01*
X1212Y1001D01*
X1212Y1003D01*
X1182Y1003D01*
X1182Y1005D01*
X1152Y1005D01*
X1152Y1007D01*
X1122Y1007D01*
X1122Y1009D01*
X1092Y1009D01*
X1092Y1011D01*
X1066Y1011D01*
G37*
D02*
G36*
X1066Y965D02*
X1066Y957D01*
X1068Y957D01*
X1068Y955D01*
X1070Y955D01*
X1070Y951D01*
X1072Y951D01*
X1072Y949D01*
X1074Y949D01*
X1074Y945D01*
X1076Y945D01*
X1076Y939D01*
X1078Y939D01*
X1078Y931D01*
X1076Y931D01*
X1076Y925D01*
X1074Y925D01*
X1074Y921D01*
X1072Y921D01*
X1072Y919D01*
X1070Y919D01*
X1070Y915D01*
X1068Y915D01*
X1068Y913D01*
X1064Y913D01*
X1064Y911D01*
X1062Y911D01*
X1062Y909D01*
X1058Y909D01*
X1058Y907D01*
X1052Y907D01*
X1052Y905D01*
X1124Y905D01*
X1124Y907D01*
X1118Y907D01*
X1118Y909D01*
X1114Y909D01*
X1114Y911D01*
X1112Y911D01*
X1112Y913D01*
X1108Y913D01*
X1108Y915D01*
X1106Y915D01*
X1106Y919D01*
X1104Y919D01*
X1104Y921D01*
X1102Y921D01*
X1102Y925D01*
X1100Y925D01*
X1100Y929D01*
X1098Y929D01*
X1098Y941D01*
X1100Y941D01*
X1100Y945D01*
X1102Y945D01*
X1102Y949D01*
X1104Y949D01*
X1104Y951D01*
X1106Y951D01*
X1106Y955D01*
X1108Y955D01*
X1108Y957D01*
X1112Y957D01*
X1112Y959D01*
X1114Y959D01*
X1114Y961D01*
X1118Y961D01*
X1118Y963D01*
X1122Y963D01*
X1122Y965D01*
X1066Y965D01*
G37*
D02*
G36*
X1148Y915D02*
X1148Y913D01*
X1144Y913D01*
X1144Y911D01*
X1142Y911D01*
X1142Y909D01*
X1138Y909D01*
X1138Y907D01*
X1132Y907D01*
X1132Y905D01*
X1502Y905D01*
X1502Y907D01*
X1434Y907D01*
X1434Y909D01*
X1366Y909D01*
X1366Y911D01*
X1298Y911D01*
X1298Y913D01*
X1230Y913D01*
X1230Y915D01*
X1148Y915D01*
G37*
D02*
G36*
X964Y905D02*
X964Y903D01*
X1570Y903D01*
X1570Y905D01*
X964Y905D01*
G37*
D02*
G36*
X964Y905D02*
X964Y903D01*
X1570Y903D01*
X1570Y905D01*
X964Y905D01*
G37*
D02*
G36*
X964Y905D02*
X964Y903D01*
X1570Y903D01*
X1570Y905D01*
X964Y905D01*
G37*
D02*
G36*
X964Y903D02*
X964Y899D01*
X962Y899D01*
X962Y893D01*
X1910Y893D01*
X1910Y895D01*
X1842Y895D01*
X1842Y897D01*
X1774Y897D01*
X1774Y899D01*
X1706Y899D01*
X1706Y901D01*
X1638Y901D01*
X1638Y903D01*
X964Y903D01*
G37*
D02*
G36*
X962Y893D02*
X962Y891D01*
X2184Y891D01*
X2184Y893D01*
X962Y893D01*
G37*
D02*
G36*
X962Y893D02*
X962Y891D01*
X2184Y891D01*
X2184Y893D01*
X962Y893D01*
G37*
D02*
G36*
X960Y891D02*
X960Y883D01*
X958Y883D01*
X958Y875D01*
X956Y875D01*
X956Y867D01*
X954Y867D01*
X954Y859D01*
X952Y859D01*
X952Y851D01*
X950Y851D01*
X950Y849D01*
X1962Y849D01*
X1962Y749D01*
X2184Y749D01*
X2184Y891D01*
X960Y891D01*
G37*
D02*
G36*
X950Y849D02*
X950Y845D01*
X948Y845D01*
X948Y837D01*
X946Y837D01*
X946Y829D01*
X944Y829D01*
X944Y821D01*
X942Y821D01*
X942Y813D01*
X940Y813D01*
X940Y805D01*
X938Y805D01*
X938Y797D01*
X936Y797D01*
X936Y789D01*
X934Y789D01*
X934Y783D01*
X932Y783D01*
X932Y775D01*
X930Y775D01*
X930Y767D01*
X928Y767D01*
X928Y759D01*
X926Y759D01*
X926Y751D01*
X924Y751D01*
X924Y749D01*
X1862Y749D01*
X1862Y849D01*
X950Y849D01*
G37*
D02*
G36*
X924Y749D02*
X924Y747D01*
X2184Y747D01*
X2184Y749D01*
X924Y749D01*
G37*
D02*
G36*
X924Y749D02*
X924Y747D01*
X2184Y747D01*
X2184Y749D01*
X924Y749D01*
G37*
D02*
G36*
X924Y747D02*
X924Y743D01*
X922Y743D01*
X922Y735D01*
X920Y735D01*
X920Y727D01*
X918Y727D01*
X918Y721D01*
X916Y721D01*
X916Y713D01*
X914Y713D01*
X914Y711D01*
X1920Y711D01*
X1920Y709D01*
X1926Y709D01*
X1926Y707D01*
X1932Y707D01*
X1932Y705D01*
X1934Y705D01*
X1934Y703D01*
X1938Y703D01*
X1938Y701D01*
X1940Y701D01*
X1940Y699D01*
X1942Y699D01*
X1942Y697D01*
X1946Y697D01*
X1946Y695D01*
X1948Y695D01*
X1948Y691D01*
X1950Y691D01*
X1950Y689D01*
X1952Y689D01*
X1952Y687D01*
X1954Y687D01*
X1954Y683D01*
X1956Y683D01*
X1956Y681D01*
X1958Y681D01*
X1958Y675D01*
X1960Y675D01*
X1960Y669D01*
X1962Y669D01*
X1962Y653D01*
X1960Y653D01*
X1960Y647D01*
X1958Y647D01*
X1958Y641D01*
X1956Y641D01*
X1956Y639D01*
X1954Y639D01*
X1954Y635D01*
X1952Y635D01*
X1952Y633D01*
X1950Y633D01*
X1950Y631D01*
X1948Y631D01*
X1948Y627D01*
X1946Y627D01*
X1946Y625D01*
X1942Y625D01*
X1942Y623D01*
X1940Y623D01*
X1940Y621D01*
X1938Y621D01*
X1938Y619D01*
X1934Y619D01*
X1934Y617D01*
X1932Y617D01*
X1932Y615D01*
X1926Y615D01*
X1926Y613D01*
X1920Y613D01*
X1920Y611D01*
X2184Y611D01*
X2184Y747D01*
X924Y747D01*
G37*
D02*
G36*
X914Y711D02*
X914Y705D01*
X912Y705D01*
X912Y677D01*
X914Y677D01*
X914Y661D01*
X912Y661D01*
X912Y657D01*
X910Y657D01*
X910Y653D01*
X908Y653D01*
X908Y651D01*
X906Y651D01*
X906Y649D01*
X904Y649D01*
X904Y647D01*
X902Y647D01*
X902Y645D01*
X900Y645D01*
X900Y643D01*
X896Y643D01*
X896Y641D01*
X890Y641D01*
X890Y639D01*
X1868Y639D01*
X1868Y641D01*
X1866Y641D01*
X1866Y645D01*
X1864Y645D01*
X1864Y651D01*
X1862Y651D01*
X1862Y671D01*
X1864Y671D01*
X1864Y677D01*
X1866Y677D01*
X1866Y681D01*
X1868Y681D01*
X1868Y685D01*
X1870Y685D01*
X1870Y687D01*
X1872Y687D01*
X1872Y691D01*
X1874Y691D01*
X1874Y693D01*
X1876Y693D01*
X1876Y695D01*
X1878Y695D01*
X1878Y697D01*
X1880Y697D01*
X1880Y699D01*
X1882Y699D01*
X1882Y701D01*
X1886Y701D01*
X1886Y703D01*
X1888Y703D01*
X1888Y705D01*
X1892Y705D01*
X1892Y707D01*
X1896Y707D01*
X1896Y709D01*
X1904Y709D01*
X1904Y711D01*
X914Y711D01*
G37*
D02*
G36*
X316Y683D02*
X316Y681D01*
X860Y681D01*
X860Y683D01*
X316Y683D01*
G37*
D02*
G36*
X316Y683D02*
X316Y681D01*
X860Y681D01*
X860Y683D01*
X316Y683D01*
G37*
D02*
G36*
X316Y681D02*
X316Y653D01*
X314Y653D01*
X314Y639D01*
X880Y639D01*
X880Y641D01*
X874Y641D01*
X874Y643D01*
X872Y643D01*
X872Y645D01*
X868Y645D01*
X868Y647D01*
X866Y647D01*
X866Y649D01*
X864Y649D01*
X864Y651D01*
X862Y651D01*
X862Y653D01*
X860Y653D01*
X860Y657D01*
X858Y657D01*
X858Y661D01*
X856Y661D01*
X856Y677D01*
X858Y677D01*
X858Y681D01*
X316Y681D01*
G37*
D02*
G36*
X314Y639D02*
X314Y637D01*
X1868Y637D01*
X1868Y639D01*
X314Y639D01*
G37*
D02*
G36*
X314Y639D02*
X314Y637D01*
X1868Y637D01*
X1868Y639D01*
X314Y639D01*
G37*
D02*
G36*
X314Y637D02*
X314Y611D01*
X1904Y611D01*
X1904Y613D01*
X1896Y613D01*
X1896Y615D01*
X1892Y615D01*
X1892Y617D01*
X1888Y617D01*
X1888Y619D01*
X1886Y619D01*
X1886Y621D01*
X1882Y621D01*
X1882Y623D01*
X1880Y623D01*
X1880Y625D01*
X1878Y625D01*
X1878Y627D01*
X1876Y627D01*
X1876Y629D01*
X1874Y629D01*
X1874Y631D01*
X1872Y631D01*
X1872Y635D01*
X1870Y635D01*
X1870Y637D01*
X314Y637D01*
G37*
D02*
G36*
X314Y611D02*
X314Y609D01*
X2184Y609D01*
X2184Y611D01*
X314Y611D01*
G37*
D02*
G36*
X314Y611D02*
X314Y609D01*
X2184Y609D01*
X2184Y611D01*
X314Y611D01*
G37*
D02*
G36*
X314Y609D02*
X314Y607D01*
X312Y607D01*
X312Y573D01*
X1922Y573D01*
X1922Y571D01*
X1928Y571D01*
X1928Y569D01*
X1932Y569D01*
X1932Y567D01*
X1936Y567D01*
X1936Y565D01*
X1938Y565D01*
X1938Y563D01*
X1940Y563D01*
X1940Y561D01*
X1944Y561D01*
X1944Y559D01*
X1946Y559D01*
X1946Y557D01*
X1948Y557D01*
X1948Y555D01*
X1950Y555D01*
X1950Y551D01*
X1952Y551D01*
X1952Y549D01*
X1954Y549D01*
X1954Y545D01*
X1956Y545D01*
X1956Y543D01*
X1958Y543D01*
X1958Y537D01*
X1960Y537D01*
X1960Y531D01*
X1962Y531D01*
X1962Y515D01*
X1960Y515D01*
X1960Y509D01*
X1958Y509D01*
X1958Y505D01*
X1956Y505D01*
X1956Y501D01*
X1954Y501D01*
X1954Y497D01*
X1952Y497D01*
X1952Y495D01*
X1950Y495D01*
X1950Y493D01*
X1948Y493D01*
X1948Y489D01*
X1946Y489D01*
X1946Y487D01*
X1942Y487D01*
X1942Y485D01*
X1940Y485D01*
X1940Y483D01*
X1938Y483D01*
X1938Y481D01*
X1934Y481D01*
X1934Y479D01*
X1930Y479D01*
X1930Y477D01*
X1926Y477D01*
X1926Y475D01*
X1920Y475D01*
X1920Y473D01*
X2184Y473D01*
X2184Y609D01*
X314Y609D01*
G37*
D02*
G36*
X312Y573D02*
X312Y561D01*
X310Y561D01*
X310Y515D01*
X308Y515D01*
X308Y473D01*
X1904Y473D01*
X1904Y475D01*
X1898Y475D01*
X1898Y477D01*
X1892Y477D01*
X1892Y479D01*
X1890Y479D01*
X1890Y481D01*
X1886Y481D01*
X1886Y483D01*
X1884Y483D01*
X1884Y485D01*
X1880Y485D01*
X1880Y487D01*
X1878Y487D01*
X1878Y489D01*
X1876Y489D01*
X1876Y491D01*
X1874Y491D01*
X1874Y495D01*
X1872Y495D01*
X1872Y497D01*
X1870Y497D01*
X1870Y499D01*
X1868Y499D01*
X1868Y503D01*
X1866Y503D01*
X1866Y507D01*
X1864Y507D01*
X1864Y513D01*
X1862Y513D01*
X1862Y533D01*
X1864Y533D01*
X1864Y539D01*
X1866Y539D01*
X1866Y543D01*
X1868Y543D01*
X1868Y547D01*
X1870Y547D01*
X1870Y549D01*
X1872Y549D01*
X1872Y553D01*
X1874Y553D01*
X1874Y555D01*
X1876Y555D01*
X1876Y557D01*
X1878Y557D01*
X1878Y559D01*
X1880Y559D01*
X1880Y561D01*
X1882Y561D01*
X1882Y563D01*
X1886Y563D01*
X1886Y565D01*
X1888Y565D01*
X1888Y567D01*
X1892Y567D01*
X1892Y569D01*
X1896Y569D01*
X1896Y571D01*
X1902Y571D01*
X1902Y573D01*
X312Y573D01*
G37*
D02*
G36*
X308Y473D02*
X308Y471D01*
X2184Y471D01*
X2184Y473D01*
X308Y473D01*
G37*
D02*
G36*
X308Y473D02*
X308Y471D01*
X2184Y471D01*
X2184Y473D01*
X308Y473D01*
G37*
D02*
G36*
X308Y471D02*
X308Y469D01*
X306Y469D01*
X306Y423D01*
X304Y423D01*
X304Y377D01*
X302Y377D01*
X302Y331D01*
X300Y331D01*
X300Y285D01*
X298Y285D01*
X298Y257D01*
X296Y257D01*
X296Y253D01*
X294Y253D01*
X294Y251D01*
X292Y251D01*
X292Y249D01*
X290Y249D01*
X290Y247D01*
X286Y247D01*
X286Y245D01*
X2184Y245D01*
X2184Y471D01*
X308Y471D01*
G37*
D02*
G36*
X208Y249D02*
X208Y245D01*
X264Y245D01*
X264Y247D01*
X234Y247D01*
X234Y249D01*
X208Y249D01*
G37*
D02*
G36*
X208Y245D02*
X208Y243D01*
X2184Y243D01*
X2184Y245D01*
X208Y245D01*
G37*
D02*
G36*
X208Y245D02*
X208Y243D01*
X2184Y243D01*
X2184Y245D01*
X208Y245D01*
G37*
D02*
G36*
X208Y243D02*
X208Y231D01*
X2132Y231D01*
X2132Y229D01*
X2140Y229D01*
X2140Y227D01*
X2144Y227D01*
X2144Y225D01*
X2148Y225D01*
X2148Y223D01*
X2152Y223D01*
X2152Y221D01*
X2154Y221D01*
X2154Y219D01*
X2158Y219D01*
X2158Y217D01*
X2160Y217D01*
X2160Y215D01*
X2162Y215D01*
X2162Y213D01*
X2164Y213D01*
X2164Y211D01*
X2184Y211D01*
X2184Y243D01*
X208Y243D01*
G37*
D02*
G36*
X208Y231D02*
X208Y229D01*
X214Y229D01*
X214Y227D01*
X218Y227D01*
X218Y225D01*
X222Y225D01*
X222Y223D01*
X224Y223D01*
X224Y221D01*
X228Y221D01*
X228Y219D01*
X230Y219D01*
X230Y217D01*
X232Y217D01*
X232Y215D01*
X234Y215D01*
X234Y213D01*
X236Y213D01*
X236Y209D01*
X238Y209D01*
X238Y207D01*
X240Y207D01*
X240Y203D01*
X242Y203D01*
X242Y201D01*
X244Y201D01*
X244Y197D01*
X246Y197D01*
X246Y191D01*
X248Y191D01*
X248Y185D01*
X250Y185D01*
X250Y91D01*
X248Y91D01*
X248Y83D01*
X246Y83D01*
X246Y77D01*
X244Y77D01*
X244Y73D01*
X242Y73D01*
X242Y69D01*
X240Y69D01*
X240Y65D01*
X238Y65D01*
X238Y63D01*
X236Y63D01*
X236Y61D01*
X234Y61D01*
X234Y41D01*
X2006Y41D01*
X2006Y61D01*
X2004Y61D01*
X2004Y63D01*
X2002Y63D01*
X2002Y67D01*
X2000Y67D01*
X2000Y69D01*
X1998Y69D01*
X1998Y73D01*
X1996Y73D01*
X1996Y79D01*
X1994Y79D01*
X1994Y87D01*
X1992Y87D01*
X1992Y181D01*
X1994Y181D01*
X1994Y191D01*
X1996Y191D01*
X1996Y195D01*
X1998Y195D01*
X1998Y201D01*
X2000Y201D01*
X2000Y203D01*
X2002Y203D01*
X2002Y207D01*
X2004Y207D01*
X2004Y209D01*
X2006Y209D01*
X2006Y211D01*
X2008Y211D01*
X2008Y215D01*
X2010Y215D01*
X2010Y217D01*
X2014Y217D01*
X2014Y219D01*
X2016Y219D01*
X2016Y221D01*
X2018Y221D01*
X2018Y223D01*
X2022Y223D01*
X2022Y225D01*
X2026Y225D01*
X2026Y227D01*
X2030Y227D01*
X2030Y229D01*
X2038Y229D01*
X2038Y231D01*
X208Y231D01*
G37*
D02*
G36*
X171Y2275D02*
X212Y2275D01*
X212Y2251D01*
X171Y2251D01*
X171Y2275D01*
G37*
D02*
G36*
X42Y1948D02*
X68Y1948D01*
X68Y1907D01*
X42Y1907D01*
X42Y1948D01*
G37*
D02*
G36*
X42Y1748D02*
X68Y1748D01*
X68Y1707D01*
X42Y1707D01*
X42Y1748D01*
G37*
D02*
G36*
X42Y1248D02*
X68Y1248D01*
X68Y1207D01*
X42Y1207D01*
X42Y1248D01*
G37*
D02*
G36*
X214Y1548D02*
X238Y1548D01*
X238Y1507D01*
X214Y1507D01*
X214Y1548D01*
G37*
D02*
G36*
X441Y2249D02*
X466Y2249D01*
X466Y2225D01*
X441Y2225D01*
X441Y2249D01*
G37*
D02*
G36*
X441Y2211D02*
X466Y2211D01*
X466Y2185D01*
X441Y2185D01*
X441Y2211D01*
G37*
D02*
G36*
X1858Y686D02*
X1890Y686D01*
X1890Y641D01*
X1858Y641D01*
X1858Y686D01*
G37*
D02*
G36*
X1928Y686D02*
X1962Y686D01*
X1962Y641D01*
X1928Y641D01*
X1928Y686D01*
G37*
D02*
G36*
X1858Y1136D02*
X1890Y1136D01*
X1890Y1091D01*
X1858Y1091D01*
X1858Y1136D01*
G37*
D02*
G36*
X1838Y1547D02*
X1860Y1547D01*
X1860Y1512D01*
X1838Y1512D01*
X1838Y1547D01*
G37*
D02*
G36*
X1838Y1447D02*
X1860Y1447D01*
X1860Y1412D01*
X1838Y1412D01*
X1838Y1447D01*
G37*
D02*
G36*
X1838Y1647D02*
X1860Y1647D01*
X1860Y1612D01*
X1838Y1612D01*
X1838Y1647D01*
G37*
D02*
G36*
X696Y2081D02*
X718Y2081D01*
X718Y2046D01*
X696Y2046D01*
X696Y2081D01*
G37*
D02*
G04 End of Copper0*
M02*