G04 MADE WITH FRITZING*
G04 WWW.FRITZING.ORG*
G04 DOUBLE SIDED*
G04 HOLES PLATED*
G04 CONTOUR ON CENTER OF CONTOUR VECTOR*
%ASAXBY*%
%FSLAX23Y23*%
%MOIN*%
%OFA0B0*%
%SFA1.0B1.0*%
%ADD10C,0.049370*%
%ADD11C,0.081889*%
%ADD12C,0.081917*%
%ADD13C,0.069370*%
%ADD14C,0.090000*%
%ADD15R,0.090000X0.090000*%
%LNMASK1*%
G90*
G70*
G54D10*
X312Y2087D03*
X488Y1815D03*
X488Y1735D03*
X424Y1367D03*
X766Y713D03*
X885Y669D03*
X424Y1495D03*
X184Y1127D03*
X1048Y935D03*
X1579Y1634D03*
X1128Y935D03*
X776Y2263D03*
X2104Y1943D03*
X456Y2215D03*
X1056Y1475D03*
X1337Y1468D03*
G54D11*
X193Y326D03*
X193Y426D03*
X193Y526D03*
X193Y626D03*
G54D12*
X193Y726D03*
G54D11*
X193Y826D03*
X193Y926D03*
X193Y1026D03*
X193Y1126D03*
G54D12*
X193Y1226D03*
G54D11*
X193Y1326D03*
G54D12*
X193Y1426D03*
G54D11*
X193Y1526D03*
X193Y1626D03*
X193Y1726D03*
X193Y1826D03*
G54D12*
X193Y1926D03*
G54D11*
X193Y2026D03*
X193Y2126D03*
X193Y2226D03*
X93Y2226D03*
X93Y2126D03*
X93Y2026D03*
G54D12*
X93Y1926D03*
G54D11*
X93Y1826D03*
X93Y1726D03*
X93Y1626D03*
X93Y1526D03*
G54D12*
X93Y1426D03*
G54D11*
X93Y1326D03*
G54D12*
X93Y1226D03*
G54D11*
X93Y1126D03*
X93Y1026D03*
X93Y926D03*
X93Y826D03*
G54D12*
X93Y726D03*
G54D11*
X93Y626D03*
X93Y526D03*
X93Y426D03*
X93Y326D03*
G54D13*
X1982Y1427D03*
X1982Y1527D03*
X1982Y1627D03*
X1982Y1727D03*
X1982Y1827D03*
X1982Y1927D03*
X1982Y1427D03*
X1982Y1527D03*
X1982Y1627D03*
X1982Y1727D03*
X1982Y1827D03*
X1982Y1927D03*
X1882Y1927D03*
X1882Y1827D03*
X1882Y1727D03*
X1882Y1627D03*
X1882Y1527D03*
X1882Y1427D03*
X578Y2262D03*
X578Y2162D03*
X578Y2062D03*
X578Y1962D03*
X578Y1862D03*
X578Y1762D03*
X578Y1662D03*
X578Y1562D03*
X578Y1462D03*
X578Y1362D03*
X578Y1262D03*
X578Y1162D03*
X578Y1062D03*
X578Y2262D03*
X578Y2162D03*
X578Y2062D03*
X578Y1962D03*
X578Y1862D03*
X578Y1762D03*
X578Y1662D03*
X578Y1562D03*
X578Y1462D03*
X578Y1362D03*
X578Y1262D03*
X578Y1162D03*
X578Y1062D03*
X678Y1062D03*
X678Y1162D03*
X678Y1262D03*
X678Y1362D03*
X678Y1462D03*
X678Y1562D03*
X678Y1662D03*
X678Y1762D03*
X678Y1862D03*
X678Y1962D03*
X678Y2062D03*
X678Y2162D03*
X678Y2262D03*
G54D14*
X1912Y799D03*
X1912Y661D03*
X1912Y523D03*
X1912Y1249D03*
X1912Y1111D03*
X1912Y973D03*
G54D15*
X1912Y799D03*
X1912Y1249D03*
G04 End of Mask1*
M02*